<svg id="Lag_1" data-name="Lag 1" xmlns="http://www.w3.org/2000/svg" viewBox="0 0 1200 900"><defs><style>.cls-1,.cls-6{fill:#003740;}.cls-1{opacity:0.38;}.cls-2{fill:#fcc195;}.cls-3{fill:#022c30;}.cls-4{fill:#023035;}.cls-5{fill:#fdd3af;}.cls-7{fill:#6b3719;}.cls-18,.cls-21,.cls-23,.cls-8{fill:none;stroke-miterlimit:10;}.cls-8{stroke:#edb894;}.cls-9{fill:#fffffa;}.cls-10{fill:#823b25;}.cls-11{fill:#fff;}.cls-12,.cls-22{fill:#dbdbdb;}.cls-13{fill:#c3c7c9;}.cls-14{fill:#f77661;}.cls-15{fill:#2b73b7;}.cls-16{fill:#f0ab01;}.cls-17{fill:#f7aeaa;}.cls-18{stroke:#f08630;stroke-linecap:round;stroke-width:3px;}.cls-19{fill:#00b1b1;}.cls-20{fill:#00878b;opacity:0.71;}.cls-21,.cls-23{stroke:#00c6c7;}.cls-21{stroke-dasharray:4.06 4.06;}.cls-22{opacity:0.62;}.cls-23{stroke-dasharray:4.16 4.16;}</style></defs><ellipse class="cls-1" cx="606.39" cy="718.49" rx="353.42" ry="63.17"/><polygon class="cls-2" points="801.96 673.91 732.92 681.3 733.21 691.62 810.54 700.1 801.96 673.91"/><path class="cls-3" d="M735.15,665.67c-2.9-5.43-8-2.69-9.27.26s-.92,14.54-.81,18.27,1.33,11.57,5.62,11.45a4.13,4.13,0,0,0,4.17-4.31S738.05,671.1,735.15,665.67Z"/><path class="cls-4" d="M842.21,671.88s-46.51-.94-52.23.24,2.12,42.71,7,45.44,51.44-1.45,51.44-1.45Z"/><polygon class="cls-5" points="793.72 691.36 723.25 699.3 723.57 710.56 802.53 719.97 793.72 691.36"/><path class="cls-6" d="M729.78,683.21c-3.07-5.48-8.52-2.7-9.84.28s-1,14.7-.89,18.48,1.41,11.7,6,11.57a4.26,4.26,0,0,0,4.43-4.37S732.85,688.7,729.78,683.21Z"/><path class="cls-5" d="M885,449.33c3.3,38-9.61,78.36-46.5,81.57-29.06,2.52-51.63-7.88-63.14-33.76-.58-1.29-6.79-3.33-7.07-5.6s.91-5.87,1.2-7.19c3.09-13.79-1.81-18.22,0-35s22.8-47.19,53.84-49.89C860.31,396.24,881.74,411.33,885,449.33Z"/><path class="cls-7" d="M820.59,450.67c-7.51-5.4-50.92-15.58-50.66-17.66,1.47-11.44,10.28-23.23,20.68-28.43,17.25-8.62,30.18-12.14,43.59-12.07,4.84,0,20.2-.36,38.22,14,5,4,23.68,6.68,26.56,54,1,15.84-9.26,44.06-22.14,52.57-19,12.55-38.51,24.88-33,9,1.73-4.94,16.32-40.29,17.57-41.25s12.2,1.42,11.39-7.67c-.61-6.88-5.89-6.42-12.11-5.16-8.61,1.75-19.57-2.25-23.61-4.73C830.16,459,824.75,453.67,820.59,450.67Z"/><polyline class="cls-8" points="863.32 476.83 864.77 474.35 867 470.56"/><line class="cls-8" x1="868.8" y1="476.36" x2="864.77" y2="474.35"/><path d="M810.62,472.25a7,7,0,0,0,2.39-1,11.75,11.75,0,0,0,1.81-1.9,4.21,4.21,0,0,1-.57,1.26,3.74,3.74,0,0,1-1,1,3.18,3.18,0,0,1-1.29.57A3.62,3.62,0,0,1,810.62,472.25Z"/><path d="M809.83,471.65a7,7,0,0,0,2.39-1,11.67,11.67,0,0,0,1.81-1.89,4.16,4.16,0,0,1-.57,1.25,3.76,3.76,0,0,1-1,1,3.22,3.22,0,0,1-1.3.57A3.38,3.38,0,0,1,809.83,471.65Z"/><path d="M809.1,471a6.92,6.92,0,0,0,2.38-1,11.31,11.31,0,0,0,1.82-1.89,4.16,4.16,0,0,1-.57,1.25,3.76,3.76,0,0,1-1,1,3.38,3.38,0,0,1-1.3.58A3.77,3.77,0,0,1,809.1,471Z"/><path class="cls-9" d="M811.18,472c1.1,3.3-2.94,7.62-6.24,8.73a6.3,6.3,0,0,1-8-4,6,6,0,0,1,4-7.61C804.31,468,810.07,468.66,811.18,472Z"/><circle class="cls-10" cx="802.47" cy="475.53" r="5.39"/><circle cx="801.74" cy="476.63" r="4.13"/><path class="cls-11" d="M783.7,511.06l13.51-4.46s.31,5-1.19,7.43a17.68,17.68,0,0,1-4.83,4.58,43.88,43.88,0,0,1-3.85-3.4A37.3,37.3,0,0,1,783.7,511.06Z"/><polygon class="cls-5" points="834.75 525.51 833.41 539.01 818.15 539.01 818.15 516.45 834.75 525.51"/><path class="cls-7" d="M814,437.72c-2.85-.38-14.84-.31-30.91-13.58-7.3-6-12.06-26.1-12.06-26.1,1.78-1.79-13.78,18.89-6.75,32.69,5.46,10.71,29.29,12.6,37.1,10.82Z"/><path class="cls-7" d="M817.26,431.37c-2.52-.18-13.06.57-27.94-10.17-6.76-4.88-9.7-21.65-9.7-21.65,1.45-1.67-10.58,16.9-3.61,28.63,5.41,9.1,23.61,9.29,30.38,7.28Z"/><path class="cls-6" d="M857.51,673.91s-66.78,5-72.5,6.17-2.52,39.09,2.4,41.82,44.27-1,51.44-1.45,26.31.21,23.73-25.91S857.51,673.91,857.51,673.91Z"/><path class="cls-12" d="M810.77,539c-2.45,3.25-20.86,125.7-17,132.67s66.3,8.08,66.3.89S843.14,542.38,840.1,539,813.22,535.77,810.77,539Z"/><path class="cls-5" d="M757.47,610.56S734,601,732.79,611.82s22.47,14.59,22.47,14.59"/><path class="cls-12" d="M815.38,563s.54,30.87-15.69,42.32c-17.2,12.13-44,2.83-44.62,4.34-1.32,3-3.81,20.83-.61,18.66,1.67-1.14,44,5.77,61.48-8.47,16.06-13.07,10.71-49.59,10.71-49.59l8-12.39Z"/><polygon class="cls-2" points="408.53 682 477.54 689.72 477.2 700.04 399.83 708.15 408.53 682"/><path class="cls-13" d="M473.35,673.28c2.93-5.41,8-2.65,9.28.31s.84,14.54.72,18.27-1.39,11.57-5.68,11.43a4.15,4.15,0,0,1-4.15-4.34S470.43,678.7,473.35,673.28Z"/><polygon class="cls-5" points="408.21 696.54 478.64 704.81 478.27 716.07 386.41 722.9 408.21 696.54"/><path class="cls-12" d="M472.19,688.69c3.1-5.47,8.54-2.66,9.84.33s.93,14.7.8,18.48-1.46,11.69-6,11.54a4.26,4.26,0,0,1-4.41-4.39S469.1,694.16,472.19,688.69Z"/><polygon class="cls-5" points="346.95 540.79 348.51 554.3 366.32 554.3 366.32 531.73 346.95 540.79"/><path class="cls-14" d="M320.37,641.79s-13.91,36.26-12.73,57.55c.83,15,6.09,22.78,17.63,29,5.62,3,34.05,6.43,57.82,1.24,25-5.46,51.44-38,52.8-44.51,2.66-12.74-50.73-38.74-50.73-38.74Z"/><path class="cls-15" d="M344.76,555.12c-1.14,3.37-22.49,72.39-27.54,90.9-.62,2.26,1.55,6.78,5,6.38,0,0,61.67,2.75,62.91-6.08s-15.44-90.45-17.59-93C365.09,550.4,346.08,551.23,344.76,555.12Z"/><path class="cls-5" d="M304.13,464.62c-3.3,38,9.61,78.36,46.5,81.56,29.06,2.52,51.63-7.88,63.14-33.76.58-1.29,6.78-3.32,7.06-5.6s-.9-5.86-1.2-7.18c-3.08-13.8.9-29.33,0-35-4.93-30.21-26.29-41.89-57.33-44.58C325.36,416.83,307.43,426.61,304.13,464.62Z"/><path class="cls-16" d="M368.58,466c7.51-5.41,58.81,7.07,59.28,6.92,1.68-.54,4.78-18.82-5.19-34.54s-23.28-13.77-25-15.29c-19.9-18-37.52-16.84-44-17.48-7.12-.71-43.22,5.83-54.62,35.19-9.21,23.74-7.76,26.36-8.12,47-.27,15.87,2.37,26,12.66,37.47,6.56,7.32,42.86,26.9,45.75,22.54,1.49-2.25-15.82-9.32-21.28-22.54-5.09-12.33.21-28.67-.4-29.13-1.25-1-12.19,1.42-11.38-7.67.61-6.88,5.88-6.43,12.11-5.16C337,485,348,481,352,478.55,359,474.25,364.41,469,368.58,466Z"/><polyline class="cls-8" points="325.85 492.12 324.39 489.63 322.17 485.84"/><line class="cls-8" x1="320.37" y1="491.64" x2="324.4" y2="489.63"/><path d="M378.55,487.54a3.82,3.82,0,0,1-1.39,0,3.45,3.45,0,0,1-1.3-.58,3.92,3.92,0,0,1-.95-1,4.42,4.42,0,0,1-.57-1.25,11.72,11.72,0,0,0,1.82,1.89A7.06,7.06,0,0,0,378.55,487.54Z"/><path d="M379.34,486.94a3.56,3.56,0,0,1-1.38,0,3.52,3.52,0,0,1-1.3-.57,3.74,3.74,0,0,1-1-1,4.21,4.21,0,0,1-.57-1.26,12.18,12.18,0,0,0,1.81,1.9A7,7,0,0,0,379.34,486.94Z"/><path d="M380.07,486.32a3.56,3.56,0,0,1-1.38,0,3.36,3.36,0,0,1-1.3-.57,3.9,3.9,0,0,1-.95-1,4.21,4.21,0,0,1-.57-1.26,11.75,11.75,0,0,0,1.81,1.9A7,7,0,0,0,380.07,486.32Z"/><path class="cls-9" d="M378,487.25c-1.1,3.3,2.93,7.63,6.24,8.73a6.3,6.3,0,0,0,8-4,5.94,5.94,0,0,0-4-7.6C384.86,483.3,379.1,484,378,487.25Z"/><circle class="cls-15" cx="386.7" cy="490.81" r="5.39"/><circle cx="387.42" cy="491.91" r="4.13"/><path class="cls-11" d="M405.34,526.61l-18.92-6.13s-.3,6.44,1.85,9.69,6.83,6.05,6.83,6.05a54.32,54.32,0,0,0,5.28-4.31A47.1,47.1,0,0,0,405.34,526.61Z"/><ellipse class="cls-17" cx="378.55" cy="507.48" rx="3.62" ry="6.4" transform="translate(-212.21 735.17) rotate(-74.36)"/><path class="cls-16" d="M296.7,442.08s-1.63-12.19-24.55-15.46-30.92,15.79-30.39,34,19.81,36.79,13,45.86-23.41-6.16-23.41-6.16,3.66,24.45,17.63,28.13,22.37,1.41,29.55-17.14-3.25-27.8-1.95-41.53,16.1-12.25,16.1-12.25Z"/><line class="cls-18" x1="297.9" y1="440.46" x2="291.6" y2="459.27"/><path class="cls-19" d="M429.67,516.44l37-107a141.7,141.7,0,0,1,84.07-86.41c28.8-10.81,64-17.43,96.94-22.28,123.41-18.16,126.17-96.84,104.86-136.6-31.35-58.47-186.18-76.61-250.64-62.11-77.24,17.36-133.14,38-148.67,96.28-31,116.37,50.71,115.92,73.69,135.41a43,43,0,0,1,15,36.39Z"/><path class="cls-20" d="M773.82,516.44s-52.57-36.5-78.19-36-61.22,17.59-111.46,27C507,522,478.67,462.28,482.78,403.37S573.66,318.19,626,310.58c56.94-8.29,136.47-33,159,16.56,18.27,40.21-6.47,63.16-31,79.61-36.92,24.78-23.39,61.7-16.14,69.76Z"/><circle class="cls-21" cx="43.66" cy="231.37" r="7.77"/><circle class="cls-21" cx="837.68" cy="215.84" r="7.77"/><circle class="cls-21" cx="928.92" cy="616.53" r="7.77"/><circle class="cls-21" cx="1019.67" cy="306.88" r="7.77"/><circle class="cls-21" cx="112.48" cy="662.56" r="7.77"/><circle class="cls-21" cx="1027.43" cy="468.13" r="7.77"/><circle class="cls-21" cx="286.99" cy="809.1" r="7.77"/><circle class="cls-21" cx="208.73" cy="367.79" r="7.77"/><circle class="cls-21" cx="333.62" cy="97.32" r="7.77"/><circle class="cls-22" cx="258.62" cy="218.22" r="5.39"/><circle class="cls-22" cx="986.54" cy="152.46" r="5.39"/><circle class="cls-22" cx="43.66" cy="491.64" r="10.77"/><circle class="cls-22" cx="897.03" cy="340.92" r="10.77"/><circle class="cls-22" cx="1093.22" cy="572.41" r="5.39"/><circle class="cls-22" cx="375.14" cy="367.79" r="5.39"/><circle class="cls-22" cx="752.51" cy="87.9" r="5.39"/><path class="cls-5" d="M452.55,549.66S475.72,539.32,468.7,531s-26.07,6.14-26.07,6.14"/><path class="cls-15" d="M374.63,584.29S454.94,551.7,457,548.91s-3.18-18.94-7-17.4S364.49,574,364.49,574L353.2,585.17Z"/><path class="cls-5" d="M265.38,543.12s-22.79-11.16-24.71-.4,21.42,16.07,21.42,16.07"/><path class="cls-15" d="M345.37,577.89s-78.16-37.46-81.61-37.12-11.87,15.1-8.13,16.93,89,34.58,89,34.58l15.83.86Z"/><path class="cls-5" d="M751.15,583.29s-22.29-12.12-24.67-1.46,20.72,17,20.72,17"/><path class="cls-12" d="M812.76,543s-4,30.6-21.81,39.51c-18.82,9.44-43.88-3.74-44.77-2.35-1.74,2.72-6.87,20-3.38,18.36,1.83-.87,42.63,12.25,62.05.77,17.83-10.53,18-47.45,18-47.45l9.74-11.05Z"/><circle class="cls-22" cx="235.64" cy="664.38" r="4.33"/><circle class="cls-21" cx="1035.2" cy="801.34" r="7.77"/><circle class="cls-22" cx="506.76" cy="811.48" r="5.39"/><circle class="cls-21" cx="545.3" cy="567.02" r="7.77"/><circle class="cls-22" cx="652.92" cy="624.29" r="5.39"/><path class="cls-23" d="M695.88,519.34a6.63,6.63,0,1,1-6.63-6.63A6.63,6.63,0,0,1,695.88,519.34Z"/></svg>