<svg id="Lag_1" data-name="Lag 1" xmlns="http://www.w3.org/2000/svg" viewBox="0 0 1200 900"><defs><style>.cls-1{fill:#63a9a9;}.cls-2{fill:#fdd3af;}.cls-3{fill:#b46543;}.cls-4{fill:#044e6e;}.cls-5{fill:#fcc195;}.cls-6{fill:#07485e;}.cls-7{fill:#1e3960;}.cls-8{fill:#fcc67e;}.cls-9{fill:#e5736c;}.cls-10{fill:#692604;}.cls-11,.cls-17,.cls-20,.cls-22,.cls-24,.cls-29{fill:none;stroke-miterlimit:10;}.cls-11{stroke:#964e3b;}.cls-11,.cls-17,.cls-22,.cls-24{stroke-width:1.14px;}.cls-12{fill:#fffffa;}.cls-13{fill:#823b25;}.cls-14{fill:#fff;}.cls-15{fill:#fdd43a;}.cls-16{fill:#ef8d0a;}.cls-17{stroke:#e8b185;}.cls-18{fill:#edcc0c;}.cls-19{fill:#0f56aa;}.cls-20{stroke:#f08630;stroke-linecap:round;stroke-width:3.41px;}.cls-21{fill:#e88a1e;}.cls-22{stroke:#efaf84;}.cls-23{fill:#8d3402;}.cls-24{stroke:#a55137;}.cls-25{fill:#000426;}.cls-26{fill:#007869;}.cls-27{fill:#27416b;}.cls-28{fill:#2b73b7;}.cls-29{stroke:#b46543;stroke-width:2.27px;}.cls-30{fill:#f7aeaa;}.cls-31{fill:#e08783;}</style></defs><ellipse class="cls-1" cx="614.05" cy="869.47" rx="552.74" ry="29.48"/><path class="cls-2" d="M876.59,569.87c13.72,7.09,30.26,9.46,26.58,16.27-5.69,10.54-21.42,1.94-29.28-2.25-13-6.93-56.39-43.34-56.39-43.34l3.07-11.29S865.19,564,876.59,569.87Z"/><path class="cls-2" d="M653.11,569.87c-13.71,7.09-30.25,9.46-26.57,16.27,5.69,10.54,21.42,1.94,29.28-2.25,13-6.93,56.39-43.34,56.39-43.34l-3.07-11.29S664.52,564,653.11,569.87Z"/><path class="cls-3" d="M585.87,510.63s15.74-21,6.5-28.65-15,3.71-20.37,17.88-27.43,36.63-35,39.34-39.44-11.42-39.44-11.42l-9.1,17s29.63,10.71,46,10.71S585.87,510.63,585.87,510.63Z"/><path class="cls-3" d="M290.32,509.26s-15.74-21-6.5-28.65,15,3.71,20.37,17.88,27.42,36.62,35,39.34,39.44-11.42,39.44-11.42l9.1,17s-29.63,10.72-46,10.72S290.32,509.26,290.32,509.26Z"/><path class="cls-2" d="M785.72,686.43s16,36.13,25,35.08,45-31.9,45-31.9l-8-5.48s-28.3,20.62-35.43,17.36-11.75-39.16-11.75-39.16Z"/><path class="cls-4" d="M856.29,712.6c5.71,3.87,9.68-1.53,9.51-5.11s-6.25-14.9-8.21-18.55-7.13-10.78-11.53-8.41a4.67,4.67,0,0,0-2.2,6.46S850.59,708.73,856.29,712.6Z"/><path class="cls-2" d="M719.64,678.77s-11.92,37.68-4.5,42.83S770,727.5,770,727.5l-2.39-9.41s-34.27-3.32-37.46-10.48,16.53-37.09,16.53-37.09Z"/><path class="cls-4" d="M753.4,743.68c.73,6.86,7.42,6.41,10.05,4s7.34-14.39,8.86-18.24,3.63-12.4-1-14.24a4.67,4.67,0,0,0-6.35,2.49S752.68,736.83,753.4,743.68Z"/><path class="cls-3" d="M455.84,695.36s3.51,39.36,12.34,41.26,52.92-15.68,52.92-15.68l-5.83-7.77S483,724,477.34,718.59s.3-41.26.3-41.26Z"/><path class="cls-4" d="M509.29,741c2.11,6.56,8.57,4.75,10.64,1.83s4.25-15.6,5-19.67,1-12.89-3.9-13.73a4.67,4.67,0,0,0-5.71,3.73S507.18,734.45,509.29,741Z"/><path class="cls-3" d="M393.19,685.57s-22.39,32.56-16.8,39.65,50.78,21.65,50.78,21.65l.46-9.7s-31.82-10.84-32.78-18.62,26.63-33,26.63-33Z"/><polygon class="cls-5" points="1066.55 780.32 1072.51 856.23 1083.83 856.23 1095.52 771.73 1066.55 780.32"/><path class="cls-6" d="M1055.45,853.3c-6,3-3.2,8.72,0,10.17s15.9,1.46,20,1.46,12.72-1.11,12.72-5.82-4.6-4.7-4.6-4.7S1061.49,850.29,1055.45,853.3Z"/><path class="cls-7" d="M1065.58,736.14s-3.6,44.65-2.48,51,48,5.3,51.15,0,0-56.43,0-56.43Z"/><polygon class="cls-2" points="1085.42 789.89 1091.94 867.38 1104.3 867.38 1117.06 781.12 1085.42 789.89"/><path class="cls-4" d="M1074.51,859.73c-6.11,3.2-3.23,9.26,0,10.8s16.09,1.54,20.22,1.54,12.87-1.17,12.87-6.17a4.67,4.67,0,0,0-4.65-5S1080.62,856.54,1074.51,859.73Z"/><polygon class="cls-5" points="159.66 784.7 153.69 860.61 142.37 860.61 130.68 776.11 159.66 784.7"/><path class="cls-6" d="M171.56,855.43c6,3,3.19,8.72,0,10.17s-15.91,1.45-20,1.45-12.73-1.1-12.73-5.81,4.6-4.71,4.6-4.71S165.52,852.42,171.56,855.43Z"/><polygon class="cls-2" points="143.71 784.88 137.2 862.37 124.84 862.37 112.08 776.11 143.71 784.88"/><path class="cls-4" d="M154.63,854.72c6.1,3.19,3.23,9.25,0,10.79s-16.09,1.54-20.23,1.54-12.87-1.17-12.87-6.17a4.67,4.67,0,0,1,4.65-5S148.52,851.52,154.63,854.72Z"/><polygon class="cls-2" points="120.68 589.33 122.4 604.14 141.93 604.14 141.93 579.39 120.68 589.33"/><ellipse class="cls-8" cx="69.72" cy="774.55" rx="4.24" ry="4.91"/><path class="cls-9" d="M97.51,706.07s-55.42,69.5-46.93,81.07,162,12.71,164.9-1.26-38.22-79.81-38.22-79.81Z"/><ellipse class="cls-8" cx="84.26" cy="752.75" rx="4.51" ry="5.22"/><ellipse class="cls-8" cx="100.02" cy="777.12" rx="4.51" ry="5.22"/><ellipse class="cls-8" cx="130.27" cy="738.67" rx="4.51" ry="5.22"/><ellipse class="cls-8" cx="101.42" cy="731.58" rx="4.51" ry="5.22"/><ellipse class="cls-8" cx="165.88" cy="777.12" rx="4.51" ry="5.22"/><ellipse class="cls-8" cx="117.33" cy="716.62" rx="4.51" ry="5.22"/><ellipse class="cls-8" cx="196.41" cy="777.12" rx="4.51" ry="5.22"/><ellipse class="cls-8" cx="183.43" cy="757.97" rx="4.51" ry="5.22"/><ellipse class="cls-8" cx="134.79" cy="777.12" rx="4.51" ry="5.22"/><ellipse class="cls-8" cx="113.78" cy="754.82" rx="4.51" ry="5.22"/><ellipse class="cls-8" cx="169" cy="721.15" rx="4.51" ry="5.22"/><ellipse class="cls-8" cx="146.44" cy="760.04" rx="4.51" ry="5.22"/><ellipse class="cls-8" cx="160.31" cy="741.65" rx="4.51" ry="5.22"/><ellipse class="cls-8" cx="148.1" cy="718.59" rx="4.51" ry="5.22"/><ellipse class="cls-8" cx="71.03" cy="779.47" rx="4.51" ry="5.22"/><path class="cls-8" d="M118.28,605c-1.25,3.69-23.11,81.67-28.65,102a3.78,3.78,0,0,0,4,4.7l82.17-4.64a3.79,3.79,0,0,0,3.48-5c-6.84-19.63-33.6-96.26-36-99C140.58,599.86,119.73,600.77,118.28,605Z"/><path class="cls-10" d="M67.64,481.06S32.63,596.15,37,613s74,28.71,83.38,12.78-10.59-95.89-10.59-95.89l-28.37-6.25Z"/><path class="cls-2" d="M73.73,505.79c-3.62,41.68,10.53,85.93,51,89.45,31.86,2.76,56.61-8.64,69.24-37,.63-1.42,7.44-3.65,7.75-6.15s-1-6.42-1.32-7.87c-3.38-15.13,1-32.16,0-38.41-5.41-33.12-28.48-58.52-62.52-61.47C97.37,440.8,77.35,464.12,73.73,505.79Z"/><path class="cls-10" d="M144.41,507.26c8.22-5.92,64.48,7.76,65,7.6,1.85-.59,5.24-20.65-5.69-37.88s-25.49-15.14-27.38-16.77c-18.75-16.22-39.77-16-46.87-16.72-7.81-.78-48.77,3.95-61.27,36.14-10.1,26-8.51,28.91-8.9,51.57-.3,17.4,2.59,19.39,13.89,32,7.19,8,45.35,41,48.52,36.27S101,541.38,99.58,540.34s-13.37,1.56-12.49-8.41c.67-7.55,6.46-7,13.29-5.66,9.44,1.92,21.46-2.47,25.88-5.2C133.91,516.36,139.83,510.56,144.41,507.26Z"/><polyline class="cls-11" points="97.55 535.95 95.95 533.23 93.51 529.07"/><line class="cls-11" x1="91.53" y1="535.43" x2="95.95" y2="533.23"/><path d="M155.33,530.93a3.9,3.9,0,0,1-1.52,0,3.65,3.65,0,0,1-1.43-.63,4.33,4.33,0,0,1-1-1.14,5,5,0,0,1-.62-1.38c.33.38.64.76,1,1.11a7.72,7.72,0,0,0,1,1A8,8,0,0,0,155.33,530.93Z"/><path d="M156.2,530.27a3.71,3.71,0,0,1-1.52,0,3.78,3.78,0,0,1-1.43-.62,4.33,4.33,0,0,1-1-1.14,4.7,4.7,0,0,1-.62-1.39c.33.39.64.77,1,1.12a7.63,7.63,0,0,0,1,.95A7.79,7.79,0,0,0,156.2,530.27Z"/><path d="M157,529.59a3.89,3.89,0,0,1-1.52,0,3.65,3.65,0,0,1-1.43-.63,4.33,4.33,0,0,1-1-1.14,4.73,4.73,0,0,1-.61-1.38c.32.38.63.76,1,1.11a7.72,7.72,0,0,0,1,1A8,8,0,0,0,157,529.59Z"/><path class="cls-12" d="M154.72,530.61c-1.21,3.62,3.22,8.37,6.84,9.58a6.92,6.92,0,0,0,8.75-4.37,6.52,6.52,0,0,0-4.44-8.33C162.25,526.28,155.94,527,154.72,530.61Z"/><circle class="cls-13" cx="164.28" cy="534.52" r="5.91"/><circle cx="165.07" cy="535.72" r="4.53"/><path class="cls-14" d="M184.72,573.78,164,567.05s-.33,7.07,2,10.62,7.49,6.65,7.49,6.65a61.91,61.91,0,0,0,5.79-4.74A52.9,52.9,0,0,0,184.72,573.78Z"/><path class="cls-15" d="M731.43,617.76c-2.77,2.59-30.61,56.5-24.88,62.26s45.81,6.54,51.12,4.26,4.38-34.86,8.46-34.88c3.61,0,4.54,34.79,10.44,37.31s41,2.87,43.57-2.43-16.24-64.36-18.9-66.52S734.2,615.16,731.43,617.76Z"/><ellipse class="cls-8" cx="712.49" cy="673.66" rx="3.35" ry="4.01"/><ellipse class="cls-8" cx="788.35" cy="675.76" rx="3.56" ry="4.26"/><ellipse class="cls-8" cx="812.43" cy="675.76" rx="3.56" ry="4.26"/><ellipse class="cls-8" cx="749.65" cy="675.76" rx="3.56" ry="4.26"/><ellipse class="cls-8" cx="715.84" cy="673.66" rx="3.56" ry="4.26"/><ellipse class="cls-2" cx="764.13" cy="442.12" rx="70.95" ry="63.47"/><polygon class="cls-2" points="758.29 500.05 754.96 512.09 748 514.24 760.54 531.62 786.06 514.87 775.79 512.09 773.53 499.55 758.29 500.05"/><line class="cls-16" x1="758.64" y1="425.23" x2="762.54" y2="421.33"/><path class="cls-17" d="M762.63,456.93s-3.69.25-3.47,3.65,2.59,3.25,2.59,3.25"/><path class="cls-18" d="M694.76,458.52s3.61-24.58,8.85-36.25c3.46-7.7,13.29-19.75,13.29-19.75s22.65,19.47,45.64,18.81a254.18,254.18,0,0,0,39-3.9s25.06.61,28.74,16.54a125.14,125.14,0,0,1,3.33,28.4s4-29.42,1.11-40.11c-7.43-27.24-24.41-40.36-41-47.75-12-5.35-56-4.67-69,3.52s-22.48,17.31-28.69,32.14C688.78,427.68,694.76,458.52,694.76,458.52Z"/><path class="cls-2" d="M698.41,446.37s-13.36-3.66-13.36,8,14.32,10.7,14.32,10.7Z"/><path class="cls-2" d="M830.83,446.43s13.36-3.64,13.35,8-14.34,10.69-14.34,10.69Z"/><path d="M730.88,442.47a3.61,3.61,0,0,1-1.33.55,3.52,3.52,0,0,1-1.48,0,3.92,3.92,0,0,1-1.34-.62,4.21,4.21,0,0,1-1-1c.43.21.84.42,1.26.6a6.65,6.65,0,0,0,1.25.44A7.29,7.29,0,0,0,730.88,442.47Z"/><path d="M794.23,442.47a7.29,7.29,0,0,0,2.68,0,6.65,6.65,0,0,0,1.25-.44c.42-.18.83-.39,1.26-.6a4.21,4.21,0,0,1-1,1A4,4,0,0,1,797,443a3.68,3.68,0,0,1-2.81-.54Z"/><path class="cls-12" d="M795.83,444.21c-.29,3.6-5.91,6.08-9.51,5.79s-8.47-1.66-8.18-5.26,2.69-7,9.15-7.4S796.12,440.61,795.83,444.21Z"/><circle class="cls-19" cx="786.06" cy="444.06" r="5.6"/><circle cx="785.72" cy="444.97" r="3.67"/><path class="cls-12" d="M729.12,444.21c.29,3.6,5.91,6.08,9.51,5.79s8.47-1.66,8.18-5.26-2.69-7-9.15-7.4S728.83,440.61,729.12,444.21Z"/><circle class="cls-19" cx="738.89" cy="444.06" r="5.6"/><circle cx="739.23" cy="444.97" r="3.67"/><path class="cls-18" d="M831.57,411.44s2.44-13.26,27.72-15.59,33,19,31.46,38.84-23.7,39.21-16.69,49.52,26-5.48,26-5.48-5.34,26.58-20.83,29.85-24.58.33-31.44-20.37,5.06-30.27,4.38-45.38-17-14.28-17-14.28Z"/><path class="cls-18" d="M696.56,408.5s-1.88-13.5-27.32-17-34.2,17.7-33.5,37.86,22.21,40.67,14.67,50.78-26-6.68-26-6.68,4.22,27.09,19.73,31.08S669,506,676.8,485.37s-3.77-30.82-2.42-46.06,17.78-13.68,17.78-13.68Z"/><line class="cls-20" x1="697.94" y1="407.09" x2="692.6" y2="428.18"/><line class="cls-20" x1="830.34" y1="409.61" x2="836.22" y2="430.55"/><ellipse class="cls-8" cx="722.95" cy="656.5" rx="3.56" ry="4.26"/><ellipse class="cls-8" cx="734.87" cy="668.64" rx="3.56" ry="4.26"/><ellipse class="cls-8" cx="760.26" cy="644.37" rx="3.56" ry="4.26"/><ellipse class="cls-8" cx="734.87" cy="636.5" rx="3.56" ry="4.26"/><ellipse class="cls-8" cx="748.41" cy="626.37" rx="3.56" ry="4.26"/><ellipse class="cls-8" cx="806.05" cy="660.12" rx="3.56" ry="4.26"/><ellipse class="cls-8" cx="745.6" cy="652.89" rx="3.56" ry="4.26"/><ellipse class="cls-8" cx="796.74" cy="631.7" rx="3.56" ry="4.26"/><ellipse class="cls-8" cx="780.16" cy="655.86" rx="3.56" ry="4.26"/><ellipse class="cls-8" cx="793.68" cy="648.63" rx="3.56" ry="4.26"/><ellipse class="cls-8" cx="780.16" cy="633.56" rx="3.56" ry="4.26"/><ellipse class="cls-8" cx="768.51" cy="623.86" rx="3.56" ry="4.26"/><path class="cls-21" d="M806.52,630.21c-2.87,3.59-80.77,5-82.87,0-1.88-4.44-.41-94.19-.07-113.7a3.79,3.79,0,0,1,3.79-3.72H750a3.77,3.77,0,0,1,3.16,1.77c1.6,2.52,5.48,6.8,13.26,6.64,7.47,0,10.69-3.91,12-6.43a3.8,3.8,0,0,1,3.4-2.1l21.06.11a3.79,3.79,0,0,1,3.78,3.69C807.07,536,809.07,627,806.52,630.21Z"/><path class="cls-21" d="M804.41,513.13s30.12,10.56,30.12,13.44-11.16,23-14,23.11-18.21-5.37-18.21-5.37Z"/><path class="cls-21" d="M726.57,512.88s-30.47,10.81-30.47,13.69,10.63,22.16,14,23.11,18.21-5.37,18.21-5.37Z"/><polyline class="cls-22" points="696.01 458.67 694.56 456.06 692.34 452.07"/><line class="cls-22" x1="690.34" y1="458.05" x2="694.56" y2="456.06"/><polyline class="cls-22" points="834.17 457.71 835.63 455.1 837.85 451.11"/><line class="cls-22" x1="839.85" y1="457.08" x2="835.63" y2="455.1"/><path class="cls-2" d="M1158.9,502c3.62,41.67-10.54,85.93-51,89.44-31.85,2.77-56.6-8.64-69.23-37-.63-1.42-7.44-3.64-7.75-6.14s1-6.43,1.32-7.88c3.38-15.13-2-20,0-38.4s28.48-58.52,62.52-61.48C1135.26,437,1155.28,460.33,1158.9,502Z"/><path d="M1088.22,503.48c-8.23-5.93-55.84-17.08-55.54-19.37,1.61-12.55,11.27-25.47,22.67-31.18,18.91-9.45,33.1-13.3,47.8-13.23,5.31,0,23.12-1.58,39.94,17.27,7.8,8.74,27.94,5.42,31.09,57.25,1.06,17.37-10.15,48.31-24.27,57.65-20.8,13.76-42.23,27.28-36.13,9.91,1.9-5.41,17.89-44.18,19.27-45.23s13.37,1.56,12.49-8.41c-.67-7.55-6.46-7-13.29-5.66-9.44,1.92-21.46-2.46-25.89-5.19C1098.72,512.57,1092.79,506.77,1088.22,503.48Z"/><polyline class="cls-11" points="1135.08 532.16 1136.68 529.44 1139.12 525.28"/><line class="cls-11" x1="1141.09" y1="531.64" x2="1136.68" y2="529.44"/><path d="M1077.3,527.14a7.87,7.87,0,0,0,2.61-1.12,7.63,7.63,0,0,0,1-.95c.33-.35.63-.73,1-1.12a4.4,4.4,0,0,1-.62,1.38,4.06,4.06,0,0,1-1,1.15,3.65,3.65,0,0,1-1.43.62A3.84,3.84,0,0,1,1077.3,527.14Z"/><path d="M1076.43,526.49a8,8,0,0,0,2.61-1.12,7.72,7.72,0,0,0,1-1c.33-.35.64-.73,1-1.11a4.73,4.73,0,0,1-.61,1.38,4.37,4.37,0,0,1-1.05,1.14,3.55,3.55,0,0,1-1.42.63A4.1,4.1,0,0,1,1076.43,526.49Z"/><path d="M1075.63,525.81a7.87,7.87,0,0,0,2.61-1.12,7.63,7.63,0,0,0,1-1c.33-.36.63-.74,1-1.12a4.4,4.4,0,0,1-.62,1.38,4.2,4.2,0,0,1-1,1.15,3.65,3.65,0,0,1-1.43.62A3.84,3.84,0,0,1,1075.63,525.81Z"/><path class="cls-12" d="M1077.9,526.83c1.21,3.62-3.21,8.36-6.83,9.57a6.91,6.91,0,0,1-8.75-4.36,6.53,6.53,0,0,1,4.44-8.34C1070.38,522.49,1076.69,523.21,1077.9,526.83Z"/><circle class="cls-13" cx="1068.35" cy="530.73" r="5.91"/><circle cx="1067.56" cy="531.94" r="4.53"/><path class="cls-14" d="M1047.77,569.7l14.82-4.9s.34,5.45-1.31,8.16a19.18,19.18,0,0,1-5.29,5,47.15,47.15,0,0,1-4.23-3.72A41.43,41.43,0,0,1,1047.77,569.7Z"/><polygon class="cls-2" points="1103.76 585.54 1102.28 600.35 1085.55 600.35 1085.55 575.6 1103.76 585.54"/><path d="M1081,489.28c-3.12-.42-16.27-.35-33.89-14.9-8-6.61-13.22-28.62-13.22-28.62,1.94-2-15.12,20.71-7.41,35.85,6,11.74,32.12,13.81,40.68,11.87Z"/><path d="M1084.58,482.31c-2.77-.19-14.32.63-30.65-11.15-7.41-5.35-10.63-23.74-10.63-23.74,1.59-1.84-11.61,18.53-4,31.39,5.93,10,25.9,10.19,33.31,8Z"/><path class="cls-23" d="M438.25,339.66l8.84-2.53s-8.42,6.41-8.84,16.4S465.48,372,465.48,372L423.91,367l1.2-10.59Z"/><ellipse class="cls-3" cx="437.48" cy="443.7" rx="70.95" ry="63.47"/><path class="cls-24" d="M435.83,455.94s-4.07.27-3.82,4,2.85,3.58,2.85,3.58"/><polygon class="cls-3" points="431.61 497.83 428.28 513.09 418.84 515.74 438.22 537.83 459.31 516.14 449.11 513.08 446.84 497.19 431.61 497.83"/><path d="M404.68,438.13a4.11,4.11,0,0,1-1.48.57,3.69,3.69,0,0,1-1.62,0,4.45,4.45,0,0,1-1.47-.66A4.91,4.91,0,0,1,399,437c.47.24.92.48,1.38.69a8.12,8.12,0,0,0,1.38.49A8,8,0,0,0,404.68,438.13Z"/><path class="cls-12" d="M402.91,440c.32,4,6.51,6.7,10.48,6.38a7.21,7.21,0,0,0,6.6-7.77c-.32-4-3.7-6.5-7.67-6.18S402.59,436.07,402.91,440Z"/><circle class="cls-13" cx="413.67" cy="439.87" r="6.17"/><circle cx="414.92" cy="440.7" r="4.72"/><path d="M474.48,438.13a8,8,0,0,0,3,0,8.12,8.12,0,0,0,1.38-.49c.46-.21.91-.45,1.38-.69A4.73,4.73,0,0,1,479,438a4.45,4.45,0,0,1-1.47.66,3.69,3.69,0,0,1-1.62,0A4.06,4.06,0,0,1,474.48,438.13Z"/><path class="cls-12" d="M476.24,440c-.32,4-6.51,6.7-10.47,6.38a7.21,7.21,0,0,1-6.61-7.77c.32-4,3.7-6.5,7.67-6.18S476.57,436.07,476.24,440Z"/><circle class="cls-13" cx="465.48" cy="439.87" r="6.17"/><circle cx="464.23" cy="440.7" r="4.72"/><path class="cls-23" d="M369.21,461s-2.28-27.54,3.34-40c3.72-8.27,14.27-21.2,14.27-21.2s23.61,12,48.28,11.28,53.24-8.46,53.24-8.46,15,12.75,19,29.84-3.74,34.38-3.74,34.38,12.86-24.06,9.65-45.86c-4.4-30-28.34-40.35-46.12-48.28-12.89-5.74-52.76-5.05-47.91-22s4.77-14.4,4.77-14.4-20.33,11.91-24.66,20.69c-4.69,9.5-4,16.57-4,16.57S371.15,392.08,364.5,408C356.64,426.78,369.21,461,369.21,461Z"/><path class="cls-3" d="M368.74,441.11s-14.71-4-14.72,8.79,15.79,11.8,15.79,11.8Z"/><path class="cls-3" d="M508,443.41s15.18-1.62,13.13,11-17.47,9.12-17.47,9.12Z"/><path class="cls-10" d="M447.09,410.24c-2.78-2.41-15.69-10.72-23.64-36.2-3.61-11.56,14.8-34.38,14.8-34.38,3.15-.68-34.25,11.17-36.36,30.9-1.65,15.3,19.37,31.39,29,34.95Z"/><polyline class="cls-11" points="367.6 454.41 366.14 451.8 363.92 447.81"/><line class="cls-11" x1="361.92" y1="453.79" x2="366.14" y2="451.8"/><polyline class="cls-11" points="509.68 455.99 511.14 453.38 513.36 449.4"/><line class="cls-11" x1="515.36" y1="455.37" x2="511.14" y2="453.38"/><path class="cls-25" d="M404.28,626.8c-2.77,2.6-30.62,56.5-24.89,62.27s45.81,6.54,51.13,4.26,4.38-34.86,8.46-34.88c3.61,0,4.54,34.79,10.44,37.31s41,2.87,43.57-2.43S476.75,629,474.09,626.8,407.05,624.21,404.28,626.8Z"/><path class="cls-26" d="M478.65,631.17c-2.86,3.58-80.76,5-82.87,0-1.89-4.48-.38-95.62-.06-114.15a3.34,3.34,0,0,1,3.34-3.27h23.23a3.33,3.33,0,0,1,2.85,1.59c1.52,2.48,5.4,7,13.36,6.81,7.73,0,10.91-4.18,12.13-6.69a3.31,3.31,0,0,1,3-1.84l21.78.11a3.33,3.33,0,0,1,3.32,3.25C479.17,535.56,481.23,627.94,478.65,631.17Z"/><path class="cls-26" d="M476.09,513.8s30.58,10.85,30.58,13.72-11.16,23-14,23.11-18.21-5.37-18.21-5.37Z"/><path class="cls-26" d="M398.45,513.8s-30.21,10.85-30.21,13.72,10.63,22.16,14,23.11,18.21-5.37,18.21-5.37Z"/><path class="cls-27" d="M1070,746.8s-3.59,44.66-2.48,51,48,5.3,51.15,0,0-56.43,0-56.43Z"/><path class="cls-28" d="M1077.46,600.35c-2.69,3.56-22.87,137.84-18.65,145.48s72.7,8.86,72.7,1S1113,604,1109.62,600.35,1080.15,596.79,1077.46,600.35Z"/><path class="cls-29" d="M235,691.93S391.37,859.36,660.48,840.09,991.75,684.7,991.75,684.7"/><path class="cls-4" d="M405.28,754.81c-2.56,6.4,3.57,9.12,7,8.19s13.21-9.31,16.35-12,9-9.27,5.75-13.06a4.67,4.67,0,0,0-6.78-.77S407.83,748.41,405.28,754.81Z"/><path class="cls-2" d="M1004.07,669s-26.38,8.83-19.61,18.71,29.11-3.94,29.11-3.94"/><path class="cls-28" d="M1078.34,624.75s-77.8,41.94-79.6,45,5.32,18.84,9.08,16.86S1089.75,634,1089.75,634l10.2-12.53Z"/><path class="cls-2" d="M221.4,689.73s24.14,13.83,27,2.2-22.31-19.11-22.31-19.11"/><path class="cls-8" d="M137.91,645.13s82,48,85.83,48,14.34-15.42,10.42-17.76S140,629.47,140,629.47l-17.22-2.37Z"/><circle class="cls-21" cx="785.72" cy="461.72" r="0.54"/><circle class="cls-21" cx="792.74" cy="468.53" r="0.54"/><circle class="cls-21" cx="799.96" cy="461.72" r="0.54"/><circle class="cls-21" cx="736.64" cy="461.18" r="0.54"/><circle class="cls-21" cx="730.34" cy="469.07" r="0.54"/><circle class="cls-21" cx="722.71" cy="461.72" r="0.54"/><ellipse class="cls-30" cx="155.33" cy="552.8" rx="3.97" ry="7.02" transform="translate(-418.88 553.32) rotate(-74.36)"/><circle class="cls-31" cx="765.25" cy="482.35" r="6.3"/><path class="cls-14" d="M449.6,478.05c0,4.75-8.15,8.6-12.9,8.6-8.6,0-12.9-8.6-12.9-8.6h25.8Z"/></svg>