<?xml version="1.0" encoding="UTF-8" standalone="no"?>
<!-- Created with Inkscape (http://www.inkscape.org/) -->

<svg
   width="39.837566mm"
   height="44.808018mm"
   viewBox="0 0 39.837566 44.808018"
   version="1.1"
   id="svg1"
   inkscapeversion="1.3 (1:1.3+202307231459+0e150ed6c4)"
   sodipodidocname="lorenes-house-small.svg"
   xmlnsinkscape="http://www.inkscape.org/namespaces/inkscape"
   xmlnssodipodi="http://sodipodi.sourceforge.net/DTD/sodipodi-0.dtd"
   xmlns="http://www.w3.org/2000/svg"
   xmlnssvg="http://www.w3.org/2000/svg">
  <sodipodinamedview
     id="namedview1"
     pagecolor="#ffffff"
     bordercolor="#666666"
     borderopacity="1.0"
     inkscapeshowpageshadow="2"
     inkscapepageopacity="0.0"
     inkscapepagecheckerboard="0"
     inkscapedeskcolor="#d1d1d1"
     inkscapedocument-units="mm"
     inkscapezoom="6.0079124"
     inkscapecx="78.812733"
     inkscapecy="97.205145"
     inkscapewindow-width="1848"
     inkscapewindow-height="1016"
     inkscapewindow-x="1992"
     inkscapewindow-y="27"
     inkscapewindow-maximized="1"
     inkscapecurrent-layer="layer1" />
  <defs
     id="defs1" />
  <g
     inkscapelabel="Layer 1"
     inkscapegroupmode="layer"
     id="layer1"
     transform="translate(-85.460417,-196.05625)">
    <path
       opacity="0.8"
       d="m 117.63801,210.37612 c -0.0628,-0.22792 -0.16233,-0.32676 -0.25046,-0.44685 -0.11399,-0.1553 -0.21014,-0.26128 -0.21014,-0.26128 0,0 -0.28079,-0.25755 -0.67752,-0.3764 -0.12737,-0.0382 -0.25599,-0.0439 -0.42564,-0.0406 -0.34251,0.006 -0.68502,0.2906 -0.68502,0.2906 0,0 -0.30201,0.33095 -0.3079,0.84978 -0.003,0.29635 0.25224,0.29868 0.25224,0.29868 0,0 0.56693,0.10364 0.85128,0.0813 0.0853,7.4e-4 0.001,-0.11109 0.001,-0.11109 0,0 -0.11363,-0.20698 0.005,-0.40759 0.0433,-0.0739 0.25723,-0.14616 0.25723,-0.14616 0,0 0.22352,-0.0465 0.34055,0.04 0.25349,0.18743 0.2526,0.26159 0.2526,0.26159 0,0 0.0701,0.30054 -0.0471,0.40728 -0.0772,0.0701 -0.12879,0.0731 -0.25706,0.10892 l 0.41993,0.55964 c 0.0284,1.6e-4 0.11952,-0.0213 0.25688,-0.10907 0.17161,-0.1097 0.24297,-0.29433 0.26027,-0.40542 0.0459,-0.29603 0.005,-0.44467 -0.036,-0.59331 z"
       fill="#000000"
       id="path2"
       style="stroke-width:0.166367" />
    <path
       d="m 116.6112,202.21045 c 0,0 -0.0144,0.10031 -0.10686,0.41622 -0.0212,0.0726 -0.078,0.21563 -0.078,0.21563 l -2.97215,-0.67047 0.13861,-0.47388 0.47844,0.0929 c -0.0892,-0.0844 -0.38693,-0.45649 -0.39174,-0.69472 -0.008,-0.42878 0.0202,-0.71699 0.45881,-0.90757 0.3748,-0.16288 0.98044,-0.22966 1.41267,-0.0497 0.53053,0.22083 0.72765,0.44794 0.88481,0.68735 0.23048,0.35113 0.11596,0.87518 0.0198,1.00053 z"
       fill="#dc4c68"
       id="path3"
       style="stroke-width:0.166367" />
    <path
       d="m 97.630333,228.84151 c 0,0 0.0014,0.0829 -0.03227,0.34847 -0.0077,0.061 -0.03507,0.18278 -0.03507,0.18278 l -2.500702,-0.25011 0.0505,-0.39844 0.400683,0.0281 c -0.08358,-0.0597 -0.373994,-0.33235 -0.408995,-0.52536 -0.06299,-0.34723 -0.07749,-0.584 0.253687,-0.78213 0.283035,-0.16943 0.765988,-0.28362 1.140445,-0.18029 0.459498,0.12676 0.649374,0.29169 0.808284,0.47043 0.233065,0.26236 0.208626,0.69912 0.146959,0.81037 z"
       fill="#f9d949"
       id="path4"
       style="stroke-width:0.166367" />
    <path
       d="m 113.35559,205.56245 c 0,0 0.11649,0.0515 0.46506,0.25696 0.0801,0.0472 0.23227,0.15383 0.23227,0.15383 l -1.95284,2.46966 -0.52285,-0.30808 0.29612,-0.4034 c -0.13682,0.0497 -0.70303,0.18066 -0.99434,0.094 -0.52447,-0.156 -0.86376,-0.29229 -0.92745,-0.76736 -0.0544,-0.40599 0.0961,-0.98694 0.4804,-1.31459 0.47149,-0.40207 0.82309,-0.49625 1.17416,-0.54894 0.51502,-0.0773 1.10816,0.22797 1.22358,0.36402 z"
       fill="#78b956"
       id="path5"
       style="stroke-width:0.166367" />
    <path
       d="m 117.88276,206.95317 -0.36463,-0.53415 -0.0635,-0.0495 -2.78627,0.81169 -0.0537,0.10745 0.21265,0.51498 c 0.0601,-0.003 0.18106,0.002 0.18374,0.0439 0.003,0.0523 -0.0442,0.26447 5.3e-4,0.49859 0.0446,0.23408 0.20461,0.48 0.45649,0.55618 0.289,0.0872 0.57656,0.0518 0.87412,-0.0144 0.21353,-0.0475 0.53195,-0.18215 0.78509,-0.48254 0.2815,-0.33422 0.29398,-0.61722 0.28114,-0.82657 -0.0104,-0.16747 -0.11845,-0.29191 -0.17125,-0.3332 z"
       fill="#63a2b5"
       id="path6"
       style="stroke-width:0.166367" />
    <path
       opacity="0.8"
       d="m 113.10852,220.17831 -1.00326,-0.065 -0.11756,0.0226 -1.24427,3.34295 0.0963,0.13654 0.85217,0.19767 c 0.0462,-0.0605 0.15288,-0.17424 0.20996,-0.14383 0.0714,0.0379 0.3104,0.25042 0.65452,0.39083 0.34411,0.14057 0.79954,0.17828 1.10833,-0.007 0.35393,-0.21225 0.54587,-0.51899 0.70553,-0.86018 0.11471,-0.24468 0.20194,-0.65941 0.0175,-1.14101 -0.20515,-0.5359 -0.56621,-0.77003 -0.85163,-0.92193 -0.22834,-0.12148 -0.48129,-0.11403 -0.57923,-0.0951 z"
       fill="#3f8da5"
       id="path7"
       style="stroke-width:0.166367" />
    <path
       opacity="0.8"
       d="m 102.61297,213.11987 -1.23408,-0.34165 -0.15469,-0.001 -2.668775,3.96978 0.07537,0.2 1.000802,0.47291 c 0.07799,-0.0658 0.249316,-0.18433 0.310664,-0.13064 0.07669,0.067 0.305419,0.40123 0.689489,0.67011 0.38408,0.26888 0.94156,0.43428 1.3895,0.27633 0.51358,-0.18122 0.85591,-0.52566 1.16917,-0.92224 0.22477,-0.28455 0.47184,-0.79439 0.40119,-1.45985 -0.0788,-0.74039 -0.45293,-1.13386 -0.75976,-1.40213 -0.24528,-0.21458 -0.56442,-0.27012 -0.6934,-0.27105 z"
       fill="#73c5e7"
       id="path8"
       style="stroke-width:0.166367" />
    <path
       d="m 99.165749,231.40171 -0.189949,-0.93263 -0.0598,-0.10039 -4.477114,-0.14553 -0.143124,0.12816 -0.01508,0.83426 c 0.08757,0.0241 0.257149,0.0877 0.234939,0.14864 -0.02779,0.0762 -0.226482,0.3567 -0.307722,0.71154 -0.08122,0.35484 -0.0051,0.78042 0.307438,1.00695 0.358368,0.25957 0.790266,0.34382 1.255916,0.38835 0.333998,0.0321 0.871506,-0.011 1.418376,-0.32117 0.608398,-0.34506 0.801147,-0.74303 0.912267,-1.04776 0.08891,-0.24375 0.01146,-0.47182 -0.03835,-0.55545 z"
       fill="#73c5e7"
       id="path9"
       style="stroke-width:0.166367" />
    <path
       d="m 97.651258,238.54766 -0.190289,0.71712 0.0077,0.0877 3.150581,1.28825 0.14717,-0.0538 0.30246,-0.59253 c -0.0542,-0.0403 -0.15322,-0.13064 -0.11601,-0.16834 0.0465,-0.0472 0.28666,-0.19519 0.46883,-0.42745 0.18214,-0.23227 0.2765,-0.55685 0.13219,-0.80138 -0.16541,-0.28036 -0.44482,-0.45476 -0.76218,-0.60991 -0.22764,-0.11125 -0.62705,-0.22265 -1.126566,-0.14554 -0.5557,0.0858 -0.832686,0.31947 -1.018674,0.50798 -0.148797,0.15066 -0.1732,0.33436 -0.166814,0.40728 z"
       fill="#78b956"
       id="path10"
       style="stroke-width:0.166367" />
    <g
       opacity="0.4"
       id="g17"
       transform="matrix(0.17838961,0,0,0.1551544,83.578976,192.92125)">
      <path
         d="m 178.486,201.317 c -1.071,-0.037 -1.618,0.267 -2.438,0.732 -1.367,0.776 -1.907,2.121 -1.73,3.507 0.212,1.653 1.475,3.891 2.451,6.668 0.977,2.777 2.663,7.785 4.968,11.418 1.78,2.805 0.479,1.663 5.97,5.692 2.064,1.515 4.084,-1.834 6.272,-3.076 2.734,-1.551 2.529,-1.297 3.622,-3.989 0.879,-2.165 0.985,-4.438 -3.541,-6.158 -0.793,-0.301 -1.061,-0.31 -5.04,-1.545 -3.978,-1.234 -4.429,-3.719 -4.917,-5.107 -0.552,-1.568 -1.088,-4.198 -2.184,-6.652 -0.498,-1.114 -1.291,-1.416 -3.433,-1.49 z"
         fill="#dc4c68"
         id="path12" />
      <path
         d="m 204.708,226.079 h 0.001 c 0.267,0.01 0.604,-0.418 0.841,-1.068 0.296,-0.813 0.189,-1.214 -0.47,-1.936 -0.775,-0.85 -0.662,-0.919 -1.836,-1.161 -1.597,-0.329 -1.601,-0.22 -2.41,-0.083 -1.348,0.228 -1.893,0.484 -1.931,1.58 -0.038,1.095 1.022,1.544 3.673,2.321 1.062,0.311 1.062,0.311 2.132,0.347 z"
         fill="#dc4c68"
         id="path13" />
      <path
         d="m 200.941,226.498 c -0.517,-0.566 -2.917,-0.923 -2.936,-0.375 l -0.019,0.548 c -0.019,0.548 0.239,0.831 0.488,1.388 0.249,0.558 1.052,0.585 2.372,1.179 1.32,0.594 1.081,-0.237 1.377,-1.05 0.296,-0.812 -0.766,-1.123 -1.282,-1.69 z"
         fill="#dc4c68"
         id="path14" />
      <path
         d="m 195.797,227.967 c -0.545,0.255 -0.545,0.256 -0.574,1.077 -0.006,0.183 0.041,0.386 0.24,0.832 0.249,0.557 0.775,0.849 1.559,1.425 0.523,0.384 1.071,0.037 1.616,-0.219 0.545,-0.255 0.028,-0.822 -0.221,-1.379 -0.222,-0.498 -0.873,-1.242 -1.282,-1.69 -0.258,-0.283 -0.794,-0.302 -1.338,-0.046 z"
         fill="#dc4c68"
         id="path15" />
      <path
         d="m 192.508,230.048 c -0.277,0.265 -0.286,0.539 -0.037,1.096 0.08,0.277 0.352,0.671 0.766,1.124 0.516,0.566 0.507,0.84 1.578,0.877 0.535,0.019 0.535,0.019 0.822,-0.52 0.287,-0.539 -0.515,-1.447 -0.738,-1.946 -0.249,-0.557 -0.969,-1.13 -1.568,-1.151 -0.268,-0.009 -0.545,0.255 -0.823,0.52 z"
         fill="#dc4c68"
         id="path16" />
      <path
         d="m 189.802,230.778 c -0.286,0.539 -0.047,1.37 0.202,1.927 0.083,0.186 0.258,0.283 0.526,0.293 0.268,0.009 0.517,0.566 1.071,0.036 0.003,-0.091 0.272,-0.1 0.287,-0.538 0.019,-0.548 -0.24,-0.831 -0.489,-1.389 -0.248,-0.557 -1.042,-0.859 -1.597,-0.329 z"
         fill="#dc4c68"
         id="path17" />
    </g>
    <path
       d="m 102.92872,207.29409 c -0.0592,1.35035 0.24047,2.75124 0.39781,3.28295 0.34875,0.0394 1.17755,-1.71771 1.40731,-2.30865 0.28739,-0.73866 0.16608,-0.87544 0.45329,-1.61421 0.72622,-1.30599 -1.59338,-1.44382 -1.83545,-1.00853 -0.48433,0.87056 -0.36374,0.29814 -0.42296,1.64844 z"
       fill="#78b956"
       id="path18"
       style="stroke-width:0.166367" />
    <path
       d="m 112.20248,238.1711 c 0.20765,0.54583 0.86876,0.88531 0.86876,0.88531 0,0 0.68662,0.54242 1.33453,0.35608 0.74085,-0.21334 0.69287,-0.36166 1.11922,-0.61658 0.3541,-0.21163 0.88677,-0.56647 0.88677,-0.56647 0,0 0.33484,-0.34026 1.06071,-0.38944 0.72586,-0.049 0.9592,-0.5283 0.9592,-0.5283 0,0 0.27722,-0.54242 -0.46364,-0.32924 -0.32146,0.0926 -0.75565,0.37734 -1.26407,0.54056 -0.50858,0.16322 -0.61794,0.21209 -0.68216,-0.0139 -0.0576,-0.20201 0.75673,-0.80649 0.75673,-0.80649 l 1.1053,-0.88174 c 0,0 0.52536,-0.28921 0.50948,-0.59238 -0.0138,-0.26516 -0.43491,-0.22808 -0.43491,-0.22808 0,0 -0.23226,0.0501 -0.4945,0.42838 -0.26223,0.37827 -0.94546,0.79362 -1.19271,1.00773 -0.24742,0.21411 -0.54052,-0.11916 -0.27508,-0.31605 0.20355,-0.15112 0.5564,-0.37485 0.91675,-0.89478 0.21853,-0.31512 0.43598,-0.20108 0.90176,-0.73046 0.0635,-0.0722 0.0899,-0.13949 -0.0139,-0.26516 -0.13647,-0.16508 -0.42082,-0.10752 -0.56603,-0.0389 -0.38764,0.18292 -0.78563,0.70548 -0.78563,0.70548 -0.29095,0.27726 -0.6843,0.84466 -0.6843,0.84466 -0.30897,0.44576 -0.45079,0.36524 -0.45079,0.36524 0,0 -0.21746,-0.11404 0.0448,-0.49231 l 0.87412,-1.26078 c 0.34946,-0.50441 0.42207,-0.4664 0.36444,-0.66841 -0.0576,-0.20216 -0.2228,-0.26702 -0.36248,-0.19006 -0.15984,0.088 -0.58191,0.55436 -0.6406,0.78151 -0.0414,0.16058 -0.67039,1.10966 -0.97633,1.55093 -0.30593,0.44141 -0.37836,0.40339 -0.69821,0.5795 -0.31968,0.1761 -0.9931,-0.067 -1.33561,0.0732 -0.55211,0.22621 -0.56799,0.81952 -0.56799,0.81952 0,0 -0.0587,0.22715 0.18642,0.87151 z"
       fill="#78b956"
       id="path19"
       style="stroke-width:0.166367" />
    <path
       d="m 110.91469,235.10307 c 0.17303,0.43459 0.4672,0.84668 0.59261,0.99842 0.11631,-0.025 0.12951,-0.67135 0.11845,-0.88345 -0.0139,-0.26515 -0.0719,-0.29557 -0.0858,-0.56072 0.0448,-0.49215 -0.71035,-0.28657 -0.72533,-0.12258 -0.03,0.32831 -0.073,0.13375 0.10008,0.56833 z"
       fill="#78b956"
       id="path20"
       style="stroke-width:0.166367" />
    <path
       d="m 89.433258,231.69837 c -0.393954,0.23412 -0.533028,0.70067 -0.533028,0.70067 0,0 -0.295806,0.52225 -0.018,0.876 0.317659,0.40449 0.42646,0.346 0.714701,0.55236 0.239399,0.17144 0.628484,0.42217 0.628484,0.42217 0,0 0.338048,0.13421 0.521878,0.56228 0.183831,0.42823 0.61261,0.47353 0.61261,0.47353 0,0 0.48777,0.0591 0.170094,-0.34537 -0.137825,-0.17548 -0.451523,-0.38075 -0.682964,-0.65491 -0.231444,-0.27431 -0.292239,-0.33048 -0.124839,-0.41442 0.149705,-0.0749 0.794067,0.29588 0.794067,0.29588 l 0.923415,0.49122 c 0,0 0.335336,0.25926 0.574004,0.18944 0.2087,-0.0613 0.09522,-0.30782 0.09522,-0.30782 0,0 -0.08621,-0.13033 -0.44014,-0.21318 -0.353925,-0.0827 -0.821306,-0.41225 -1.041386,-0.51869 -0.220079,-0.10658 -0.01271,-0.34987 0.197336,-0.229 0.161085,0.0928 0.409744,0.26097 0.896176,0.37485 0.294931,0.069 0.247301,0.22296 0.762312,0.39844 0.07025,0.024 0.129171,0.0265 0.208716,-0.0611 0.104463,-0.11528 0.002,-0.27525 -0.08172,-0.34926 -0.223132,-0.19735 -0.719214,-0.33342 -0.719214,-0.33342 -0.279054,-0.12025 -0.809942,-0.24453 -0.809942,-0.24453 -0.417111,-0.0976 -0.381166,-0.19921 -0.381166,-0.19921 0,0 0.04761,-0.15392 0.401536,-0.0711 l 1.179746,0.27601 c 0.471894,0.11047 0.456017,0.16183 0.605739,0.0867 0.149721,-0.0749 0.168525,-0.18759 0.07937,-0.25648 -0.102111,-0.079 -0.558128,-0.24064 -0.75095,-0.23071 -0.13636,0.007 -1.018658,-0.18339 -1.431577,-0.28005 -0.412899,-0.0967 -0.397023,-0.14802 -0.601243,-0.30581 -0.204203,-0.1578 -0.144406,-0.61255 -0.324527,-0.79113 -0.290437,-0.28813 -0.766844,-0.17952 -0.766844,-0.17952 0,0 -0.192822,0.01 -0.657847,0.28611 z"
       fill="#73c5e7"
       id="path21"
       style="stroke-width:0.166367" />
    <path
       d="m 91.749452,230.75503 c -0.312146,0.191 -0.582227,0.45057 -0.678257,0.55638 0.0431,0.0652 0.56127,-0.0557 0.728223,-0.10457 0.208716,-0.0613 0.221381,-0.10225 0.430097,-0.16338 0.401538,-0.0711 0.08704,-0.48579 -0.04681,-0.4622 -0.267674,0.0475 -0.121127,-0.0174 -0.433256,0.17377 z"
       fill="#73c5e7"
       id="path22"
       style="stroke-width:0.166367" />
    <path
       d="m 98.2961,228.83499 c 0.234298,0.38323 0.25178,0.52473 0.231213,0.54754 0.06167,-0.0503 0.258965,-0.17796 0.554933,-0.2875 0.369928,-0.13685 0.52409,-0.16431 0.662805,-0.34227 0.123321,-0.12319 0.107908,-0.54754 -0.308292,-0.67073 -0.149133,-0.0442 -0.354513,0.0684 -0.431596,0.12319 -0.0257,-0.0456 -0.09248,-0.30116 -0.447009,-0.36973 0,0 -0.231229,-0.041 -0.416199,0.12334 -0.192823,0.17114 -0.138718,0.39689 0.154145,0.87616 z"
       fill="#78b956"
       id="path1"
       style="stroke-width:0.166367" />
    <path
       d="m 111.18477,210.38512 c -0.46578,0.19937 -0.66985,0.6743 -0.66985,0.6743 0,0 -0.38533,0.51511 -0.11061,0.92131 0.31415,0.46468 0.44223,0.41612 0.74389,0.6684 0.25064,0.20946 0.66075,0.52054 0.66075,0.52054 0,0 0.36499,0.18216 0.52661,0.65553 0.1618,0.47353 0.63774,0.57283 0.63774,0.57283 0,0 0.54053,0.12102 0.2262,-0.34351 -0.13629,-0.20155 -0.46667,-0.45569 -0.69768,-0.77267 -0.23102,-0.31682 -0.29327,-0.38354 -0.097,-0.45165 0.17554,-0.0611 0.85931,0.40743 0.85931,0.40743 l 0.984,0.62884 c 0,0 0.3491,0.31372 0.62364,0.26873 0.24029,-0.0394 0.13861,-0.3131 0.13861,-0.3131 0,0 -0.0831,-0.14755 -0.4713,-0.27742 -0.388,-0.13002 -0.87786,-0.53357 -1.11333,-0.67228 -0.23565,-0.13871 0.0218,-0.3702 0.24475,-0.21753 0.1709,0.11714 0.43224,0.32443 0.96562,0.50286 0.32325,0.1083 0.25403,0.26485 0.8131,0.51185 0.0762,0.0337 0.142,0.0434 0.24011,-0.0394 0.12898,-0.10892 0.0307,-0.28998 -0.0555,-0.37795 -0.22958,-0.23491 -0.77153,-0.438 -0.77153,-0.438 -0.30023,-0.16043 -0.88232,-0.35531 -0.88232,-0.35531 -0.45739,-0.15298 -0.40654,-0.25585 -0.40654,-0.25585 0,0 0.0692,-0.15655 0.45721,-0.0265 l 1.2935,0.43304 c 0.51751,0.17315 0.49432,0.22528 0.66985,0.16431 0.17554,-0.0611 0.20836,-0.1775 0.11542,-0.26082 -0.10614,-0.0956 -0.60046,-0.32086 -0.81756,-0.33374 -0.15359,-0.009 -1.1226,-0.31589 -1.57536,-0.46748 -0.45275,-0.15158 -0.42974,-0.20371 -0.6422,-0.39455 -0.21264,-0.191 -0.0986,-0.66313 -0.28204,-0.87306 -0.29576,-0.3387 -0.84074,-0.28145 -0.84074,-0.28145 0,0 -0.2171,-0.0129 -0.76672,0.22234 z"
       fill="#f9d949"
       id="path23"
       style="stroke-width:0.166367" />
    <path
       d="m 113.87792,209.66939 c -0.36945,0.16384 -0.69893,0.40495 -0.81756,0.50503 0.0416,0.0738 0.63471,0.009 0.82683,-0.0226 0.24029,-0.0394 0.25867,-0.081 0.49896,-0.1204 0.45721,-0.0267 0.14771,-0.50162 -0.005,-0.49277 -0.30486,0.0177 -0.13397,-0.0329 -0.50341,0.13079 z"
       fill="#f9d949"
       id="path24"
       style="stroke-width:0.166367" />
    <path
       d="m 106.76534,220.48489 c 0.22727,0.4681 0.8131,0.66531 0.8131,0.66531 0,0 0.6274,0.38028 1.15044,0.0932 0.59832,-0.32816 0.54355,-0.45693 0.87482,-0.76818 0.27526,-0.25848 0.68555,-0.68081 0.68555,-0.68081 0,0 0.24636,-0.37393 0.84824,-0.5477 0.60171,-0.17377 0.74978,-0.65847 0.74978,-0.65847 0,0 0.17821,-0.55065 -0.41993,-0.22249 -0.25956,0.14243 -0.59458,0.48268 -1.00344,0.72364 -0.40887,0.2408 -0.49557,0.30534 -0.57156,0.10767 -0.068,-0.17672 0.55318,-0.87988 0.55318,-0.87988 l 0.83718,-1.01098 c 0,0 0.41066,-0.36043 0.36766,-0.63815 -0.0376,-0.24282 -0.38603,-0.13406 -0.38603,-0.13406 0,0 -0.18927,0.0875 -0.37123,0.48377 -0.18196,0.39611 -0.71213,0.90114 -0.89783,1.14303 -0.18553,0.24188 -0.46346,-0.0146 -0.26099,-0.24375 0.15538,-0.17579 0.42814,-0.44514 0.67824,-0.98973 0.15163,-0.33017 0.34465,-0.26314 0.6818,-0.8352 0.046,-0.078 0.0615,-0.14491 -0.0376,-0.24281 -0.13022,-0.12863 -0.36213,-0.025 -0.47683,0.0641 -0.30594,0.2377 -0.58726,0.79145 -0.58726,0.79145 -0.21585,0.30798 -0.48879,0.90237 -0.48879,0.90237 -0.21442,0.46702 -0.34108,0.41753 -0.34108,0.41753 0,0 -0.19284,-0.067 -0.0109,-0.46329 l 0.60652,-1.32083 c 0.24261,-0.52831 0.30701,-0.50596 0.23887,-0.68268 -0.068,-0.17688 -0.21246,-0.2076 -0.32146,-0.11172 -0.12505,0.1097 -0.43206,0.61566 -0.45864,0.83613 -0.0189,0.15593 -0.45133,1.14504 -0.66361,1.6074 -0.21228,0.46236 -0.2765,0.44002 -0.52643,0.65941 -0.24992,0.21954 -0.83664,0.11357 -1.10922,0.30394 -0.4392,0.3069 -0.39424,0.85863 -0.39424,0.85863 0,0 -0.0266,0.22047 0.24171,0.77313 z"
       fill="#dc4c68"
       id="path25"
       style="stroke-width:0.166367" />
    <path
       d="m 105.99898,217.76798 c 0.18749,0.37144 0.4738,0.70068 0.59368,0.81891 0.0947,-0.0438 0.0421,-0.64405 0.012,-0.8383 -0.0376,-0.24282 -0.089,-0.26066 -0.12666,-0.50348 -0.0111,-0.46329 -0.62222,-0.13948 -0.61847,0.0149 0.007,0.30891 -0.0478,0.13654 0.1395,0.50798 z"
       fill="#f7db32"
       id="path26"
       style="stroke-width:0.166367" />
    <g
       opacity="0.6"
       id="g28"
       transform="matrix(0.17838961,0,0,0.1551544,83.578976,192.92125)">
      <path
         d="m 127.8,54.1754 c -2.343,1.7307 -2.7,4.7914 -2.7,4.7914 0,0 -1.335,3.5115 0.951,5.6014 2.614,2.3901 3.269,1.9512 5.445,3.0951 1.807,0.9501 4.71,2.316 4.71,2.316 0,0 2.42,0.6526 4.171,3.2742 1.75,2.6217 4.667,2.653 4.667,2.653 0,0 3.327,0.0839 0.712,-2.3061 -1.134,-1.0369 -3.478,-2.1582 -5.358,-3.769 -1.88,-1.6108 -2.355,-1.9332 -1.34,-2.5689 0.907,-0.5686 5.661,1.4102 5.661,1.4102 l 6.763,2.5791 c 0,0 2.555,1.4529 4.062,0.8628 1.318,-0.5159 0.259,-2.0215 0.259,-2.0215 0,0 -0.735,-0.7793 -3.198,-1.0949 -2.463,-0.3156 -5.985,-2.1368 -7.584,-2.6842 -1.599,-0.5473 -0.512,-2.2245 1.037,-1.5794 1.188,0.4947 3.054,1.4187 6.439,1.8525 2.052,0.263 1.923,1.2739 5.574,2.0842 0.498,0.1106 0.895,0.0915 1.318,-0.5162 0.556,-0.798 -0.324,-1.7577 -0.972,-2.1795 -1.731,-1.1254 -5.207,-1.6947 -5.207,-1.6947 -2.01,-0.5999 -5.705,-1.0733 -5.705,-1.0733 -2.902,-0.372 -2.787,-1.0422 -2.787,-1.0422 0,0 0.13,-1.0107 2.593,-0.6951 l 8.21,1.0521 c 3.284,0.4208 3.241,0.7577 4.149,0.189 0.907,-0.5687 0.895,-1.2986 0.215,-1.6847 -0.777,-0.4422 -4.018,-1.2 -5.293,-1.0209 -0.902,0.1266 -7.022,-0.5573 -9.896,-0.9255 -2.873,-0.3683 -2.83,-0.7052 -4.386,-1.5894 -1.556,-0.8842 -1.713,-3.8222 -3.133,-4.8538 -2.291,-1.6634 -5.337,-0.6838 -5.337,-0.6838 0,0 -1.275,0.1792 -4.04,2.2221 z"
         fill="#dc4c68"
         id="path27" />
      <path
         d="m 154.259,40.0774 c -0.286,7.1145 1.147,14.6146 1.899,17.4754 1.671,0.3228 5.643,-8.6887 6.745,-11.7352 1.377,-3.8082 0.797,-4.5707 2.173,-8.3795 3.481,-6.6615 -7.628,-8.1512 -8.789,-5.931 -2.321,4.4404 -1.742,1.4558 -2.028,8.5703 z"
         fill="#3f8da5"
         id="path28" />
    </g>
    <path
       d="m 118.22705,212.33727 c 0.21229,0.21194 0.53731,0.77298 0.40388,1.08251 -0.0535,0.12397 -0.2278,0.39068 -0.71499,0.41939 -0.30451,0.0178 -0.63649,-0.038 -0.87749,-0.35065 -0.44437,-0.57625 -0.59244,-0.92069 -0.79313,-1.6254 -0.20086,-0.70487 0.563,-0.15888 1.25462,0.0267 0.24029,0.0644 0.42956,0.15065 0.72711,0.44746 z"
       fill="#78b956"
       id="path29"
       style="stroke-width:0.166367" />
    <path
       d="m 118.51462,213.94219 c 0.25545,-0.11559 0.49075,-0.5193 0.5275,-0.42078 0.29826,0.18774 0.72158,0.43272 0.78206,0.59502 0.0184,0.0492 0.12987,0.18091 0.0722,0.36042 -0.0574,0.17936 -0.35856,0.37315 -0.50912,0.46996 -0.15056,0.097 -0.24493,0.17796 -0.45043,0.12723 -0.20569,-0.0509 -0.22406,-0.10008 -0.33537,-0.2318 -0.05,-0.0588 -0.38925,-0.54273 -0.51912,-0.7238 -0.12969,-0.18091 0.11274,-0.0316 0.43224,-0.17625 z"
       fill="#78b956"
       id="path30"
       style="stroke-width:0.166367" />
    <path
       d="m 120.38111,214.77506 c 0.0392,-0.22855 0.0589,-0.34289 0.002,-0.32691 -0.0248,-0.0112 -0.18017,0.0507 -0.22513,0.0634 -0.11274,0.0318 -0.0576,0.17952 -0.30237,0.35733 v 0 c -0.24492,0.1778 -0.24492,0.1778 -0.45168,0.2906 -0.20693,0.1128 -0.15056,0.097 -0.15181,0.2605 -0.001,0.16338 0.10454,0.11327 0.28025,0.0839 0.17589,-0.0292 0.41369,-0.22544 0.50806,-0.30643 0.0942,-0.081 0.30112,-0.19379 0.34019,-0.42248 z"
       fill="#78b956"
       id="path31"
       style="stroke-width:0.166367" />
    <path
       d="m 120.37754,215.26565 c 0.0928,-0.10255 0.17126,-0.37469 0.246,-0.34133 0.22388,0.0999 0.78081,0.75854 0.79919,0.80773 0.0184,0.0493 3.16035,3.13303 3.53122,3.62658 0.37087,0.4937 0.48504,0.77919 0.12612,0.67151 -0.28043,-0.0841 -0.20568,-0.0507 -0.52268,-0.2332 -0.317,-0.18246 -2.86779,-2.18209 -3.05385,-2.34718 -0.14896,-0.13203 -1.2771,-1.19872 -1.82261,-1.71554 -0.0187,0.005 0.008,-0.013 0.2633,-0.12878 0.26313,-0.12862 0.30113,-0.19363 0.43331,-0.33979 z"
       fill="#78b956"
       id="path32"
       style="stroke-width:0.166367" />
    <path
       d="m 107.63107,196.06746 c 0.28364,0.002 0.90586,0.13475 1.08015,0.37525 0.0696,0.0962 0.18766,0.33523 -0.0532,0.61153 -0.15056,0.1727 -0.37462,0.31985 -0.75406,0.27805 -0.69893,-0.077 -1.05321,-0.18594 -1.7227,-0.46356 -0.6695,-0.27761 0.17839,-0.38802 0.70017,-0.65672 0.18143,-0.0934 0.3525,-0.14755 0.7496,-0.14455 z"
       fill="#73c5e7"
       id="path33"
       style="stroke-width:0.166367" />
    <path
       d="m 109.06389,196.79027 c 0.0462,-0.19993 -0.14752,-0.54628 -0.0494,-0.51216 0.31075,-0.057 0.73497,-0.14966 0.89676,-0.0934 0.0492,0.0171 0.21425,0.0294 0.32592,0.15821 0.11167,0.12877 0.10293,0.39573 0.0985,0.52921 -0.004,0.13348 0.009,0.22816 -0.14253,0.31047 -0.15163,0.0823 -0.20087,0.0652 -0.36588,0.0529 -0.0738,-0.006 -0.64256,-0.0883 -0.8568,-0.11768 -0.21425,-0.0294 0.0357,-0.0776 0.0935,-0.32752 z"
       fill="#73c5e7"
       id="path34"
       style="stroke-width:0.166367" />
    <path
       d="m 110.73683,196.24653 c -0.16073,-0.14584 -0.241,-0.21876 -0.25884,-0.17996 -0.0223,0.007 -0.0571,0.12419 -0.0714,0.15523 -0.0357,0.0776 0.11167,0.1288 0.12077,0.35694 v 0 c 0.009,0.22815 0.009,0.22815 -0.0132,0.40043 -0.0221,0.17229 -0.004,0.13348 0.12505,0.22346 0.12951,0.09 0.14682,0.006 0.21853,-0.10405 0.0719,-0.11002 0.0444,-0.34457 0.031,-0.43924 -0.0134,-0.0947 0.009,-0.26696 -0.15199,-0.41281 z"
       fill="#73c5e7"
       id="path35"
       style="stroke-width:0.166367" />
    <path
       d="m 111.12519,196.51647 c -0.0314,-0.10563 -0.20533,-0.29637 -0.13843,-0.31813 0.20068,-0.0652 1.02627,-0.003 1.07533,0.0136 0.0491,0.0171 4.20339,0.0204 4.7969,0.0916 0.5935,0.0712 0.88249,0.16611 0.6026,0.29937 -0.21871,0.10405 -0.15181,0.0823 -0.46846,0.15224 -0.31682,0.0699 -3.28843,0.34246 -3.52052,0.35184 -0.18552,0.008 -1.64493,0.0284 -2.35153,0.038 -0.006,0.0129 -0.006,-0.0112 0.0401,-0.21111 0.04,-0.21109 0.009,-0.26696 -0.036,-0.41749 z"
       fill="#73c5e7"
       id="path36"
       style="stroke-width:0.166367" />
    <path
       d="m 94.130881,213.59619 c -0.237863,0.18727 -0.871559,0.47648 -1.226891,0.36462 -0.142141,-0.0447 -0.449473,-0.19255 -0.49084,-0.61519 -0.02584,-0.26407 0.03182,-0.55313 0.383965,-0.76646 0.648928,-0.39332 1.038924,-0.52629 1.838787,-0.70952 0.799882,-0.1834 0.191108,0.48687 -0.0079,1.08964 -0.0692,0.20946 -0.164083,0.37486 -0.497083,0.63691 z"
       fill="#73c5e7"
       id="path37"
       style="stroke-width:0.166367" />
    <path
       d="m 92.306454,213.86663 c 0.136415,0.22047 0.600747,0.41953 0.489217,0.45258 -0.208716,0.26144 -0.480456,0.6321 -0.664395,0.68687 -0.05576,0.0164 -0.203953,0.11497 -0.40951,0.0672 -0.205542,-0.0476 -0.431829,-0.30658 -0.544981,-0.43598 -0.113135,-0.1294 -0.207163,-0.21023 -0.153005,-0.38944 0.05416,-0.1792 0.109941,-0.1958 0.258113,-0.29417 0.06627,-0.0441 0.61184,-0.34491 0.815775,-0.45988 0.203953,-0.11497 0.03826,0.0973 0.208786,0.37284 z"
       fill="#73c5e7"
       id="path38"
       style="stroke-width:0.166367" />
    <path
       d="m 91.39039,215.49808 c 0.261321,0.031 0.391975,0.0465 0.372851,-0.002 0.01221,-0.0217 -0.0612,-0.15577 -0.07649,-0.19472 -0.03826,-0.0973 -0.205558,-0.0476 -0.412724,-0.25787 v 0 c -0.207163,-0.21023 -0.207163,-0.21023 -0.339439,-0.38835 -0.132256,-0.17827 -0.113135,-0.12955 -0.299569,-0.12846 -0.186434,9.5e-4 -0.127264,0.0922 -0.0908,0.24436 0.03646,0.15237 0.264534,0.35639 0.358563,0.43707 0.09401,0.0808 0.226287,0.25896 0.487611,0.29014 z"
       fill="#73c5e7"
       id="path39"
       style="stroke-width:0.166367" />
    <path
       d="m 90.831102,215.50118 c 0.118504,0.0791 0.430223,0.14398 0.393581,0.20915 -0.109924,0.1958 -0.850813,0.6878 -0.906576,0.7044 -0.05578,0.0166 -3.514828,2.78425 -4.070888,3.11255 -0.556076,0.32846 -0.879513,0.43117 -0.76324,0.11807 0.0908,-0.24437 0.05416,-0.1792 0.256508,-0.45677 0.20233,-0.27757 2.436088,-2.518 2.620917,-2.68169 0.147849,-0.13095 1.343667,-1.12409 1.923093,-1.60445 -0.0064,-0.0162 0.015,0.007 0.1514,0.22683 0.1514,0.22684 0.226287,0.25896 0.395205,0.37191 z"
       fill="#73c5e7"
       id="path40"
       style="stroke-width:0.166367" />
    <path
       d="m 109.68505,226.22374 c -0.29845,-0.001 -0.94279,-0.1477 -1.10709,-0.41752 -0.0658,-0.10798 -0.17108,-0.37656 0.10418,-0.68873 0.17215,-0.19502 0.41957,-0.36166 0.81542,-0.31636 0.72943,0.0835 1.09371,0.2045 1.7764,0.51403 0.68252,0.30938 -0.21835,0.43753 -0.78884,0.74241 -0.19819,0.10597 -0.38246,0.16773 -0.80007,0.16617 z"
       fill="#dc4c68"
       id="path41"
       style="stroke-width:0.166367" />
    <path
       d="m 108.2342,225.41647 c -0.0646,0.22529 0.11221,0.61426 0.0116,0.5764 -0.33163,0.0655 -0.78527,0.17176 -0.95117,0.10923 -0.0503,-0.0191 -0.22317,-0.0323 -0.33038,-0.17672 -0.10739,-0.14445 -0.0771,-0.44498 -0.0619,-0.59517 0.0152,-0.15035 0.008,-0.25678 0.17446,-0.35018 0.16608,-0.0934 0.21639,-0.0743 0.38925,-0.0611 0.0772,0.006 0.66932,0.0963 0.8923,0.12846 0.22317,0.0323 -0.0435,0.0877 -0.12416,0.36911 z"
       fill="#dc4c68"
       id="path42"
       style="stroke-width:0.166367" />
    <path
       d="m 106.43068,226.03616 c 0.1577,0.16353 0.23655,0.24515 0.25831,0.20139 0.0241,-0.008 0.0697,-0.13995 0.0872,-0.17501 0.0437,-0.0875 -0.10722,-0.14445 -0.0988,-0.40123 v 0 c 0.008,-0.25678 0.008,-0.25678 0.0455,-0.45088 0.0369,-0.19394 0.0152,-0.15019 -0.11399,-0.25089 -0.12916,-0.10069 -0.15395,-0.006 -0.23833,0.11808 -0.0844,0.12412 -0.0739,0.38804 -0.0673,0.49463 0.007,0.10644 -0.0303,0.30053 0.12737,0.46391 z"
       fill="#dc4c68"
       id="path43"
       style="stroke-width:0.166367" />
    <path
       d="m 106.04322,225.73408 c 0.0248,0.11869 0.19284,0.33265 0.12077,0.35747 -0.21638,0.0743 -1.08033,0.009 -1.13063,-0.0104 -0.0503,-0.0191 -4.42187,-0.004 -5.040847,-0.0815 -0.618976,-0.0774 -0.915601,-0.18293 -0.610502,-0.3342 0.238239,-0.11823 0.1661,-0.0934 0.504967,-0.17347 0.338882,-0.0802 3.487532,-0.40045 3.732462,-0.41208 0.19605,-0.009 1.73341,-0.0396 2.47766,-0.0535 0.007,-0.0146 0.006,0.0126 -0.0587,0.23785 -0.0589,0.23785 -0.0303,0.30053 0.005,0.46981 z"
       fill="#dc4c68"
       id="path44"
       style="stroke-width:0.166367" />
    <path
       d="m 90.159323,221.20155 c -0.01346,0.29045 -0.235101,0.90455 -0.6026,1.03985 -0.147012,0.0541 -0.510231,0.13219 -0.916496,-0.16462 -0.253918,-0.18541 -0.466809,-0.44173 -0.390333,-0.8231 0.140908,-0.703 0.317302,-1.04651 0.758404,-1.68295 0.441124,-0.63661 0.576307,0.25274 0.960985,0.83612 0.133722,0.20294 0.208877,0.38804 0.19004,0.7947 z"
       fill="#dc4c68"
       id="path45"
       style="stroke-width:0.166367" />
    <path
       d="m 89.022,222.54053 c 0.298588,0.0835 0.825766,-0.0529 0.770981,0.0416 0.07437,0.32892 0.19821,0.78058 0.107872,0.93651 -0.0274,0.0472 -0.05193,0.21426 -0.249388,0.30549 -0.197441,0.0914 -0.598052,0.0343 -0.798347,0.006 -0.200315,-0.0285 -0.342974,-0.0318 -0.461101,-0.20216 -0.11813,-0.17021 -0.09075,-0.21753 -0.0662,-0.38463 0.01098,-0.0748 0.155771,-0.64296 0.207699,-0.85738 0.05193,-0.21427 0.115276,0.0506 0.488486,0.15484 z"
       fill="#dc4c68"
       id="path46"
       style="stroke-width:0.166367" />
    <path
       d="m 89.778174,224.35398 c 0.224824,-0.13855 0.337246,-0.20791 0.279609,-0.2332 -0.01009,-0.024 -0.184438,-0.0808 -0.230551,-0.10101 -0.115277,-0.0506 -0.197442,0.0912 -0.540412,0.0594 v 0 c -0.342974,-0.0316 -0.342974,-0.0316 -0.600906,-0.0855 -0.257951,-0.0538 -0.200314,-0.0285 -0.340119,0.088 -0.139821,0.11652 -0.01427,0.14941 0.148367,0.24282 0.162655,0.0936 0.515886,0.10767 0.658561,0.11093 0.142659,0.003 0.400611,0.0571 0.625434,-0.0814 z"
       fill="#dc4c68"
       id="path47"
       style="stroke-width:0.166367" />
    <path
       d="m 89.358727,224.70354 c 0.159765,-0.0132 0.452538,-0.15733 0.482776,-0.0847 0.09075,0.21753 -0.03193,1.05288 -0.05933,1.10021 -0.02737,0.0473 -0.182545,4.30646 -0.310933,4.90226 -0.128387,0.59563 -0.28134,0.87491 -0.471358,0.56398 -0.148387,-0.24297 -0.11813,-0.17036 -0.211732,-0.50782 -0.09358,-0.33746 -0.395506,-3.43357 -0.401215,-3.67312 -0.0046,-0.19178 0.01672,-1.69196 0.02792,-2.41809 -0.01921,-0.009 0.017,-0.004 0.315571,0.079 0.315588,0.0791 0.400608,0.0571 0.628305,0.0383 z"
       fill="#dc4c68"
       id="path48"
       style="stroke-width:0.166367" />
    <path
       d="m 122.37015,221.01707 c -0.006,0.27695 -0.19623,0.8729 -0.53017,1.02123 -0.13362,0.0593 -0.46488,0.15282 -0.8436,-0.10783 -0.23673,-0.16291 -0.43742,-0.39534 -0.37552,-0.76212 0.11435,-0.67617 0.26866,-1.01238 0.65951,-1.64138 0.39067,-0.629 0.53357,0.20977 0.89873,0.74428 0.12683,0.18587 0.19962,0.35794 0.19105,0.74582 z"
       fill="#73c5e7"
       id="path49"
       style="stroke-width:0.166367" />
    <path
       d="m 121.35619,222.35125 c 0.27543,0.0635 0.75583,-0.0943 0.70767,-0.001 0.0751,0.30907 0.19837,0.73202 0.1188,0.88516 -0.0241,0.0464 -0.043,0.20651 -0.22209,0.30394 -0.1791,0.0973 -0.54748,0.0644 -0.73175,0.048 -0.18428,-0.0165 -0.31504,-0.012 -0.42707,-0.16773 -0.11185,-0.15577 -0.0878,-0.20216 -0.0689,-0.36244 0.009,-0.0715 0.12916,-0.61984 0.17215,-0.8265 0.043,-0.20667 0.10685,0.0419 0.45115,0.12117 z"
       fill="#73c5e7"
       id="path50"
       style="stroke-width:0.166367" />
    <path
       d="m 122.08794,224.03591 c 0.20319,-0.14367 0.30487,-0.21566 0.25135,-0.23661 -0.01,-0.0225 -0.17072,-0.067 -0.21335,-0.0838 -0.10686,-0.042 -0.1791,0.0973 -0.49414,0.0853 v 0 c -0.31522,-0.012 -0.31522,-0.012 -0.55283,-0.0493 -0.23744,-0.0375 -0.1841,-0.0166 -0.30986,0.10178 -0.12559,0.11823 -0.01,0.1429 0.14128,0.22312 0.1511,0.0804 0.47523,0.0748 0.60599,0.0703 0.13094,-0.004 0.36855,0.0331 0.57156,-0.11078 z"
       fill="#73c5e7"
       id="path51"
       style="stroke-width:0.166367" />
    <path
       d="m 121.711,224.3909 c 0.14611,-0.0211 0.41137,-0.17377 0.44081,-0.10643 0.0878,0.20216 -0.007,1.00338 -0.031,1.04977 -0.0241,0.0464 -0.0755,4.10617 -0.18053,4.67962 -0.1049,0.5736 -0.23923,0.8473 -0.42011,0.56165 -0.14111,-0.22311 -0.11185,-0.15577 -0.2048,-0.47182 -0.0931,-0.31589 -0.4358,-3.2449 -0.44615,-3.47251 -0.008,-0.18215 -0.0207,-1.61035 -0.026,-2.30171 -0.0177,-0.007 0.0155,-0.005 0.29095,0.0583 0.29113,0.0585 0.36855,0.0331 0.57691,0.003 z"
       fill="#73c5e7"
       id="path52"
       style="stroke-width:0.166367" />
    <path
       d="m 110.88668,228.2949 c -0.0109,0.25926 -0.19962,0.81472 -0.51519,0.94893 -0.12612,0.0537 -0.43813,0.13669 -0.78795,-0.11249 -0.2187,-0.15593 -0.40227,-0.37625 -0.33769,-0.71899 0.11934,-0.63148 0.27008,-0.94427 0.64738,-1.5278 0.37747,-0.58354 0.49592,0.20387 0.82808,0.70936 0.11542,0.17579 0.18053,0.33793 0.16537,0.70099 z"
       fill="#8dcfea"
       id="path53"
       style="stroke-width:0.166367" />
    <path
       d="m 109.91285,229.53024 c 0.2567,0.0633 0.70946,-0.0779 0.66254,0.008 0.0648,0.2903 0.17232,0.68811 0.0951,0.83039 -0.0234,0.0431 -0.0441,0.19286 -0.21335,0.28145 -0.16947,0.0888 -0.51394,0.0529 -0.68609,0.0349 -0.17232,-0.018 -0.29488,-0.0157 -0.39674,-0.16291 -0.10204,-0.1474 -0.0787,-0.19053 -0.058,-0.34041 0.009,-0.0669 0.13219,-0.57873 0.17625,-0.77158 0.0441,-0.19286 0.0992,0.0408 0.42029,0.11978 z"
       fill="#8dcfea"
       id="path54"
       style="stroke-width:0.166367" />
    <path
       d="m 110.56736,231.11778 c 0.19284,-0.13173 0.28917,-0.19767 0.23958,-0.21799 -0.009,-0.0213 -0.15859,-0.0652 -0.19837,-0.0815 -0.0992,-0.0408 -0.16947,0.0886 -0.46417,0.0731 v 0 c -0.29488,-0.0155 -0.29488,-0.0155 -0.51662,-0.0538 -0.22191,-0.0383 -0.17232,-0.018 -0.29202,0.0911 -0.11988,0.10892 -0.012,0.13358 0.12808,0.21085 0.14004,0.0773 0.44366,0.0767 0.56621,0.0742 0.12256,-0.002 0.34447,0.036 0.53731,-0.0959 z"
       fill="#8dcfea"
       id="path55"
       style="stroke-width:0.166367" />
    <path
       d="m 110.20773,231.445 c 0.13736,-0.0177 0.38853,-0.15702 0.41475,-0.0936 0.0785,0.19053 -0.0248,0.93946 -0.0482,0.9826 -0.0234,0.0431 -0.14575,3.84379 -0.25439,4.37938 -0.10881,0.53559 -0.23957,0.79005 -0.40369,0.52008 -0.12808,-0.21086 -0.10186,-0.1474 -0.18321,-0.44452 -0.0813,-0.29712 -0.34893,-3.04459 -0.35446,-3.25793 -0.004,-0.17067 0.01,-1.5081 0.0178,-2.15556 -0.0166,-0.007 0.0144,-0.005 0.27133,0.0587 0.27133,0.0588 0.34447,0.036 0.53999,0.0108 z"
       fill="#8dcfea"
       id="path56"
       style="stroke-width:0.166367" />
    <path
       d="m 101.8277,228.21515 c -0.0143,0.25911 -0.21068,0.8127 -0.52793,0.94365 -0.12691,0.0523 -0.43994,0.13219 -0.78643,-0.12071 -0.21657,-0.15795 -0.39718,-0.38028 -0.32783,-0.72224 0.12782,-0.63024 0.28272,-0.94148 0.668,-1.52114 0.3853,-0.57965 0.49312,0.20884 0.81827,0.71775 0.1131,0.17703 0.17608,0.33978 0.15592,0.70269 z"
       fill="#78b956"
       id="path57"
       style="stroke-width:0.166367" />
    <path
       d="m 100.83721,229.44041 c 0.25591,0.0659 0.71042,-0.0706 0.66243,0.0152 0.0608,0.29092 0.16305,0.68966 0.0838,0.83116 -0.0239,0.043 -0.0466,0.19255 -0.21722,0.27944 -0.17063,0.0869 -0.51453,0.0475 -0.68648,0.0278 -0.17195,-0.0197 -0.29458,-0.0186 -0.39455,-0.16695 -0.0999,-0.14848 -0.076,-0.1913 -0.0533,-0.34087 0.0101,-0.0669 0.14001,-0.57733 0.1867,-0.76972 0.0467,-0.19255 0.0986,0.0417 0.41854,0.12397 z"
       fill="#78b956"
       id="path58"
       style="stroke-width:0.166367" />
    <path
       d="m 101.4702,231.03462 c 0.19463,-0.12987 0.29185,-0.19472 0.24261,-0.21567 -0.008,-0.0213 -0.15787,-0.0667 -0.19729,-0.0835 -0.0986,-0.0417 -0.17062,0.0869 -0.46519,0.0684 h -2e-5 c -0.29457,-0.0186 -0.29457,-0.0186 -0.51585,-0.0593 -0.22126,-0.0405 -0.17195,-0.0197 -0.29325,0.0881 -0.12131,0.10783 -0.0137,0.13343 0.12528,0.21225 0.13895,0.0787 0.44253,0.0812 0.56516,0.0799 0.12264,-0.001 0.3439,0.0396 0.53855,-0.0903 z"
       fill="#78b956"
       id="path59"
       style="stroke-width:0.166367" />
    <path
       d="m 101.10624,231.35796 c 0.1375,-0.0161 0.39054,-0.15298 0.41588,-0.0892 0.076,0.19131 -0.0375,0.93915 -0.0614,0.98198 -0.0241,0.043 -0.19775,3.84208 -0.31377,4.37659 -0.11603,0.53435 -0.25019,0.78757 -0.41062,0.51589 -0.12526,-0.21225 -0.1,-0.14848 -0.17723,-0.44638 -0.0773,-0.29805 -0.30758,-3.04801 -0.31022,-3.26135 -0.002,-0.17067 0.0304,-1.50794 0.0469,-2.15524 -0.0165,-0.007 0.0147,-0.004 0.27058,0.0616 0.27058,0.0614 0.3439,0.0394 0.53985,0.0161 z"
       fill="#78b956"
       id="path60"
       style="stroke-width:0.166367" />
    <path
       d="m 91.428083,222.14815 c 0.212855,0.74955 0.177016,1.00369 0.132491,1.03689 0.12521,-0.0679 0.510835,-0.22761 1.05164,-0.32303 0.676027,-0.11931 0.94411,-0.11683 1.255615,-0.38385 0.260875,-0.17594 0.429704,-0.92596 -0.203847,-1.27847 -0.227,-0.1263 -0.619101,0.004 -0.771944,0.0751 -0.02169,-0.0884 -0.01539,-0.55902 -0.571775,-0.79516 0,0 -0.364523,-0.14771 -0.746419,0.0802 -0.398129,0.23739 -0.411829,0.65149 -0.145761,1.58832 z"
       fill="#000000"
       id="path61"
       style="stroke-width:0.166367" />
    <path
       d="m 104.84712,222.30749 c 0.0442,0.77112 -0.0467,1.01456 -0.0978,1.03985 0.1379,-0.0458 0.55158,-0.13856 1.10334,-0.14228 0.68966,-0.005 0.95242,0.042 1.3167,-0.16819 0.2947,-0.1294 0.62525,-0.83752 0.0808,-1.28886 -0.19516,-0.16168 -0.60867,-0.0987 -0.77421,-0.0545 -0.002,-0.0906 0.10756,-0.55126 -0.38675,-0.87553 0,0 -0.32521,-0.20558 -0.75013,-0.0455 -0.44294,0.1671 -0.54748,0.57112 -0.492,1.53494 z"
       fill="#dc4c68"
       id="path62"
       style="stroke-width:0.166367" />
    <path
       opacity="0.6"
       d="m 96.428308,225.37691 c -0.342525,0.67523 -0.541466,0.84435 -0.598124,0.84435 0.141928,0.0189 0.545605,0.11389 1.024957,0.34258 0.599175,0.28595 0.803289,0.4363 1.222504,0.41039 0.318888,0.0138 0.954599,-0.45026 0.706351,-1.06328 -0.08894,-0.21969 -0.477834,-0.3401 -0.642969,-0.37206 0.0431,-0.0779 0.36543,-0.42403 0.09788,-0.90796 0,0 -0.179978,-0.31186 -0.626771,-0.35406 -0.465776,-0.0441 -0.755678,0.25616 -1.18383,1.10004 z"
       fill="#4aa4b8"
       id="path63"
       style="stroke-width:0.166367" />
    <path
       d="m 120.3449,239.68944 c 0.45828,0.82341 0.49021,1.12627 0.44882,1.17483 0.12363,-0.10644 0.51912,-0.37687 1.11048,-0.60681 0.73925,-0.28735 1.04661,-0.34351 1.32651,-0.72224 0.24814,-0.26159 0.22637,-1.16971 -0.59939,-1.43937 -0.29595,-0.0967 -0.70714,0.14119 -0.8618,0.25709 -0.0501,-0.0979 -0.17768,-0.6456 -0.88196,-0.79719 0,0 -0.45936,-0.0914 -0.83094,0.25741 -0.38746,0.36337 -0.28453,0.84714 0.28828,1.87628 z"
       fill="#dc4c68"
       id="path64"
       style="stroke-width:0.166367" />
    <path
       d="m 116.66062,239.6145 c -0.0853,0.73435 -0.21443,0.94861 -0.26813,0.96382 0.14165,-0.0202 0.55926,-0.0386 1.09657,0.05 0.67145,0.11047 0.91906,0.1986 1.30848,0.0611 0.30808,-0.0728 0.74746,-0.68516 0.2931,-1.20136 -0.16269,-0.18494 -0.57531,-0.19472 -0.74371,-0.1806 0.0132,-0.0856 0.19659,-0.50177 -0.23012,-0.88981 0,0 -0.28203,-0.24809 -0.72194,-0.16803 -0.45864,0.0836 -0.6274,0.447 -0.73425,1.36489 z"
       fill="#429481"
       id="path65"
       style="stroke-width:0.166367" />
    <path
       d="m 116.05695,220.19072 c -0.0311,0.65056 -0.13166,0.84513 -0.17822,0.86111 0.12363,-0.0242 0.4904,-0.0594 0.96884,-0.006 0.59814,0.0669 0.82148,0.13312 1.15632,-0.006 0.26687,-0.078 0.61705,-0.63753 0.18588,-1.07149 -0.15448,-0.15547 -0.51858,-0.14523 -0.66593,-0.12521 0.006,-0.076 0.14289,-0.45073 -0.25634,-0.77314 0,0 -0.26331,-0.20573 -0.64595,-0.11512 -0.39888,0.0945 -0.52572,0.42233 -0.5646,1.23565 z"
       fill="#348b46"
       id="path66"
       style="stroke-width:0.166367" />
    <path
       d="m 104.25255,215.44982 c -0.031,0.65072 -0.13183,0.84528 -0.17821,0.86127 0.12344,-0.0244 0.49021,-0.0596 0.96883,-0.006 0.59814,0.0669 0.82148,0.13313 1.15614,-0.006 0.26705,-0.0781 0.61723,-0.63753 0.18606,-1.0715 -0.15466,-0.15546 -0.51858,-0.14522 -0.6661,-0.12521 0.007,-0.076 0.14289,-0.45072 -0.25617,-0.77313 0,0 -0.26348,-0.20574 -0.64613,-0.11513 -0.39888,0.0945 -0.52571,0.42233 -0.56442,1.2355 z"
       fill="#dc4c68"
       id="path67"
       style="stroke-width:0.166367" />
    <path
       d="m 102.50362,219.93642 c -0.031,0.65072 -0.13166,0.84528 -0.17822,0.86126 0.12363,-0.0243 0.4904,-0.0596 0.96884,-0.006 0.59814,0.0669 0.82148,0.13312 1.15632,-0.006 0.26687,-0.0781 0.61705,-0.63753 0.18588,-1.0715 -0.15448,-0.15546 -0.51858,-0.14522 -0.6661,-0.12521 0.007,-0.076 0.14306,-0.45072 -0.25617,-0.77313 0,0 -0.26331,-0.20574 -0.64595,-0.11513 -0.39888,0.0945 -0.52572,0.42233 -0.5646,1.2355 z"
       fill="#4aa4b8"
       id="path68"
       style="stroke-width:0.166367" />
    <path
       d="m 112.21604,234.91937 c 0.3764,0.40542 0.43402,0.5688 0.41583,0.59967 0.0596,-0.0714 0.25866,-0.26097 0.57887,-0.44855 0.40031,-0.23459 0.57495,-0.29743 0.69197,-0.53466 0.1131,-0.16958 -0.0161,-0.66685 -0.53891,-0.72969 -0.18731,-0.0226 -0.39995,0.15081 -0.47648,0.23056 -0.0423,-0.0487 -0.18785,-0.33669 -0.62365,-0.34739 0,0 -0.28329,-0.003 -0.45846,0.22761 -0.1825,0.24002 -0.0598,0.49541 0.41083,1.00245 z"
       fill="#000000"
       id="path69"
       style="stroke-width:0.166367" />
    <path
       d="m 109.43816,239.78765 c 0.32948,0.61085 0.34393,0.83148 0.31004,0.86561 0.10025,-0.0738 0.41778,-0.2588 0.88695,-0.40883 0.58637,-0.18758 0.82808,-0.2197 1.05928,-0.48657 0.20229,-0.18292 0.21621,-0.84264 -0.41868,-1.06203 -0.22763,-0.0785 -0.5564,0.0824 -0.68092,0.16214 -0.0358,-0.0725 -0.11666,-0.47369 -0.66093,-0.60386 0,0 -0.35517,-0.0793 -0.65701,0.16322 -0.3145,0.2529 -0.25064,0.60681 0.16127,1.37032 z"
       fill="#73c5e7"
       id="path70"
       style="stroke-width:0.166367" />
    <path
       d="m 114.67086,204.76364 c 0.0314,0.81397 -0.0733,1.06489 -0.12951,1.0886 0.15145,-0.0404 0.6051,-0.11417 1.20752,-0.0864 0.75316,0.0347 1.03894,0.0991 1.44139,-0.10132 0.32467,-0.11917 0.70106,-0.84534 0.11666,-1.35147 -0.20943,-0.18136 -0.66236,-0.13894 -0.84414,-0.10195 0,-0.0953 0.12969,-0.57384 -0.4028,-0.94346 0,0 -0.35072,-0.23506 -0.8181,-0.0909 -0.48736,0.15028 -0.61027,0.5695 -0.57102,1.58695 z"
       fill="#73c5e7"
       id="path71"
       style="stroke-width:0.166367" />
    <path
       d="m 107.94557,208.93365 c 0.0344,0.89415 -0.0806,1.16971 -0.14236,1.19577 0.16644,-0.0444 0.66468,-0.12536 1.32669,-0.095 0.82737,0.0382 1.14116,0.10892 1.58338,-0.11125 0.3566,-0.13095 0.77011,-0.9286 0.12791,-1.48467 -0.22994,-0.19919 -0.72747,-0.15259 -0.92709,-0.11194 -1.8e-4,-0.10472 0.14235,-0.63038 -0.44259,-1.03643 0,0 -0.38514,-0.2582 -0.89872,-0.0999 -0.53535,0.16509 -0.67021,0.6256 -0.62722,1.74332 z"
       fill="#dc4c68"
       id="path72"
       style="stroke-width:0.166367" />
    <path
       d="m 113.68204,232.28175 c 0.82613,1.34301 0.88392,1.83671 0.80953,1.91584 0.22264,-0.17346 0.93387,-0.61379 1.99797,-0.98771 1.33007,-0.46764 1.88326,-0.55902 2.38632,-1.17591 0.44615,-0.42637 0.40548,-1.90669 -1.0814,-2.34733 -0.53267,-0.15795 -1.27245,0.22916 -1.55056,0.41814 -0.0904,-0.15981 -0.32092,-1.05273 -1.58874,-1.30097 0,0 -0.82701,-0.14942 -1.49526,0.4186 -0.69679,0.59207 -0.51073,1.38072 0.52214,3.05934 z"
       fill="#dc4c68"
       id="path73"
       style="stroke-width:0.166367" />
    <path
       d="m 96.840262,236.04145 c 0.473678,0.77267 0.506769,1.05675 0.464101,1.10222 0.127637,-0.0998 0.535453,-0.35314 1.145528,-0.56834 0.76258,-0.26903 1.079756,-0.32148 1.368229,-0.67647 0.25572,-0.2453 0.23246,-1.09709 -0.619993,-1.35062 -0.305456,-0.0908 -0.729577,0.13188 -0.888968,0.24065 -0.05186,-0.092 -0.184009,-0.60573 -0.910894,-0.74847 0,0 -0.474123,-0.086 -0.857321,0.2408 -0.39947,0.34072 -0.292793,0.79439 0.299318,1.76023 z"
       fill="#dc4c68"
       id="path74"
       style="stroke-width:0.166367" />
    <path
       d="m 107.1562,207.03901 c -0.20729,-0.21313 -0.18321,-0.33063 -0.21818,-0.43783 -0.15073,0.0111 -0.39406,0.10721 -0.55175,0.0734 -0.17483,-0.0375 -0.3484,-0.10924 -0.59333,-0.36114 -0.0944,-0.0969 -0.25991,-0.37392 -0.19016,-0.65799 0.0796,-0.3233 0.25688,-0.55452 0.54052,-0.79655 0.28382,-0.24202 0.64434,-0.44076 1.09763,-0.50839 0.62044,-0.0925 0.53231,-0.0933 0.90979,0.29473 0.13183,0.13564 0.16108,0.13979 0.44133,0.24035 0.42528,0.15252 0.42279,0.7194 0.42279,0.7194 0,0 -0.009,0.23955 -0.13005,0.82705 -0.12095,0.5875 -0.65594,0.84839 -0.87696,0.87779 -0.27579,0.0367 -0.52911,0.0608 -0.85163,-0.27084 z"
       fill="#8dcfea"
       id="path75"
       style="stroke-width:0.166367" />
    <path
       d="m 106.69613,207.27775 c 0.0344,-0.0785 0.17732,-0.52937 0.11684,-0.48484 -0.11024,0.14759 -0.20622,0.36445 -0.27293,0.4667 -0.0835,0.12782 -0.11167,0.24106 0.0621,0.41971 0.0753,0.0775 0.19908,-0.08 0.14378,-0.17235 -0.0551,-0.0923 -0.0928,-0.1311 -0.0498,-0.22922 z"
       fill="#8dcfea"
       id="path76"
       style="stroke-width:0.166367" />
    <g
       opacity="0.6"
       id="g78"
       transform="matrix(0.17838961,0,0,0.1551544,83.578976,192.92125)">
      <path
         d="m 79.2458,166.819 c 2.5747,1.237 2.827,2.51 3.5384,3.428 1.227,-0.755 2.9053,-2.751 4.365,-3.088 1.6202,-0.374 3.362,-0.401 6.4049,1.061 1.1703,0.562 3.6417,2.614 4.1556,5.742 0.5848,3.56 -0.012,6.62 -1.4649,10.244 -1.4529,3.623 -3.7205,7.143 -7.28,9.755 -4.8701,3.572 -4.1251,3.203 -8.8123,0.951 -1.6385,-0.787 -1.9005,-0.704 -4.654,-0.507 -4.1766,0.298 -6.3563,-5.359 -6.3563,-5.359 0,0 -0.8512,-2.426 -2.1129,-8.794 -1.2617,-6.368 2.2367,-11.254 3.9847,-12.491 2.1826,-1.544 4.2252,-2.867 8.2318,-0.942 z"
         fill="#dc4c68"
         id="path77" />
      <path
         d="m 82.1973,162.475 c 0.0146,0.929 0.5595,6.031 0.8969,5.328 0.3566,-1.941 0.3239,-4.511 0.4892,-5.815 0.2067,-1.629 0.0057,-2.878 -2.1523,-3.915 -0.9363,-0.45 -1.3678,1.648 -0.544,2.332 0.8238,0.684 1.2919,0.908 1.3102,2.07 z"
         fill="#dc4c68"
         id="path78" />
    </g>
    <g
       opacity="0.6"
       id="g80"
       transform="matrix(0.17838961,0,0,0.1551544,83.578976,192.92125)">
      <path
         d="m 75.3438,149.995 c -1.8818,-0.527 -2.2034,-1.355 -2.7918,-1.888 -0.7368,0.654 -1.6299,2.199 -2.5732,2.6 -1.047,0.444 -2.2172,0.67 -4.4412,0.047 -0.8553,-0.239 -2.7645,-1.327 -3.4828,-3.374 -0.8176,-2.328 -0.7798,-4.461 -0.2321,-7.075 0.5476,-2.614 1.6564,-5.256 3.7437,-7.438 2.8559,-2.987 2.3979,-2.65 5.8236,-1.69 1.1975,0.335 1.3641,0.248 3.1957,-0.212 2.7783,-0.698 4.9199,2.854 4.9199,2.854 0,0 0.8621,1.533 2.4699,5.673 1.6078,4.14 -0.1677,7.848 -1.1982,8.889 -1.2866,1.3 -2.5052,2.435 -5.4335,1.614 z"
         fill="#f7db32"
         id="path79" />
      <path
         d="m 73.8723,153.273 c -0.1204,-0.624 -1.0946,-3.996 -1.2383,-3.483 -0.0093,1.35 0.3186,3.078 0.3623,3.976 0.0547,1.122 0.3387,1.94 1.9159,2.381 0.6843,0.192 0.7254,-1.272 0.0891,-1.635 -0.6364,-0.363 -0.9785,-0.459 -1.129,-1.239 z"
         fill="#f7db32"
         id="path80" />
    </g>
    <path
       d="m 92.631212,229.67391 c -0.298604,-0.0371 -0.363627,-0.14709 -0.463991,-0.21039 -0.100575,0.10628 -0.20825,0.34057 -0.345307,0.41519 -0.152132,0.0829 -0.327311,0.13747 -0.680199,0.0936 -0.135721,-0.0169 -0.449152,-0.13219 -0.598124,-0.40541 -0.169559,-0.31078 -0.20422,-0.61085 -0.16981,-0.98834 0.0344,-0.37764 0.154343,-0.77003 0.433041,-1.11711 0.381327,-0.47508 0.31748,-0.41876 0.861053,-0.35111 0.190018,0.0236 0.213906,0.008 0.486092,-0.0923 0.412847,-0.15221 0.80866,0.30441 0.80866,0.30441 0,0 0.161281,0.19813 0.486396,0.74769 0.325098,0.54971 0.123125,1.1047 -0.01516,1.27103 -0.172644,0.20759 -0.338012,0.39067 -0.802647,0.3328 z"
       fill="#f9d949"
       id="path81"
       style="stroke-width:0.166367" />
    <path
       d="m 92.467701,230.16265 c -0.03029,-0.0852 -0.243663,-0.53932 -0.255972,-0.46453 0.02419,0.18975 0.107249,0.42574 0.130974,0.55079 0.02969,0.15656 0.08875,0.26563 0.338993,0.29682 0.108587,0.0135 0.08713,-0.19286 -0.01736,-0.23134 -0.104464,-0.0383 -0.158767,-0.0452 -0.196638,-0.15174 z"
       fill="#f9d949"
       id="path82"
       style="stroke-width:0.166367" />
    <path
       d="m 112.32272,225.63912 c 0.29951,0.002 0.38032,0.10364 0.48878,0.15485 0.0828,-0.11699 0.15306,-0.36167 0.27668,-0.4515 0.13719,-0.0998 0.3013,-0.17408 0.65541,-0.17145 0.13611,0.001 0.46221,0.079 0.65023,0.33234 0.21424,0.28843 0.29381,0.58183 0.31736,0.95994 0.0235,0.37827 -0.035,0.78105 -0.25653,1.1573 -0.30309,0.51496 -0.24885,0.45181 -0.79419,0.44777 -0.19052,-10e-4 -0.21175,0.0168 -0.46435,0.14771 -0.38318,0.19876 -0.84218,-0.2079 -0.84218,-0.2079 0,0 -0.18891,-0.17781 -0.59243,-0.6847 -0.40352,-0.50705 -0.28917,-1.08065 -0.17821,-1.26141 0.13843,-0.22575 0.27329,-0.42636 0.73943,-0.42295 z"
       fill="#5e9f68"
       id="path83"
       style="stroke-width:0.166367" />
    <path
       d="m 112.40941,225.1358 c 0.0428,0.081 0.32182,0.50643 0.32253,0.43087 -0.0526,-0.18526 -0.17018,-0.40961 -0.21264,-0.53079 -0.053,-0.15158 -0.12773,-0.25306 -0.37872,-0.25492 -0.109,-7.9e-4 -0.0566,0.20124 0.0523,0.22731 0.10864,0.0259 0.16304,0.0264 0.21656,0.12753 z"
       fill="#5e9f68"
       id="path84"
       style="stroke-width:0.166367" />
    <path
       d="m 93.923166,237.45785 c 0.377007,0.003 0.478583,0.13049 0.615051,0.19488 0.104285,-0.14724 0.192856,-0.45522 0.348375,-0.56833 0.172612,-0.12552 0.379204,-0.21924 0.824768,-0.21582 0.17136,0.001 0.581728,0.0994 0.818524,0.41845 0.269491,0.3629 0.369835,0.73217 0.399414,1.20819 0.02959,0.47601 -0.04396,0.9829 -0.322832,1.45659 -0.381575,0.64808 -0.313235,0.56848 -0.99957,0.56352 -0.239934,-0.002 -0.26657,0.0209 -0.584549,0.18587 -0.482329,0.25011 -1.060008,-0.26159 -1.060008,-0.26159 0,0 -0.237721,-0.22389 -0.745596,-0.86203 -0.507859,-0.638 -0.363809,-1.35994 -0.224309,-1.58739 0.174198,-0.28425 0.344042,-0.53668 0.930732,-0.53234 z"
       fill="#dc4c68"
       id="path85"
       style="stroke-width:0.166367" />
    <path
       d="m 94.032232,236.82436 c 0.05384,0.10193 0.405033,0.63737 0.405978,0.54211 -0.06625,-0.23305 -0.214299,-0.51527 -0.267638,-0.66794 -0.06666,-0.19084 -0.160709,-0.31838 -0.476709,-0.32071 -0.137093,-0.001 -0.07105,0.25321 0.06574,0.28595 0.136789,0.0327 0.205327,0.0332 0.272633,0.16059 z"
       fill="#dc4c68"
       id="path86"
       style="stroke-width:0.166367" />
    <path
       opacity="0.6"
       d="m 119.75193,233.32764 c 0.29185,0.92689 0.41904,0.98632 0.59635,1.27894 0.19855,-0.18153 0.55783,-0.71293 0.71588,-1.29492 0.1866,-0.68718 0.14842,-0.41457 0.17732,-1.15931 0.0375,-0.96118 -0.52678,-1.90235 -0.86929,-2.34206 -0.1816,0.38292 -0.57013,0.84668 -0.76458,1.80445 -0.0401,0.19813 -0.1477,0.78601 0.14432,1.7129 z"
       fill="#73c5e7"
       id="path87"
       style="stroke-width:0.166367" />
    <path
       d="m 119.92408,218.49519 c 0.39388,0.33917 0.47951,0.33312 0.6513,0.4183 0.0651,-0.13204 0.13236,-0.46174 0.0747,-0.76243 -0.0678,-0.35484 -0.0209,-0.22327 -0.19088,-0.56352 -0.21924,-0.43909 -0.76814,-0.71495 -1.06855,-0.8234 -0.005,0.21768 -0.10578,0.52473 0.0253,1.00261 0.0271,0.0988 0.11417,0.38912 0.50805,0.72844 z"
       fill="#040404"
       id="path88"
       style="stroke-width:0.166367" />
    <path
       opacity="0.9"
       d="m 117.69742,216.30488 c -0.26776,0.23521 -0.26295,0.28626 -0.3302,0.38897 0.10436,0.0388 0.36445,0.0788 0.60188,0.0445 0.28008,-0.0406 0.17625,-0.0126 0.44473,-0.11404 0.34661,-0.13095 0.56424,-0.45879 0.64987,-0.63815 -0.17179,-0.003 -0.41422,-0.0632 -0.79134,0.0152 -0.0781,0.0163 -0.30718,0.0683 -0.57494,0.30348 z"
       fill="#f7db32"
       id="path89"
       style="stroke-width:0.166367" />
    <path
       opacity="0.9"
       d="m 90.164619,218.79108 c -0.452429,0.33823 -0.452307,0.4186 -0.572238,0.57158 0.157304,0.0721 0.558218,0.16323 0.933996,0.13545 0.443708,-0.0327 0.277342,-5.3e-4 0.711649,-0.12955 0.560536,-0.16679 0.948051,-0.65522 1.107836,-0.92612 -0.268137,-0.0237 -0.638136,-0.14383 -1.238933,-0.0627 -0.124268,0.0168 -0.489878,0.0729 -0.94231,0.41132 z"
       fill="#f7db32"
       id="path90"
       style="stroke-width:0.166367" />
    <path
       d="m 93.530207,226.09078 c 0.09258,0.95435 0.230998,1.04108 0.364327,1.36241 0.294145,-0.12661 0.884169,-0.54971 1.242768,-1.0684 0.423425,-0.61255 0.299232,-0.36119 0.546586,-1.06591 0.319228,-0.90936 -0.101718,-1.9416 -0.394829,-2.44228 -0.330807,0.32303 -0.937421,0.67446 -1.447364,1.54378 -0.105465,0.17983 -0.404089,0.7162 -0.311488,1.6704 z"
       fill="#dc4c68"
       id="path91"
       style="stroke-width:0.166367" />
    <path
       d="m 117.50047,198.56994 c -0.1197,-0.55502 -0.17428,-0.59294 -0.24903,-0.77 -0.0872,0.10315 -0.24671,0.41003 -0.31949,0.75117 -0.0858,0.40279 -0.0673,0.24227 -0.0853,0.6825 -0.0232,0.56821 0.21424,1.13761 0.35945,1.4053 0.0815,-0.22282 0.25314,-0.48895 0.34429,-1.05181 0.0189,-0.11639 0.0697,-0.46214 -0.0499,-1.01716 z"
       fill="#000000"
       id="path92"
       style="stroke-width:0.166367" />
    <path
       opacity="0.4"
       d="m 111.27682,229.41061 c -0.0721,0.3249 -0.0355,0.36508 -0.0259,0.48285 0.11149,-0.018 0.35357,-0.11063 0.52875,-0.25384 0.20693,-0.16927 0.13861,-0.0957 0.29684,-0.30999 0.20443,-0.27634 0.17571,-0.65414 0.13236,-0.84451 -0.14485,0.0804 -0.3846,0.14771 -0.64809,0.39533 -0.0546,0.0511 -0.21174,0.20512 -0.28399,0.53016 z"
       fill="#348b46"
       id="path93"
       style="stroke-width:0.166367" />
    <path
       d="m 107.84246,223.19032 c -0.31789,0.62465 -0.26063,0.72566 -0.29987,0.9708 0.2451,0.0216 0.80418,-0.0402 1.24801,-0.24049 0.52393,-0.2363 0.3418,-0.12242 0.78563,-0.47601 0.57299,-0.45647 0.7041,-1.24139 0.70892,-1.65239 -0.3475,0.0881 -0.88909,0.0998 -1.57251,0.46623 -0.14128,0.0757 -0.55229,0.30736 -0.87018,0.93186 z"
       fill="#000000"
       id="path94"
       style="stroke-width:0.166367" />
    <path
       d="m 101.19126,210.56556 c 0.57864,0.68361 0.72956,0.69323 1.0016,0.88221 0.15466,-0.21427 0.3748,-0.77174 0.36927,-1.30826 -0.007,-0.63365 0.0334,-0.39363 -0.15538,-1.02573 -0.24368,-0.81575 -1.11197,-1.42571 -1.60039,-1.6858 -0.0776,0.3775 -0.34854,0.88763 -0.27035,1.75004 0.0162,0.17827 0.0765,0.70393 0.65525,1.38754 z"
       fill="#f7db32"
       id="path95"
       style="stroke-width:0.166367" />
    <path
       opacity="0.4"
       d="m 111.17799,232.13234 c 0.10061,0.50936 0.1948,0.5556 0.29541,0.72705 0.18695,-0.0678 0.55479,-0.29418 0.76726,-0.57159 0.25081,-0.32738 0.18035,-0.19301 0.31218,-0.56942 0.17036,-0.48594 -0.14824,-1.03674 -0.36088,-1.30376 -0.20266,0.17269 -0.58423,0.36089 -0.88089,0.82558 -0.0614,0.096 -0.23387,0.38261 -0.13308,0.89214 z"
       fill="#78b956"
       id="path96"
       style="stroke-width:0.166367" />
    <path
       d="m 91.562374,224.4615 c 0.0759,0.2709 0.120628,0.29045 0.175893,0.3778 0.07906,-0.0476 0.228946,-0.19193 0.306598,-0.35484 0.09171,-0.19254 0.0685,-0.11543 0.104269,-0.32753 0.04617,-0.27385 -0.129263,-0.55452 -0.240202,-0.68733 -0.07963,0.10566 -0.238025,0.22994 -0.341705,0.49959 -0.02143,0.0557 -0.08077,0.22141 -0.0049,0.49231 z"
       fill="#73c5e7"
       id="path97"
       style="stroke-width:0.166367" />
    <path
       d="m 91.279947,225.10989 c 0.316037,-0.0469 0.341706,-0.0842 0.445743,-0.12599 -0.04913,-0.072 -0.204042,-0.21225 -0.385464,-0.29106 -0.214209,-0.0931 -0.127459,-0.0675 -0.368232,-0.11358 -0.310755,-0.0593 -0.645057,0.0731 -0.805145,0.15997 0.115507,0.0765 0.246928,0.22264 0.548763,0.33172 0.06244,0.0225 0.248301,0.0856 0.564335,0.0389 z"
       fill="#73c5e7"
       id="path98"
       style="stroke-width:0.166367" />
    <path
       d="m 92.258897,224.76871 c -0.273419,0.14553 -0.281268,0.18851 -0.359974,0.26097 0.07633,0.0509 0.280091,0.1311 0.482207,0.14569 0.238649,0.017 0.147188,0.0214 0.390369,-0.0137 0.31386,-0.0455 0.567636,-0.27633 0.679129,-0.40883 -0.13993,-0.0337 -0.324418,-0.12692 -0.651194,-0.13049 -0.06759,-7.9e-4 -0.267119,8e-4 -0.540537,0.14632 z"
       fill="#73c5e7"
       id="path99"
       style="stroke-width:0.166367" />
    <path
       d="m 92.057977,225.37908 c -0.177194,-0.23242 -0.226931,-0.23769 -0.313004,-0.30348 -0.05573,0.0683 -0.140337,0.24825 -0.149739,0.4245 -0.01109,0.20807 -0.01937,0.12863 0.02984,0.33871 0.06352,0.2712 0.338155,0.48346 0.494371,0.57546 0.03363,-0.12288 0.134043,-0.28657 0.126283,-0.57065 -0.0017,-0.0588 -0.01054,-0.23227 -0.187755,-0.46454 z"
       fill="#73c5e7"
       id="path100"
       style="stroke-width:0.166367" />
    <path
       d="m 89.645489,236.5066 c 0.410725,0.33653 0.498384,0.32831 0.676202,0.41101 0.06412,-0.13623 0.126231,-0.47431 0.06121,-0.7795 -0.0768,-0.36058 -0.02609,-0.22746 -0.207182,-0.57035 -0.233727,-0.44265 -0.802129,-0.71061 -1.112276,-0.81409 -0.0011,0.22233 -0.09778,0.53792 0.04638,1.02231 0.02981,0.10007 0.124962,0.39409 0.535668,0.73062 z"
       fill="#9bb5a0"
       id="path101"
       style="stroke-width:0.166367" />
    <path
       d="m 89.943542,237.69912 c 0.414897,-0.33265 0.411564,-0.4093 0.519008,-0.55778 -0.15181,-0.0652 -0.53508,-0.1429 -0.889791,-0.10799 -0.41884,0.0411 -0.262607,0.007 -0.668674,0.13949 -0.524109,0.17159 -0.871542,0.64575 -1.012024,0.90765 0.254849,0.0166 0.610003,0.12273 1.175641,0.0318 0.11699,-0.0188 0.460942,-0.0807 0.87584,-0.41317 z"
       fill="#9bb5a0"
       id="path102"
       style="stroke-width:0.166367" />
    <path
       d="m 91.012488,236.37906 c -0.243039,0.44282 -0.207199,0.51295 -0.243501,0.68548 0.168809,0.0115 0.557824,-0.0402 0.872219,-0.18728 0.371228,-0.17377 0.240968,-0.0911 0.561158,-0.34568 0.413239,-0.32877 0.533117,-0.88128 0.55167,-1.16987 -0.243697,0.067 -0.618761,0.0833 -1.105035,0.3505 -0.100556,0.0554 -0.393455,0.22389 -0.636511,0.66685 z"
       fill="#9bb5a0"
       id="path103"
       style="stroke-width:0.166367" />
    <path
       d="m 91.388729,237.44746 c -0.51774,-0.19503 -0.596925,-0.16136 -0.79651,-0.18665 -0.0071,0.14708 0.06654,0.4833 0.246947,0.75125 0.213014,0.31637 0.11333,0.20621 0.41761,0.47524 0.392705,0.34724 1.031964,0.43134 1.364073,0.43692 -0.08581,-0.2093 -0.11813,-0.53482 -0.442889,-0.94769 -0.06716,-0.0855 -0.271509,-0.33389 -0.789231,-0.52907 z"
       fill="#9bb5a0"
       id="path104"
       style="stroke-width:0.166367" />
    <path
       d="m 94.611215,234.5636 c 0.05976,0.21334 0.09496,0.2287 0.138483,0.29744 0.06224,-0.0376 0.180226,-0.15113 0.241378,-0.27944 0.07219,-0.15143 0.05393,-0.0908 0.08208,-0.25771 0.03636,-0.21567 -0.101754,-0.43661 -0.189112,-0.54118 -0.06268,0.0832 -0.187379,0.18107 -0.269012,0.39332 -0.01689,0.0439 -0.0636,0.17423 -0.0038,0.38757 z"
       fill="#f7db32"
       id="path105"
       style="stroke-width:0.166367" />
    <path
       d="m 94.388885,235.07406 c 0.248801,-0.0368 0.269031,-0.0662 0.350929,-0.0991 -0.03867,-0.0566 -0.160657,-0.1671 -0.303477,-0.22917 -0.168631,-0.0734 -0.100344,-0.0532 -0.2899,-0.0894 -0.244661,-0.0467 -0.507859,0.0574 -0.633891,0.12583 0.09093,0.0603 0.194412,0.17532 0.432043,0.26112 0.04915,0.0179 0.195479,0.0675 0.444296,0.0307 z"
       fill="#f7db32"
       id="path106"
       style="stroke-width:0.166367" />
    <path
       d="m 95.159618,234.80549 c -0.215244,0.1145 -0.221435,0.14848 -0.283406,0.20542 0.0601,0.0402 0.220507,0.10318 0.379647,0.11466 0.18788,0.0135 0.115883,0.0169 0.307332,-0.0107 0.247103,-0.0357 0.446899,-0.21753 0.534667,-0.32179 -0.110156,-0.0265 -0.255399,-0.0999 -0.512673,-0.10287 -0.05321,-5.3e-4 -0.210304,5.3e-4 -0.425567,0.11528 z"
       fill="#f7db32"
       id="path107"
       style="stroke-width:0.166367" />
    <path
       d="m 95.001422,235.286 c -0.139517,-0.18293 -0.178657,-0.18711 -0.246426,-0.23894 -0.04388,0.0538 -0.110495,0.1955 -0.117882,0.33421 -0.0088,0.16384 -0.01524,0.10131 0.0235,0.26671 0.05002,0.21349 0.26623,0.38059 0.389213,0.45305 0.02648,-0.0967 0.105534,-0.2256 0.09942,-0.44933 -0.0014,-0.0462 -0.0083,-0.18277 -0.147816,-0.3657 z"
       fill="#f7db32"
       id="path108"
       style="stroke-width:0.166367" />
    <path
       d="m 89.215516,239.52249 c 0.316569,0.14647 0.368711,0.12863 0.493673,0.15361 0.0131,-0.0929 -0.01385,-0.30923 -0.112438,-0.48703 -0.116416,-0.20977 -0.05972,-0.13561 -0.236723,-0.31947 -0.228464,-0.23738 -0.62852,-0.31899 -0.83859,-0.3373 0.04208,0.13653 0.04351,0.34413 0.225055,0.61999 0.03755,0.0571 0.152451,0.22358 0.469023,0.3702 z"
       fill="#f7db32"
       id="path109"
       style="stroke-width:0.166367" />
    <path
       d="m 89.627665,240.21029 c 0.190414,-0.26438 0.173629,-0.31093 0.210946,-0.41752 -0.105623,-0.0179 -0.355583,-0.01 -0.566351,0.0633 -0.24889,0.0861 -0.159764,0.0422 -0.383181,0.18277 -0.288347,0.18153 -0.410154,0.52287 -0.445937,0.70378 0.159463,-0.0268 0.397647,-0.0135 0.726974,-0.15159 0.06813,-0.0285 0.267118,-0.11652 0.457549,-0.38075 z"
       fill="#f7db32"
       id="path110"
       style="stroke-width:0.166367" />
    <path
       d="m 90.029042,239.24539 c -0.06383,0.30689 -0.02838,0.3446 -0.01745,0.45568 0.105715,-0.0175 0.334285,-0.10581 0.498777,-0.24173 0.194213,-0.16043 0.130244,-0.0909 0.277574,-0.2937 0.190147,-0.26159 0.157376,-0.61783 0.113261,-0.7975 -0.136541,0.0767 -0.363396,0.1412 -0.610145,0.37579 -0.05104,0.0486 -0.198191,0.19441 -0.262017,0.50146 z"
       fill="#f7db32"
       id="path111"
       style="stroke-width:0.166367" />
    <path
       d="m 90.465403,239.84568 c -0.354979,-0.0442 -0.39706,-0.0121 -0.524307,0.001 0.024,0.0912 0.133792,0.28673 0.295948,0.42482 0.191468,0.16291 0.109141,0.10985 0.34747,0.23056 0.307577,0.15577 0.715732,0.11434 0.920435,0.0694 -0.09287,-0.1159 -0.175302,-0.31062 -0.453857,-0.51651 -0.0576,-0.0427 -0.230694,-0.16524 -0.585689,-0.20961 z"
       fill="#f7db32"
       id="path112"
       style="stroke-width:0.166367" />
    <path
       d="m 117.66887,222.26358 c -0.0769,0.42497 -0.0193,0.48114 0.006,0.63815 0.16233,-0.0148 0.50966,-0.11761 0.75423,-0.29324 0.28899,-0.20728 0.19498,-0.11559 0.40833,-0.38649 0.27543,-0.34987 0.19927,-0.85304 0.1181,-1.1092 -0.20569,0.0948 -0.55194,0.16447 -0.91693,0.47105 -0.0755,0.0633 -0.29256,0.25461 -0.36926,0.67973 z"
       fill="#4aa4b8"
       id="path113"
       style="stroke-width:0.166367" />
    <path
       d="m 116.73822,222.97946 c 0.54301,0.14026 0.61187,0.10505 0.80988,0.11467 -0.0262,-0.13173 -0.1725,-0.42668 -0.40672,-0.65383 -0.27633,-0.26826 -0.15556,-0.17656 -0.50931,-0.39657 -0.45667,-0.28409 -1.09192,-0.31745 -1.41356,-0.30084 0.12987,0.18121 0.23405,0.46918 0.63989,0.81626 0.0838,0.0718 0.33662,0.28006 0.87982,0.42031 z"
       fill="#4aa4b8"
       id="path114"
       style="stroke-width:0.166367" />
    <path
       d="m 118.56457,223.14191 c -0.54694,0.0244 -0.59119,0.079 -0.771,0.12831 0.0854,0.12025 0.35464,0.36353 0.66914,0.51496 0.37158,0.17874 0.2212,0.12537 0.63845,0.23444 0.53856,0.14088 1.11673,-0.0148 1.39341,-0.12614 -0.20051,-0.13747 -0.42903,-0.38664 -0.95243,-0.6037 -0.10828,-0.0448 -0.43045,-0.17238 -0.97757,-0.14787 z"
       fill="#4aa4b8"
       id="path115"
       style="stroke-width:0.166367" />
    <path
       d="m 117.79303,223.85795 c -0.1147,-0.43723 -0.19087,-0.47694 -0.28114,-0.62403 -0.13968,0.0585 -0.40815,0.25321 -0.55265,0.49153 -0.17072,0.28129 -0.12576,0.16601 -0.20087,0.48935 -0.0969,0.41722 0.18945,0.88981 0.3732,1.11898 0.14449,-0.14864 0.42635,-0.31047 0.62257,-0.70968 0.0405,-0.0825 0.15342,-0.32892 0.0389,-0.76615 z"
       fill="#4aa4b8"
       id="path116"
       style="stroke-width:0.166367" />
    <path
       d="m 115.20674,216.07525 c -0.12273,0.65429 -0.0458,0.73342 -0.018,0.9691 0.22405,-0.0405 0.70607,-0.23553 1.05,-0.52955 0.40601,-0.34723 0.27293,-0.1972 0.57763,-0.63272 0.39316,-0.56212 0.30861,-1.31834 0.20746,-1.69847 -0.28703,0.16694 -0.76654,0.31124 -1.28101,0.81766 -0.1065,0.10473 -0.41316,0.41969 -0.53607,1.07398 z"
       fill="#dc4c68"
       id="path117"
       style="stroke-width:0.166367" />
    <path
       d="m 113.89701,217.26668 c 0.74192,0.15283 0.83789,0.0915 1.11029,0.0841 -0.0307,-0.1972 -0.22031,-0.62915 -0.53338,-0.9483 -0.36963,-0.37671 -0.20693,-0.25073 -0.68502,-0.54568 -0.61705,-0.38075 -1.49009,-0.36073 -1.93339,-0.29976 0.17126,0.26082 0.30309,0.68687 0.84771,1.16909 0.11256,0.0996 0.45204,0.38789 1.19379,0.54056 z"
       fill="#dc4c68"
       id="path118"
       style="stroke-width:0.166367" />
    <path
       d="m 116.40427,217.30997 c -0.75387,0.0981 -0.81702,0.18603 -1.06659,0.28098 0.11274,0.17315 0.47344,0.51295 0.90033,0.70797 0.50413,0.23025 0.29934,0.16586 0.86912,0.28518 0.7355,0.15407 1.53753,-0.14678 1.92286,-0.34677 -0.27026,-0.18665 -0.57477,-0.53963 -1.28637,-0.81131 -0.14717,-0.0562 -0.58547,-0.21395 -1.33935,-0.11605 z"
       fill="#dc4c68"
       id="path119"
       style="stroke-width:0.166367" />
    <path
       d="m 115.31306,218.48402 c -0.14003,-0.65165 -0.24314,-0.70331 -0.36142,-0.9168 -0.1948,0.10441 -0.57209,0.43024 -0.78063,0.80835 -0.24636,0.44653 -0.17982,0.26609 -0.29613,0.76584 -0.15038,0.64482 0.2246,1.33107 0.46828,1.65876 0.20479,-0.24189 0.59921,-0.51931 0.88534,-1.14768 0.0592,-0.12986 0.2246,-0.51666 0.0846,-1.16847 z"
       fill="#dc4c68"
       id="path120"
       style="stroke-width:0.166367" />
    <path
       d="m 119.91212,236.06333 c 0.41529,0.13389 0.47577,0.10457 0.63346,0.11698 -0.002,-0.11559 -0.0756,-0.37656 -0.23012,-0.57996 -0.18249,-0.24003 -0.099,-0.15733 -0.35053,-0.35701 -0.32485,-0.25772 -0.83005,-0.30007 -1.09068,-0.29232 0.0774,0.16105 0.11863,0.41489 0.39335,0.72659 0.0567,0.0646 0.22905,0.25182 0.64452,0.38572 z"
       fill="#b9d3bd"
       id="path121"
       style="stroke-width:0.166367" />
    <path
       d="m 120.54737,236.84592 c 0.18285,-0.35095 0.15341,-0.40541 0.17892,-0.54133 -0.13272,-0.007 -0.43723,0.0391 -0.68145,0.15888 -0.28827,0.14119 -0.18748,0.0746 -0.43419,0.27897 -0.31861,0.2636 -0.40281,0.69897 -0.41208,0.92565 0.18998,-0.0559 0.48414,-0.0737 0.86108,-0.29014 0.078,-0.0447 0.30487,-0.18107 0.48772,-0.53203 z"
       fill="#b9d3bd"
       id="path122"
       style="stroke-width:0.166367" />
    <path
       d="m 120.85527,235.60702 c -0.0198,0.38493 0.0309,0.42605 0.0653,0.56041 0.12612,-0.0366 0.38925,-0.17765 0.5646,-0.36771 0.20729,-0.22436 0.14218,-0.12987 0.284,-0.39937 0.18303,-0.3477 0.0753,-0.77903 -0.0129,-0.99252 -0.1527,0.11326 -0.41814,0.22497 -0.67556,0.54769 -0.0533,0.0667 -0.20568,0.26656 -0.22549,0.6515 z"
       fill="#b9d3bd"
       id="path123"
       style="stroke-width:0.166367" />
    <path
       d="m 121.50354,236.2793 c -0.44294,-0.003 -0.48843,0.0422 -0.64149,0.0771 0.0467,0.1083 0.21817,0.33172 0.44294,0.47741 0.26544,0.17191 0.15448,0.11885 0.46916,0.23227 0.4062,0.14646 0.89802,0.0369 1.14009,-0.0473 -0.13575,-0.12863 -0.27365,-0.35515 -0.6538,-0.56725 -0.0787,-0.0439 -0.31396,-0.16912 -0.7569,-0.17222 z"
       fill="#b9d3bd"
       id="path124"
       style="stroke-width:0.166367" />
    <path
       d="m 106.90484,199.1565 c 0.51983,0.16924 0.5894,0.13769 0.78206,0.15779 -0.016,-0.13313 -0.13736,-0.4361 -0.34928,-0.6758 -0.25028,-0.28305 -0.13897,-0.18481 -0.46828,-0.42381 -0.42492,-0.30847 -1.0425,-0.37567 -1.35736,-0.37617 0.11345,0.18811 0.19409,0.48185 0.56496,0.85067 0.0767,0.0763 0.30826,0.29806 0.8279,0.46732 z"
       fill="#dc4c68"
       id="path129"
       style="stroke-width:0.166367" />
    <path
       d="m 107.77003,200.08037 c 0.17893,-0.39724 0.13665,-0.46106 0.1511,-0.61657 -0.1618,-0.0126 -0.52518,0.0291 -0.8065,0.15796 -0.33234,0.15215 -0.21817,0.0791 -0.49253,0.30522 -0.35411,0.29179 -0.40334,0.78979 -0.38711,1.05032 0.22352,-0.0574 0.57781,-0.0672 1.00844,-0.30244 0.089,-0.0487 0.3475,-0.19723 0.5266,-0.59449 z"
       fill="#dc4c68"
       id="path130"
       style="stroke-width:0.166367" />
    <path
       d="m 107.99284,198.66548 c 0.0228,0.44229 0.0892,0.49144 0.14717,0.6474 0.14842,-0.0376 0.45008,-0.19028 0.63971,-0.40261 0.22406,-0.25071 0.15663,-0.1444 0.29577,-0.44928 0.17964,-0.39349 -0.003,-0.89392 -0.13611,-1.14284 -0.17126,0.12486 -0.47951,0.24366 -0.75227,0.6057 -0.0566,0.0749 -0.21692,0.29934 -0.19427,0.74163 z"
       fill="#dc4c68"
       id="path131"
       style="stroke-width:0.166367" />
    <path
       d="m 108.85982,199.46307 c -0.53731,-0.0198 -0.58673,0.0308 -0.76815,0.0654 0.0696,0.12629 0.30469,0.38978 0.59475,0.56558 0.34251,0.2076 0.20176,0.14242 0.59689,0.28448 0.51002,0.18334 1.09282,0.0753 1.37592,-0.0129 -0.18017,-0.15288 -0.37479,-0.41875 -0.86126,-0.67665 -0.10061,-0.0533 -0.40084,-0.20601 -0.93815,-0.22584 z"
       fill="#dc4c68"
       id="path132"
       style="stroke-width:0.166367" />
    <path
       d="m 109.40676,213.28371 c 0.12416,0.28874 0.17625,0.30519 0.2501,0.39472 0.0796,-0.0614 0.22245,-0.23693 0.28311,-0.42466 0.0717,-0.22172 0.0578,-0.13452 0.0651,-0.37144 0.009,-0.30597 -0.22567,-0.59409 -0.36749,-0.72721 -0.0715,0.12505 -0.22673,0.27959 -0.29987,0.58741 -0.015,0.0636 -0.0551,0.25244 0.069,0.54118 z"
       fill="#f9db2f"
       id="path133"
       style="stroke-width:0.166367" />
    <path
       d="m 109.19465,214.02768 c 0.34001,-0.0874 0.36249,-0.13142 0.47042,-0.18914 -0.0648,-0.0734 -0.25599,-0.20961 -0.46703,-0.27555 -0.24921,-0.0777 -0.1502,-0.0596 -0.42153,-0.0827 -0.35,-0.0296 -0.69715,0.15392 -0.85984,0.26764 0.13843,0.0708 0.30487,0.21629 0.65255,0.30147 0.0721,0.0175 0.2856,0.0658 0.62543,-0.0217 z"
       fill="#f9db2f"
       id="path134"
       style="stroke-width:0.166367" />
    <path
       d="m 110.21825,213.54142 c -0.27828,0.191 -0.28043,0.2391 -0.35588,0.32769 0.0915,0.0472 0.32734,0.11187 0.5514,0.10473 0.26473,-0.008 0.16483,0.007 0.42653,-0.0596 0.33769,-0.0857 0.58155,-0.36818 0.68394,-0.52628 -0.15876,-0.0209 -0.37533,-0.10225 -0.73461,-0.0689 -0.0744,0.007 -0.29327,0.0312 -0.57138,0.22233 z"
       fill="#f9db2f"
       id="path135"
       style="stroke-width:0.166367" />
    <path
       d="m 110.08946,214.2345 c -0.22959,-0.23491 -0.28507,-0.23506 -0.38943,-0.29743 -0.051,0.0813 -0.11667,0.28858 -0.10043,0.48299 0.0193,0.22979 -0.002,0.14368 0.084,0.36865 0.1106,0.29045 0.44419,0.49199 0.62954,0.57531 0.0184,-0.13871 0.104,-0.33001 0.0524,-0.6411 -0.0105,-0.0642 -0.0466,-0.25367 -0.27614,-0.48842 z"
       fill="#f9db2f"
       id="path136"
       style="stroke-width:0.166367" />
    <g
       opacity="0.6"
       id="g140"
       transform="matrix(0.17838961,0,0,0.1551544,83.578976,192.92125)">
      <path
         d="m 174.731,34.9468 c 1.187,1.1688 1.446,1.1463 1.965,1.4388 0.199,-0.4584 0.408,-1.6013 0.239,-2.6414 -0.2,-1.2283 -0.06,-0.7733 -0.569,-1.9488 -0.656,-1.5172 -2.314,-2.4638 -3.221,-2.835 -0.02,0.7542 -0.329,1.8188 0.06,3.4718 0.08,0.3418 0.339,1.3459 1.526,2.5146 z"
         fill="#f7db32"
         id="path137" />
      <path
         d="m 175.521,39.0123 c 1.249,-1.1015 1.245,-1.3618 1.573,-1.8585 -0.443,-0.2312 -1.568,-0.52 -2.618,-0.4248 -1.239,0.1124 -0.775,0.0052 -1.984,0.4298 -1.559,0.548 -2.62,2.1345 -3.055,3.0137 0.751,0.073 1.791,0.4564 3.468,0.1848 0.346,-0.0561 1.366,-0.2434 2.616,-1.345 z"
         fill="#f7db32"
         id="path138" />
      <path
         d="m 178.775,34.6025 c -0.75,1.487 -0.65,1.7271 -0.77,2.3103 0.497,0.0499 1.649,-0.1002 2.588,-0.5787 1.109,-0.5649 0.718,-0.2931 1.682,-1.1364 1.245,-1.0884 1.64,-2.9556 1.717,-3.9332 -0.725,0.2113 -1.833,0.2419 -3.288,1.1171 -0.301,0.1809 -1.178,0.7338 -1.929,2.2209 z"
         fill="#f7db32"
         id="path139" />
      <path
         d="m 179.804,38.2533 c -1.513,-0.696 -1.749,-0.5868 -2.336,-0.6857 -0.032,0.4989 0.16,1.6447 0.672,2.5656 0.605,1.0874 0.319,0.7069 1.197,1.6397 1.133,1.204 3.013,1.5312 3.993,1.572 -0.238,-0.7161 -0.309,-1.8224 -1.236,-3.2449 -0.192,-0.2942 -0.776,-1.1506 -2.29,-1.8467 z"
         fill="#f7db32"
         id="path140" />
    </g>
    <g
       opacity="0.1"
       id="g144"
       transform="matrix(0.17838961,0,0,0.1551544,83.578976,192.92125)">
      <path
         d="m 180.746,287.982 c 0.16,0.659 0.255,0.707 0.372,0.919 0.167,-0.116 0.484,-0.467 0.648,-0.863 0.194,-0.468 0.145,-0.281 0.221,-0.797 0.097,-0.666 -0.274,-1.348 -0.508,-1.671 -0.169,0.257 -0.504,0.559 -0.723,1.215 -0.045,0.135 -0.171,0.538 -0.01,1.197 z"
         fill="#73c5e7"
         id="path141" />
      <path
         d="m 180.148,289.559 c 0.669,-0.114 0.723,-0.205 0.943,-0.307 -0.104,-0.175 -0.432,-0.516 -0.815,-0.707 -0.453,-0.227 -0.27,-0.165 -0.779,-0.277 -0.657,-0.144 -1.364,0.178 -1.703,0.389 0.244,0.187 0.522,0.542 1.161,0.807 0.132,0.055 0.525,0.208 1.193,0.095 z"
         fill="#73c5e7"
         id="path142" />
      <path
         d="m 182.219,288.729 c -0.578,0.354 -0.595,0.459 -0.761,0.635 0.161,0.124 0.592,0.318 1.02,0.354 0.504,0.042 0.311,0.052 0.825,-0.033 0.664,-0.111 1.201,-0.672 1.437,-0.994 -0.296,-0.082 -0.686,-0.309 -1.378,-0.318 -0.143,-0.002 -0.565,0.002 -1.143,0.356 z"
         fill="#73c5e7"
         id="path143" />
      <path
         d="m 181.794,290.213 c -0.375,-0.565 -0.48,-0.578 -0.662,-0.737 -0.118,0.165 -0.297,0.603 -0.317,1.032 -0.023,0.506 -0.041,0.313 0.063,0.824 0.135,0.659 0.715,1.175 1.046,1.399 0.071,-0.299 0.283,-0.697 0.267,-1.388 -0.003,-0.143 -0.022,-0.565 -0.397,-1.13 z"
         fill="#73c5e7"
         id="path144" />
    </g>
    <g
       opacity="0.8"
       id="g148"
       transform="matrix(0.17838961,0,0,0.1551544,83.578976,192.92125)">
      <path
         d="m 122.439,115.275 c 1.671,3.571 2.265,3.735 3.174,4.811 0.82,-0.853 2.225,-3.216 2.707,-5.663 0.569,-2.889 0.504,-1.765 0.343,-4.792 -0.206,-3.906 -3.104,-7.371 -4.811,-8.943 -0.666,1.657 -2.228,3.764 -2.727,7.752 -0.103,0.824 -0.356,3.265 1.314,6.835 z"
         fill="#78b956"
         id="path145" />
      <path
         d="m 120.843,124.946 c 3.679,-1.415 3.884,-1.995 5.022,-2.827 -0.793,-0.878 -3.052,-2.445 -5.458,-3.099 -2.842,-0.771 -1.725,-0.627 -4.756,-0.68 -3.911,-0.069 -7.572,2.576 -9.259,4.169 1.605,0.78 3.597,2.488 7.539,3.266 0.816,0.161 3.232,0.585 6.912,-0.829 z"
         fill="#78b956"
         id="path146" />
      <path
         d="m 131.694,117.844 c -2.89,2.68 -2.865,3.296 -3.612,4.49 1.062,0.521 3.742,1.137 6.219,0.849 2.925,-0.34 1.834,-0.059 4.668,-1.136 3.657,-1.389 6.072,-5.206 7.047,-7.312 -1.781,-0.127 -4.265,-0.972 -8.214,-0.23 -0.817,0.154 -3.218,0.658 -6.108,3.339 z"
         fill="#78b956"
         id="path147" />
      <path
         d="m 130.974,126.79 c -2.784,-2.79 -3.398,-2.743 -4.619,-3.446 -0.482,1.081 -1,3.781 -0.622,6.246 0.446,2.91 0.125,1.831 1.304,4.623 1.522,3.604 5.424,5.879 7.564,6.777 0.063,-1.785 0.817,-4.298 -0.069,-8.217 -0.183,-0.811 -0.774,-3.192 -3.558,-5.983 z"
         fill="#78b956"
         id="path148" />
    </g>
    <g
       opacity="0.8"
       id="g152"
       transform="matrix(0.17838961,0,0,0.1551544,83.578976,192.92125)">
      <path
         d="m 102.192,194.988 c 2.228,1.152 2.566,1.022 3.422,1.226 0.023,-0.705 -0.309,-2.354 -1.095,-3.718 -0.928,-1.61 -0.496,-1.039 -1.813,-2.458 -1.699,-1.833 -4.4428,-2.5 -5.8662,-2.664 0.378,1.043 0.5325,2.623 1.9443,4.744 0.292,0.438 1.1798,1.718 3.4079,2.87 z"
         fill="#4aa4b8"
         id="path149" />
      <path
         d="m 105.439,200.27 c 1.094,-1.989 0.949,-2.345 1.125,-3.152 -0.722,-0.148 -2.395,-0.116 -3.759,0.416 -1.611,0.627 -1.043,0.303 -2.445,1.346 -1.81,1.348 -2.3896,3.931 -2.5035,5.303 1.052,-0.186 2.6605,-0.056 4.7755,-1.069 0.438,-0.209 1.713,-0.855 2.807,-2.844 z"
         fill="#4aa4b8"
         id="path150" />
      <path
         d="m 107.461,192.974 c -0.214,2.328 0.05,2.62 0.201,3.466 0.698,-0.121 2.171,-0.767 3.18,-1.782 1.192,-1.198 0.812,-0.676 1.659,-2.201 1.094,-1.969 0.625,-4.684 0.204,-6.055 -0.864,0.566 -2.342,1.031 -3.835,2.788 -0.309,0.363 -1.195,1.457 -1.409,3.784 z"
         fill="#4aa4b8"
         id="path151" />
      <path
         d="m 110.81,197.593 c -2.415,-0.378 -2.675,-0.138 -3.52,-0.05 0.225,0.697 1.099,2.197 2.284,3.266 1.399,1.262 0.809,0.849 2.494,1.795 2.174,1.22 4.886,0.952 6.229,0.635 -0.704,-0.893 -1.394,-2.385 -3.408,-3.984 -0.417,-0.331 -1.665,-1.284 -4.079,-1.662 z"
         fill="#4aa4b8"
         id="path152" />
    </g>
    <path
       d="m 92.886131,216.75514 c 0.160409,0.52256 0.24807,0.55902 0.359511,0.72628 0.150971,-0.0954 0.434591,-0.38075 0.577269,-0.6996 0.168469,-0.37656 0.127208,-0.22621 0.186239,-0.63892 0.07617,-0.53265 -0.277664,-1.07057 -0.499296,-1.32393 -0.149259,0.20775 -0.450345,0.45475 -0.638295,0.98119 -0.03887,0.10892 -0.145834,0.43242 0.01458,0.95498 z"
       fill="#73c5e7"
       id="path153"
       style="stroke-width:0.166367" />
    <path
       d="m 92.369766,218.02291 c 0.610591,-0.10241 0.658561,-0.1758 0.858249,-0.26082 -0.09874,-0.13762 -0.406015,-0.40387 -0.761651,-0.55002 -0.419929,-0.17269 -0.250459,-0.1263 -0.719607,-0.20667 -0.605508,-0.10364 -1.247334,0.1654 -1.553559,0.33979 0.227714,0.14414 0.489699,0.42279 1.080327,0.62295 0.122161,0.0414 0.485666,0.15701 1.096241,0.0548 z"
       fill="#73c5e7"
       id="path154"
       style="stroke-width:0.166367" />
    <path
       d="m 94.251776,217.32517 c -0.523128,0.29247 -0.536256,0.3761 -0.685373,0.51946 0.150525,0.0959 0.549529,0.24375 0.942201,0.26454 0.463635,0.0247 0.286494,0.0363 0.756353,-0.0408 0.606435,-0.0995 1.087284,-0.55669 1.297054,-0.81766 -0.273009,-0.0602 -0.635282,-0.23413 -1.269153,-0.22916 -0.1311,0.001 -0.517971,0.0113 -1.041082,0.30363 z"
       fill="#73c5e7"
       id="path155"
       style="stroke-width:0.166367" />
    <path
       d="m 93.891786,218.51629 c -0.354959,-0.44405 -0.451647,-0.45242 -0.621777,-0.57686 -0.104751,0.13437 -0.260039,0.48657 -0.269689,0.82853 -0.01137,0.40386 -0.03129,0.25042 0.07439,0.65599 0.136395,0.52349 0.679288,0.92472 0.986689,1.09756 0.05926,-0.2394 0.245999,-0.56073 0.2171,-1.11137 -0.006,-0.11404 -0.03173,-0.44979 -0.386713,-0.89385 z"
       fill="#73c5e7"
       id="path156"
       style="stroke-width:0.166367" />
    <path
       d="m 96.103979,210.14339 c -0.409923,0.26407 -0.511463,0.72891 -0.511463,0.72891 0,0 -0.268813,0.53389 0.07858,0.84994 0.397257,0.36151 0.511159,0.29448 0.853558,0.46686 0.284389,0.14336 0.743438,0.3491 0.743438,0.3491 0,0 0.389425,0.0977 0.641133,0.49478 0.251727,0.39704 0.731648,0.40015 0.731648,0.40015 0,0 0.546781,0.011 0.149508,-0.3505 -0.172359,-0.1567 -0.542821,-0.32567 -0.829958,-0.56926 -0.287135,-0.24344 -0.360793,-0.29215 -0.184845,-0.38928 0.157356,-0.0867 0.912605,0.21101 0.912605,0.21101 l 1.077792,0.38788 c 0,0 0.400485,0.21908 0.656925,0.12863 0.22423,-0.079 0.0708,-0.30705 0.0708,-0.30705 0,0 -0.11012,-0.11792 -0.51135,-0.16447 -0.401232,-0.0465 -0.955865,-0.32101 -1.21155,-0.40324 -0.255685,-0.0822 -0.05339,-0.33746 0.192786,-0.24049 0.188806,0.0745 0.483096,0.2138 1.034533,0.27772 0.334361,0.0388 0.298951,0.1924 0.888991,0.31342 0.0804,0.0164 0.14601,0.0133 0.22423,-0.0791 0.10272,-0.12149 -0.0289,-0.26671 -0.12978,-0.33033 -0.26929,-0.16989 -0.83391,-0.25445 -0.83391,-0.25445 -0.322569,-0.09 -0.924418,-0.15981 -0.924418,-0.15981 -0.472858,-0.0549 -0.444493,-0.1567 -0.444493,-0.1567 0,0 0.03543,-0.15345 0.436661,-0.10691 l 1.33744,0.15516 c 0.53497,0.0621 0.52316,0.11326 0.68054,0.0264 0.15736,-0.0869 0.16551,-0.19766 0.059,-0.25584 -0.12195,-0.0667 -0.64511,-0.17998 -0.85754,-0.15206 -0.1502,0.0197 -1.14863,-0.0808 -1.616744,-0.13514 -0.468094,-0.0543 -0.456284,-0.1055 -0.700179,-0.23878 -0.243876,-0.13343 -0.228801,-0.57934 -0.448346,-0.73528 -0.354014,-0.25119 -0.869345,-0.10085 -0.869345,-0.10085 0,0 -0.212426,0.0279 -0.696308,0.33964 z"
       fill="#0a0b0b"
       id="path157"
       style="stroke-width:0.166367" />
    <path
       d="m 98.557923,209.10587 c -0.32417,0.21458 -0.594054,0.49168 -0.688478,0.60324 0.05505,0.0591 0.615249,-0.10721 0.794637,-0.17051 0.224219,-0.0791 0.233657,-0.11994 0.457892,-0.19907 0.436662,-0.10705 0.04174,-0.47865 -0.103806,-0.44296 -0.291095,0.0714 -0.136094,-0.005 -0.460245,0.2093 z"
       fill="#0a0b0b"
       id="path158"
       style="stroke-width:0.166367" />
  </g>
</svg>
