<?xml version="1.0" encoding="UTF-8" standalone="no"?>
<!-- Created with Inkscape (http://www.inkscape.org/) -->

<svg
   version="1.1"
   id="svg2"
   width="2400"
   height="2400"
   viewBox="0 0 2400 2400"
   sodipodidocname="shutterstock_1476186818.svg"
   inkscapeversion="1.3 (1:1.3+202307231459+0e150ed6c4)"
   xmlnsinkscape="http://www.inkscape.org/namespaces/inkscape"
   xmlnssodipodi="http://sodipodi.sourceforge.net/DTD/sodipodi-0.dtd"
   xmlns="http://www.w3.org/2000/svg"
   xmlnssvg="http://www.w3.org/2000/svg">
  <defs
     id="defs6" />
  <sodipodinamedview
     id="namedview4"
     pagecolor="#ffffff"
     bordercolor="#000000"
     borderopacity="0.25"
     inkscapeshowpageshadow="2"
     inkscapepageopacity="0.0"
     inkscapepagecheckerboard="0"
     inkscapedeskcolor="#d1d1d1"
     inkscapezoom="0.24480001"
     inkscapecx="667.89214"
     inkscapecy="1011.0294"
     inkscapewindow-width="1920"
     inkscapewindow-height="1043"
     inkscapewindow-x="3840"
     inkscapewindow-y="0"
     inkscapewindow-maximized="1"
     inkscapecurrent-layer="g8" />
  <g
     id="g8"
     inkscapegroupmode="layer"
     inkscapelabel="ink_ext_XXXXXX"
     transform="matrix(1.3333333,0,0,-1.3333333,0,3333.3333)">
    <path
       d="m 1800,699.99995 h -1800.000029374999 v 1800.00005 h 1800.000029374999 v -1800.00005"
       style="fill:#ffffff;fill-opacity:1;fill-rule:nonzero;stroke:none;stroke-width:0.072"
       id="path12"
       inkscapelabel="path12" />
    <g
       id="g10"
       transform="matrix(0.1,0,0,0.1,-350.00013,350.00002)">
      <path
         d="m 6597.79,16925 132.5,-127.5 -127.5,-210 -127.5,212.5 z m 2017.5,1087.5 550,85 1910.01,-300 -1910.01,-442.5 -242.5,55 -1670,387.5 z m 1965.01,-1282.5 -110,-35 h -7.5 l -1252.51,-392.5 c -2.5,0 -5,0 -5,0 l -40,-12.5 -1420,440 v 697.5 l 1122.5,-260 267.5,-62.5 c 10,-2.5 20,-5 30,-5 7.5,0 17.5,2.5 27.5,5 l 1387.51,322.5 z m -3977.51,-510 c 42.5,0 85,22.5 107.5,60 l 285,475 c 30,47.5 20,112.5 -20,152.5 l -252.5,247.5 v 510 l 772.5,-180 v -845 c 0,-55 37.5,-105 90,-120 l 1542.5,-480 c 12.5,-5 25,-7.5 37.5,-7.5 12.5,0 22.5,2.5 35,7.5 l 70,20 c 2.5,0 5,2.5 7.5,2.5 l 1252.51,390 c 2.5,2.5 5,2.5 7.5,2.5 l 205,65 c 52.5,15 87.5,72.5 87.5,127.5 v 837.5 l 930,215 c 57.5,12.5 97.5,67.5 95,125 0,60 -45,110 -105,120 l -2567.51,402.5 c -12.5,2.5 -25,2.5 -37.5,0 l -567.5,-90 -2000,-312.5 c -7.5,0 -12.5,-5 -20,-5 -5,-2.5 -10,-5 -15,-7.5 -10,-2.5 -17.5,-10 -27.5,-17.5 -2.5,-2.5 -5,-5 -7.5,-7.5 -22.5,-22.5 -35,-50 -35,-82.5 0,0 0,0 0,-2.5 v -670 l -245,-247.5 c -40,-40 -45,-102.5 -17.5,-150 l 285,-475 c 22.5,-37.5 62.5,-60 107.5,-60"
         style="fill:#231f20;fill-opacity:1;fill-rule:nonzero;stroke:none"
         id="path14" />
      <path
         d="m 13783,12816.6 c 77.3,0 139.9,62.6 139.9,139.8 0,77.2 -62.6,139.8 -139.9,139.8 -77.2,0 -139.7,-62.6 -139.7,-139.8 0,-77.2 62.5,-139.8 139.7,-139.8"
         style="fill:#231f20;fill-opacity:1;fill-rule:nonzero;stroke:none"
         id="path16" />
      <path
         d="m 12105.7,12816.6 c 77.2,0 139.8,62.6 139.8,139.8 0,77.2 -62.6,139.8 -139.8,139.8 -77.2,0 -139.8,-62.6 -139.8,-139.8 0,-77.2 62.6,-139.8 139.8,-139.8"
         style="fill:#231f20;fill-opacity:1;fill-rule:nonzero;stroke:none"
         id="path18" />
      <path
         d="m 12277.5,11844.3 c 218.3,-186.6 442.7,-280 666.8,-280 224.4,0 448.7,93.4 667,280 52.5,45 58.6,123.9 13.7,176.3 -44.7,52.3 -123.6,58.2 -176.3,13.7 -344.2,-294.1 -664.3,-294.6 -1008.5,0 -52.3,44.5 -131.4,38.6 -176.3,-13.7 -44.9,-52.4 -38.8,-131.3 13.6,-176.3"
         style="fill:#231f20;fill-opacity:1;fill-rule:nonzero;stroke:none"
         id="path20" />
      <path
         d="m 14820.3,12820 c 0,-1032.5 -840,-1870 -1870,-1870 -1032.5,0 -1872.5,837.5 -1872.5,1870 0,1030 840,1870 1872.5,1870 1030,0 1870,-840 1870,-1870 z m 222.5,317.5 c 132.5,-40 235,-170 235,-317.5 0,-132.5 -117.5,-302.5 -247.5,-397.5 25,130 40,262.5 40,397.5 0,107.5 -12.5,215 -27.5,317.5 z m -4422.5,-317.5 c 0,147.5 100,270 235,312.5 -15,-102.5 -27.5,-207.5 -27.5,-312.5 0,-135 15,-267.5 40,-397.5 -130,95 -247.5,265 -247.5,397.5 z m 2050,2490 c -65,10 -130,-40 -140,-107.5 -7.5,-67.5 40,-132.5 110,-140 55,-7.5 100,-67.5 135,-132.5 -892.5,-72.5 -1627.5,-697.5 -1865,-1532.5 -300,-22.5 -540,-272.5 -540,-577.5 0,-280 277.5,-642.5 582.5,-707.5 290,-822.5 1075,-1412.5 1997.5,-1412.5 920,0 1705,590 1995,1412.5 307.5,65 582.5,427.5 582.5,707.5 0,305 -245,560 -540,580 -235,822.5 -955,1442.5 -1827.5,1530 47.5,62.5 115,127.5 205,165 125,50 272.5,32.5 440,-50 60,-30 137.5,-5 167.5,57.5 30,62.5 5,137.5 -57.5,167.5 -232.5,115 -450,135 -642.5,55 -135,-52.5 -232.5,-142.5 -302.5,-230 -62.5,100 -157.5,197.5 -300,215"
         style="fill:#231f20;fill-opacity:1;fill-rule:nonzero;stroke:none"
         id="path22" />
      <path
         d="m 15995.3,12787.5 c 0,-1680 -1370,-3050 -3050,-3050 -1682.5,0 -3052.51,1370 -3052.51,3050 0,1682.5 1370.01,3050 3052.51,3050 1680,0 3050,-1367.5 3050,-3050 z m -5200,2500 -55,390 c -10,67.5 -77.5,115 -142.5,105 -67.5,-10 -115,-72.5 -105,-142.5 l 22.5,-157.5 -630.01,630 c -50,47.5 -127.5,47.5 -177.5,0 -47.5,-50 -47.5,-127.5 0,-177.5 l 630.01,-630 -157.5,22.5 c -67.5,12.5 -132.5,-35 -142.5,-105 -10,-67.5 37.5,-132.5 105,-142.5 l 382.5,-55 c -545.01,-587.5 -882.51,-1372.5 -882.51,-2237.5 0,-812.5 300,-1557.5 790.01,-2135 l -350,-50 c -67.5,-10 -115.01,-75 -105.01,-142.5 10,-67.5 72.51,-115 142.51,-105 l 157.5,22.5 -630.01,-630 c -47.5,-47.5 -47.5,-127.5 0,-177.5 25,-22.5 57.5,-35 90,-35 30,0 62.5,12.5 87.5,35 l 630.01,630 -22.5,-157.5 c -10,-67.5 35,-132.5 105,-142.5 h 17.5 c 62.5,0 115,45 125,107.5 l 50,342.5 c 585,-535 1360,-862.5 2215,-862.5 825,0 1580,307.5 2160,812.5 l 52.5,-352.5 c 10,-62.5 62.5,-107.5 122.5,-107.5 h 20 c 67.5,10 115,75 105,142.5 l -22.5,160 630,-632.5 c 25,-22.5 55,-35 87.5,-35 32.5,0 65,12.5 90,35 47.5,50 47.5,130 0,177.5 l -630,630 157.5,-22.5 c 65,-10 132.5,37.5 142.5,105 10,67.5 -37.5,132.5 -107.5,142.5 l -350,50 c 522.5,585 842.5,1352.5 842.5,2195 0,835 -312.5,1595 -825,2175 l 392.5,57.5 c 70,10 117.5,75 107.5,142.5 -10,67.5 -75,117.5 -142.5,105 l -157.5,-22.5 630,630 c 47.5,50 47.5,127.5 0,177.5 -50,47.5 -130,47.5 -177.5,0 l -630,-630 22.5,157.5 c 10,67.5 -37.5,132.5 -105,142.5 -67.5,12.5 -132.5,-37.5 -142.5,-105 l -57.5,-390 c -585,532.5 -1362.5,860 -2215,860 -822.5,0 -1570,-302.5 -2150,-800"
         style="fill:#231f20;fill-opacity:1;fill-rule:nonzero;stroke:none"
         id="path24" />
      <path
         d="m 12844,16242.2 c 23.6,-31.8 60.7,-50.4 100.3,-50.4 39.5,0 76.7,18.6 100.3,50.3 l 521.5,700.3 c 41.3,55.4 29.8,133.8 -25.6,174.9 -54.9,41 -133.3,30.1 -175.1,-25.5 l -296.1,-397.8 v 1682.9 c 0,69.2 -55.9,125 -125,125 -69.1,0 -125,-55.8 -125,-125 v -1682.8 l -295.9,397.6 c -41.5,55.7 -120.1,67 -175,25.6 -55.5,-41.1 -66.9,-119.5 -25.7,-174.8 l 521.3,-700.3"
         style="fill:#231f20;fill-opacity:1;fill-rule:nonzero;stroke:none"
         id="path26" />
      <path
         d="m 18699.2,12747.2 c 0,69.1 -55.9,125 -125,125 h -1683.1 l 398,296.1 c 55.4,41.2 66.8,119.6 25.6,174.8 -41.8,55.8 -120.1,66.8 -175.1,25.7 l -700.4,-521.4 c -31.7,-23.6 -50.3,-60.7 -50.3,-100.2 0,-39.5 18.6,-76.7 50.3,-100.2 l 700.4,-521.4 c 22.5,-16.7 48.6,-24.8 74.7,-24.8 38.1,0 75.7,17.5 100.4,50.4 41.2,55.4 29.8,133.7 -25.6,174.9 l -398,296.1 h 1683.1 c 69.1,0 125,55.9 125,125"
         style="fill:#231f20;fill-opacity:1;fill-rule:nonzero;stroke:none"
         id="path28" />
      <path
         d="m 13044.6,9252.3 c -47.3,63.2 -153.3,63.4 -200.6,-0.1 l -521.3,-700.2 c -41.2,-55.3 -29.8,-133.7 25.7,-174.8 55.1,-41.3 133.5,-30 175,25.6 l 295.9,397.6 v -1683 c 0,-69.1 55.9,-125 125,-125 69.1,0 125,55.9 125,125 v 1683 l 296.1,-397.7 c 24.7,-33 62.3,-50.3 100.4,-50.3 26.1,0 52.2,8.1 74.7,24.8 55.4,41.2 66.9,119.5 25.6,174.9 l -521.5,700.2"
         style="fill:#231f20;fill-opacity:1;fill-rule:nonzero;stroke:none"
         id="path30" />
      <path
         d="m 8574.19,12151.1 c 24.65,-32.9 62.26,-50.3 100.33,-50.3 26.12,0 52.25,8.1 74.73,24.8 l 700.17,521.4 c 31.75,23.5 50.3,60.7 50.3,100.2 0,39.5 -18.55,76.6 -50.3,100.2 l -700.17,521.4 c -55.18,40.9 -133.31,29.6 -175.06,-25.5 -41.27,-55.4 -29.8,-133.8 25.63,-175 l 397.77,-296.1 h -1682.92 c -69.1,0 -125,-55.9 -125,-125 0,-69.1 55.9,-125 125,-125 h 1682.92 l -397.77,-296.1 c -55.43,-41.2 -66.9,-119.5 -25.63,-175"
         style="fill:#231f20;fill-opacity:1;fill-rule:nonzero;stroke:none"
         id="path32" />
      <path
         d="m 18460.3,10010 -325,445 c 55,32.5 120,50 185,40 72.5,-12.5 137.5,-52.5 182.5,-112.5 45,-62.5 62.5,-135 50,-210 -10,-65 -42.5,-120 -92.5,-162.5 z m -220,-167.5 -202.5,-147.5 -2655,-1937.5 -92.5,127.5 -147.5,200 -92.5,127.5 2655,1937.5 202.5,147.5 22.5,15 332.5,-455 z m -3492.5,-2200 152.5,350 225,-307.5 z m 3957.5,2887.5 c -82.5,115 -207.5,190 -347.5,212.5 -140,20 -280,-12.5 -395,-97.5 l -3162.5,-2302.5 c -17.5,-15 -30,-32.5 -37.5,-52.5 h -2.5 l -330,-742.5 c -17.5,-42.5 -12.5,-90 12.5,-125 25,-32.5 62.5,-52.5 102.5,-52.5 5,0 7.5,2.5 12.5,2.5 l 810,85 v 5 c 20,2.5 42.5,5 60,20 l 3160,2302.5 c 115,85 190,207.5 212.5,347.5 22.5,142.5 -12.5,282.5 -95,397.5"
         style="fill:#231f20;fill-opacity:1;fill-rule:nonzero;stroke:none"
         id="path34" />
      <path
         d="m 9395.29,6440 c -22.5,-35 -60,-57.5 -102.5,-62.5 -42.5,-7.5 -82.5,2.5 -117.5,27.5 -5,5 -7.5,10 -12.5,15 -10,10 -22.5,20 -27.5,32.5 -12.5,17.5 -17.5,35 -22.5,57.5 -5,42.5 5,82.5 30,117.5 l 1362.51,1842.5 c 65,-90 150,-152.5 252.5,-190 z m -455,335 c -15,-22.5 -30,-45 -40,-70 -5,-7.5 -7.5,-20 -10,-30 -7.5,-15 -12.5,-27.5 -17.5,-45 l -2177.5,1610 c -35,25 -57.5,62.5 -62.5,105 -7.5,42.5 2.5,82.5 27.5,117.5 l 1412.5,1895 c 2.5,0 2.5,0 5,0 5,0 10,-2.5 17.5,-5 l 2255.01,-1670 z m 2040.01,1722.5 c -180,0 -282.5,75 -335,247.5 0,2.5 -2.5,5 -5,7.5 -5,15 -15,30 -25,40 -5,5 -7.5,7.5 -10,12.5 -2.5,0 -2.5,2.5 -5,5 l -2357.51,1742.5 c -60,45 -135,62.5 -207.5,52.5 -72.5,-12.5 -137.5,-50 -182.5,-110 l -1392.5,-1885 c -65,-87.5 -92.5,-195 -75,-302.5 15,-107.5 72.5,-202.5 160,-267.5 l 2482.5,-1835 c 70,-52.5 155,-80 240,-80 20,0 42.5,2.5 62.5,5 107.5,15 202.5,72.5 267.5,160 l 1485.01,2007.5 c 27.5,37.5 32.5,87.5 10,130 -20,42.5 -65,70 -112.5,70"
         style="fill:#231f20;fill-opacity:1;fill-rule:nonzero;stroke:none"
         id="path36" />
      <path
         d="m 16105.3,17600 -120,82.5 42.5,132.5 147.5,-5 c 42.5,0 80,17.5 105,52.5 l 165,225 c 22.5,35 30,77.5 15,117.5 l -47.5,137.5 112.5,80 115,-87.5 c 32.5,-25 75,-32.5 115,-20 l 267.5,85 c 37.5,15 67.5,45 80,85 l 42.5,140 h 137.5 l 42.5,-140 c 12.5,-40 42.5,-70 80,-85 l 267.5,-85 c 40,-12.5 82.5,-5 115,20 l 115,87.5 115,-80 -50,-137.5 c -15,-40 -7.5,-82.5 17.5,-117.5 l 165,-225 c 22.5,-35 57.5,-52.5 102.5,-52.5 l 147.5,5 42.5,-132.5 -120,-82.5 c -35,-25 -55,-62.5 -55,-105 v -280 c 0,-40 20,-80 55,-102.5 l 120,-82.5 -42.5,-132.5 -147.5,5 c -45,0 -80,-20 -102.5,-52.5 l -165,-227.5 c -25,-32.5 -32.5,-75 -17.5,-115 l 50,-137.5 -115,-82.5 -115,90 c -32.5,25 -75,32.5 -115,20 l -267.5,-87.5 c -37.5,-12.5 -67.5,-42.5 -80,-82.5 l -42.5,-140 h -137.5 l -42.5,140 c -12.5,40 -42.5,70 -80,82.5 l -267.5,87.5 c -40,12.5 -82.5,5 -115,-20 l -115,-90 -112.5,82.5 47.5,137.5 c 15,40 7.5,82.5 -15,115 l -165,227.5 c -25,32.5 -62.5,52.5 -105,52.5 l -147.5,-5 -42.5,132.5 120,82.5 c 35,22.5 55,62.5 55,102.5 v 280 c 0,42.5 -20,80 -55,105 z m -337.5,-417.5 c -47.5,-30 -65,-87.5 -50,-140 l 102.5,-312.5 c 17.5,-52.5 67.5,-82.5 122.5,-85 l 172.5,5 87.5,-120 -57.5,-165 c -20,-52.5 0,-110 45,-142.5 l 262.5,-192.5 c 45,-32.5 105,-30 150,2.5 l 137.5,107.5 142.5,-47.5 47.5,-167.5 c 17.5,-52.5 65,-87.5 120,-87.5 h 327.5 c 55,0 102.5,35 120,87.5 l 47.5,167.5 142.5,47.5 137.5,-107.5 c 45,-32.5 105,-35 150,-2.5 l 265,192.5 c 45,32.5 62.5,90 42.5,142.5 l -57.5,165 87.5,120 175,-5 c 47.5,2.5 102.5,32.5 120,85 l 102.5,312.5 c 17.5,52.5 -2.5,110 -50,140 l -142.5,100 v 147.5 l 142.5,97.5 c 47.5,32.5 67.5,90 50,142.5 l -102.5,310 c -17.5,52.5 -70,90 -120,87.5 l -175,-5 -87.5,120 57.5,162.5 c 20,52.5 2.5,112.5 -42.5,145 l -265,190 c -45,32.5 -105,32.5 -150,-2.5 l -137.5,-105 -142.5,45 -47.5,167.5 c -17.5,52.5 -65,90 -120,90 h -327.5 c -55,0 -102.5,-37.5 -120,-90 l -47.5,-167.5 -142.5,-45 -137.5,105 c -45,35 -105,35 -150,2.5 l -262.5,-190 c -45,-32.5 -65,-92.5 -45,-145 l 57.5,-162.5 -87.5,-120 -172.5,5 c -55,2.5 -105,-35 -122.5,-87.5 l -102.5,-310 c -15,-52.5 2.5,-110 50,-142.5 l 142.5,-97.5 v -147.5 l -142.5,-100"
         style="fill:#231f20;fill-opacity:1;fill-rule:nonzero;stroke:none"
         id="path46" />
      <path
         d="m 7927.79,8007.5 -720,532.5 885,1197.5 720,-532.5 z m 1185,1242.5 c -5,32.5 -22.5,62.5 -50,82.5 l -920,680 c -55,42.5 -135,30 -175,-25 l -1035,-1400 c -20,-27.5 -30,-60 -25,-92.5 5,-32.5 22.5,-62.5 50,-82.5 l 920,-680 c 22.5,-17.5 50,-25 75,-25 37.5,0 75,17.5 100,50 l 1037.5,1400 c 17.5,27.5 27.5,60 22.5,92.5"
         style="fill:#231f20;fill-opacity:1;fill-rule:nonzero;stroke:none"
         id="path38" />
      <path
         d="m 9328.3,8975.5 -1035.4,-1400.4 201.17,-148.6 1035.4,1400.3 -201.17,148.7"
         style="fill:#231f20;fill-opacity:1;fill-rule:nonzero;stroke:none"
         id="path40" />
      <path
         d="m 8657.92,7310.5 201.17,-148.6 262.96,355.4 -201.18,148.7 -262.95,-355.5"
         style="fill:#231f20;fill-opacity:1;fill-rule:nonzero;stroke:none"
         id="path42" />
      <path
         d="m 9693.57,8710.9 -649.18,-877.9 201.18,-148.7 649.18,877.9 -201.18,148.7"
         style="fill:#231f20;fill-opacity:1;fill-rule:nonzero;stroke:none"
         id="path44" />
      <path
         d="m 16882.8,17687.5 c 182.5,182.5 480,182.5 662.5,0 182.5,-182.5 182.5,-480 0,-662.5 -182.5,-185 -480,-185 -662.5,0 -182.5,182.5 -182.5,480 0,662.5 z m 332.5,-1050 c 182.5,0 367.5,70 507.5,210 280,280 280,737.5 0,1017.5 -280,280 -737.5,280 -1017.5,0 -280,-280 -280,-737.5 0,-1017.5 140,-140 325,-210 510,-210"
         style="fill:#231f20;fill-opacity:1;fill-rule:nonzero;stroke:none"
         id="path48" />
    </g>
  </g>
</svg>
