<?xml version="1.0" encoding="UTF-8" standalone="no"?>
<svg
   width="1608.4591pt"
   height="2217.2561pt"
   viewBox="0 0 1608.4591 2217.2562"
   version="1.1"
   id="svg608"
   sodipodiDocname="coloured-balls-bg.svg"
   xmlnsInkscape="http://www.inkscape.org/namespaces/inkscape"
   xmlnsSodipodi="http://sodipodi.sourceforge.net/DTD/sodipodi-0.dtd"
   xmlns="http://www.w3.org/2000/svg"
   xmlnsSvg="http://www.w3.org/2000/svg">
  <sodipodiNamedview
     id="namedview610"
     pagecolor="#ffffff"
     bordercolor="#666666"
     borderopacity="1.0"
     inkscapeShowpageshadow="2"
     inkscapePageopacity="0.0"
     inkscapePagecheckerboard="0"
     inkscapeDeskcolor="#d1d1d1"
     inkscapeDocument-units="pt"
     showgrid="false" />
  <defs
     id="defs5">
    <clipPath
       id="clip1">
      <path
         d="M 0,0 H 1785.8281 V 2525.6719 H 0 Z m 0,0"
         id="path2" />
    </clipPath>
    <clipPath
       clipPathUnits="userSpaceOnUse"
       id="clipPath824">
      <rect
         style="fill:none;stroke-width:0.743372"
         id="rect826"
         width="1608.4591"
         height="2217.2561"
         x="90.238144"
         y="152.10902" />
    </clipPath>
  </defs>
  <g
     id="surface1"
     clip-path="url(#clipPath824)"
     transform="translate(-90.238144,-152.10902)">
    <g
       clip-path="url(#clip1)"
       clip-rule="nonzero"
       id="g9">
      <path
         style="fill:#ffffff;fill-opacity:1;fill-rule:nonzero;stroke:none"
         d="M 1785.8281,2525.6719 H 0 V 0 h 1785.8281 v 2525.6719"
         id="path7" />
    </g>
    <path
       style="fill:#f399bf;fill-opacity:1;fill-rule:nonzero;stroke:none"
       d="m 1616.6484,1130.3594 c 0,3.6289 -2.9375,6.582 -6.5781,6.582 -3.6289,0 -6.582,-2.9531 -6.582,-6.582 0,-3.6406 2.9531,-6.5781 6.582,-6.5781 3.6406,0 6.5781,2.9375 6.5781,6.5781"
       id="path11" />
    <path
       style="fill:#2b7fc5;fill-opacity:1;fill-rule:nonzero;stroke:none"
       d="m 224.51172,2025.4102 c 0,2.1015 -1.70313,3.8007 -3.80469,3.8007 -2.09766,0 -3.80078,-1.6992 -3.80078,-3.8007 0,-2.1016 1.70312,-3.8008 3.80078,-3.8008 2.10156,0 3.80469,1.6992 3.80469,3.8008"
       id="path13" />
    <path
       style="fill:#f399bf;fill-opacity:1;fill-rule:nonzero;stroke:none"
       d="m 1643.9688,864.58984 c 0,11.89844 -9.6485,21.55078 -21.5469,21.55078 -11.8906,0 -21.543,-9.65234 -21.543,-21.55078 0,-11.89062 9.6524,-21.53906 21.543,-21.53906 11.8984,0 21.5469,9.64844 21.5469,21.53906"
       id="path15" />
    <path
       style="fill:#00a651;fill-opacity:1;fill-rule:nonzero;stroke:none"
       d="m 1475.0195,286.55859 c 0,3.78125 -3.0703,6.86328 -6.8593,6.86328 -3.7891,0 -6.8711,-3.08203 -6.8711,-6.86328 0,-3.79687 3.082,-6.86718 6.8711,-6.86718 3.789,0 6.8593,3.07031 6.8593,6.86718"
       id="path17" />
    <path
       style="fill:#855ca8;fill-opacity:1;fill-rule:nonzero;stroke:none"
       d="m 1677.8086,1016.4414 c 0,16.5899 -13.457,30.0469 -30.0469,30.0469 -16.6015,0 -30.0508,-13.457 -30.0508,-30.0469 0,-16.60156 13.4493,-30.05078 30.0508,-30.05078 16.5899,0 30.0469,13.44922 30.0469,30.05078"
       id="path19" />
    <path
       style="fill:#f8de59;fill-opacity:1;fill-rule:nonzero;stroke:none"
       d="m 692.11719,2266.2383 c 0,14.9609 -12.12891,27.0898 -27.08985,27.0898 -14.96093,0 -27.08984,-12.1289 -27.08984,-27.0898 0,-14.957 12.12891,-27.0899 27.08984,-27.0899 14.96094,0 27.08985,12.1329 27.08985,27.0899"
       id="path21" />
    <path
       style="fill:#00a651;fill-opacity:1;fill-rule:nonzero;stroke:none"
       d="m 1654.1797,2054.2383 c 0,5.8008 -4.6992,10.5 -10.4883,10.5 -5.8008,0 -10.5,-4.6992 -10.5,-10.5 0,-5.7969 4.6992,-10.5 10.5,-10.5 5.7891,0 10.4883,4.7031 10.4883,10.5"
       id="path23" />
    <path
       style="fill:#00a651;fill-opacity:1;fill-rule:nonzero;stroke:none"
       d="m 1398.6289,227.71094 c 0,3.10937 -2.5078,5.61718 -5.6172,5.61718 -3.1015,0 -5.6211,-2.50781 -5.6211,-5.61718 0,-3.10157 2.5196,-5.6211 5.6211,-5.6211 3.1094,0 5.6172,2.51953 5.6172,5.6211"
       id="path25" />
    <path
       style="fill:#2b7fc5;fill-opacity:1;fill-rule:nonzero;stroke:none"
       d="m 163.36328,1575.2617 c 0,4.2383 -3.43359,7.6797 -7.67187,7.6797 -4.23829,0 -7.67579,-3.4414 -7.67579,-7.6797 0,-4.2422 3.4375,-7.6719 7.67579,-7.6719 4.23828,0 7.67187,3.4297 7.67187,7.6719"
       id="path27" />
    <path
       style="fill:#00a651;fill-opacity:1;fill-rule:nonzero;stroke:none"
       d="m 432.00391,2316.8203 c 0,10.8516 -8.79297,19.6406 -19.63672,19.6406 -10.84766,0 -19.64063,-8.789 -19.64063,-19.6406 0,-10.8515 8.79297,-19.6406 19.64063,-19.6406 10.84375,0 19.63672,8.7891 19.63672,19.6406"
       id="path29" />
    <path
       style="fill:#855ca8;fill-opacity:1;fill-rule:nonzero;stroke:none"
       d="m 1362.6016,265.53125 c 0,11.33984 -9.1914,20.52734 -20.5235,20.52734 -11.3398,0 -20.5273,-9.1875 -20.5273,-20.52734 0,-11.33984 9.1875,-20.53125 20.5273,-20.53125 11.3321,0 20.5235,9.19141 20.5235,20.53125"
       id="path31" />
    <path
       style="fill:#855ca8;fill-opacity:1;fill-rule:nonzero;stroke:none"
       d="m 1209.9102,286.89844 c 0,9.86328 -7.9883,17.85156 -17.8516,17.85156 -9.8594,0 -17.8477,-7.98828 -17.8477,-17.85156 0,-9.85938 7.9883,-17.84766 17.8477,-17.84766 9.8633,0 17.8516,7.98828 17.8516,17.84766"
       id="path33" />
    <path
       style="fill:#f8de59;fill-opacity:1;fill-rule:nonzero;stroke:none"
       d="m 637.10156,2285.4102 c 0,2.6289 -2.14062,4.7695 -4.77734,4.7695 -2.63672,0 -4.77344,-2.1406 -4.77344,-4.7695 0,-2.6407 2.13672,-4.7813 4.77344,-4.7813 2.63672,0 4.77734,2.1406 4.77734,4.7813"
       id="path35" />
    <path
       style="fill:#ee2626;fill-opacity:1;fill-rule:nonzero;stroke:none"
       d="m 1623,991.96875 c 0,2.87109 -2.3281,5.20312 -5.1914,5.20312 -2.8672,0 -5.1992,-2.33203 -5.1992,-5.20312 0,-2.85938 2.332,-5.1875 5.1992,-5.1875 2.8633,0 5.1914,2.32812 5.1914,5.1875"
       id="path37" />
    <path
       style="fill:#f399bf;fill-opacity:1;fill-rule:nonzero;stroke:none"
       d="m 239.50391,249.58984 c 0,17.60157 -14.26954,31.8711 -31.875,31.8711 -17.60157,0 -31.8711,-14.26953 -31.8711,-31.8711 0,-17.60156 14.26953,-31.87109 31.8711,-31.87109 17.60546,0 31.875,14.26953 31.875,31.87109"
       id="path39" />
    <path
       style="fill:#855ca8;fill-opacity:1;fill-rule:nonzero;stroke:none"
       d="m 1616.9688,2281.6992 c 0,8.6797 -7.0274,15.711 -15.7071,15.711 -8.6719,0 -15.7109,-7.0313 -15.7109,-15.711 0,-8.6797 7.039,-15.7109 15.7109,-15.7109 8.6797,0 15.7071,7.0312 15.7071,15.7109"
       id="path41" />
    <path
       style="fill:#00a651;fill-opacity:1;fill-rule:nonzero;stroke:none"
       d="m 364.69531,2319.7383 c 0,10.582 -8.58203,19.1719 -19.16797,19.1719 -10.58593,0 -19.16797,-8.5899 -19.16797,-19.1719 0,-10.5899 8.58204,-19.168 19.16797,-19.168 10.58594,0 19.16797,8.5781 19.16797,19.168"
       id="path43" />
    <path
       style="fill:#f399bf;fill-opacity:1;fill-rule:nonzero;stroke:none"
       d="m 156.03125,268.03906 c 0,2.10938 -1.71094,3.82031 -3.82031,3.82031 -2.11328,0 -3.82422,-1.71093 -3.82422,-3.82031 0,-2.11719 1.71094,-3.82812 3.82422,-3.82812 2.10937,0 3.82031,1.71093 3.82031,3.82812"
       id="path45" />
    <path
       style="fill:#f8de59;fill-opacity:1;fill-rule:nonzero;stroke:none"
       d="m 757.53125,2287.1602 c 0,5.3984 -4.375,9.7695 -9.76953,9.7695 -5.39453,0 -9.76953,-4.3711 -9.76953,-9.7695 0,-5.3907 4.375,-9.7696 9.76953,-9.7696 5.39453,0 9.76953,4.3789 9.76953,9.7696"
       id="path47" />
    <path
       style="fill:#2b7fc5;fill-opacity:1;fill-rule:nonzero;stroke:none"
       d="m 1612.4492,1064.1797 c 0,2.0586 -1.6601,3.7305 -3.7187,3.7305 -2.0586,0 -3.7305,-1.6719 -3.7305,-3.7305 0,-2.0508 1.6719,-3.7188 3.7305,-3.7188 2.0586,0 3.7187,1.668 3.7187,3.7188"
       id="path49" />
    <path
       style="fill:#ee2626;fill-opacity:1;fill-rule:nonzero;stroke:none"
       d="m 1603.75,1797.6289 c 0,14.9414 -12.1094,27.0625 -27.0586,27.0625 -14.9531,0 -27.0703,-12.1211 -27.0703,-27.0625 0,-14.9492 12.1172,-27.0703 27.0703,-27.0703 14.9492,0 27.0586,12.1211 27.0586,27.0703"
       id="path51" />
    <path
       style="fill:#855ca8;fill-opacity:1;fill-rule:nonzero;stroke:none"
       d="m 188.03125,375.87109 c 0,16.07813 -13.03516,29.10938 -29.11328,29.10938 -16.08203,0 -29.11719,-13.03125 -29.11719,-29.10938 0,-16.08203 13.03516,-29.12109 29.11719,-29.12109 16.07812,0 29.11328,13.03906 29.11328,29.12109"
       id="path53" />
    <path
       style="fill:#855ca8;fill-opacity:1;fill-rule:nonzero;stroke:none"
       d="m 184.10547,1395.9492 c 0,13.9219 -11.27735,25.1992 -25.19531,25.1992 -13.91407,0 -25.19141,-11.2773 -25.19141,-25.1992 0,-13.9101 11.27734,-25.1875 25.19141,-25.1875 13.91796,0 25.19531,11.2774 25.19531,25.1875"
       id="path55" />
    <path
       style="fill:#f8de59;fill-opacity:1;fill-rule:nonzero;stroke:none"
       d="m 227.57422,1717.5 c 0,14.1914 -11.50391,25.6992 -25.69531,25.6992 -14.19141,0 -25.69532,-11.5078 -25.69532,-25.6992 0,-14.1914 11.50391,-25.6914 25.69532,-25.6914 14.1914,0 25.69531,11.5 25.69531,25.6914"
       id="path57" />
    <path
       style="fill:#ee2626;fill-opacity:1;fill-rule:nonzero;stroke:none"
       d="m 160.94141,1514.2891 c 0,7.7422 -6.26954,14.0117 -14.00782,14.0117 -7.73437,0 -14.0039,-6.2695 -14.0039,-14.0117 0,-7.7305 6.26953,-14 14.0039,-14 7.73828,0 14.00782,6.2695 14.00782,14"
       id="path59" />
    <path
       style="fill:#00a651;fill-opacity:1;fill-rule:nonzero;stroke:none"
       d="m 610.13672,2244.3594 c 0,17.2695 -13.9961,31.2695 -31.26563,31.2695 -17.26562,0 -31.26172,-14 -31.26172,-31.2695 0,-17.2578 13.9961,-31.2578 31.26172,-31.2578 17.26953,0 31.26563,14 31.26563,31.2578"
       id="path61" />
    <path
       style="fill:#00a651;fill-opacity:1;fill-rule:nonzero;stroke:none"
       d="m 819.11719,2297.8086 c 0,2.3906 -1.9336,4.332 -4.32422,4.332 -2.39063,0 -4.32813,-1.9414 -4.32813,-4.332 0,-2.3867 1.9375,-4.3203 4.32813,-4.3203 2.39062,0 4.32422,1.9336 4.32422,4.3203"
       id="path63" />
    <path
       style="fill:#2b7fc5;fill-opacity:1;fill-rule:nonzero;stroke:none"
       d="m 1589.3008,971.83984 c 0,8.01172 -6.4922,14.48828 -14.4922,14.48828 -8,0 -14.4883,-6.47656 -14.4883,-14.48828 0,-8 6.4883,-14.48047 14.4883,-14.48047 8,0 14.4922,6.48047 14.4922,14.48047"
       id="path65" />
    <path
       style="fill:#855ca8;fill-opacity:1;fill-rule:nonzero;stroke:none"
       d="m 244.45312,599.53906 c 0,16.33985 -13.24609,29.58985 -29.58203,29.58985 -16.33984,0 -29.58203,-13.25 -29.58203,-29.58985 0,-16.32812 13.24219,-29.57812 29.58203,-29.57812 16.33594,0 29.58203,13.25 29.58203,29.57812"
       id="path67" />
    <path
       style="fill:#855ca8;fill-opacity:1;fill-rule:nonzero;stroke:none"
       d="m 159.73437,2214.6992 c 0,17.7891 -14.42578,32.2227 -32.21874,32.2227 -17.79688,0 -32.218755,-14.4336 -32.218755,-32.2227 0,-17.789 14.421875,-32.2187 32.218755,-32.2187 17.79296,0 32.21874,14.4297 32.21874,32.2187"
       id="path69" />
    <path
       style="fill:#2b7fc5;fill-opacity:1;fill-rule:nonzero;stroke:none"
       d="m 244.08594,678.05859 c 0,15.83203 -12.83203,28.66016 -28.65625,28.66016 -15.82813,0 -28.65625,-12.82813 -28.65625,-28.66016 0,-15.82812 12.82812,-28.64843 28.65625,-28.64843 15.82422,0 28.65625,12.82031 28.65625,28.64843"
       id="path71" />
    <path
       style="fill:#00a651;fill-opacity:1;fill-rule:nonzero;stroke:none"
       d="m 1659.2891,737.19141 c 0,14.36718 -11.6485,26.01953 -26.0274,26.01953 -14.3711,0 -26.0234,-11.65235 -26.0234,-26.01953 0,-14.3711 11.6523,-26.03125 26.0234,-26.03125 14.3789,0 26.0274,11.66015 26.0274,26.03125"
       id="path73" />
    <path
       style="fill:#855ca8;fill-opacity:1;fill-rule:nonzero;stroke:none"
       d="m 1584.4297,1924.6797 c 0,10.2695 -8.3281,18.6016 -18.6016,18.6016 -10.2695,0 -18.5898,-8.3321 -18.5898,-18.6016 0,-10.2695 8.3203,-18.5899 18.5898,-18.5899 10.2735,0 18.6016,8.3204 18.6016,18.5899"
       id="path75" />
    <path
       style="fill:#f8de59;fill-opacity:1;fill-rule:nonzero;stroke:none"
       d="m 1676.6797,1850.6797 c 0,14.3906 -11.668,26.0508 -26.0586,26.0508 -14.3906,0 -26.0508,-11.6602 -26.0508,-26.0508 0,-14.3906 11.6602,-26.0508 26.0508,-26.0508 14.3906,0 26.0586,11.6602 26.0586,26.0508"
       id="path77" />
    <path
       style="fill:#ee2626;fill-opacity:1;fill-rule:nonzero;stroke:none"
       d="m 1630.75,595.80078 c 0,15.6875 -12.7187,28.41797 -28.4219,28.41797 -15.6875,0 -28.4179,-12.73047 -28.4179,-28.41797 0,-15.69922 12.7304,-28.42187 28.4179,-28.42187 15.7032,0 28.4219,12.72265 28.4219,28.42187"
       id="path79" />
    <path
       style="fill:#f399bf;fill-opacity:1;fill-rule:nonzero;stroke:none"
       d="m 521.37109,2253.6719 c 0,12.289 -9.96484,22.25 -22.2539,22.25 -12.28907,0 -22.25391,-9.961 -22.25391,-22.25 0,-12.293 9.96484,-22.2617 22.25391,-22.2617 12.28906,0 22.2539,9.9687 22.2539,22.2617"
       id="path81" />
    <path
       style="fill:#00a651;fill-opacity:1;fill-rule:nonzero;stroke:none"
       d="m 720.53516,2251.6289 c 0,4.1016 -3.31641,7.4219 -7.41407,7.4219 -4.09375,0 -7.41406,-3.3203 -7.41406,-7.4219 0,-4.0898 3.32031,-7.4101 7.41406,-7.4101 4.09766,0 7.41407,3.3203 7.41407,7.4101"
       id="path83" />
    <path
       style="fill:#f399bf;fill-opacity:1;fill-rule:nonzero;stroke:none"
       d="m 229.82422,1371.7383 c 0,9.1914 -7.45703,16.6523 -16.65625,16.6523 -9.19922,0 -16.65625,-7.4609 -16.65625,-16.6523 0,-9.1992 7.45703,-16.6602 16.65625,-16.6602 9.19922,0 16.65625,7.461 16.65625,16.6602"
       id="path85" />
    <path
       style="fill:#f8de59;fill-opacity:1;fill-rule:nonzero;stroke:none"
       d="m 1575.8594,679.35937 c 0,3.08985 -2.5078,5.60157 -5.5977,5.60157 -3.0898,0 -5.6015,-2.51172 -5.6015,-5.60157 0,-3.08984 2.5117,-5.59765 5.6015,-5.59765 3.0899,0 5.5977,2.50781 5.5977,5.59765"
       id="path87" />
    <path
       style="fill:#00a651;fill-opacity:1;fill-rule:nonzero;stroke:none"
       d="m 1566.2695,1030.5508 c 0,2.168 -1.7695,3.9375 -3.9492,3.9375 -2.1719,0 -3.9414,-1.7695 -3.9414,-3.9375 0,-2.1797 1.7695,-3.9492 3.9414,-3.9492 2.1797,0 3.9492,1.7695 3.9492,3.9492"
       id="path89" />
    <path
       style="fill:#2b7fc5;fill-opacity:1;fill-rule:nonzero;stroke:none"
       d="m 241.79297,1338.9219 c 0,15.9297 -12.91406,28.8476 -28.84375,28.8476 -15.92969,0 -28.84375,-12.9179 -28.84375,-28.8476 0,-15.9219 12.91406,-28.8438 28.84375,-28.8438 15.92969,0 28.84375,12.9219 28.84375,28.8438"
       id="path91" />
    <path
       style="fill:#f399bf;fill-opacity:1;fill-rule:nonzero;stroke:none"
       d="m 1573.9414,1525.4805 c 0,2.0195 -1.6406,3.6484 -3.6523,3.6484 -2.0196,0 -3.6485,-1.6289 -3.6485,-3.6484 0,-2.0117 1.6289,-3.6524 3.6485,-3.6524 2.0117,0 3.6523,1.6407 3.6523,3.6524"
       id="path93" />
    <path
       style="fill:#f8de59;fill-opacity:1;fill-rule:nonzero;stroke:none"
       d="m 1613.6406,413.64844 c 0,5.6914 -4.6211,10.30078 -10.3125,10.30078 -5.6797,0 -10.2968,-4.60938 -10.2968,-10.30078 0,-5.6875 4.6171,-10.29688 10.2968,-10.29688 5.6914,0 10.3125,4.60938 10.3125,10.29688"
       id="path95" />
    <path
       style="fill:#00a651;fill-opacity:1;fill-rule:nonzero;stroke:none"
       d="m 237.17187,452.33984 c 0,10.60157 -8.58984,19.17969 -19.17968,19.17969 -10.59375,0 -19.17969,-8.57812 -19.17969,-19.17969 0,-10.58984 8.58594,-19.16797 19.17969,-19.16797 10.58984,0 19.17968,8.57813 19.17968,19.16797"
       id="path97" />
    <path
       style="fill:#f399bf;fill-opacity:1;fill-rule:nonzero;stroke:none"
       d="m 1667.5195,1131.3398 c 0,4.0508 -3.289,7.3321 -7.3398,7.3321 -4.0508,0 -7.3281,-3.2813 -7.3281,-7.3321 0,-4.0507 3.2773,-7.3398 7.3281,-7.3398 4.0508,0 7.3398,3.2891 7.3398,7.3398"
       id="path99" />
    <path
       style="fill:#ee2626;fill-opacity:1;fill-rule:nonzero;stroke:none"
       d="m 1590.2383,1195.3906 c 0,14.2813 -11.5664,25.8594 -25.8477,25.8594 -14.2812,0 -25.8515,-11.5781 -25.8515,-25.8594 0,-14.2695 11.5703,-25.8515 25.8515,-25.8515 14.2813,0 25.8477,11.582 25.8477,25.8515"
       id="path101" />
    <path
       style="fill:#00a651;fill-opacity:1;fill-rule:nonzero;stroke:none"
       d="m 212.57422,700.76953 c 0,2.90234 -2.34766,5.24219 -5.24219,5.24219 -2.89844,0 -5.24609,-2.33985 -5.24609,-5.24219 0,-2.89844 2.34765,-5.25 5.24609,-5.25 2.89453,0 5.24219,2.35156 5.24219,5.25"
       id="path103" />
    <path
       style="fill:#f399bf;fill-opacity:1;fill-rule:nonzero;stroke:none"
       d="m 1613.3789,2159.3281 c 0,11.8828 -9.6289,21.5117 -21.5195,21.5117 -11.8789,0 -21.5078,-9.6289 -21.5078,-21.5117 0,-11.8867 9.6289,-21.5195 21.5078,-21.5195 11.8906,0 21.5195,9.6328 21.5195,21.5195"
       id="path105" />
    <path
       style="fill:#855ca8;fill-opacity:1;fill-rule:nonzero;stroke:none"
       d="m 249.94531,727.08984 c 0,12.41016 -10.05469,22.46094 -22.46094,22.46094 -12.40234,0 -22.45703,-10.05078 -22.45703,-22.46094 0,-12.39843 10.05469,-22.44922 22.45703,-22.44922 12.40625,0 22.46094,10.05079 22.46094,22.44922"
       id="path107" />
    <path
       style="fill:#f399bf;fill-opacity:1;fill-rule:nonzero;stroke:none"
       d="m 172.82812,1981.2305 c 0,7.3711 -5.97265,13.3398 -13.33984,13.3398 -7.37109,0 -13.34375,-5.9687 -13.34375,-13.3398 0,-7.3711 5.97266,-13.3399 13.34375,-13.3399 7.36719,0 13.33984,5.9688 13.33984,13.3399"
       id="path109" />
    <path
       style="fill:#f8de59;fill-opacity:1;fill-rule:nonzero;stroke:none"
       d="m 1617.7383,2237.2813 c 0,8.5976 -6.9688,15.5781 -15.5781,15.5781 -8.6016,0 -15.5704,-6.9805 -15.5704,-15.5781 0,-8.6016 6.9688,-15.5821 15.5704,-15.5821 8.6093,0 15.5781,6.9805 15.5781,15.5821"
       id="path111" />
    <path
       style="fill:#855ca8;fill-opacity:1;fill-rule:nonzero;stroke:none"
       d="m 178.56641,1346.0586 c 0,16.1328 -13.07422,29.2031 -29.20313,29.2031 -16.125,0 -29.20312,-13.0703 -29.20312,-29.2031 0,-16.1289 13.07812,-29.207 29.20312,-29.207 16.12891,0 29.20313,13.0781 29.20313,29.207"
       id="path113" />
    <path
       style="fill:#2b7fc5;fill-opacity:1;fill-rule:nonzero;stroke:none"
       d="m 1575.2188,197.28906 c 0,8.69922 -7.0469,15.76172 -15.75,15.76172 -8.6993,0 -15.7579,-7.0625 -15.7579,-15.76172 0,-8.6875 7.0586,-15.75 15.7579,-15.75 8.7031,0 15.75,7.0625 15.75,15.75"
       id="path115" />
    <path
       style="fill:#ee2626;fill-opacity:1;fill-rule:nonzero;stroke:none"
       d="m 1609.6914,2203.4805 c 0,6.8984 -5.6016,12.5 -12.5117,12.5 -6.8984,0 -12.5,-5.6016 -12.5,-12.5 0,-6.9102 5.6016,-12.5117 12.5,-12.5117 6.9101,0 12.5117,5.6015 12.5117,12.5117"
       id="path117" />
    <path
       style="fill:#2b7fc5;fill-opacity:1;fill-rule:nonzero;stroke:none"
       d="m 221.84766,734.44922 c 0,15.28125 -12.39454,27.67969 -27.6836,27.67969 -15.28515,0 -27.67969,-12.39844 -27.67969,-27.67969 0,-15.28906 12.39454,-27.6875 27.67969,-27.6875 15.28906,0 27.6836,12.39844 27.6836,27.6875"
       id="path119" />
    <path
       style="fill:#00a651;fill-opacity:1;fill-rule:nonzero;stroke:none"
       d="m 164.50391,1076.3516 c 0,11.0273 -8.94532,19.9765 -19.98047,19.9765 -11.03125,0 -19.97266,-8.9492 -19.97266,-19.9765 0,-11.0313 8.94141,-19.9805 19.97266,-19.9805 11.03515,0 19.98047,8.9492 19.98047,19.9805"
       id="path121" />
    <path
       style="fill:#00a651;fill-opacity:1;fill-rule:nonzero;stroke:none"
       d="m 1031.3906,2271.3984 c 0,2.3125 -1.8711,4.1797 -4.1797,4.1797 -2.3125,0 -4.1797,-1.8672 -4.1797,-4.1797 0,-2.3086 1.8672,-4.1796 4.1797,-4.1796 2.3086,0 4.1797,1.871 4.1797,4.1796"
       id="path123" />
    <path
       style="fill:#855ca8;fill-opacity:1;fill-rule:nonzero;stroke:none"
       d="m 1587.5117,714.67969 c 0,12.05859 -9.7812,21.83984 -21.8398,21.83984 -12.0625,0 -21.8438,-9.78125 -21.8438,-21.83984 0,-12.0586 9.7813,-21.83985 21.8438,-21.83985 12.0586,0 21.8398,9.78125 21.8398,21.83985"
       id="path125" />
    <path
       style="fill:#2b7fc5;fill-opacity:1;fill-rule:nonzero;stroke:none"
       d="m 928.97656,233.55078 c 0,13.71875 -11.12109,24.83984 -24.83984,24.83984 -13.71875,0 -24.83985,-11.12109 -24.83985,-24.83984 0,-13.72266 11.1211,-24.83984 24.83985,-24.83984 13.71875,0 24.83984,11.11718 24.83984,24.83984"
       id="path127" />
    <path
       style="fill:#f8de59;fill-opacity:1;fill-rule:nonzero;stroke:none"
       d="m 246.62109,2130.7305 c 0,15.8476 -12.84765,28.6992 -28.69922,28.6992 -15.84765,0 -28.69531,-12.8516 -28.69531,-28.6992 0,-15.8516 12.84766,-28.6992 28.69531,-28.6992 15.85157,0 28.69922,12.8476 28.69922,28.6992"
       id="path129" />
    <path
       style="fill:#f8de59;fill-opacity:1;fill-rule:nonzero;stroke:none"
       d="m 1572.2813,2180.1016 c 0,2.3398 -1.9024,4.2265 -4.2422,4.2265 -2.3282,0 -4.2305,-1.8867 -4.2305,-4.2265 0,-2.3321 1.9023,-4.2305 4.2305,-4.2305 2.3398,0 4.2422,1.8984 4.2422,4.2305"
       id="path131" />
    <path
       style="fill:#f399bf;fill-opacity:1;fill-rule:nonzero;stroke:none"
       d="m 1075.0898,2246.3008 c 0,3.4883 -2.8281,6.3281 -6.3281,6.3281 -3.5,0 -6.3398,-2.8398 -6.3398,-6.3281 0,-3.5 2.8398,-6.3399 6.3398,-6.3399 3.5,0 6.3281,2.8399 6.3281,6.3399"
       id="path133" />
    <path
       style="fill:#ee2626;fill-opacity:1;fill-rule:nonzero;stroke:none"
       d="m 1648.5391,942.55078 c 0,3.48047 -2.8086,6.28906 -6.2774,6.28906 -3.4726,0 -6.2929,-2.80859 -6.2929,-6.28906 0,-3.47266 2.8203,-6.28125 6.2929,-6.28125 3.4688,0 6.2774,2.80859 6.2774,6.28125"
       id="path135" />
    <path
       style="fill:#f399bf;fill-opacity:1;fill-rule:nonzero;stroke:none"
       d="m 1650.3516,1808.2109 c 0,15.7774 -12.793,28.5704 -28.5703,28.5704 -15.7813,0 -28.5704,-12.793 -28.5704,-28.5704 0,-15.7812 12.7891,-28.582 28.5704,-28.582 15.7773,0 28.5703,12.8008 28.5703,28.582"
       id="path137" />
    <path
       style="fill:#2b7fc5;fill-opacity:1;fill-rule:nonzero;stroke:none"
       d="m 1623.1797,1537.5 c 0,2.5586 -2.0703,4.6289 -4.6289,4.6289 -2.5625,0 -4.6289,-2.0703 -4.6289,-4.6289 0,-2.5586 2.0664,-4.6289 4.6289,-4.6289 2.5586,0 4.6289,2.0703 4.6289,4.6289"
       id="path139" />
    <path
       style="fill:#2b7fc5;fill-opacity:1;fill-rule:nonzero;stroke:none"
       d="m 858.73437,239.57812 c 0,8.70313 -7.05859,15.76172 -15.76171,15.76172 -8.70704,0 -15.76563,-7.05859 -15.76563,-15.76172 0,-8.70703 7.05859,-15.76953 15.76563,-15.76953 8.70312,0 15.76171,7.0625 15.76171,15.76953"
       id="path141" />
    <path
       style="fill:#855ca8;fill-opacity:1;fill-rule:nonzero;stroke:none"
       d="m 1402.4883,264.48828 c 0,17.42188 -14.1172,31.53125 -31.5274,31.53125 -17.4218,0 -31.5312,-14.10937 -31.5312,-31.53125 0,-17.41016 14.1094,-31.52734 31.5312,-31.52734 17.4102,0 31.5274,14.11718 31.5274,31.52734"
       id="path143" />
    <path
       style="fill:#00a651;fill-opacity:1;fill-rule:nonzero;stroke:none"
       d="m 932.63281,2244.5508 c 0,16.9101 -13.70312,30.6094 -30.60547,30.6094 -16.89843,0 -30.60156,-13.6993 -30.60156,-30.6094 0,-16.9024 13.70313,-30.6016 30.60156,-30.6016 16.90235,0 30.60547,13.6992 30.60547,30.6016"
       id="path145" />
    <path
       style="fill:#855ca8;fill-opacity:1;fill-rule:nonzero;stroke:none"
       d="m 654.50391,281.26172 c 0,4.82812 -3.92579,8.75 -8.76172,8.75 -4.83594,0 -8.75782,-3.92188 -8.75782,-8.75 0,-4.83985 3.92188,-8.77344 8.75782,-8.77344 4.83593,0 8.76172,3.93359 8.76172,8.77344"
       id="path147" />
    <path
       style="fill:#f399bf;fill-opacity:1;fill-rule:nonzero;stroke:none"
       d="m 1592.4414,417.26953 c 0,16.78906 -13.6211,30.41016 -30.4101,30.41016 -16.793,0 -30.4102,-13.6211 -30.4102,-30.41016 0,-16.78906 13.6172,-30.41016 30.4102,-30.41016 16.789,0 30.4101,13.6211 30.4101,30.41016"
       id="path149" />
    <path
       style="fill:#f8de59;fill-opacity:1;fill-rule:nonzero;stroke:none"
       d="m 288.25391,2332.8906 c 0,11.8086 -9.57813,21.3907 -21.39844,21.3907 -11.81641,0 -21.39844,-9.5821 -21.39844,-21.3907 0,-11.8203 9.58203,-21.4023 21.39844,-21.4023 11.82031,0 21.39844,9.582 21.39844,21.4023"
       id="path151" />
    <path
       style="fill:#2b7fc5;fill-opacity:1;fill-rule:nonzero;stroke:none"
       d="m 202.97266,807.82812 c 0,1.99219 -1.61329,3.60157 -3.60157,3.60157 -1.98437,0 -3.59765,-1.60938 -3.59765,-3.60157 0,-1.98828 1.61328,-3.59765 3.59765,-3.59765 1.98828,0 3.60157,1.60937 3.60157,3.59765"
       id="path153" />
    <path
       style="fill:#2b7fc5;fill-opacity:1;fill-rule:nonzero;stroke:none"
       d="m 499.6875,207.19922 c 0,7.28125 -5.89453,13.17187 -13.16406,13.17187 -7.27344,0 -13.16797,-5.89062 -13.16797,-13.17187 0,-7.26953 5.89453,-13.16016 13.16797,-13.16016 7.26953,0 13.16406,5.89063 13.16406,13.16016"
       id="path155" />
    <path
       style="fill:#ee2626;fill-opacity:1;fill-rule:nonzero;stroke:none"
       d="m 238.78906,2240.8203 c 0,4.9883 -4.05078,9.0391 -9.04297,9.0391 -4.99218,0 -9.04297,-4.0508 -9.04297,-9.0391 0,-4.9922 4.05079,-9.039 9.04297,-9.039 4.99219,0 9.04297,4.0468 9.04297,9.039"
       id="path157" />
    <path
       style="fill:#2b7fc5;fill-opacity:1;fill-rule:nonzero;stroke:none"
       d="m 223.73047,1647.8086 c 0,2.082 -1.6836,3.7617 -3.75781,3.7617 -2.07422,0 -3.75782,-1.6797 -3.75782,-3.7617 0,-2.0703 1.6836,-3.75 3.75782,-3.75 2.07421,0 3.75781,1.6797 3.75781,3.75"
       id="path159" />
    <path
       style="fill:#f399bf;fill-opacity:1;fill-rule:nonzero;stroke:none"
       d="m 421.53125,286.28125 c 0,2.04687 -1.66016,3.70703 -3.70703,3.70703 -2.05078,0 -3.71094,-1.66016 -3.71094,-3.70703 0,-2.05078 1.66016,-3.71094 3.71094,-3.71094 2.04687,0 3.70703,1.66016 3.70703,3.71094"
       id="path161" />
    <path
       style="fill:#2b7fc5;fill-opacity:1;fill-rule:nonzero;stroke:none"
       d="m 166.51562,197.14844 c 0,10.92968 -8.86328,19.80078 -19.80078,19.80078 -10.93359,0 -19.80078,-8.8711 -19.80078,-19.80078 0,-10.9375 8.86719,-19.79688 19.80078,-19.79688 10.9375,0 19.80078,8.85938 19.80078,19.79688"
       id="path163" />
    <path
       style="fill:#ee2626;fill-opacity:1;fill-rule:nonzero;stroke:none"
       d="m 1320.3711,274.23047 c 0,6.6289 -5.3828,12.00781 -12.0117,12.00781 -6.6289,0 -12,-5.37891 -12,-12.00781 0,-6.62891 5.3711,-12 12,-12 6.6289,0 12.0117,5.37109 12.0117,12"
       id="path165" />
    <path
       style="fill:#00a651;fill-opacity:1;fill-rule:nonzero;stroke:none"
       d="m 353.11328,2279.5703 c 0,7.3906 -5.99609,13.3906 -13.39062,13.3906 -7.39454,0 -13.39063,-6 -13.39063,-13.3906 0,-7.3984 5.99609,-13.3906 13.39063,-13.3906 7.39453,0 13.39062,5.9922 13.39062,13.3906"
       id="path167" />
    <path
       style="fill:#f8de59;fill-opacity:1;fill-rule:nonzero;stroke:none"
       d="m 579,2281.2813 c 0,4.5 -3.64844,8.1484 -8.15234,8.1484 -4.5,0 -8.15235,-3.6484 -8.15235,-8.1484 0,-4.5118 3.65235,-8.1524 8.15235,-8.1524 4.5039,0 8.15234,3.6406 8.15234,8.1524"
       id="path169" />
    <path
       style="fill:#f8de59;fill-opacity:1;fill-rule:nonzero;stroke:none"
       d="m 238.53125,841.87891 c 0,8.64062 -7.00391,15.65234 -15.64844,15.65234 -8.64453,0 -15.64844,-7.01172 -15.64844,-15.65234 0,-8.64844 7.00391,-15.64844 15.64844,-15.64844 8.64453,0 15.64844,7 15.64844,15.64844"
       id="path171" />
    <path
       style="fill:#2b7fc5;fill-opacity:1;fill-rule:nonzero;stroke:none"
       d="m 1663.7109,1209.4219 c 0,4.6484 -3.7695,8.4179 -8.4218,8.4179 -4.6485,0 -8.418,-3.7695 -8.418,-8.4179 0,-4.6524 3.7695,-8.4219 8.418,-8.4219 4.6523,0 8.4218,3.7695 8.4218,8.4219"
       id="path173" />
    <path
       style="fill:#2b7fc5;fill-opacity:1;fill-rule:nonzero;stroke:none"
       d="m 1080.3086,2327.4219 c 0,2.8867 -2.3398,5.2265 -5.2188,5.2265 -2.8906,0 -5.2304,-2.3398 -5.2304,-5.2265 0,-2.8828 2.3398,-5.2227 5.2304,-5.2227 2.879,0 5.2188,2.3399 5.2188,5.2227"
       id="path175" />
    <path
       style="fill:#f399bf;fill-opacity:1;fill-rule:nonzero;stroke:none"
       d="m 1587.6289,1590.0586 c 0,7.1914 -5.8281,13.0195 -13.0195,13.0195 -7.1875,0 -13.0078,-5.8281 -13.0078,-13.0195 0,-7.1875 5.8203,-13.0195 13.0078,-13.0195 7.1914,0 13.0195,5.832 13.0195,13.0195"
       id="path177" />
    <path
       style="fill:#ee2626;fill-opacity:1;fill-rule:nonzero;stroke:none"
       d="m 643.46094,2234.3711 c 0,14.1289 -11.45313,25.5898 -25.58594,25.5898 -14.13281,0 -25.58594,-11.4609 -25.58594,-25.5898 0,-14.1328 11.45313,-25.5898 25.58594,-25.5898 14.13281,0 25.58594,11.457 25.58594,25.5898"
       id="path179" />
    <path
       style="fill:#f8de59;fill-opacity:1;fill-rule:nonzero;stroke:none"
       d="m 1353.1719,176.64844 c 0,9.95312 -8.0625,18.02343 -18.0235,18.02343 -9.9492,0 -18.0195,-8.07031 -18.0195,-18.02343 0,-9.94922 8.0703,-18.01953 18.0195,-18.01953 9.961,0 18.0235,8.07031 18.0235,18.01953"
       id="path181" />
    <path
       style="fill:#f8de59;fill-opacity:1;fill-rule:nonzero;stroke:none"
       d="m 1579.5195,1468.7891 c 0,6.6601 -5.3984,12.0507 -12.0586,12.0507 -6.6601,0 -12.0625,-5.3906 -12.0625,-12.0507 0,-6.6602 5.4024,-12.0586 12.0625,-12.0586 6.6602,0 12.0586,5.3984 12.0586,12.0586"
       id="path183" />
    <path
       style="fill:#f399bf;fill-opacity:1;fill-rule:nonzero;stroke:none"
       d="m 471.17187,273.17187 c 0,8.71875 -7.07031,15.78907 -15.78515,15.78907 -8.71875,0 -15.78516,-7.07032 -15.78516,-15.78907 0,-8.71093 7.06641,-15.78125 15.78516,-15.78125 8.71484,0 15.78515,7.07032 15.78515,15.78125"
       id="path185" />
    <path
       style="fill:#00a651;fill-opacity:1;fill-rule:nonzero;stroke:none"
       d="m 479.96875,2342.5 c 0,7.9805 -6.46875,14.4492 -14.44531,14.4492 -7.98047,0 -14.44922,-6.4687 -14.44922,-14.4492 0,-7.9805 6.46875,-14.4492 14.44922,-14.4492 7.97656,0 14.44531,6.4687 14.44531,14.4492"
       id="path187" />
    <path
       style="fill:#855ca8;fill-opacity:1;fill-rule:nonzero;stroke:none"
       d="m 547.42578,2238.7109 c 0,10.1289 -8.20703,18.3282 -18.33203,18.3282 -10.125,0 -18.33203,-8.1993 -18.33203,-18.3282 0,-10.1211 8.20703,-18.332 18.33203,-18.332 10.125,0 18.33203,8.2109 18.33203,18.332"
       id="path189" />
    <path
       style="fill:#00a651;fill-opacity:1;fill-rule:nonzero;stroke:none"
       d="m 1168.5508,2292.9297 c 0,17.5 -14.1914,31.6797 -31.6914,31.6797 -17.5,0 -31.6875,-14.1797 -31.6875,-31.6797 0,-17.5078 14.1875,-31.6914 31.6875,-31.6914 17.5,0 31.6914,14.1836 31.6914,31.6914"
       id="path191" />
    <path
       style="fill:#ee2626;fill-opacity:1;fill-rule:nonzero;stroke:none"
       d="m 1595.3594,925.94141 c 0,2.61718 -2.1211,4.73828 -4.7305,4.73828 -2.6172,0 -4.7383,-2.1211 -4.7383,-4.73828 0,-2.61329 2.1211,-4.73047 4.7383,-4.73047 2.6094,0 4.7305,2.11718 4.7305,4.73047"
       id="path193" />
    <path
       style="fill:#ee2626;fill-opacity:1;fill-rule:nonzero;stroke:none"
       d="m 198.28125,1864.4492 c 0,9.4805 -7.68359,17.1719 -17.16406,17.1719 -9.47657,0 -17.16407,-7.6914 -17.16407,-17.1719 0,-9.4804 7.6875,-17.1601 17.16407,-17.1601 9.48047,0 17.16406,7.6797 17.16406,17.1601"
       id="path195" />
    <path
       style="fill:#f399bf;fill-opacity:1;fill-rule:nonzero;stroke:none"
       d="m 1627.4297,372.16016 c 0,5.42968 -4.3984,9.82812 -9.8281,9.82812 -5.4297,0 -9.8321,-4.39844 -9.8321,-9.82812 0,-5.42969 4.4024,-9.83204 9.8321,-9.83204 5.4297,0 9.8281,4.40235 9.8281,9.83204"
       id="path197" />
    <path
       style="fill:#855ca8;fill-opacity:1;fill-rule:nonzero;stroke:none"
       d="m 1662.9414,689.51172 c 0,2.89844 -2.3516,5.25 -5.25,5.25 -2.9101,0 -5.2617,-2.35156 -5.2617,-5.25 0,-2.90235 2.3516,-5.25 5.2617,-5.25 2.8984,0 5.25,2.34765 5.25,5.25"
       id="path199" />
    <path
       style="fill:#855ca8;fill-opacity:1;fill-rule:nonzero;stroke:none"
       d="m 895.11328,278.76953 c 0,4.28125 -3.47266,7.74219 -7.75,7.74219 -4.28125,0 -7.75,-3.46094 -7.75,-7.74219 0,-4.28125 3.46875,-7.75 7.75,-7.75 4.27734,0 7.75,3.46875 7.75,7.75"
       id="path201" />
    <path
       style="fill:#2b7fc5;fill-opacity:1;fill-rule:nonzero;stroke:none"
       d="m 221.95312,1908.0898 c 0,3.9415 -3.1914,7.129 -7.1289,7.129 -3.94141,0 -7.13281,-3.1875 -7.13281,-7.129 0,-3.9414 3.1914,-7.1289 7.13281,-7.1289 3.9375,0 7.1289,3.1875 7.1289,7.1289"
       id="path203" />
    <path
       style="fill:#855ca8;fill-opacity:1;fill-rule:nonzero;stroke:none"
       d="m 168.44922,460.30859 c 0,3.42969 -2.77735,6.21094 -6.21094,6.21094 -3.42969,0 -6.21094,-2.78125 -6.21094,-6.21094 0,-3.42968 2.78125,-6.21875 6.21094,-6.21875 3.43359,0 6.21094,2.78907 6.21094,6.21875"
       id="path205" />
    <path
       style="fill:#f8de59;fill-opacity:1;fill-rule:nonzero;stroke:none"
       d="m 403.33984,192.23828 c 0,15.68359 -12.71093,28.40234 -28.39453,28.40234 -15.67969,0 -28.39062,-12.71875 -28.39062,-28.40234 0,-15.67969 12.71093,-28.38672 28.39062,-28.38672 15.6836,0 28.39453,12.70703 28.39453,28.38672"
       id="path207" />
    <path
       style="fill:#855ca8;fill-opacity:1;fill-rule:nonzero;stroke:none"
       d="m 149.83594,1640.3203 c 0,3.711 -3.00782,6.711 -6.71485,6.711 -3.70703,0 -6.71484,-3 -6.71484,-6.711 0,-3.7109 3.00781,-6.7109 6.71484,-6.7109 3.70703,0 6.71485,3 6.71485,6.7109"
       id="path209" />
    <path
       style="fill:#2b7fc5;fill-opacity:1;fill-rule:nonzero;stroke:none"
       d="m 598.22266,236.12891 c 0,2.98046 -2.41407,5.39062 -5.39063,5.39062 -2.98047,0 -5.39062,-2.41016 -5.39062,-5.39062 0,-2.98047 2.41015,-5.39063 5.39062,-5.39063 2.97656,0 5.39063,2.41016 5.39063,5.39063"
       id="path211" />
    <path
       style="fill:#ee2626;fill-opacity:1;fill-rule:nonzero;stroke:none"
       d="m 209.16797,1670.9883 c 0,2.4531 -1.98828,4.4336 -4.4375,4.4336 -2.44922,0 -4.4336,-1.9805 -4.4336,-4.4336 0,-2.4492 1.98438,-4.4375 4.4336,-4.4375 2.44922,0 4.4375,1.9883 4.4375,4.4375"
       id="path213" />
    <path
       style="fill:#00a651;fill-opacity:1;fill-rule:nonzero;stroke:none"
       d="m 182.87891,1130.9297 c 0,6.1914 -5.01954,11.2109 -11.21094,11.2109 -6.19141,0 -11.21094,-5.0195 -11.21094,-11.2109 0,-6.1914 5.01953,-11.2109 11.21094,-11.2109 6.1914,0 11.21094,5.0195 11.21094,11.2109"
       id="path215" />
    <path
       style="fill:#f399bf;fill-opacity:1;fill-rule:nonzero;stroke:none"
       d="m 1025.25,272.10156 c 0,12.12891 -9.8281,21.94922 -21.9492,21.94922 -12.12893,0 -21.95705,-9.82031 -21.95705,-21.94922 0,-12.13281 9.82812,-21.96094 21.95705,-21.96094 12.1211,0 21.9492,9.82813 21.9492,21.96094"
       id="path217" />
    <path
       style="fill:#855ca8;fill-opacity:1;fill-rule:nonzero;stroke:none"
       d="m 422.85937,242.32031 c 0,5.42969 -4.40625,9.83985 -9.83984,9.83985 -5.43359,0 -9.83984,-4.41016 -9.83984,-9.83985 0,-5.4414 4.40625,-9.83984 9.83984,-9.83984 5.43359,0 9.83984,4.39844 9.83984,9.83984"
       id="path219" />
    <path
       style="fill:#ee2626;fill-opacity:1;fill-rule:nonzero;stroke:none"
       d="m 140.97266,652.67969 c 0,2.53125 -2.05079,4.58203 -4.57813,4.58203 -2.52734,0 -4.57812,-2.05078 -4.57812,-4.58203 0,-2.53125 2.05078,-4.57032 4.57812,-4.57032 2.52734,0 4.57813,2.03907 4.57813,4.57032"
       id="path221" />
    <path
       style="fill:#00a651;fill-opacity:1;fill-rule:nonzero;stroke:none"
       d="m 1651.2891,504.58984 c 0,9.10938 -7.3789,16.48828 -16.4883,16.48828 -9.1094,0 -16.5,-7.3789 -16.5,-16.48828 0,-9.10937 7.3906,-16.5 16.5,-16.5 9.1094,0 16.4883,7.39063 16.4883,16.5"
       id="path223" />
    <path
       style="fill:#f8de59;fill-opacity:1;fill-rule:nonzero;stroke:none"
       d="m 207.10937,2210.8594 c 0,17.8125 -14.4375,32.2422 -32.24609,32.2422 -17.80469,0 -32.24219,-14.4297 -32.24219,-32.2422 0,-17.8086 14.4375,-32.2383 32.24219,-32.2383 17.80859,0 32.24609,14.4297 32.24609,32.2383"
       id="path225" />
    <path
       style="fill:#f399bf;fill-opacity:1;fill-rule:nonzero;stroke:none"
       d="m 196.14453,2037.8594 c 0,14.8008 -12,26.8008 -26.80078,26.8008 -14.80078,0 -26.79688,-12 -26.79688,-26.8008 0,-14.8008 11.9961,-26.8008 26.79688,-26.8008 14.80078,0 26.80078,12 26.80078,26.8008"
       id="path227" />
    <path
       style="fill:#f399bf;fill-opacity:1;fill-rule:nonzero;stroke:none"
       d="m 1607.2188,1924.7617 c 0,2.3985 -1.9375,4.3399 -4.3399,4.3399 -2.3984,0 -4.3398,-1.9414 -4.3398,-4.3399 0,-2.4023 1.9414,-4.3398 4.3398,-4.3398 2.4024,0 4.3399,1.9375 4.3399,4.3398"
       id="path229" />
    <path
       style="fill:#2b7fc5;fill-opacity:1;fill-rule:nonzero;stroke:none"
       d="m 1623.3281,1228.2109 c 0,14.0899 -11.4179,25.5079 -25.5078,25.5079 -14.0898,0 -25.5117,-11.418 -25.5117,-25.5079 0,-14.0898 11.4219,-25.5117 25.5117,-25.5117 14.0899,0 25.5078,11.4219 25.5078,25.5117"
       id="path231" />
    <path
       style="fill:#f399bf;fill-opacity:1;fill-rule:nonzero;stroke:none"
       d="m 308.17578,2235.8789 c 0,2 -1.625,3.6328 -3.62891,3.6328 -2.0039,0 -3.6289,-1.6328 -3.6289,-3.6328 0,-2.0078 1.625,-3.6289 3.6289,-3.6289 2.00391,0 3.62891,1.6211 3.62891,3.6289"
       id="path233" />
    <path
       style="fill:#f8de59;fill-opacity:1;fill-rule:nonzero;stroke:none"
       d="m 941.46094,2268.3906 c 0,3.1992 -2.58985,5.7891 -5.78516,5.7891 -3.19531,0 -5.78516,-2.5899 -5.78516,-5.7891 0,-3.1914 2.58985,-5.7812 5.78516,-5.7812 3.19531,0 5.78516,2.5898 5.78516,5.7812"
       id="path235" />
    <path
       style="fill:#2b7fc5;fill-opacity:1;fill-rule:nonzero;stroke:none"
       d="m 1470.1797,259.23828 c 0,2.86328 -2.3086,5.17188 -5.168,5.17188 -2.8515,0 -5.1719,-2.3086 -5.1719,-5.17188 0,-2.84766 2.3204,-5.16016 5.1719,-5.16016 2.8594,0 5.168,2.3125 5.168,5.16016"
       id="path237" />
    <path
       style="fill:#f399bf;fill-opacity:1;fill-rule:nonzero;stroke:none"
       d="m 367.42969,272.30078 c 0,2.41016 -1.96094,4.37109 -4.375,4.37109 -2.41407,0 -4.375,-1.96093 -4.375,-4.37109 0,-2.42187 1.96093,-4.37891 4.375,-4.37891 2.41406,0 4.375,1.95704 4.375,4.37891"
       id="path239" />
    <path
       style="fill:#2b7fc5;fill-opacity:1;fill-rule:nonzero;stroke:none"
       d="m 184.02734,1831.6719 c 0,14.6484 -11.875,26.5195 -26.51953,26.5195 -14.64844,0 -26.52344,-11.8711 -26.52344,-26.5195 0,-14.6524 11.875,-26.5235 26.52344,-26.5235 14.64453,0 26.51953,11.8711 26.51953,26.5235"
       id="path241" />
    <path
       style="fill:#2b7fc5;fill-opacity:1;fill-rule:nonzero;stroke:none"
       d="m 1571.8008,485.83984 c 0,2.46094 -2,4.46094 -4.461,4.46094 -2.4687,0 -4.4687,-2 -4.4687,-4.46094 0,-2.46093 2,-4.46093 4.4687,-4.46093 2.461,0 4.461,2 4.461,4.46093"
       id="path243" />
    <path
       style="fill:#f8de59;fill-opacity:1;fill-rule:nonzero;stroke:none"
       d="m 1428.9688,223.94141 c 0,4.32812 -3.5196,7.84765 -7.8594,7.84765 -4.3281,0 -7.8477,-3.51953 -7.8477,-7.84765 0,-4.33985 3.5196,-7.85157 7.8477,-7.85157 4.3398,0 7.8594,3.51172 7.8594,7.85157"
       id="path245" />
    <path
       style="fill:#f8de59;fill-opacity:1;fill-rule:nonzero;stroke:none"
       d="m 1597.0703,2001.6914 c 0,2.7305 -2.2109,4.9492 -4.9492,4.9492 -2.7305,0 -4.9414,-2.2187 -4.9414,-4.9492 0,-2.7422 2.2109,-4.9531 4.9414,-4.9531 2.7383,0 4.9492,2.2109 4.9492,4.9531"
       id="path247" />
    <path
       style="fill:#ee2626;fill-opacity:1;fill-rule:nonzero;stroke:none"
       d="m 1571.5195,1728.2891 c 0,3.1523 -2.5507,5.7109 -5.6992,5.7109 -3.1601,0 -5.7109,-2.5586 -5.7109,-5.7109 0,-3.1485 2.5508,-5.711 5.7109,-5.711 3.1485,0 5.6992,2.5625 5.6992,5.711"
       id="path249" />
    <path
       style="fill:#f399bf;fill-opacity:1;fill-rule:nonzero;stroke:none"
       d="m 1260.6016,257.08984 c 0,2.03125 -1.6524,3.67969 -3.6914,3.67969 -2.0313,0 -3.6797,-1.64844 -3.6797,-3.67969 0,-2.03906 1.6484,-3.6914 3.6797,-3.6914 2.039,0 3.6914,1.65234 3.6914,3.6914"
       id="path251" />
    <path
       style="fill:#f8de59;fill-opacity:1;fill-rule:nonzero;stroke:none"
       d="m 1595.3984,281.60937 c 0,14.12891 -11.457,25.58985 -25.5898,25.58985 -14.1367,0 -25.5898,-11.46094 -25.5898,-25.58985 0,-14.1289 11.4531,-25.58984 25.5898,-25.58984 14.1328,0 25.5898,11.46094 25.5898,25.58984"
       id="path253" />
    <path
       style="fill:#ee2626;fill-opacity:1;fill-rule:nonzero;stroke:none"
       d="m 1649.7383,245.83984 c 0,3.57032 -2.8789,6.46094 -6.4492,6.46094 -3.5586,0 -6.4493,-2.89062 -6.4493,-6.46094 0,-3.55859 2.8907,-6.44922 6.4493,-6.44922 3.5703,0 6.4492,2.89063 6.4492,6.44922"
       id="path255" />
    <path
       style="fill:#00a651;fill-opacity:1;fill-rule:nonzero;stroke:none"
       d="m 617.00391,2315.4297 c 0,4.0312 -3.26563,7.2891 -7.28907,7.2891 -4.02734,0 -7.29297,-3.2579 -7.29297,-7.2891 0,-4.0195 3.26563,-7.2891 7.29297,-7.2891 4.02344,0 7.28907,3.2696 7.28907,7.2891"
       id="path257" />
    <path
       style="fill:#f399bf;fill-opacity:1;fill-rule:nonzero;stroke:none"
       d="m 1690,1692.6914 c 0,16.3672 -13.2695,29.6367 -29.6406,29.6367 -16.3711,0 -29.6406,-13.2695 -29.6406,-29.6367 0,-16.3711 13.2695,-29.6406 29.6406,-29.6406 16.3711,0 29.6406,13.2695 29.6406,29.6406"
       id="path259" />
    <path
       style="fill:#f8de59;fill-opacity:1;fill-rule:nonzero;stroke:none"
       d="m 172.39453,1694.3711 c 0,11.8008 -9.5625,21.3594 -21.35547,21.3594 -11.79687,0 -21.35937,-9.5586 -21.35937,-21.3594 0,-11.793 9.5625,-21.3516 21.35937,-21.3516 11.79297,0 21.35547,9.5586 21.35547,21.3516"
       id="path261" />
    <path
       style="fill:#ee2626;fill-opacity:1;fill-rule:nonzero;stroke:none"
       d="m 1442.7383,279.83984 c 0,12.01953 -9.7383,21.76172 -21.7578,21.76172 -12.0196,0 -21.7617,-9.74219 -21.7617,-21.76172 0,-12.01172 9.7421,-21.75 21.7617,-21.75 12.0195,0 21.7578,9.73828 21.7578,21.75"
       id="path263" />
    <path
       style="fill:#f399bf;fill-opacity:1;fill-rule:nonzero;stroke:none"
       d="m 1246.1016,281.17187 c 0,11.15625 -9.0508,20.20704 -20.2227,20.20704 -11.1601,0 -20.207,-9.05079 -20.207,-20.20704 0,-11.17187 9.0469,-20.22265 20.207,-20.22265 11.1719,0 20.2227,9.05078 20.2227,20.22265"
       id="path265" />
    <path
       style="fill:#f8de59;fill-opacity:1;fill-rule:nonzero;stroke:none"
       d="m 1648.8281,331.98047 c 0,8.78125 -7.1172,15.89062 -15.8984,15.89062 -8.7813,0 -15.8906,-7.10937 -15.8906,-15.89062 0,-8.78125 7.1093,-15.90235 15.8906,-15.90235 8.7812,0 15.8984,7.1211 15.8984,15.90235"
       id="path267" />
    <path
       style="fill:#ee2626;fill-opacity:1;fill-rule:nonzero;stroke:none"
       d="m 610.44922,280.03125 c 0,6.98828 -5.66016,12.64844 -12.64453,12.64844 -6.98047,0 -12.64063,-5.66016 -12.64063,-12.64844 0,-6.98047 5.66016,-12.64063 12.64063,-12.64063 6.98437,0 12.64453,5.66016 12.64453,12.64063"
       id="path269" />
    <path
       style="fill:#ee2626;fill-opacity:1;fill-rule:nonzero;stroke:none"
       d="m 1617.3008,1442.4414 c 0,2.0899 -1.6914,3.7774 -3.7813,3.7774 -2.0898,0 -3.789,-1.6875 -3.789,-3.7774 0,-2.0898 1.6992,-3.7812 3.789,-3.7812 2.0899,0 3.7813,1.6914 3.7813,3.7812"
       id="path271" />
    <path
       style="fill:#ee2626;fill-opacity:1;fill-rule:nonzero;stroke:none"
       d="m 1073.1016,261.30859 c 0,16.64063 -13.4922,30.14063 -30.1407,30.14063 -16.6406,0 -30.1406,-13.5 -30.1406,-30.14063 0,-16.64843 13.5,-30.13672 30.1406,-30.13672 16.6485,0 30.1407,13.48829 30.1407,30.13672"
       id="path273" />
    <path
       style="fill:#f399bf;fill-opacity:1;fill-rule:nonzero;stroke:none"
       d="m 208.6875,1310.75 c 0,4.3984 -3.55859,7.9609 -7.95313,7.9609 -4.39062,0 -7.95312,-3.5625 -7.95312,-7.9609 0,-4.3906 3.5625,-7.9492 7.95312,-7.9492 4.39454,0 7.95313,3.5586 7.95313,7.9492"
       id="path275" />
    <path
       style="fill:#00a651;fill-opacity:1;fill-rule:nonzero;stroke:none"
       d="m 219.98047,1953.4805 c 0,4.0078 -3.25,7.2578 -7.26172,7.2578 -4.01172,0 -7.26563,-3.25 -7.26563,-7.2578 0,-4.0117 3.25391,-7.2617 7.26563,-7.2617 4.01172,0 7.26172,3.25 7.26172,7.2617"
       id="path277" />
    <path
       style="fill:#f399bf;fill-opacity:1;fill-rule:nonzero;stroke:none"
       d="m 184.41797,1943.5391 c 0,12.3203 -9.98828,22.3125 -22.30469,22.3125 -12.32031,0 -22.30469,-9.9922 -22.30469,-22.3125 0,-12.3203 9.98438,-22.3008 22.30469,-22.3008 12.31641,0 22.30469,9.9805 22.30469,22.3008"
       id="path279" />
    <path
       style="fill:#ee2626;fill-opacity:1;fill-rule:nonzero;stroke:none"
       d="m 1565.1484,2288.6484 c 0,6.6016 -5.3398,11.9414 -11.9296,11.9414 -6.5977,0 -11.9375,-5.3398 -11.9375,-11.9414 0,-6.5898 5.3398,-11.9296 11.9375,-11.9296 6.5898,0 11.9296,5.3398 11.9296,11.9296"
       id="path281" />
    <path
       style="fill:#00a651;fill-opacity:1;fill-rule:nonzero;stroke:none"
       d="m 152.35156,839.48828 c 0,4.65234 -3.76562,8.42188 -8.41406,8.42188 -4.64453,0 -8.41016,-3.76954 -8.41016,-8.42188 0,-4.63672 3.76563,-8.41016 8.41016,-8.41016 4.64844,0 8.41406,3.77344 8.41406,8.41016"
       id="path283" />
    <path
       style="fill:#855ca8;fill-opacity:1;fill-rule:nonzero;stroke:none"
       d="m 197.69141,874.46875 c 0,2.40234 -1.94532,4.33984 -4.34375,4.33984 -2.40235,0 -4.34766,-1.9375 -4.34766,-4.33984 0,-2.39844 1.94531,-4.34766 4.34766,-4.34766 2.39843,0 4.34375,1.94922 4.34375,4.34766"
       id="path285" />
    <path
       style="fill:#2b7fc5;fill-opacity:1;fill-rule:nonzero;stroke:none"
       d="m 229.98437,1757.2109 c 0,3.3594 -2.72265,6.0782 -6.08593,6.0782 -3.35938,0 -6.08203,-2.7188 -6.08203,-6.0782 0,-3.3593 2.72265,-6.082 6.08203,-6.082 3.36328,0 6.08593,2.7227 6.08593,6.082"
       id="path287" />
    <path
       style="fill:#00a651;fill-opacity:1;fill-rule:nonzero;stroke:none"
       d="m 957.69141,2229.3789 c 0,2.4727 -2.00391,4.4727 -4.47266,4.4727 -2.46875,0 -4.47266,-2 -4.47266,-4.4727 0,-2.4687 2.00391,-4.4687 4.47266,-4.4687 2.46875,0 4.47266,2 4.47266,4.4687"
       id="path289" />
    <path
       style="fill:#00a651;fill-opacity:1;fill-rule:nonzero;stroke:none"
       d="m 222.96484,488.46094 c 0,5.23828 -4.25,9.48828 -9.49218,9.48828 -5.24219,0 -9.49219,-4.25 -9.49219,-9.48828 0,-5.24219 4.25,-9.49219 9.49219,-9.49219 5.24218,0 9.49218,4.25 9.49218,9.49219"
       id="path291" />
    <path
       style="fill:#855ca8;fill-opacity:1;fill-rule:nonzero;stroke:none"
       d="m 233.91797,1225.1016 c 0,7.5 -6.08203,13.5781 -13.58203,13.5781 -7.50391,0 -13.58203,-6.0781 -13.58203,-13.5781 0,-7.5118 6.07812,-13.5899 13.58203,-13.5899 7.5,0 13.58203,6.0781 13.58203,13.5899"
       id="path293" />
    <path
       style="fill:#2b7fc5;fill-opacity:1;fill-rule:nonzero;stroke:none"
       d="m 1611.0781,1773.5195 c 0,15.0118 -12.1679,27.1797 -27.1679,27.1797 -15.0196,0 -27.1797,-12.1679 -27.1797,-27.1797 0,-15.0078 12.1601,-27.1797 27.1797,-27.1797 15,0 27.1679,12.1719 27.1679,27.1797"
       id="path295" />
    <path
       style="fill:#f399bf;fill-opacity:1;fill-rule:nonzero;stroke:none"
       d="m 130.30078,416.12109 c 0,2.32813 -1.89453,4.21875 -4.22656,4.21875 -2.33594,0 -4.22656,-1.89062 -4.22656,-4.21875 0,-2.33203 1.89062,-4.23047 4.22656,-4.23047 2.33203,0 4.22656,1.89844 4.22656,4.23047"
       id="path297" />
    <path
       style="fill:#00a651;fill-opacity:1;fill-rule:nonzero;stroke:none"
       d="m 1218.6406,2288.2617 c 0,10.9102 -8.8398,19.7578 -19.75,19.7578 -10.9101,0 -19.7617,-8.8476 -19.7617,-19.7578 0,-10.9101 8.8516,-19.7617 19.7617,-19.7617 10.9102,0 19.75,8.8516 19.75,19.7617"
       id="path299" />
    <path
       style="fill:#00a651;fill-opacity:1;fill-rule:nonzero;stroke:none"
       d="m 164.82812,907.32031 c 0,14.78906 -11.99218,26.78906 -26.78515,26.78906 -14.78906,0 -26.78125,-12 -26.78125,-26.78906 0,-14.78906 11.99219,-26.78125 26.78125,-26.78125 14.79297,0 26.78515,11.99219 26.78515,26.78125"
       id="path301" />
    <path
       style="fill:#855ca8;fill-opacity:1;fill-rule:nonzero;stroke:none"
       d="m 1615.5391,734.89062 c 0,13.42969 -10.8907,24.3086 -24.3203,24.3086 -13.4297,0 -24.3204,-10.87891 -24.3204,-24.3086 0,-13.42968 10.8907,-24.32031 24.3204,-24.32031 13.4296,0 24.3203,10.89063 24.3203,24.32031"
       id="path303" />
    <path
       style="fill:#f399bf;fill-opacity:1;fill-rule:nonzero;stroke:none"
       d="m 244.18359,1289.9297 c 0,9.6211 -7.80078,17.4219 -17.42187,17.4219 -9.6211,0 -17.41797,-7.8008 -17.41797,-17.4219 0,-9.6211 7.79687,-17.418 17.41797,-17.418 9.62109,0 17.42187,7.7969 17.42187,17.418"
       id="path305" />
    <path
       style="fill:#855ca8;fill-opacity:1;fill-rule:nonzero;stroke:none"
       d="m 1318.0898,218.87891 c 0,8.28125 -6.7109,14.99218 -14.9882,14.99218 -8.2735,0 -14.9922,-6.71093 -14.9922,-14.99218 0,-8.26954 6.7187,-14.98047 14.9922,-14.98047 8.2773,0 14.9882,6.71093 14.9882,14.98047"
       id="path307" />
    <path
       style="fill:#855ca8;fill-opacity:1;fill-rule:nonzero;stroke:none"
       d="m 390.71875,2241.8281 c 0,12.461 -10.09766,22.5625 -22.55469,22.5625 -12.45312,0 -22.55469,-10.1015 -22.55469,-22.5625 0,-12.4492 10.10157,-22.5468 22.55469,-22.5468 12.45703,0 22.55469,10.0976 22.55469,22.5468"
       id="path309" />
    <path
       style="fill:#f8de59;fill-opacity:1;fill-rule:nonzero;stroke:none"
       d="m 1638.8984,700.07812 c 0,16.64063 -13.4765,30.13282 -30.1171,30.13282 -16.6407,0 -30.1329,-13.49219 -30.1329,-30.13282 0,-16.63671 13.4922,-30.11718 30.1329,-30.11718 16.6406,0 30.1171,13.48047 30.1171,30.11718"
       id="path311" />
    <path
       style="fill:#855ca8;fill-opacity:1;fill-rule:nonzero;stroke:none"
       d="m 1230.25,2248.9805 c 0,3.2304 -2.6211,5.8398 -5.8398,5.8398 -3.2305,0 -5.8399,-2.6094 -5.8399,-5.8398 0,-3.2188 2.6094,-5.8399 5.8399,-5.8399 3.2187,0 5.8398,2.6211 5.8398,5.8399"
       id="path313" />
    <path
       style="fill:#f399bf;fill-opacity:1;fill-rule:nonzero;stroke:none"
       d="m 1044.2305,219.12891 c 0,2.01171 -1.6211,3.64062 -3.6289,3.64062 -2.0118,0 -3.6407,-1.62891 -3.6407,-3.64062 0,-2 1.6289,-3.62891 3.6407,-3.62891 2.0078,0 3.6289,1.62891 3.6289,3.62891"
       id="path315" />
    <path
       style="fill:#2b7fc5;fill-opacity:1;fill-rule:nonzero;stroke:none"
       d="m 1070.3086,291.03906 c 0,9.51953 -7.707,17.24219 -17.2383,17.24219 -9.5195,0 -17.2422,-7.72266 -17.2422,-17.24219 0,-9.51953 7.7227,-17.23828 17.2422,-17.23828 9.5313,0 17.2383,7.71875 17.2383,17.23828"
       id="path317" />
    <path
       style="fill:#855ca8;fill-opacity:1;fill-rule:nonzero;stroke:none"
       d="m 1580.4219,1259.8086 c 0,8.2695 -6.7031,14.9727 -14.9727,14.9727 -8.2578,0 -14.9609,-6.7032 -14.9609,-14.9727 0,-8.2578 6.7031,-14.957 14.9609,-14.957 8.2696,0 14.9727,6.6992 14.9727,14.957"
       id="path319" />
    <path
       style="fill:#f8de59;fill-opacity:1;fill-rule:nonzero;stroke:none"
       d="m 1595.4688,2035.9297 c 0,10.6719 -8.6407,19.3086 -19.3086,19.3086 -10.6602,0 -19.3086,-8.6367 -19.3086,-19.3086 0,-10.6602 8.6484,-19.3086 19.3086,-19.3086 10.6679,0 19.3086,8.6484 19.3086,19.3086"
       id="path321" />
    <path
       style="fill:#00a651;fill-opacity:1;fill-rule:nonzero;stroke:none"
       d="m 262.84375,2203.3086 c 0,14.8906 -12.07031,26.9609 -26.95703,26.9609 -14.88672,0 -26.95703,-12.0703 -26.95703,-26.9609 0,-14.8789 12.07031,-26.9492 26.95703,-26.9492 14.88672,0 26.95703,12.0703 26.95703,26.9492"
       id="path323" />
    <path
       style="fill:#f8de59;fill-opacity:1;fill-rule:nonzero;stroke:none"
       d="m 1139.1914,2240.4805 c 0,8.8906 -7.2031,16.0898 -16.0898,16.0898 -8.8907,0 -16.1016,-7.1992 -16.1016,-16.0898 0,-8.8907 7.2109,-16.1016 16.1016,-16.1016 8.8867,0 16.0898,7.2109 16.0898,16.1016"
       id="path325" />
    <path
       style="fill:#00a651;fill-opacity:1;fill-rule:nonzero;stroke:none"
       d="m 1585.7813,452.05859 c 0,3.64063 -2.9532,6.58203 -6.5821,6.58203 -3.6406,0 -6.5781,-2.9414 -6.5781,-6.58203 0,-3.6289 2.9375,-6.57031 6.5781,-6.57031 3.6289,0 6.5821,2.94141 6.5821,6.57031"
       id="path327" />
    <path
       style="fill:#f8de59;fill-opacity:1;fill-rule:nonzero;stroke:none"
       d="m 1602.1484,1953.5703 c 0,17.3516 -14.0586,31.4102 -31.4179,31.4102 -17.3516,0 -31.4102,-14.0586 -31.4102,-31.4102 0,-17.3594 14.0586,-31.4219 31.4102,-31.4219 17.3593,0 31.4179,14.0625 31.4179,31.4219"
       id="path329" />
    <path
       style="fill:#855ca8;fill-opacity:1;fill-rule:nonzero;stroke:none"
       d="m 1596.9688,1157.4414 c 0,16.6172 -13.4688,30.0977 -30.0899,30.0977 -16.6172,0 -30.0976,-13.4805 -30.0976,-30.0977 0,-16.6211 13.4804,-30.0898 30.0976,-30.0898 16.6211,0 30.0899,13.4687 30.0899,30.0898"
       id="path331" />
    <path
       style="fill:#f399bf;fill-opacity:1;fill-rule:nonzero;stroke:none"
       d="m 1668.1719,2224.7305 c 0,2.4883 -2.0235,4.5 -4.5117,4.5 -2.4805,0 -4.5,-2.0117 -4.5,-4.5 0,-2.4922 2.0195,-4.5 4.5,-4.5 2.4882,0 4.5117,2.0078 4.5117,4.5"
       id="path333" />
    <path
       style="fill:#855ca8;fill-opacity:1;fill-rule:nonzero;stroke:none"
       d="m 339.90234,217.98047 c 0,10.53906 -8.54687,19.08984 -19.09375,19.08984 -10.54297,0 -19.08984,-8.55078 -19.08984,-19.08984 0,-10.55078 8.54687,-19.10156 19.08984,-19.10156 10.54688,0 19.09375,8.55078 19.09375,19.10156"
       id="path335" />
    <path
       style="fill:#f8de59;fill-opacity:1;fill-rule:nonzero;stroke:none"
       d="m 1086.8516,248.76953 c 0,5.87109 -4.75,10.62891 -10.6211,10.62891 -5.8711,0 -10.6289,-4.75782 -10.6289,-10.62891 0,-5.87109 4.7578,-10.62109 10.6289,-10.62109 5.8711,0 10.6211,4.75 10.6211,10.62109"
       id="path337" />
    <path
       style="fill:#2b7fc5;fill-opacity:1;fill-rule:nonzero;stroke:none"
       d="m 124.78125,1156.5195 c 0,3.6211 -2.93359,6.5586 -6.55469,6.5586 -3.625,0 -6.55859,-2.9375 -6.55859,-6.5586 0,-3.6211 2.93359,-6.5586 6.55859,-6.5586 3.6211,0 6.55469,2.9375 6.55469,6.5586"
       id="path339" />
    <path
       style="fill:#f399bf;fill-opacity:1;fill-rule:nonzero;stroke:none"
       d="m 1663.2305,1382.1914 c 0,2.2969 -1.8594,4.168 -4.1719,4.168 -2.2969,0 -4.168,-1.8711 -4.168,-4.168 0,-2.3008 1.8711,-4.1719 4.168,-4.1719 2.3125,0 4.1719,1.8711 4.1719,4.1719"
       id="path341" />
    <path
       style="fill:#f399bf;fill-opacity:1;fill-rule:nonzero;stroke:none"
       d="m 713.70703,2315.1602 c 0,8.9492 -7.25,16.1992 -16.19531,16.1992 -8.94531,0 -16.19531,-7.25 -16.19531,-16.1992 0,-8.9414 7.25,-16.1914 16.19531,-16.1914 8.94531,0 16.19531,7.25 16.19531,16.1914"
       id="path343" />
    <path
       style="fill:#2b7fc5;fill-opacity:1;fill-rule:nonzero;stroke:none"
       d="m 1576.8086,1404.3711 c 0,2.4102 -1.957,4.3672 -4.3789,4.3672 -2.4102,0 -4.3711,-1.957 -4.3711,-4.3672 0,-2.4219 1.9609,-4.3828 4.3711,-4.3828 2.4219,0 4.3789,1.9609 4.3789,4.3828"
       id="path345" />
    <path
       style="fill:#2b7fc5;fill-opacity:1;fill-rule:nonzero;stroke:none"
       d="m 190.44922,625.03906 c 0,3.60156 -2.91797,6.51953 -6.51563,6.51953 -3.60156,0 -6.51953,-2.91797 -6.51953,-6.51953 0,-3.59765 2.91797,-6.50781 6.51953,-6.50781 3.59766,0 6.51563,2.91016 6.51563,6.50781"
       id="path347" />
    <path
       style="fill:#ee2626;fill-opacity:1;fill-rule:nonzero;stroke:none"
       d="m 197.58594,414.14844 c 0,9.40234 -7.6211,17.02343 -17.01953,17.02343 -9.39844,0 -17.01563,-7.62109 -17.01563,-17.02343 0,-9.39844 7.61719,-17.01953 17.01563,-17.01953 9.39843,0 17.01953,7.62109 17.01953,17.01953"
       id="path349" />
    <path
       style="fill:#f8de59;fill-opacity:1;fill-rule:nonzero;stroke:none"
       d="m 245.94141,342.41016 c 0,14.85156 -12.03907,26.89062 -26.89063,26.89062 -14.85156,0 -26.89062,-12.03906 -26.89062,-26.89062 0,-14.85157 12.03906,-26.89063 26.89062,-26.89063 14.85156,0 26.89063,12.03906 26.89063,26.89063"
       id="path351" />
    <path
       style="fill:#2b7fc5;fill-opacity:1;fill-rule:nonzero;stroke:none"
       d="m 200.57422,663.19141 c 0,2.19921 -1.78516,3.98828 -3.98438,3.98828 -2.20312,0 -3.98828,-1.78907 -3.98828,-3.98828 0,-2.20313 1.78516,-3.99219 3.98828,-3.99219 2.19922,0 3.98438,1.78906 3.98438,3.99219"
       id="path353" />
    <path
       style="fill:#f399bf;fill-opacity:1;fill-rule:nonzero;stroke:none"
       d="m 1640.6719,785.83984 c 0,2.37891 -1.9336,4.3086 -4.3125,4.3086 -2.3789,0 -4.3086,-1.92969 -4.3086,-4.3086 0,-2.3789 1.9297,-4.30859 4.3086,-4.30859 2.3789,0 4.3125,1.92969 4.3125,4.30859"
       id="path355" />
    <path
       style="fill:#00a651;fill-opacity:1;fill-rule:nonzero;stroke:none"
       d="m 237.05078,1470.3789 c 0,7.7305 -6.26953,14 -14,14 -7.73437,0 -14.00391,-6.2695 -14.00391,-14 0,-7.7305 6.26954,-14 14.00391,-14 7.73047,0 14,6.2695 14,14"
       id="path357" />
    <path
       style="fill:#f8de59;fill-opacity:1;fill-rule:nonzero;stroke:none"
       d="m 1677.75,1496.3984 c 0,14.5 -11.75,26.25 -26.25,26.25 -14.5,0 -26.2617,-11.75 -26.2617,-26.25 0,-14.5 11.7617,-26.25 26.2617,-26.25 14.5,0 26.25,11.75 26.25,26.25"
       id="path359" />
    <path
       style="fill:#f399bf;fill-opacity:1;fill-rule:nonzero;stroke:none"
       d="m 240.28516,209.53125 c 0,5.50781 -4.46485,9.96875 -9.97266,9.96875 -5.50391,0 -9.96875,-4.46094 -9.96875,-9.96875 0,-5.51172 4.46484,-9.97266 9.96875,-9.97266 5.50781,0 9.97266,4.46094 9.97266,9.97266"
       id="path361" />
    <path
       style="fill:#f399bf;fill-opacity:1;fill-rule:nonzero;stroke:none"
       d="m 237.87891,1099.8398 c 0,10.2813 -8.33204,18.6211 -18.61329,18.6211 -10.28125,0 -18.61328,-8.3398 -18.61328,-18.6211 0,-10.2812 8.33203,-18.6093 18.61328,-18.6093 10.28125,0 18.61329,8.3281 18.61329,18.6093"
       id="path363" />
    <path
       style="fill:#f8de59;fill-opacity:1;fill-rule:nonzero;stroke:none"
       d="m 1667.4805,427.26953 c 0,8.83984 -7.1602,15.99219 -15.9922,15.99219 -8.8281,0 -15.9883,-7.15235 -15.9883,-15.99219 0,-8.82812 7.1602,-15.98828 15.9883,-15.98828 8.832,0 15.9922,7.16016 15.9922,15.98828"
       id="path365" />
    <path
       style="fill:#00a651;fill-opacity:1;fill-rule:nonzero;stroke:none"
       d="m 194.62891,773.94141 c 0,2.48828 -2.01172,4.5 -4.4961,4.5 -2.48047,0 -4.49219,-2.01172 -4.49219,-4.5 0,-2.48047 2.01172,-4.49219 4.49219,-4.49219 2.48438,0 4.4961,2.01172 4.4961,4.49219"
       id="path367" />
    <path
       style="fill:#00a651;fill-opacity:1;fill-rule:nonzero;stroke:none"
       d="m 222.55859,1416.1992 c 0,7.5508 -6.11718,13.6602 -13.66406,13.6602 -7.54687,0 -13.66406,-6.1094 -13.66406,-13.6602 0,-7.5508 6.11719,-13.6679 13.66406,-13.6679 7.54688,0 13.66406,6.1171 13.66406,13.6679"
       id="path369" />
    <path
       style="fill:#2b7fc5;fill-opacity:1;fill-rule:nonzero;stroke:none"
       d="m 253.63672,1587.3398 c 0,17.1016 -13.85938,30.961 -30.95703,30.961 -17.09375,0 -30.95313,-13.8594 -30.95313,-30.961 0,-17.0898 13.85938,-30.9492 30.95313,-30.9492 17.09765,0 30.95703,13.8594 30.95703,30.9492"
       id="path371" />
    <path
       style="fill:#f399bf;fill-opacity:1;fill-rule:nonzero;stroke:none"
       d="m 1491.4883,227.87891 c 0,6.90234 -5.5899,12.49218 -12.4766,12.49218 -6.9023,0 -12.4922,-5.58984 -12.4922,-12.49218 0,-6.89063 5.5899,-12.48047 12.4922,-12.48047 6.8867,0 12.4766,5.58984 12.4766,12.48047"
       id="path373" />
    <path
       style="fill:#00a651;fill-opacity:1;fill-rule:nonzero;stroke:none"
       d="m 1614.2891,655.14062 c 0,2.48829 -2.0196,4.5 -4.5078,4.5 -2.4805,0 -4.5,-2.01171 -4.5,-4.5 0,-2.49218 2.0195,-4.5 4.5,-4.5 2.4882,0 4.5078,2.00782 4.5078,4.5"
       id="path375" />
    <path
       style="fill:#f8de59;fill-opacity:1;fill-rule:nonzero;stroke:none"
       d="m 1274.0781,2324.4414 c 0,3 -2.4297,5.4297 -5.4297,5.4297 -3,0 -5.4296,-2.4297 -5.4296,-5.4297 0,-3 2.4296,-5.4297 5.4296,-5.4297 3,0 5.4297,2.4297 5.4297,5.4297"
       id="path377" />
    <path
       style="fill:#f8de59;fill-opacity:1;fill-rule:nonzero;stroke:none"
       d="m 233.89844,520.76172 c 0,6.51953 -5.28516,11.79687 -11.80469,11.79687 -6.52344,0 -11.80859,-5.27734 -11.80859,-11.79687 0,-6.53125 5.28515,-11.8125 11.80859,-11.8125 6.51953,0 11.80469,5.28125 11.80469,11.8125"
       id="path379" />
    <path
       style="fill:#00a651;fill-opacity:1;fill-rule:nonzero;stroke:none"
       d="m 1590.3203,896.76172 c 0,11.69922 -9.4805,21.17969 -21.1797,21.17969 -11.6914,0 -21.1797,-9.48047 -21.1797,-21.17969 0,-11.70313 9.4883,-21.1836 21.1797,-21.1836 11.6992,0 21.1797,9.48047 21.1797,21.1836"
       id="path381" />
    <path
       style="fill:#2b7fc5;fill-opacity:1;fill-rule:nonzero;stroke:none"
       d="m 215.36328,1988.9805 c 0,5.3398 -4.33203,9.6797 -9.67969,9.6797 -5.34765,0 -9.67968,-4.3399 -9.67968,-9.6797 0,-5.3516 4.33203,-9.6797 9.67968,-9.6797 5.34766,0 9.67969,4.3281 9.67969,9.6797"
       id="path383" />
    <path
       style="fill:#f8de59;fill-opacity:1;fill-rule:nonzero;stroke:none"
       d="m 224.97266,980.80859 c 0,8.17969 -6.625,14.8125 -14.80079,14.8125 -8.17968,0 -14.80468,-6.63281 -14.80468,-14.8125 0,-8.16797 6.625,-14.79687 14.80468,-14.79687 8.17579,0 14.80079,6.6289 14.80079,14.79687"
       id="path385" />
    <path
       style="fill:#00a651;fill-opacity:1;fill-rule:nonzero;stroke:none"
       d="m 212.75,1521.6016 c 0,2.7578 -2.23828,5 -4.99609,5 -2.76172,0 -5,-2.2422 -5,-5 0,-2.7618 2.23828,-5 5,-5 2.75781,0 4.99609,2.2382 4.99609,5"
       id="path387" />
    <path
       style="fill:#ee2626;fill-opacity:1;fill-rule:nonzero;stroke:none"
       d="m 1537.9414,267.98828 c 0,15.68359 -12.7109,28.39063 -28.3828,28.39063 -15.6797,0 -28.3867,-12.70704 -28.3867,-28.39063 0,-15.66797 12.707,-28.37891 28.3867,-28.37891 15.6719,0 28.3828,12.71094 28.3828,28.37891"
       id="path389" />
    <path
       style="fill:#f8de59;fill-opacity:1;fill-rule:nonzero;stroke:none"
       d="m 1639.3906,1298.5781 c 0,2.1914 -1.7812,3.961 -3.9609,3.961 -2.1914,0 -3.9609,-1.7696 -3.9609,-3.961 0,-2.1875 1.7695,-3.957 3.9609,-3.957 2.1797,0 3.9609,1.7695 3.9609,3.957"
       id="path391" />
    <path
       style="fill:#855ca8;fill-opacity:1;fill-rule:nonzero;stroke:none"
       d="m 1575.8984,365.42187 c 0,2.38672 -1.9296,4.31641 -4.3203,4.31641 -2.3789,0 -4.3164,-1.92969 -4.3164,-4.31641 0,-2.39062 1.9375,-4.32031 4.3164,-4.32031 2.3907,0 4.3203,1.92969 4.3203,4.32031"
       id="path393" />
    <path
       style="fill:#00a651;fill-opacity:1;fill-rule:nonzero;stroke:none"
       d="m 836.84375,2242.1484 c 0,3.3399 -2.70703,6.0508 -6.05469,6.0508 -3.33984,0 -6.05078,-2.7109 -6.05078,-6.0508 0,-3.3398 2.71094,-6.0468 6.05078,-6.0468 3.34766,0 6.05469,2.707 6.05469,6.0468"
       id="path395" />
    <path
       style="fill:#2b7fc5;fill-opacity:1;fill-rule:nonzero;stroke:none"
       d="m 168.67187,553.33984 c 0,16.71875 -13.55078,30.26953 -30.26562,30.26953 -16.71484,0 -30.26562,-13.55078 -30.26562,-30.26953 0,-16.71093 13.55078,-30.26172 30.26562,-30.26172 16.71484,0 30.26562,13.55079 30.26562,30.26172"
       id="path397" />
    <path
       style="fill:#f8de59;fill-opacity:1;fill-rule:nonzero;stroke:none"
       d="m 1138.0586,202.33984 c 0,9.35938 -7.5781,16.94141 -16.9375,16.94141 -9.3594,0 -16.9414,-7.58203 -16.9414,-16.94141 0,-9.35937 7.582,-16.9414 16.9414,-16.9414 9.3594,0 16.9375,7.58203 16.9375,16.9414"
       id="path399" />
    <path
       style="fill:#f399bf;fill-opacity:1;fill-rule:nonzero;stroke:none"
       d="m 1288.3984,2267.8281 c 0,11.25 -9.1171,20.3711 -20.3671,20.3711 -11.25,0 -20.3711,-9.1211 -20.3711,-20.3711 0,-11.25 9.1211,-20.3672 20.3711,-20.3672 11.25,0 20.3671,9.1172 20.3671,20.3672"
       id="path401" />
    <path
       style="fill:#2b7fc5;fill-opacity:1;fill-rule:nonzero;stroke:none"
       d="m 482.16016,2241.0117 c 0,11.4492 -9.28516,20.7266 -20.73438,20.7266 -11.45312,0 -20.73437,-9.2774 -20.73437,-20.7266 0,-11.4609 9.28125,-20.7422 20.73437,-20.7422 11.44922,0 20.73438,9.2813 20.73438,20.7422"
       id="path403" />
    <path
       style="fill:#2b7fc5;fill-opacity:1;fill-rule:nonzero;stroke:none"
       d="m 794.55469,272.94922 c 0,3.3789 -2.74219,6.12109 -6.125,6.12109 -3.38282,0 -6.125,-2.74219 -6.125,-6.12109 0,-3.39063 2.74218,-6.12891 6.125,-6.12891 3.38281,0 6.125,2.73828 6.125,6.12891"
       id="path405" />
    <path
       style="fill:#f399bf;fill-opacity:1;fill-rule:nonzero;stroke:none"
       d="m 1317.4102,2244.4297 c 0,14.9687 -12.1407,27.1016 -27.1016,27.1016 -14.9688,0 -27.0977,-12.1329 -27.0977,-27.1016 0,-14.9688 12.1289,-27.1016 27.0977,-27.1016 14.9609,0 27.1016,12.1328 27.1016,27.1016"
       id="path407" />
    <path
       style="fill:#ee2626;fill-opacity:1;fill-rule:nonzero;stroke:none"
       d="m 1499.8008,2240.3008 c 0,2.789 -2.2617,5.0586 -5.0508,5.0586 -2.8008,0 -5.0586,-2.2696 -5.0586,-5.0586 0,-2.7891 2.2578,-5.0508 5.0586,-5.0508 2.7891,0 5.0508,2.2617 5.0508,5.0508"
       id="path409" />
    <path
       style="fill:#f399bf;fill-opacity:1;fill-rule:nonzero;stroke:none"
       d="m 1449.4688,2260.4609 c 0,3.6485 -2.9688,6.6172 -6.6172,6.6172 -3.6602,0 -6.6328,-2.9687 -6.6328,-6.6172 0,-3.6601 2.9726,-6.6211 6.6328,-6.6211 3.6484,0 6.6172,2.961 6.6172,6.6211"
       id="path411" />
    <path
       style="fill:#f399bf;fill-opacity:1;fill-rule:nonzero;stroke:none"
       d="m 1569.8398,1839.3516 c 0,2.2382 -1.8085,4.0468 -4.0507,4.0468 -2.2383,0 -4.0586,-1.8086 -4.0586,-4.0468 0,-2.2422 1.8203,-4.0625 4.0586,-4.0625 2.2422,0 4.0507,1.8203 4.0507,4.0625"
       id="path413" />
    <path
       style="fill:#855ca8;fill-opacity:1;fill-rule:nonzero;stroke:none"
       d="m 1657.7383,1975.5586 c 0,7.2109 -5.8477,13.0625 -13.0586,13.0625 -7.2188,0 -13.0703,-5.8516 -13.0703,-13.0625 0,-7.2188 5.8515,-13.0586 13.0703,-13.0586 7.2109,0 13.0586,5.8398 13.0586,13.0586"
       id="path415" />
    <path
       style="fill:#00a651;fill-opacity:1;fill-rule:nonzero;stroke:none"
       d="m 242.02344,2173.3008 c 0,17.4492 -14.14844,31.5976 -31.60157,31.5976 -17.45312,0 -31.59765,-14.1484 -31.59765,-31.5976 0,-17.461 14.14453,-31.6016 31.59765,-31.6016 17.45313,0 31.60157,14.1406 31.60157,31.6016"
       id="path417" />
    <path
       style="fill:#00a651;fill-opacity:1;fill-rule:nonzero;stroke:none"
       d="m 1591.2617,2067.3984 c 0,2.1407 -1.7422,3.8829 -3.8828,3.8829 -2.1406,0 -3.8789,-1.7422 -3.8789,-3.8829 0,-2.1367 1.7383,-3.8789 3.8789,-3.8789 2.1406,0 3.8828,1.7422 3.8828,3.8789"
       id="path419" />
    <path
       style="fill:#2b7fc5;fill-opacity:1;fill-rule:nonzero;stroke:none"
       d="m 187.05859,2115.1484 c 0,3.3907 -2.75,6.1407 -6.14453,6.1407 -3.39062,0 -6.14062,-2.75 -6.14062,-6.1407 0,-3.3984 2.75,-6.1484 6.14062,-6.1484 3.39453,0 6.14453,2.75 6.14453,6.1484"
       id="path421" />
    <path
       style="fill:#855ca8;fill-opacity:1;fill-rule:nonzero;stroke:none"
       d="m 191.76562,2260.0781 c 0,3.3125 -2.68359,5.9922 -5.99218,5.9922 -3.3086,0 -5.99219,-2.6797 -5.99219,-5.9922 0,-3.3086 2.68359,-6 5.99219,-6 3.30859,0 5.99218,2.6914 5.99218,6"
       id="path423" />
    <path
       style="fill:#ee2626;fill-opacity:1;fill-rule:nonzero;stroke:none"
       d="m 549.23437,225.23828 c 0,7.77344 -6.29687,14.0625 -14.05859,14.0625 -7.76562,0 -14.0625,-6.28906 -14.0625,-14.0625 0,-7.75781 6.29688,-14.05859 14.0625,-14.05859 7.76172,0 14.05859,6.30078 14.05859,14.05859"
       id="path425" />
    <path
       style="fill:#ee2626;fill-opacity:1;fill-rule:nonzero;stroke:none"
       d="m 803.75,200.60937 c 0,3.08985 -2.50391,5.60157 -5.59375,5.60157 -3.08984,0 -5.59375,-2.51172 -5.59375,-5.60157 0,-3.08984 2.50391,-5.58984 5.59375,-5.58984 3.08984,0 5.59375,2.5 5.59375,5.58984"
       id="path427" />
    <path
       style="fill:#00a651;fill-opacity:1;fill-rule:nonzero;stroke:none"
       d="m 206.35156,2147.2695 c 0,13.0703 -10.59765,23.6719 -23.67187,23.6719 -13.07422,0 -23.67188,-10.6016 -23.67188,-23.6719 0,-13.0703 10.59766,-23.6679 23.67188,-23.6679 13.07422,0 23.67187,10.5976 23.67187,23.6679"
       id="path429" />
    <path
       style="fill:#2b7fc5;fill-opacity:1;fill-rule:nonzero;stroke:none"
       d="m 1654.1797,2122.1719 c 0,10.8672 -8.8008,19.6679 -19.668,19.6679 -10.8633,0 -19.6719,-8.8007 -19.6719,-19.6679 0,-10.8633 8.8086,-19.6719 19.6719,-19.6719 10.8672,0 19.668,8.8086 19.668,19.6719"
       id="path431" />
    <path
       style="fill:#00a651;fill-opacity:1;fill-rule:nonzero;stroke:none"
       d="m 506.64844,274.64062 c 0,2.28125 -1.84766,4.12891 -4.125,4.12891 -2.28125,0 -4.12891,-1.84766 -4.12891,-4.12891 0,-2.28125 1.84766,-4.1289 4.12891,-4.1289 2.27734,0 4.125,1.84765 4.125,4.1289"
       id="path433" />
    <path
       style="fill:#00a651;fill-opacity:1;fill-rule:nonzero;stroke:none"
       d="m 200.59766,547.87891 c 0,3.08203 -2.4961,5.57031 -5.57422,5.57031 -3.07813,0 -5.57422,-2.48828 -5.57422,-5.57031 0,-3.07813 2.49609,-5.57032 5.57422,-5.57032 3.07812,0 5.57422,2.49219 5.57422,5.57032"
       id="path435" />
    <path
       style="fill:#855ca8;fill-opacity:1;fill-rule:nonzero;stroke:none"
       d="m 201.16797,938.87891 c 0,8.46093 -6.85547,15.3125 -15.3086,15.3125 -8.45703,0 -15.30859,-6.85157 -15.30859,-15.3125 0,-8.44922 6.85156,-15.30079 15.30859,-15.30079 8.45313,0 15.3086,6.85157 15.3086,15.30079"
       id="path437" />
    <path
       style="fill:#ee2626;fill-opacity:1;fill-rule:nonzero;stroke:none"
       d="m 984.15625,179.23828 c 0,10.37109 -8.40234,18.77344 -18.76953,18.77344 -10.36328,0 -18.76953,-8.40235 -18.76953,-18.77344 0,-10.36719 8.40625,-18.76953 18.76953,-18.76953 10.36719,0 18.76953,8.40234 18.76953,18.76953"
       id="path439" />
    <path
       style="fill:#00a651;fill-opacity:1;fill-rule:nonzero;stroke:none"
       d="m 1569.1211,1109.7813 c 0,2.8906 -2.3398,5.2187 -5.2305,5.2187 -2.8789,0 -5.2187,-2.3281 -5.2187,-5.2187 0,-2.8829 2.3398,-5.2227 5.2187,-5.2227 2.8907,0 5.2305,2.3398 5.2305,5.2227"
       id="path441" />
    <path
       style="fill:#00a651;fill-opacity:1;fill-rule:nonzero;stroke:none"
       d="m 1672.6406,598.05078 c 0,6.67969 -5.4101,12.07813 -12.082,12.07813 -6.668,0 -12.0781,-5.39844 -12.0781,-12.07813 0,-6.67187 5.4101,-12.08203 12.0781,-12.08203 6.6719,0 12.082,5.41016 12.082,12.08203"
       id="path443" />
    <path
       style="fill:#f399bf;fill-opacity:1;fill-rule:nonzero;stroke:none"
       d="m 1568.6211,329.76172 c 0,2.25 -1.832,4.07812 -4.082,4.07812 -2.2578,0 -4.0899,-1.82812 -4.0899,-4.07812 0,-2.25 1.8321,-4.08203 4.0899,-4.08203 2.25,0 4.082,1.83203 4.082,4.08203"
       id="path445" />
    <path
       style="fill:#2b7fc5;fill-opacity:1;fill-rule:nonzero;stroke:none"
       d="m 675.42969,253.67969 c 0,3.71093 -3.01172,6.73047 -6.72657,6.73047 -3.71484,0 -6.72656,-3.01954 -6.72656,-6.73047 0,-3.71875 3.01172,-6.73047 6.72656,-6.73047 3.71485,0 6.72657,3.01172 6.72657,6.73047"
       id="path447" />
    <path
       style="fill:#2b7fc5;fill-opacity:1;fill-rule:nonzero;stroke:none"
       d="m 174.125,1781.3008 c 0,13.8281 -11.21094,25.0273 -25.03516,25.0273 -13.82812,0 -25.03906,-11.1992 -25.03906,-25.0273 0,-13.832 11.21094,-25.0391 25.03906,-25.0391 13.82422,0 25.03516,11.2071 25.03516,25.0391"
       id="path449" />
    <path
       style="fill:#ee2626;fill-opacity:1;fill-rule:nonzero;stroke:none"
       d="m 1554.7813,2234.6094 c 0,2.6211 -2.1211,4.7304 -4.7305,4.7304 -2.6094,0 -4.7305,-2.1093 -4.7305,-4.7304 0,-2.6094 2.1211,-4.7305 4.7305,-4.7305 2.6094,0 4.7305,2.1211 4.7305,4.7305"
       id="path451" />
    <path
       style="fill:#855ca8;fill-opacity:1;fill-rule:nonzero;stroke:none"
       d="m 232.125,1033.9688 c 0,3.9531 -3.20703,7.1601 -7.16016,7.1601 -3.95312,0 -7.16015,-3.207 -7.16015,-7.1601 0,-3.9571 3.20703,-7.1602 7.16015,-7.1602 3.95313,0 7.16016,3.2031 7.16016,7.1602"
       id="path453" />
    <path
       style="fill:#00a651;fill-opacity:1;fill-rule:nonzero;stroke:none"
       d="m 193.07031,1032.4219 c 0,2.1367 -1.73437,3.8672 -3.875,3.8672 -2.13672,0 -3.87109,-1.7305 -3.87109,-3.8672 0,-2.1406 1.73437,-3.8711 3.87109,-3.8711 2.14063,0 3.875,1.7305 3.875,3.8711"
       id="path455" />
    <path
       style="fill:#855ca8;fill-opacity:1;fill-rule:nonzero;stroke:none"
       d="m 162.82422,1014.9805 c 0,8.4414 -6.84375,15.289 -15.28906,15.289 -8.44532,0 -15.28907,-6.8476 -15.28907,-15.289 0,-8.4493 6.84375,-15.28909 15.28907,-15.28909 8.44531,0 15.28906,6.83979 15.28906,15.28909"
       id="path457" />
    <path
       style="fill:#00a651;fill-opacity:1;fill-rule:nonzero;stroke:none"
       d="m 1647.5781,1613.9688 c 0,2.3906 -1.9375,4.332 -4.3281,4.332 -2.3906,0 -4.3281,-1.9414 -4.3281,-4.332 0,-2.3907 1.9375,-4.3282 4.3281,-4.3282 2.3906,0 4.3281,1.9375 4.3281,4.3282"
       id="path459" />
    <path
       style="fill:#ee2626;fill-opacity:1;fill-rule:nonzero;stroke:none"
       d="m 190.5,2075.1719 c 0,2.0898 -1.69531,3.789 -3.79297,3.789 -2.09375,0 -3.79297,-1.6992 -3.79297,-3.789 0,-2.1016 1.69922,-3.8008 3.79297,-3.8008 2.09766,0 3.79297,1.6992 3.79297,3.8008"
       id="path461" />
    <path
       style="fill:#f399bf;fill-opacity:1;fill-rule:nonzero;stroke:none"
       d="m 1642.6797,1743.8008 c 0,16.8203 -13.6406,30.4609 -30.4609,30.4609 -16.8204,0 -30.4571,-13.6406 -30.4571,-30.4609 0,-16.8203 13.6367,-30.461 30.4571,-30.461 16.8203,0 30.4609,13.6407 30.4609,30.461"
       id="path463" />
    <path
       style="fill:#ee2626;fill-opacity:1;fill-rule:nonzero;stroke:none"
       d="m 200.73828,1159.9414 c 0,3.207 -2.60156,5.8203 -5.81641,5.8203 -3.21093,0 -5.8164,-2.6133 -5.8164,-5.8203 0,-3.2109 2.60547,-5.8203 5.8164,-5.8203 3.21485,0 5.81641,2.6094 5.81641,5.8203"
       id="path465" />
    <path
       style="fill:#ee2626;fill-opacity:1;fill-rule:nonzero;stroke:none"
       d="m 212.07812,1619.8906 c 0,4.0782 -3.30859,7.3907 -7.39062,7.3907 -4.08203,0 -7.39063,-3.3125 -7.39063,-7.3907 0,-4.082 3.3086,-7.3906 7.39063,-7.3906 4.08203,0 7.39062,3.3086 7.39062,7.3906"
       id="path467" />
    <path
       style="fill:#2b7fc5;fill-opacity:1;fill-rule:nonzero;stroke:none"
       d="m 1579.1484,570.21094 c 0,6.23828 -5.0586,11.30078 -11.2968,11.30078 -6.2422,0 -11.3008,-5.0625 -11.3008,-11.30078 0,-6.24219 5.0586,-11.28907 11.3008,-11.28907 6.2382,0 11.2968,5.04688 11.2968,11.28907"
       id="path469" />
    <path
       style="fill:#855ca8;fill-opacity:1;fill-rule:nonzero;stroke:none"
       d="m 1586.0781,1671.8086 c 0,11.4414 -9.2773,20.7227 -20.7187,20.7227 -11.4492,0 -20.7188,-9.2813 -20.7188,-20.7227 0,-11.4492 9.2696,-20.7188 20.7188,-20.7188 11.4414,0 20.7187,9.2696 20.7187,20.7188"
       id="path471" />
    <path
       style="fill:#ee2626;fill-opacity:1;fill-rule:nonzero;stroke:none"
       d="m 214.76953,1767.2891 c 0,13.539 -10.97266,24.5117 -24.51172,24.5117 -13.53515,0 -24.51172,-10.9727 -24.51172,-24.5117 0,-13.5391 10.97657,-24.5078 24.51172,-24.5078 13.53906,0 24.51172,10.9687 24.51172,24.5078"
       id="path473" />
    <path
       style="fill:#f399bf;fill-opacity:1;fill-rule:nonzero;stroke:none"
       d="m 619.23437,182.55859 c 0,3.60157 -2.91796,6.51953 -6.51953,6.51953 -3.59765,0 -6.51562,-2.91796 -6.51562,-6.51953 0,-3.59765 2.91797,-6.51953 6.51562,-6.51953 3.60157,0 6.51953,2.92188 6.51953,6.51953"
       id="path475" />
    <path
       style="fill:#00a651;fill-opacity:1;fill-rule:nonzero;stroke:none"
       d="m 145.16016,1290.9414 c 0,2.1367 -1.73438,3.8789 -3.875,3.8789 -2.14063,0 -3.875,-1.7422 -3.875,-3.8789 0,-2.1406 1.73437,-3.8711 3.875,-3.8711 2.14062,0 3.875,1.7305 3.875,3.8711"
       id="path477" />
    <path
       style="fill:#2b7fc5;fill-opacity:1;fill-rule:nonzero;stroke:none"
       d="m 1613.1719,1693.2305 c 0,2.3008 -1.8711,4.1601 -4.1719,4.1601 -2.3008,0 -4.1602,-1.8593 -4.1602,-4.1601 0,-2.3008 1.8594,-4.1719 4.1602,-4.1719 2.3008,0 4.1719,1.8711 4.1719,4.1719"
       id="path479" />
    <path
       style="fill:#2b7fc5;fill-opacity:1;fill-rule:nonzero;stroke:none"
       d="m 933.72266,281.64062 c 0,4.21875 -3.42188,7.64063 -7.64454,7.64063 -4.21875,0 -7.64062,-3.42188 -7.64062,-7.64063 0,-4.21875 3.42187,-7.64062 7.64062,-7.64062 4.22266,0 7.64454,3.42187 7.64454,7.64062"
       id="path481" />
    <path
       style="fill:#00a651;fill-opacity:1;fill-rule:nonzero;stroke:none"
       d="m 1260.8516,291.28125 c 0,5.07031 -4.1211,9.17969 -9.1914,9.17969 -5.0704,0 -9.1914,-4.10938 -9.1914,-9.17969 0,-5.08203 4.121,-9.19141 9.1914,-9.19141 5.0703,0 9.1914,4.10938 9.1914,9.19141"
       id="path483" />
    <path
       style="fill:#2b7fc5;fill-opacity:1;fill-rule:nonzero;stroke:none"
       d="m 313.76562,265.76953 c 0,11.08203 -8.97656,20.05078 -20.05078,20.05078 -11.07422,0 -20.05468,-8.96875 -20.05468,-20.05078 0,-11.07031 8.98046,-20.05078 20.05468,-20.05078 11.07422,0 20.05078,8.98047 20.05078,20.05078"
       id="path485" />
    <path
       style="fill:#f399bf;fill-opacity:1;fill-rule:nonzero;stroke:none"
       d="m 1605.0117,812.16016 c 0,2.55859 -2.0703,4.64062 -4.6328,4.64062 -2.5586,0 -4.6406,-2.08203 -4.6406,-4.64062 0,-2.5586 2.082,-4.62891 4.6406,-4.62891 2.5625,0 4.6328,2.07031 4.6328,4.62891"
       id="path487" />
    <path
       style="fill:#2b7fc5;fill-opacity:1;fill-rule:nonzero;stroke:none"
       d="m 567.75391,271.30078 c 0,4.23047 -3.42969,7.66016 -7.65625,7.66016 -4.23047,0 -7.65625,-3.42969 -7.65625,-7.66016 0,-4.22266 3.42578,-7.65234 7.65625,-7.65234 4.22656,0 7.65625,3.42968 7.65625,7.65234"
       id="path489" />
    <path
       style="fill:#ee2626;fill-opacity:1;fill-rule:nonzero;stroke:none"
       d="m 1591.1211,530.60156 c 0,3.46875 -2.8125,6.27735 -6.2695,6.27735 -3.4727,0 -6.2813,-2.8086 -6.2813,-6.27735 0,-3.46094 2.8086,-6.27344 6.2813,-6.27344 3.457,0 6.2695,2.8125 6.2695,6.27344"
       id="path491" />
    <path
       style="fill:#2b7fc5;fill-opacity:1;fill-rule:nonzero;stroke:none"
       d="m 251.85156,922.96094 c 0,14.3789 -11.65234,26.02734 -26.02734,26.02734 -14.3711,0 -26.02344,-11.64844 -26.02344,-26.02734 0,-14.3711 11.65234,-26.01953 26.02344,-26.01953 14.375,0 26.02734,11.64843 26.02734,26.01953"
       id="path493" />
    <path
       style="fill:#f399bf;fill-opacity:1;fill-rule:nonzero;stroke:none"
       d="m 1608.9609,1357.6211 c 0,15.457 -12.5312,28 -27.9921,28 -15.4571,0 -28,-12.543 -28,-28 0,-15.4609 12.5429,-27.9922 28,-27.9922 15.4609,0 27.9921,12.5313 27.9921,27.9922"
       id="path495" />
    <path
       style="fill:#ee2626;fill-opacity:1;fill-rule:nonzero;stroke:none"
       d="m 141.29687,1892.6797 c 0,2.1601 -1.75781,3.9219 -3.92187,3.9219 -2.16406,0 -3.92188,-1.7618 -3.92188,-3.9219 0,-2.168 1.75782,-3.918 3.92188,-3.918 2.16406,0 3.92187,1.75 3.92187,3.918"
       id="path497" />
    <path
       style="fill:#f8de59;fill-opacity:1;fill-rule:nonzero;stroke:none"
       d="m 1473.8281,2295.6289 c 0,3.1328 -2.539,5.6719 -5.6679,5.6719 -3.1407,0 -5.6797,-2.5391 -5.6797,-5.6719 0,-3.1406 2.539,-5.6797 5.6797,-5.6797 3.1289,0 5.6679,2.5391 5.6679,5.6797"
       id="path499" />
    <path
       style="fill:#ee2626;fill-opacity:1;fill-rule:nonzero;stroke:none"
       d="m 147.36328,2121.25 c 0,8.4219 -6.82422,15.2383 -15.23828,15.2383 -8.41406,0 -15.23828,-6.8164 -15.23828,-15.2383 0,-8.4102 6.82422,-15.2305 15.23828,-15.2305 8.41406,0 15.23828,6.8203 15.23828,15.2305"
       id="path501" />
    <path
       style="fill:#855ca8;fill-opacity:1;fill-rule:nonzero;stroke:none"
       d="m 236.76172,1861.1016 c 0,8.5468 -6.9336,15.4765 -15.48047,15.4765 -8.54688,0 -15.47656,-6.9297 -15.47656,-15.4765 0,-8.5508 6.92968,-15.4805 15.47656,-15.4805 8.54687,0 15.48047,6.9297 15.48047,15.4805"
       id="path503" />
    <path
       style="fill:#f8de59;fill-opacity:1;fill-rule:nonzero;stroke:none"
       d="m 485.52734,2296.3203 c 0,6.918 -5.60937,12.5313 -12.53125,12.5313 -6.91797,0 -12.52734,-5.6133 -12.52734,-12.5313 0,-6.9219 5.60937,-12.5312 12.52734,-12.5312 6.92188,0 12.53125,5.6093 12.53125,12.5312"
       id="path505" />
    <path
       style="fill:#2b7fc5;fill-opacity:1;fill-rule:nonzero;stroke:none"
       d="m 701.875,280.89062 c 0,5.55079 -4.49609,10.05079 -10.04688,10.05079 -5.54687,0 -10.04687,-4.5 -10.04687,-10.05079 0,-5.55078 4.5,-10.05078 10.04687,-10.05078 5.55079,0 10.04688,4.5 10.04688,10.05078"
       id="path507" />
    <path
       style="fill:#2b7fc5;fill-opacity:1;fill-rule:nonzero;stroke:none"
       d="m 1403.5703,2243.5703 c 0,2.4414 -1.9687,4.4102 -4.4101,4.4102 -2.4297,0 -4.4102,-1.9688 -4.4102,-4.4102 0,-2.4297 1.9805,-4.4101 4.4102,-4.4101 2.4414,0 4.4101,1.9804 4.4101,4.4101"
       id="path509" />
    <path
       style="fill:#f399bf;fill-opacity:1;fill-rule:nonzero;stroke:none"
       d="m 231.25781,399.71094 c 0,2.96875 -2.41015,5.3789 -5.375,5.3789 -2.97265,0 -5.3789,-2.41015 -5.3789,-5.3789 0,-2.97266 2.40625,-5.3711 5.3789,-5.3711 2.96485,0 5.375,2.39844 5.375,5.3711"
       id="path511" />
    <path
       style="fill:#ee2626;fill-opacity:1;fill-rule:nonzero;stroke:none"
       d="m 1532.6914,289.64844 c 0,2.92187 -2.3633,5.28125 -5.2695,5.28125 -2.9102,0 -5.2813,-2.35938 -5.2813,-5.28125 0,-2.91016 2.3711,-5.26953 5.2813,-5.26953 2.9062,0 5.2695,2.35937 5.2695,5.26953"
       id="path513" />
    <path
       style="fill:#855ca8;fill-opacity:1;fill-rule:nonzero;stroke:none"
       d="m 257.30859,275.92969 c 0,7.78906 -6.3125,14.10937 -14.10547,14.10937 -7.78906,0 -14.10546,-6.32031 -14.10546,-14.10937 0,-7.78907 6.3164,-14.10157 14.10546,-14.10157 7.79297,0 14.10547,6.3125 14.10547,14.10157"
       id="path515" />
    <path
       style="fill:#ee2626;fill-opacity:1;fill-rule:nonzero;stroke:none"
       d="m 1002.8516,2330.9297 c 0,7.5 -6.08598,13.5898 -13.58988,13.5898 -7.51172,0 -13.59766,-6.0898 -13.59766,-13.5898 0,-7.5078 6.08594,-13.6016 13.59766,-13.6016 7.5039,0 13.58988,6.0938 13.58988,13.6016"
       id="path517" />
    <path
       style="fill:#00a651;fill-opacity:1;fill-rule:nonzero;stroke:none"
       d="m 1424.5117,2325.6211 c 0,12.2383 -9.9336,22.168 -22.1836,22.168 -12.25,0 -22.1679,-9.9297 -22.1679,-22.168 0,-12.25 9.9179,-22.1797 22.1679,-22.1797 12.25,0 22.1836,9.9297 22.1836,22.1797"
       id="path519" />
    <path
       style="fill:#855ca8;fill-opacity:1;fill-rule:nonzero;stroke:none"
       d="m 1568.2188,2084.7188 c 0,2.7109 -2.2071,4.9218 -4.9297,4.9218 -2.711,0 -4.918,-2.2109 -4.918,-4.9218 0,-2.7188 2.207,-4.9297 4.918,-4.9297 2.7226,0 4.9297,2.2109 4.9297,4.9297"
       id="path521" />
    <path
       style="fill:#ee2626;fill-opacity:1;fill-rule:nonzero;stroke:none"
       d="m 190.37109,320.46094 c 0,11.75781 -9.52734,21.28906 -21.28125,21.28906 -11.7539,0 -21.28515,-9.53125 -21.28515,-21.28906 0,-11.75 9.53125,-21.28125 21.28515,-21.28125 11.75391,0 21.28125,9.53125 21.28125,21.28125"
       id="path523" />
    <path
       style="fill:#2b7fc5;fill-opacity:1;fill-rule:nonzero;stroke:none"
       d="m 1004.6992,2254.0391 c 0,10.0507 -8.14842,18.1914 -18.19529,18.1914 -10.05079,0 -18.19922,-8.1407 -18.19922,-18.1914 0,-10.0508 8.14843,-18.1993 18.19922,-18.1993 10.04687,0 18.19529,8.1485 18.19529,18.1993"
       id="path525" />
    <path
       style="fill:#f8de59;fill-opacity:1;fill-rule:nonzero;stroke:none"
       d="m 1637.4688,562.82812 c 0,2.05079 -1.6602,3.72266 -3.7188,3.72266 -2.0508,0 -3.7109,-1.67187 -3.7109,-3.72266 0,-2.04687 1.6601,-3.71875 3.7109,-3.71875 2.0586,0 3.7188,1.67188 3.7188,3.71875"
       id="path527" />
    <path
       style="fill:#2b7fc5;fill-opacity:1;fill-rule:nonzero;stroke:none"
       d="m 860.92578,278.37891 c 0,15.76171 -12.77734,28.54296 -28.53906,28.54296 -15.76563,0 -28.54297,-12.78125 -28.54297,-28.54296 0,-15.75782 12.77734,-28.53907 28.54297,-28.53907 15.76172,0 28.53906,12.78125 28.53906,28.53907"
       id="path529" />
    <path
       style="fill:#2b7fc5;fill-opacity:1;fill-rule:nonzero;stroke:none"
       d="m 1600.1914,1869.6289 c 0,12.3828 -10.043,22.4102 -22.4219,22.4102 -12.3789,0 -22.4179,-10.0274 -22.4179,-22.4102 0,-12.3906 10.039,-22.418 22.4179,-22.418 12.3789,0 22.4219,10.0274 22.4219,22.418"
       id="path531" />
    <path
       style="fill:#f399bf;fill-opacity:1;fill-rule:nonzero;stroke:none"
       d="m 1613.25,249.89062 c 0,7.66016 -6.2109,13.8711 -13.8789,13.8711 -7.6602,0 -13.8711,-6.21094 -13.8711,-13.8711 0,-7.66015 6.2109,-13.87109 13.8711,-13.87109 7.668,0 13.8789,6.21094 13.8789,13.87109"
       id="path533" />
    <path
       style="fill:#00a651;fill-opacity:1;fill-rule:nonzero;stroke:none"
       d="m 179.07031,704.94922 c 0,11.78906 -9.55859,21.35156 -21.35156,21.35156 -11.78906,0 -21.34766,-9.5625 -21.34766,-21.35156 0,-11.78906 9.5586,-21.34766 21.34766,-21.34766 11.79297,0 21.35156,9.5586 21.35156,21.34766"
       id="path535" />
    <path
       style="fill:#855ca8;fill-opacity:1;fill-rule:nonzero;stroke:none"
       d="m 1544.5117,2322.8281 c 0,9.7305 -7.8906,17.6211 -17.6211,17.6211 -9.7304,0 -17.6211,-7.8906 -17.6211,-17.6211 0,-9.7383 7.8907,-17.6289 17.6211,-17.6289 9.7305,0 17.6211,7.8906 17.6211,17.6289"
       id="path537" />
    <path
       style="fill:#855ca8;fill-opacity:1;fill-rule:nonzero;stroke:none"
       d="m 970.66797,276.23047 c 0,2.71094 -2.19922,4.91015 -4.91016,4.91015 -2.71094,0 -4.91015,-2.19921 -4.91015,-4.91015 0,-2.71094 2.19921,-4.91016 4.91015,-4.91016 2.71094,0 4.91016,2.19922 4.91016,4.91016"
       id="path539" />
    <path
       style="fill:#00a651;fill-opacity:1;fill-rule:nonzero;stroke:none"
       d="m 754.41016,272.91016 c 0,9.16796 -7.4375,16.60937 -16.61329,16.60937 -9.17578,0 -16.61328,-7.44141 -16.61328,-16.60937 0,-9.17969 7.4375,-16.6211 16.61328,-16.6211 9.17579,0 16.61329,7.44141 16.61329,16.6211"
       id="path541" />
    <path
       style="fill:#00a651;fill-opacity:1;fill-rule:nonzero;stroke:none"
       d="m 1610.9805,308.19141 c 0,17.29687 -14.0196,31.32031 -31.3203,31.32031 -17.3008,0 -31.3321,-14.02344 -31.3321,-31.32031 0,-17.30079 14.0313,-31.33204 31.3321,-31.33204 17.3007,0 31.3203,14.03125 31.3203,31.33204"
       id="path543" />
    <path
       style="fill:#f8de59;fill-opacity:1;fill-rule:nonzero;stroke:none"
       d="m 226.00391,305.30859 c 0,4.63282 -3.75391,8.39063 -8.38282,8.39063 -4.6289,0 -8.38281,-3.75781 -8.38281,-8.39063 0,-4.6289 3.75391,-8.3789 8.38281,-8.3789 4.62891,0 8.38282,3.75 8.38282,8.3789"
       id="path545" />
    <path
       style="fill:#f399bf;fill-opacity:1;fill-rule:nonzero;stroke:none"
       d="m 1591.9805,851.01172 c 0,11.76953 -9.5391,21.3164 -21.3086,21.3164 -11.7813,0 -21.3203,-9.54687 -21.3203,-21.3164 0,-11.77344 9.539,-21.3125 21.3203,-21.3125 11.7695,0 21.3086,9.53906 21.3086,21.3125"
       id="path547" />
    <path
       style="fill:#00a651;fill-opacity:1;fill-rule:nonzero;stroke:none"
       d="m 219.73828,371.28125 c 0,2.50781 -2.04297,4.54687 -4.55859,4.54687 -2.51563,0 -4.55469,-2.03906 -4.55469,-4.54687 0,-2.51953 2.03906,-4.5625 4.55469,-4.5625 2.51562,0 4.55859,2.04297 4.55859,4.5625"
       id="path549" />
    <path
       style="fill:#f8de59;fill-opacity:1;fill-rule:nonzero;stroke:none"
       d="m 1644.3906,2304.1602 c 0,2.2617 -1.832,4.1015 -4.1015,4.1015 -2.2578,0 -4.0899,-1.8398 -4.0899,-4.1015 0,-2.2618 1.8321,-4.0899 4.0899,-4.0899 2.2695,0 4.1015,1.8281 4.1015,4.0899"
       id="path551" />
    <path
       style="fill:#2b7fc5;fill-opacity:1;fill-rule:nonzero;stroke:none"
       d="m 1361,2267.4297 c 0,4.582 -3.7187,8.3008 -8.3086,8.3008 -4.582,0 -8.3008,-3.7188 -8.3008,-8.3008 0,-4.5899 3.7188,-8.3008 8.3008,-8.3008 4.5899,0 8.3086,3.7109 8.3086,8.3008"
       id="path553" />
    <path
       style="fill:#f8de59;fill-opacity:1;fill-rule:nonzero;stroke:none"
       d="m 1195.7891,2239.6602 c 0,10.5195 -8.5274,19.0507 -19.0508,19.0507 -10.5195,0 -19.0469,-8.5312 -19.0469,-19.0507 0,-10.5196 8.5274,-19.0508 19.0469,-19.0508 10.5234,0 19.0508,8.5312 19.0508,19.0508"
       id="path555" />
    <path
       style="fill:#855ca8;fill-opacity:1;fill-rule:nonzero;stroke:none"
       d="m 137.73047,763.5 c 0,10.33984 -8.38672,18.71875 -18.72656,18.71875 -10.33985,0 -18.72266,-8.37891 -18.72266,-18.71875 0,-10.33984 8.38281,-18.73047 18.72266,-18.73047 10.33984,0 18.72656,8.39063 18.72656,18.73047"
       id="path557" />
    <path
       style="fill:#f8de59;fill-opacity:1;fill-rule:nonzero;stroke:none"
       d="m 182.01562,1242.6719 c 0,3.5898 -2.91015,6.5 -6.5,6.5 -3.58984,0 -6.5039,-2.9102 -6.5039,-6.5 0,-3.6016 2.91406,-6.5117 6.5039,-6.5117 3.58985,0 6.5,2.9101 6.5,6.5117"
       id="path559" />
    <path
       style="fill:#00a651;fill-opacity:1;fill-rule:nonzero;stroke:none"
       d="m 244.85937,2068.6797 c 0,12.582 -10.20312,22.7812 -22.78125,22.7812 -12.58203,0 -22.78125,-10.1992 -22.78125,-22.7812 0,-12.5781 10.19922,-22.7813 22.78125,-22.7813 12.57813,0 22.78125,10.2032 22.78125,22.7813"
       id="path561" />
    <path
       style="fill:#855ca8;fill-opacity:1;fill-rule:nonzero;stroke:none"
       d="m 246.89062,652.25 c 0,11.60937 -9.41015,21.01172 -21.01562,21.01172 -11.60547,0 -21.01563,-9.40235 -21.01563,-21.01172 0,-11.60938 9.41016,-21.01953 21.01563,-21.01953 11.60547,0 21.01562,9.41015 21.01562,21.01953"
       id="path563" />
    <path
       style="fill:#2b7fc5;fill-opacity:1;fill-rule:nonzero;stroke:none"
       d="m 551.23047,2330.4219 c 0,7.7578 -6.29297,14.0469 -14.05469,14.0469 -7.76172,0 -14.05078,-6.2891 -14.05078,-14.0469 0,-7.7617 6.28906,-14.0508 14.05078,-14.0508 7.76172,0 14.05469,6.2891 14.05469,14.0508"
       id="path565" />
    <path
       style="fill:#855ca8;fill-opacity:1;fill-rule:nonzero;stroke:none"
       d="m 1137.3906,275.14844 c 0,5.79297 -4.6914,10.48047 -10.4804,10.48047 -5.7813,0 -10.4688,-4.6875 -10.4688,-10.48047 0,-5.77735 4.6875,-10.46875 10.4688,-10.46875 5.789,0 10.4804,4.6914 10.4804,10.46875"
       id="path567" />
    <path
       style="fill:#00a651;fill-opacity:1;fill-rule:nonzero;stroke:none"
       d="m 785.56641,2243.8203 c 0,11.4688 -9.30079,20.7695 -20.77735,20.7695 -11.47265,0 -20.77344,-9.3007 -20.77344,-20.7695 0,-11.4687 9.30079,-20.7695 20.77344,-20.7695 11.47656,0 20.77735,9.3008 20.77735,20.7695"
       id="path569" />
    <path
       style="fill:#ee2626;fill-opacity:1;fill-rule:nonzero;stroke:none"
       d="m 956.86719,2333.2188 c 0,16.4609 -13.33985,29.8007 -29.79297,29.8007 -16.45703,0 -29.79688,-13.3398 -29.79688,-29.8007 0,-16.4493 13.33985,-29.7891 29.79688,-29.7891 16.45312,0 29.79297,13.3398 29.79297,29.7891"
       id="path571" />
    <path
       style="fill:#f399bf;fill-opacity:1;fill-rule:nonzero;stroke:none"
       d="m 1342.9297,2300.9883 c 0,2.5234 -2.0391,4.5625 -4.5586,4.5625 -2.5117,0 -4.5508,-2.0391 -4.5508,-4.5625 0,-2.5195 2.0391,-4.5586 4.5508,-4.5586 2.5195,0 4.5586,2.0391 4.5586,4.5586"
       id="path573" />
    <path
       style="fill:#f8de59;fill-opacity:1;fill-rule:nonzero;stroke:none"
       d="m 1256.5117,205.14844 c 0,15.22265 -12.3398,27.55078 -27.5508,27.55078 -15.2226,0 -27.5507,-12.32813 -27.5507,-27.55078 0,-15.20703 12.3281,-27.54688 27.5507,-27.54688 15.211,0 27.5508,12.33985 27.5508,27.54688"
       id="path575" />
    <path
       style="fill:#855ca8;fill-opacity:1;fill-rule:nonzero;stroke:none"
       d="m 1193,236.10937 c 0,8.73047 -7.0781,15.8125 -15.8086,15.8125 -8.7305,0 -15.8008,-7.08203 -15.8008,-15.8125 0,-8.73046 7.0703,-15.80078 15.8008,-15.80078 8.7305,0 15.8086,7.07032 15.8086,15.80078"
       id="path577" />
    <path
       style="fill:#f399bf;fill-opacity:1;fill-rule:nonzero;stroke:none"
       d="m 227.78516,1813.6289 c 0,5.0899 -4.125,9.2109 -9.21485,9.2109 -5.08984,0 -9.21484,-4.121 -9.21484,-9.2109 0,-5.0898 4.125,-9.2187 9.21484,-9.2187 5.08985,0 9.21485,4.1289 9.21485,9.2187"
       id="path579" />
    <path
       style="fill:#855ca8;fill-opacity:1;fill-rule:nonzero;stroke:none"
       d="m 145.12109,2287.0508 c 0,3.5976 -2.91797,6.5078 -6.51562,6.5078 -3.59766,0 -6.51563,-2.9102 -6.51563,-6.5078 0,-3.6016 2.91797,-6.5195 6.51563,-6.5195 3.59765,0 6.51562,2.9179 6.51562,6.5195"
       id="path581" />
    <path
       style="fill:#f399bf;fill-opacity:1;fill-rule:nonzero;stroke:none"
       d="m 125.78516,2008.9219 c 0,2.5 -2.03125,4.5273 -4.53907,4.5273 -2.5039,0 -4.53906,-2.0273 -4.53906,-4.5273 0,-2.5117 2.03516,-4.543 4.53906,-4.543 2.50782,0 4.53907,2.0313 4.53907,4.543"
       id="path583" />
    <path
       style="fill:#f399bf;fill-opacity:1;fill-rule:nonzero;stroke:none"
       d="m 1600.0117,1082.5313 c 0,16.5 -13.3828,29.8671 -29.8711,29.8671 -16.5,0 -29.8711,-13.3671 -29.8711,-29.8671 0,-16.4922 13.3711,-29.8711 29.8711,-29.8711 16.4883,0 29.8711,13.3789 29.8711,29.8711"
       id="path585" />
    <path
       style="fill:#f399bf;fill-opacity:1;fill-rule:nonzero;stroke:none"
       d="m 187.19922,1459.6797 c 0,2.3516 -1.91016,4.2617 -4.26172,4.2617 -2.35156,0 -4.25781,-1.9101 -4.25781,-4.2617 0,-2.3516 1.90625,-4.2578 4.25781,-4.2578 2.35156,0 4.26172,1.9062 4.26172,4.2578"
       id="path587" />
    <path
       style="fill:#f399bf;fill-opacity:1;fill-rule:nonzero;stroke:none"
       d="m 1588.4805,1630.1602 c 0,10.2382 -8.2891,18.5312 -18.5313,18.5312 -10.2304,0 -18.5273,-8.293 -18.5273,-18.5312 0,-10.2305 8.2969,-18.5313 18.5273,-18.5313 10.2422,0 18.5313,8.3008 18.5313,18.5313"
       id="path589" />
    <path
       style="fill:#f399bf;fill-opacity:1;fill-rule:nonzero;stroke:none"
       d="m 440.05078,2265.4688 c 0,12.7421 -10.33203,23.082 -23.07812,23.082 -12.7461,0 -23.07813,-10.3399 -23.07813,-23.082 0,-12.75 10.33203,-23.0782 23.07813,-23.0782 12.74609,0 23.07812,10.3282 23.07812,23.0782"
       id="path591" />
    <path
       style="fill:#2b7fc5;fill-opacity:1;fill-rule:nonzero;stroke:none"
       d="m 227.99219,2316.7695 c 0,16.8594 -13.66797,30.5313 -30.52735,30.5313 -16.86328,0 -30.53125,-13.6719 -30.53125,-30.5313 0,-16.8593 13.66797,-30.5312 30.53125,-30.5312 16.85938,0 30.52735,13.6719 30.52735,30.5312"
       id="path593" />
    <path
       style="fill:#00a651;fill-opacity:1;fill-rule:nonzero;stroke:none"
       d="m 1599.1914,1310.1406 c 0,17.1289 -13.8906,31.0196 -31.0195,31.0196 -17.1328,0 -31.0235,-13.8907 -31.0235,-31.0196 0,-17.1289 13.8907,-31.0195 31.0235,-31.0195 17.1289,0 31.0195,13.8906 31.0195,31.0195"
       id="path595" />
    <path
       style="fill:#f8de59;fill-opacity:1;fill-rule:nonzero;stroke:none"
       d="m 236.78906,2281.2188 c 0,2.6328 -2.13281,4.7695 -4.76172,4.7695 -2.63281,0 -4.76562,-2.1367 -4.76562,-4.7695 0,-2.629 2.13281,-4.7579 4.76562,-4.7579 2.62891,0 4.76172,2.1289 4.76172,4.7579"
       id="path597" />
    <path
       style="fill:#2b7fc5;fill-opacity:1;fill-rule:nonzero;stroke:none"
       d="m 1597.7188,2120.7383 c 0,8.7031 -7.0469,15.7617 -15.75,15.7617 -8.6993,0 -15.7579,-7.0586 -15.7579,-15.7617 0,-8.6992 7.0586,-15.75 15.7579,-15.75 8.7031,0 15.75,7.0508 15.75,15.75"
       id="path599" />
    <path
       style="fill:#f399bf;fill-opacity:1;fill-rule:nonzero;stroke:none"
       d="m 758.25781,218.53906 c 0,15.67969 -12.71484,28.39063 -28.39844,28.39063 -15.68359,0 -28.39843,-12.71094 -28.39843,-28.39063 0,-15.6875 12.71484,-28.39844 28.39843,-28.39844 15.6836,0 28.39844,12.71094 28.39844,28.39844"
       id="path601" />
    <path
       style="fill:#f8de59;fill-opacity:1;fill-rule:nonzero;stroke:none"
       d="m 1335.1484,2240.9609 c 0,9.8399 -7.9765,17.8086 -17.8086,17.8086 -9.8398,0 -17.8203,-7.9687 -17.8203,-17.8086 0,-9.832 7.9805,-17.8125 17.8203,-17.8125 9.8321,0 17.8086,7.9805 17.8086,17.8125"
       id="path603" />
    <path
       style="fill:#f399bf;fill-opacity:1;fill-rule:nonzero;stroke:none"
       d="m 867.67969,2239.6289 c 0,4.4805 -3.63282,8.1211 -8.11719,8.1211 -4.48438,0 -8.11719,-3.6406 -8.11719,-8.1211 0,-4.4805 3.63281,-8.1172 8.11719,-8.1172 4.48437,0 8.11719,3.6367 8.11719,8.1172"
       id="path605" />
  </g>
</svg>
