<?xml version="1.0" encoding="UTF-8" standalone="no"?>
<svg
   width="361.62177"
   height="169.35315"
   viewBox="0 0 361.62178 169.35315"
   fill="none"
   version="1.1"
   id="svg158"
   sodipodidocname="Lorenes-House2.svg"
   inkscapeversion="1.3 (1:1.3+202307231459+0e150ed6c4)"
   xmlnsinkscape="http://www.inkscape.org/namespaces/inkscape"
   xmlnssodipodi="http://sodipodi.sourceforge.net/DTD/sodipodi-0.dtd"
   xmlns="http://www.w3.org/2000/svg"
   xmlnssvg="http://www.w3.org/2000/svg">
  <defs
     id="defs158">
    <clipPath
       clipPathUnits="userSpaceOnUse"
       id="clipPath159">
      <rect
         style="opacity:0.5;fill:#000000;stroke-width:0.823151"
         id="rect160"
         width="128.58226"
         height="23.355732"
         x="15.18359"
         y="259.1994" />
    </clipPath>
    <clipPath
       clipPathUnits="userSpaceOnUse"
       id="clipPath161">
      <rect
         style="opacity:0.5;fill:#000000;stroke-width:0.785681"
         id="rect162"
         width="96.586082"
         height="23.280321"
         x="158.59071"
         y="189.66397" />
    </clipPath>
  </defs>
  <sodipodinamedview
     id="namedview158"
     pagecolor="#ffffff"
     bordercolor="#666666"
     borderopacity="1.0"
     inkscapeshowpageshadow="2"
     inkscapepageopacity="0.0"
     inkscapepagecheckerboard="0"
     inkscapedeskcolor="#d1d1d1"
     inkscapezoom="2.2783784"
     inkscapecx="245.13049"
     inkscapecy="40.599051"
     inkscapewindow-width="1920"
     inkscapewindow-height="1043"
     inkscapewindow-x="0"
     inkscapewindow-y="0"
     inkscapewindow-maximized="1"
     inkscapecurrent-layer="svg158" />
  <path
     d="m 15.6695,259.98491 h 6.65998 v 16.206 h 8.621 v 4.884 h -15.28098 z m 25.55168,21.571 c -2.96,0 -5.18,-0.691 -6.66,-2.072 -1.4553,-1.406 -2.183,-3.614 -2.183,-6.623 0,-1.653 0.148,-3.096 0.444,-4.329 0.3207,-1.258 0.703,-2.134 1.147,-2.627 0.5673,-0.642 1.6033,-1.172 3.108,-1.591 1.5293,-0.42 2.96,-0.629 4.292,-0.629 3.182,0 5.4513,0.678 6.808,2.035 1.3567,1.356 2.035,3.527 2.035,6.512 0,3.206 -0.7277,5.562 -2.183,7.067 -1.4553,1.504 -3.7247,2.257 -6.808,2.257 z m 0.111,-4.329 c 0.962,0 1.591,-0.333 1.887,-0.999 0.296,-0.691 0.444,-1.9 0.444,-3.626 0,-1.209 -0.0617,-2.134 -0.185,-2.775 -0.1233,-0.666 -0.3577,-1.147 -0.703,-1.443 -0.3207,-0.321 -0.8263,-0.481 -1.517,-0.481 -0.9867,0 -1.554,0.086 -1.702,0.259 -0.1973,0.172 -0.3577,0.715 -0.481,1.628 -0.1233,0.912 -0.185,1.862 -0.185,2.849 0,1.677 0.1603,2.861 0.481,3.552 0.3453,0.69 0.999,1.036 1.961,1.036 z m 21.8401,-13.542 c 0.3207,0 0.6537,0.037 0.999,0.111 0.37,0.074 0.6414,0.16 0.814,0.259 0,0.542 -0.0616,1.443 -0.185,2.701 -0.1233,1.233 -0.2343,2.109 -0.333,2.627 -0.2466,-0.025 -0.703,-0.037 -1.369,-0.037 -1.554,0 -2.9353,0.086 -4.144,0.259 v 11.47 h -6.327 v -17.02 h 5.291 l 0.74,2.738 h 0.037 c 0.7154,-0.938 1.48,-1.69 2.294,-2.257 0.814,-0.568 1.5417,-0.851 2.183,-0.851 z m 13.7975,12.95 c 0.6167,0 1.7637,-0.062 3.441,-0.185 0.222,0 0.629,-0.025 1.221,-0.074 l 0.555,3.811 c -1.8993,0.888 -4.366,1.332 -7.4,1.332 -2.8366,0 -5.0196,-0.716 -6.549,-2.146 -1.5046,-1.431 -2.257,-3.589 -2.257,-6.475 0,-1.48 0.185,-2.911 0.555,-4.292 0.3947,-1.382 0.8387,-2.344 1.332,-2.886 0.518,-0.543 1.48,-1.012 2.886,-1.406 1.406,-0.395 2.7997,-0.592 4.181,-0.592 2.22,0 3.885,0.394 4.995,1.184 1.11,0.789 1.8377,1.887 2.183,3.293 0.3454,1.381 0.518,3.243 0.518,5.587 -1.6773,0.098 -3.3176,0.148 -4.921,0.148 h -5.254 c 0,0.789 0.1604,1.381 0.481,1.776 0.3454,0.394 0.8264,0.653 1.443,0.777 0.6167,0.098 1.48,0.148 2.59,0.148 z m -4.144,-8.51 c -0.148,0.074 -0.259,0.394 -0.333,0.962 -0.074,0.567 -0.1233,1.208 -0.148,1.924 h 1.924 c 1.1594,0 1.998,-0.013 2.516,-0.037 0,-1.184 -0.1726,-2.023 -0.518,-2.516 -0.3206,-0.494 -0.888,-0.74 -1.702,-0.74 -0.666,0 -1.2456,0.135 -1.739,0.407 z m 28.497,-2.997 c 0.222,0.271 0.3823,0.949 0.481,2.035 0.1233,1.085 0.185,2.738 0.185,4.958 v 8.954 h -6.327 v -8.88 -1.517 c 0,-0.79 -0.0617,-1.283 -0.185,-1.48 -0.1973,-0.247 -0.6537,-0.37 -1.369,-0.37 -0.3453,0 -0.6043,0.012 -0.777,0.037 -0.6907,0.024 -1.406,0.185 -2.146,0.481 v 11.729 h -6.327 v -17.02 h 5.143 l 0.703,2.849 c 1.776,-2.146 3.8973,-3.219 6.364,-3.219 0.888,0 1.7143,0.123 2.479,0.37 0.7893,0.246 1.3813,0.604 1.776,1.073 z m 13.9112,11.507 c 0.617,0 1.764,-0.062 3.441,-0.185 0.222,0 0.629,-0.025 1.221,-0.074 l 0.555,3.811 c -1.899,0.888 -4.366,1.332 -7.4,1.332 -2.836,0 -5.019,-0.716 -6.5485,-2.146 -1.5047,-1.431 -2.257,-3.589 -2.257,-6.475 0,-1.48 0.185,-2.911 0.555,-4.292 0.3947,-1.382 0.8387,-2.344 1.332,-2.886 0.518,-0.543 1.48,-1.012 2.8855,-1.406 1.406,-0.395 2.8,-0.592 4.181,-0.592 2.22,0 3.885,0.394 4.995,1.184 1.11,0.789 1.838,1.887 2.183,3.293 0.346,1.381 0.518,3.243 0.518,5.587 -1.677,0.098 -3.317,0.148 -4.921,0.148 h -5.254 c 0,0.789 0.161,1.381 0.481,1.776 0.346,0.394 0.827,0.653 1.443,0.777 0.617,0.098 1.48,0.148 2.59,0.148 z m -4.144,-8.51 c -0.148,0.074 -0.259,0.394 -0.333,0.962 -0.074,0.567 -0.123,1.208 -0.148,1.924 h 1.924 c 1.16,0 1.998,-0.013 2.516,-0.037 0,-1.184 -0.172,-2.023 -0.518,-2.516 -0.32,-0.494 -0.888,-0.74 -1.702,-0.74 -0.666,0 -1.245,0.135 -1.739,0.407 z m 31.361,7.178 c 0,2.195 -0.703,3.774 -2.109,4.736 -1.381,0.962 -3.355,1.443 -5.92,1.443 -1.801,0 -3.873,-0.259 -6.216,-0.777 0.049,-0.494 0.16,-1.197 0.333,-2.109 0.197,-0.938 0.358,-1.653 0.481,-2.146 0.888,0.148 1.875,0.271 2.96,0.37 1.085,0.074 2.01,0.111 2.775,0.111 0.666,0 1.073,-0.037 1.221,-0.111 0.025,-0.025 0.049,-0.087 0.074,-0.185 0.049,-0.124 0.074,-0.247 0.074,-0.37 0,-0.494 -0.308,-0.827 -0.925,-0.999 -0.197,-0.05 -0.95,-0.259 -2.257,-0.629 -1.307,-0.37 -2.38,-1.036 -3.219,-1.998 -0.814,-0.987 -1.221,-2.208 -1.221,-3.663 0,-0.765 0.173,-1.616 0.518,-2.553 0.345,-0.938 0.715,-1.53 1.11,-1.776 0.296,-0.198 1.011,-0.395 2.146,-0.592 1.135,-0.222 2.183,-0.333 3.145,-0.333 2.047,0 4.107,0.148 6.179,0.444 0,0.444 -0.062,1.196 -0.185,2.257 -0.123,1.036 -0.234,1.689 -0.333,1.961 -2.097,-0.272 -3.786,-0.407 -5.069,-0.407 -0.666,0 -1.098,0.037 -1.295,0.111 -0.049,0.024 -0.099,0.098 -0.148,0.222 -0.049,0.098 -0.074,0.234 -0.074,0.407 0,0.345 0.111,0.592 0.333,0.74 0.222,0.172 0.802,0.382 1.739,0.629 1.11,0.32 2.06,0.653 2.849,0.999 0.814,0.345 1.517,0.863 2.109,1.554 0.617,0.69 0.925,1.578 0.925,2.664 z m 8.033,-15.318 h 6.697 v 7.733 h 5.735 v -7.733 h 6.697 v 21.09 h -6.697 v -9.102 h -5.735 v 9.102 h -6.697 z m 30.752,21.571 c -2.96,0 -5.18,-0.691 -6.66,-2.072 -1.455,-1.406 -2.183,-3.614 -2.183,-6.623 0,-1.653 0.148,-3.096 0.444,-4.329 0.321,-1.258 0.703,-2.134 1.147,-2.627 0.567,-0.642 1.603,-1.172 3.108,-1.591 1.529,-0.42 2.96,-0.629 4.292,-0.629 3.182,0 5.451,0.678 6.808,2.035 1.357,1.356 2.035,3.527 2.035,6.512 0,3.206 -0.728,5.562 -2.183,7.067 -1.455,1.504 -3.725,2.257 -6.808,2.257 z m 0.111,-4.329 c 0.962,0 1.591,-0.333 1.887,-0.999 0.296,-0.691 0.444,-1.9 0.444,-3.626 0,-1.209 -0.062,-2.134 -0.185,-2.775 -0.123,-0.666 -0.358,-1.147 -0.703,-1.443 -0.321,-0.321 -0.826,-0.481 -1.517,-0.481 -0.987,0 -1.554,0.086 -1.702,0.259 -0.197,0.172 -0.358,0.715 -0.481,1.628 -0.123,0.912 -0.185,1.862 -0.185,2.849 0,1.677 0.16,2.861 0.481,3.552 0.345,0.69 0.999,1.036 1.961,1.036 z m 28.315,-13.172 v 17.02 h -5.143 l -0.703,-2.849 c -1.776,2.146 -3.897,3.219 -6.364,3.219 -0.888,0 -1.727,-0.124 -2.516,-0.37 -0.765,-0.247 -1.344,-0.605 -1.739,-1.073 -0.222,-0.272 -0.395,-0.95 -0.518,-2.035 -0.099,-1.086 -0.148,-2.738 -0.148,-4.958 v -8.954 h 6.327 v 8.88 c 0,0.493 0.012,1.073 0.037,1.739 0.025,0.666 0.099,1.085 0.222,1.258 0.173,0.246 0.666,0.37 1.48,0.37 l 0.592,-0.037 c 0.691,-0.025 1.406,-0.185 2.146,-0.481 v -11.729 z m 16.798,11.248 c 0,2.195 -0.703,3.774 -2.109,4.736 -1.382,0.962 -3.355,1.443 -5.92,1.443 -1.801,0 -3.873,-0.259 -6.216,-0.777 0.049,-0.494 0.16,-1.197 0.333,-2.109 0.197,-0.938 0.357,-1.653 0.481,-2.146 0.888,0.148 1.874,0.271 2.96,0.37 1.085,0.074 2.01,0.111 2.775,0.111 0.666,0 1.073,-0.037 1.221,-0.111 0.024,-0.025 0.049,-0.087 0.074,-0.185 0.049,-0.124 0.074,-0.247 0.074,-0.37 0,-0.494 -0.309,-0.827 -0.925,-0.999 -0.198,-0.05 -0.95,-0.259 -2.257,-0.629 -1.308,-0.37 -2.381,-1.036 -3.219,-1.998 -0.814,-0.987 -1.221,-2.208 -1.221,-3.663 0,-0.765 0.172,-1.616 0.518,-2.553 0.345,-0.938 0.715,-1.53 1.11,-1.776 0.296,-0.198 1.011,-0.395 2.146,-0.592 1.134,-0.222 2.183,-0.333 3.145,-0.333 2.047,0 4.107,0.148 6.179,0.444 0,0.444 -0.062,1.196 -0.185,2.257 -0.124,1.036 -0.235,1.689 -0.333,1.961 -2.097,-0.272 -3.787,-0.407 -5.069,-0.407 -0.666,0 -1.098,0.037 -1.295,0.111 -0.05,0.024 -0.099,0.098 -0.148,0.222 -0.05,0.098 -0.074,0.234 -0.074,0.407 0,0.345 0.111,0.592 0.333,0.74 0.222,0.172 0.801,0.382 1.739,0.629 1.11,0.32 2.059,0.653 2.849,0.999 0.814,0.345 1.517,0.863 2.109,1.554 0.616,0.69 0.925,1.578 0.925,2.664 z m 12.421,1.332 c 0.617,0 1.764,-0.062 3.441,-0.185 0.222,0 0.629,-0.025 1.221,-0.074 l 0.555,3.811 c -1.899,0.888 -4.366,1.332 -7.4,1.332 -2.837,0 -5.02,-0.716 -6.549,-2.146 -1.505,-1.431 -2.257,-3.589 -2.257,-6.475 0,-1.48 0.185,-2.911 0.555,-4.292 0.395,-1.382 0.839,-2.344 1.332,-2.886 0.518,-0.543 1.48,-1.012 2.886,-1.406 1.406,-0.395 2.8,-0.592 4.181,-0.592 2.22,0 3.885,0.394 4.995,1.184 1.11,0.789 1.838,1.887 2.183,3.293 0.345,1.381 0.518,3.243 0.518,5.587 -1.677,0.098 -3.318,0.148 -4.921,0.148 h -5.254 c 0,0.789 0.16,1.381 0.481,1.776 0.345,0.394 0.826,0.653 1.443,0.777 0.617,0.098 1.48,0.148 2.59,0.148 z m -4.144,-8.51 c -0.148,0.074 -0.259,0.394 -0.333,0.962 -0.074,0.567 -0.123,1.208 -0.148,1.924 h 1.924 c 1.159,0 1.998,-0.013 2.516,-0.037 0,-1.184 -0.173,-2.023 -0.518,-2.516 -0.321,-0.494 -0.888,-0.74 -1.702,-0.74 -0.666,0 -1.246,0.135 -1.739,0.407 z"
     fill="#1792c5"
     id="path11"
     clip-path="url(#clipPath159)"
     transform="matrix(1.5831757,0,0,1.9017748,134.01515,-440.2527)" />
  <g
     id="g159"
     transform="matrix(1.5831757,0,0,1.9017748,158.39339,-519.39027)">
    <path
       d="m 104.45948,300.42732 c 1.745,-0.739 1.834,-1.021 2.367,-1.439 -0.395,-0.409 -1.505,-1.126 -2.672,-1.401 -1.378,-0.325 -0.839,-0.274 -2.296,-0.251 -1.88,0.03 -3.596,1.36 -4.382,2.152 0.784,0.349 1.769,1.138 3.675,1.448 0.395,0.065 1.563,0.23 3.308,-0.509 z"
       fill="#1792c5"
       id="path125" />
    <path
       d="m 109.76048,301.92932 c -0.614,-1.792 -0.89,-1.901 -1.269,-2.463 -0.436,0.365 -1.229,1.422 -1.586,2.567 -0.421,1.351 -0.332,0.817 -0.412,2.272 -0.103,1.878 1.103,3.684 1.838,4.523 0.403,-0.757 1.259,-1.684 1.703,-3.564 0.092,-0.389 0.339,-1.542 -0.274,-3.335 z"
       fill="#1792c5"
       id="path126" />
    <path
       d="m 105.81048,296.08532 c 1.237,1.436 1.533,1.435 2.093,1.815 0.269,-0.501 0.613,-1.777 0.519,-2.972 -0.111,-1.411 0.004,-0.882 -0.462,-2.263 -0.603,-1.781 -2.393,-3.01 -3.387,-3.516 -0.093,0.854 -0.544,2.032 -0.257,3.942 0.059,0.395 0.258,1.558 1.494,2.994 z"
       fill="#1792c5"
       id="path127" />
    <path
       d="m 110.81948,297.10632 c -1.391,1.287 -1.379,1.583 -1.738,2.157 0.51,0.251 1.798,0.548 2.989,0.41 1.406,-0.162 0.882,-0.027 2.244,-0.544 1.759,-0.667 2.921,-2.5 3.391,-3.512 -0.856,-0.062 -2.05,-0.469 -3.949,-0.114 -0.392,0.074 -1.547,0.315 -2.937,1.603 z"
       fill="#1792c5"
       id="path128" />
  </g>
  <path
     opacity="0.8"
     d="m 121.61611,54.122341 c -0.23733,-0.861436 -0.61355,-1.234979 -0.94662,-1.688861 -0.43083,-0.586997 -0.79424,-0.987515 -0.79424,-0.987515 0,0 -1.06124,-0.973441 -2.56072,-1.422631 -0.48139,-0.144257 -0.96752,-0.165955 -1.6087,-0.15364 -1.29452,0.02401 -2.58905,1.098347 -2.58905,1.098347 0,0 -1.14146,1.250812 -1.16371,3.211768 -0.0129,1.120045 0.95335,1.128841 0.95335,1.128841 0,0 2.1427,0.391722 3.21743,0.307279 0.32227,0.0028 0.005,-0.41987 0.005,-0.41987 0,0 -0.42949,-0.782271 0.0175,-1.5405 0.16383,-0.279131 0.97224,-0.552398 0.97224,-0.552398 0,0 0.8448,-0.175924 1.2871,0.151294 0.95808,0.708383 0.9547,0.988688 0.9547,0.988688 0,0 0.26498,1.135876 -0.17799,1.539327 -0.29195,0.265057 -0.48679,0.276198 -0.97157,0.411659 l 1.58714,2.115183 c 0.1072,5.86e-4 0.45173,-0.08036 0.97089,-0.412248 0.6486,-0.414591 0.9183,-1.112419 0.9837,-1.53229 0.17327,-1.11887 0.0189,-1.680651 -0.1362,-2.242433 z"
     fill="#000000"
     id="path2"
     style="stroke-width:0.628788" />
  <path
     d="m 117.73525,23.259978 c 0,0 -0.0545,0.379115 -0.40387,1.573104 -0.0803,0.274382 -0.29463,0.814993 -0.29463,0.814993 l -11.23332,-2.534055 0.52387,-1.791072 1.80829,0.35126 c -0.33712,-0.319184 -1.46241,-1.725337 -1.48061,-2.625711 -0.0317,-1.620604 0.0762,-2.70992 1.73411,-3.430207 1.41656,-0.615614 3.70557,-0.868005 5.33922,-0.187887 2.00515,0.834639 2.75018,1.693026 3.34417,2.597856 0.8711,1.327106 0.43825,3.307766 0.0748,3.781527 z"
     fill="#dc4c68"
     id="path3"
     style="stroke-width:0.628788" />
  <path
     d="m 45.996535,123.91279 c 0,0 0.0053,0.31314 -0.121973,1.31707 -0.02928,0.23047 -0.132549,0.6908 -0.132549,0.6908 l -9.451472,-0.94529 0.19087,-1.5059 1.514391,0.10614 c -0.315875,-0.22577 -1.41352,-1.2561 -1.545806,-1.98559 -0.238065,-1.31238 -0.292889,-2.20725 0.958817,-2.95609 1.069737,-0.64037 2.895073,-1.07196 4.310342,-0.68141 1.736687,0.47909 2.454329,1.10245 3.05493,1.77799 0.880879,0.99162 0.788509,2.64237 0.555437,3.06282 z"
     fill="#f9d949"
     id="path4"
     style="stroke-width:0.628788" />
  <path
     d="m 105.43058,35.928963 c 0,0 0.44027,0.194805 1.75771,0.971154 0.30273,0.178386 0.87785,0.581426 0.87785,0.581426 l -7.38078,9.334126 -1.976163,-1.164373 1.119219,-1.524667 c -0.517133,0.187771 -2.657134,0.682811 -3.75815,0.355245 -1.982231,-0.589634 -3.264614,-1.104741 -3.505314,-2.900266 -0.205639,-1.534461 0.36341,-3.730158 1.815698,-4.968539 1.781986,-1.519624 3.11089,-1.875575 4.437772,-2.07472 1.946498,-0.292032 4.188308,0.861614 4.624528,1.375836 z"
     fill="#78b956"
     id="path5"
     style="stroke-width:0.628788" />
  <path
     d="m 122.54115,41.185195 -1.37812,-2.018836 -0.24003,-0.187239 -10.53078,3.067805 -0.20294,0.406145 0.80369,1.946359 c 0.22722,-0.01063 0.68433,0.0083 0.69446,0.166065 0.0121,0.197803 -0.16722,0.9996 0.002,1.884429 0.16855,0.884719 0.77334,1.814179 1.72534,2.102107 1.09226,0.329562 2.17912,0.195861 3.30373,-0.05452 0.80704,-0.179441 2.01055,-0.688445 2.96728,-1.823791 1.06393,-1.263191 1.11112,-2.332804 1.06258,-3.124046 -0.0391,-0.632965 -0.44769,-1.103267 -0.64725,-1.259316 z"
     fill="#63a2b5"
     id="path6"
     style="stroke-width:0.628788" />
  <path
     opacity="0.8"
     d="m 104.49678,91.16999 -3.79187,-0.24571 -0.44431,0.0856 -4.702747,12.6348 0.364084,0.51604 3.220788,0.74709 c 0.174626,-0.22871 0.577815,-0.65855 0.793568,-0.54361 0.269687,0.14308 1.173157,0.94646 2.473747,1.47717 1.30058,0.53129 3.02189,0.67379 4.18898,-0.0258 1.33767,-0.8022 2.06314,-1.96154 2.66658,-3.25106 0.43352,-0.92477 0.76322,-2.49224 0.0661,-4.31246 -0.77536,-2.02546 -2.14,-2.91035 -3.21877,-3.48446 -0.86302,-0.45915 -1.81906,-0.43101 -2.18922,-0.35946 z"
     fill="#3f8da5"
     id="path7"
     style="stroke-width:0.628788" />
  <path
     opacity="0.8"
     d="m 64.828541,64.492421 -4.664247,-1.291276 -0.584624,-0.0046 -10.086724,15.003896 0.284862,0.755882 3.782559,1.78738 c 0.294766,-0.248639 0.942295,-0.696656 1.174162,-0.493758 0.289851,0.253329 1.154347,1.516452 2.605961,2.532705 1.451614,1.016253 3.558648,1.64136 5.251636,1.044396 1.941104,-0.684924 3.234949,-1.986757 4.418893,-3.485621 0.849528,-1.075477 1.783335,-3.002421 1.51634,-5.517536 -0.298009,-2.79835 -1.711866,-4.285486 -2.871539,-5.29939 -0.927064,-0.811006 -2.133259,-1.02094 -2.620726,-1.024459 z"
     fill="#73c5e7"
     id="path8"
     style="stroke-width:0.628788" />
  <path
     d="m 51.799682,133.58915 -0.717917,-3.52492 -0.226003,-0.37941 -16.921375,-0.55005 -0.540942,0.48438 -0.05699,3.15313 c 0.330982,0.0909 0.9719,0.33132 0.887959,0.56178 -0.105033,0.28793 -0.855997,1.34816 -1.163045,2.68927 -0.306973,1.34113 -0.01917,2.94965 1.16197,3.80581 1.354462,0.98106 2.986833,1.29949 4.746769,1.46778 1.262356,0.12139 3.29388,-0.0416 5.36079,-1.21387 2.299457,-1.30417 3.02796,-2.80832 3.447941,-3.96002 0.336029,-0.92126 0.0433,-1.78328 -0.144959,-2.09935 z"
     fill="#73c5e7"
     id="path9"
     style="stroke-width:0.628788" />
  <path
     d="m 46.075619,160.59746 -0.719202,2.71039 0.02908,0.33131 11.907682,4.86897 0.55624,-0.20348 1.143154,-2.2395 c -0.204696,-0.15247 -0.579096,-0.49376 -0.438451,-0.63625 0.175704,-0.17827 1.083418,-0.73771 1.771947,-1.61557 0.688388,-0.87786 1.045054,-2.10463 0.499603,-3.02881 -0.625152,-1.05964 -1.681195,-1.71878 -2.880648,-2.30519 -0.860383,-0.42045 -2.369981,-0.84149 -4.257888,-0.55005 -2.100285,0.32428 -3.147162,1.20742 -3.850108,1.91991 -0.56238,0.56941 -0.654613,1.26372 -0.630477,1.53933 z"
     fill="#78b956"
     id="path10"
     style="stroke-width:0.628788" />
  <g
     opacity="0.4"
     id="g17"
     transform="matrix(0.67422847,0,0,0.58641033,-7.1109575,-11.848819)">
    <path
       d="m 178.486,201.317 c -1.071,-0.037 -1.618,0.267 -2.438,0.732 -1.367,0.776 -1.907,2.121 -1.73,3.507 0.212,1.653 1.475,3.891 2.451,6.668 0.977,2.777 2.663,7.785 4.968,11.418 1.78,2.805 0.479,1.663 5.97,5.692 2.064,1.515 4.084,-1.834 6.272,-3.076 2.734,-1.551 2.529,-1.297 3.622,-3.989 0.879,-2.165 0.985,-4.438 -3.541,-6.158 -0.793,-0.301 -1.061,-0.31 -5.04,-1.545 -3.978,-1.234 -4.429,-3.719 -4.917,-5.107 -0.552,-1.568 -1.088,-4.198 -2.184,-6.652 -0.498,-1.114 -1.291,-1.416 -3.433,-1.49 z"
       fill="#dc4c68"
       id="path12" />
    <path
       d="m 204.708,226.079 h 0.001 c 0.267,0.01 0.604,-0.418 0.841,-1.068 0.296,-0.813 0.189,-1.214 -0.47,-1.936 -0.775,-0.85 -0.662,-0.919 -1.836,-1.161 -1.597,-0.329 -1.601,-0.22 -2.41,-0.083 -1.348,0.228 -1.893,0.484 -1.931,1.58 -0.038,1.095 1.022,1.544 3.673,2.321 1.062,0.311 1.062,0.311 2.132,0.347 z"
       fill="#dc4c68"
       id="path13" />
    <path
       d="m 200.941,226.498 c -0.517,-0.566 -2.917,-0.923 -2.936,-0.375 l -0.019,0.548 c -0.019,0.548 0.239,0.831 0.488,1.388 0.249,0.558 1.052,0.585 2.372,1.179 1.32,0.594 1.081,-0.237 1.377,-1.05 0.296,-0.812 -0.766,-1.123 -1.282,-1.69 z"
       fill="#dc4c68"
       id="path14" />
    <path
       d="m 195.797,227.967 c -0.545,0.255 -0.545,0.256 -0.574,1.077 -0.006,0.183 0.041,0.386 0.24,0.832 0.249,0.557 0.775,0.849 1.559,1.425 0.523,0.384 1.071,0.037 1.616,-0.219 0.545,-0.255 0.028,-0.822 -0.221,-1.379 -0.222,-0.498 -0.873,-1.242 -1.282,-1.69 -0.258,-0.283 -0.794,-0.302 -1.338,-0.046 z"
       fill="#dc4c68"
       id="path15" />
    <path
       d="m 192.508,230.048 c -0.277,0.265 -0.286,0.539 -0.037,1.096 0.08,0.277 0.352,0.671 0.766,1.124 0.516,0.566 0.507,0.84 1.578,0.877 0.535,0.019 0.535,0.019 0.822,-0.52 0.287,-0.539 -0.515,-1.447 -0.738,-1.946 -0.249,-0.557 -0.969,-1.13 -1.568,-1.151 -0.268,-0.009 -0.545,0.255 -0.823,0.52 z"
       fill="#dc4c68"
       id="path16" />
    <path
       d="m 189.802,230.778 c -0.286,0.539 -0.047,1.37 0.202,1.927 0.083,0.186 0.258,0.283 0.526,0.293 0.268,0.009 0.517,0.566 1.071,0.036 0.003,-0.091 0.272,-0.1 0.287,-0.538 0.019,-0.548 -0.24,-0.831 -0.489,-1.389 -0.248,-0.557 -1.042,-0.859 -1.597,-0.329 z"
       fill="#dc4c68"
       id="path17" />
  </g>
  <path
     d="m 66.021927,42.473713 c -0.223845,5.103703 0.908859,10.398402 1.503529,12.40803 1.318117,0.148949 4.450582,-6.492149 5.318988,-8.725611 1.086182,-2.791782 0.627707,-3.308756 1.713214,-6.10095 2.744785,-4.936052 -6.022208,-5.45696 -6.937136,-3.811786 -1.830531,3.290293 -1.374752,1.126846 -1.598595,6.230317 z"
     fill="#78b956"
     id="path18"
     style="stroke-width:0.628788" />
  <path
     d="m 101.07237,159.17423 c 0.7848,2.063 3.28349,3.34606 3.28349,3.34606 0,0 2.5951,2.0501 5.0439,1.34581 2.80008,-0.8063 2.61871,-1.36691 4.23011,-2.33038 1.33834,-0.79987 3.3516,-2.141 3.3516,-2.141 0,0 1.26552,-1.286 4.00896,-1.47188 2.74343,-0.18532 3.62532,-1.99674 3.62532,-1.99674 0,0 1.04776,-2.05009 -1.75232,-1.24435 -1.21496,0.35008 -2.85602,1.42614 -4.77758,2.04304 -1.92222,0.61691 -2.33552,0.80162 -2.57825,-0.0527 -0.21777,-0.7635 2.86008,-3.04816 2.86008,-3.04816 l 4.17752,-3.33257 c 0,0 1.9856,-1.09307 1.92559,-2.23892 -0.052,-1.00217 -1.64377,-0.86202 -1.64377,-0.86202 0,0 -0.87784,0.18941 -1.86896,1.61908 -0.99111,1.42967 -3.57341,2.99948 -4.50789,3.80873 -0.93515,0.80925 -2.04291,-0.45036 -1.03966,-1.19452 0.7693,-0.57116 2.10292,-1.41676 3.46486,-3.38183 0.82594,-1.191 1.64782,-0.75999 3.40823,-2.76081 0.24002,-0.27268 0.3398,-0.52719 -0.0526,-1.00218 -0.51579,-0.62394 -1.59051,-0.40638 -2.13933,-0.14719 -1.4651,0.69138 -2.96931,2.66641 -2.96931,2.66641 -1.09966,1.04792 -2.58633,3.19242 -2.58633,3.19242 -1.16777,1.68475 -1.70378,1.38041 -1.70378,1.38041 0,0 -0.82188,-0.43101 0.16923,-1.86068 l 3.30373,-4.76517 c 1.3208,-1.90642 1.59522,-1.76275 1.37744,-2.52625 -0.21778,-0.7641 -0.84211,-1.00922 -1.37003,-0.71836 -0.60411,0.33249 -2.19933,2.09524 -2.42115,2.95375 -0.15642,0.60693 -2.53376,4.194 -3.69006,5.86176 -1.1563,1.66833 -1.43004,1.52466 -2.63893,2.19024 -1.20821,0.66558 -3.75343,-0.25333 -5.04795,0.27678 -2.08673,0.85499 -2.14674,3.09742 -2.14674,3.09742 0,0 -0.22182,0.85851 0.70457,3.29387 z"
     fill="#78b956"
     id="path19"
     style="stroke-width:0.628788" />
  <path
     d="m 96.205113,147.57855 c 0.654001,1.64254 1.765803,3.20004 2.239786,3.77355 0.439597,-0.0944 0.48949,-2.5374 0.447688,-3.33902 -0.05257,-1.00217 -0.271714,-1.11711 -0.324304,-2.11928 0.169231,-1.8601 -2.684778,-1.0831 -2.741413,-0.46327 -0.11327,1.24084 -0.27576,0.50548 0.378243,2.14802 z"
     fill="#78b956"
     id="path20"
     style="stroke-width:0.628788" />
  <path
     d="m 15.015462,134.71036 c -1.48896,0.88489 -2.014595,2.64823 -2.014595,2.64823 0,0 -1.118007,1.97386 -0.06805,3.31087 1.200601,1.52878 1.611817,1.3077 2.701234,2.08763 0.904814,0.64798 2.37537,1.59562 2.37537,1.59562 0,0 1.277663,0.50724 1.972455,2.12515 0.694792,1.6185 2.315375,1.78972 2.315375,1.78972 0,0 1.84354,0.22343 0.642877,-1.30534 -0.520916,-0.66323 -1.706546,-1.43905 -2.581284,-2.47524 -0.874749,-1.03677 -1.104523,-1.24906 -0.471833,-1.56631 0.565814,-0.28323 3.001201,1.11829 3.001201,1.11829 l 3.49007,1.85657 c 0,0 1.267412,0.97989 2.169467,0.71601 0.788784,-0.23163 0.359901,-1.16344 0.359901,-1.16344 0,0 -0.325852,-0.49258 -1.663522,-0.80572 -1.337669,-0.31256 -3.104148,-1.5581 -3.935946,-1.96038 -0.831798,-0.40285 -0.04803,-1.32235 0.745835,-0.86553 0.608827,0.35067 1.548639,0.98633 3.387123,1.41677 1.114699,0.26094 0.93468,0.84266 2.881178,1.50589 0.265509,0.0909 0.488205,0.1003 0.788848,-0.23104 0.394823,-0.43571 0.0074,-1.0403 -0.30886,-1.32001 -0.843334,-0.74592 -2.718289,-1.2602 -2.718289,-1.2602 -1.054693,-0.45446 -3.061198,-0.92418 -3.061198,-0.92418 -1.576483,-0.36886 -1.440626,-0.75295 -1.440626,-0.75295 0,0 0.179946,-0.58172 1.517615,-0.26857 l 4.458884,1.04321 c 1.783534,0.41753 1.723527,0.61164 2.289405,0.32781 0.565878,-0.28324 0.636946,-0.70897 0.299969,-0.96934 -0.385933,-0.29848 -2.109461,-0.90952 -2.838239,-0.87199 -0.515374,0.0264 -3.850045,-0.69314 -5.410684,-1.05847 -1.560564,-0.36533 -1.500558,-0.55944 -2.272413,-1.15582 -0.771791,-0.59638 -0.545788,-2.31514 -1.226558,-2.9901 -1.097718,-1.08896 -2.898308,-0.67848 -2.898308,-0.67848 0,0 -0.728778,0.0375 -2.486354,1.08134 z"
     fill="#73c5e7"
     id="path21"
     style="stroke-width:0.628788" />
  <path
     d="m 23.769581,131.14499 c -1.179763,0.72188 -2.200544,1.70294 -2.56349,2.10286 0.1629,0.2463 2.121334,-0.21051 2.752338,-0.39524 0.788847,-0.23162 0.836717,-0.38644 1.625565,-0.61749 1.517624,-0.26857 0.32896,-1.83605 -0.176911,-1.74691 -1.01168,0.17944 -0.457801,-0.0657 -1.637502,0.65678 z"
     fill="#73c5e7"
     id="path22"
     style="stroke-width:0.628788" />
  <path
     d="m 48.512818,123.88816 c 0.885536,1.44843 0.951611,1.98324 0.873875,2.06945 0.233072,-0.19 0.978768,-0.67262 2.097387,-1.08663 1.39815,-0.51721 1.98081,-0.62101 2.50509,-1.29361 0.466094,-0.46561 0.40784,-2.06945 -1.165198,-2.53506 -0.563655,-0.16712 -1.339892,0.25861 -1.631232,0.46561 -0.09713,-0.1724 -0.349514,-1.13823 -1.68948,-1.39741 0,0 -0.873937,-0.15481 -1.573038,0.46619 -0.728778,0.64681 -0.524287,1.50004 0.582596,3.31146 z"
     fill="#78b956"
     id="path1"
     style="stroke-width:0.628788" />
  <path
     d="m 97.225894,54.156354 c -1.76041,0.753536 -2.531727,2.548539 -2.531727,2.548539 0,0 -1.456335,1.946882 -0.418023,3.482104 1.187317,1.756299 1.671413,1.572752 2.811533,2.526255 0.947292,0.791654 2.497342,1.967406 2.497342,1.967406 0,0 1.379471,0.688446 1.990321,2.477584 0.61153,1.789725 2.41037,2.165027 2.41037,2.165027 0,0 2.04292,0.4574 0.85492,-1.298313 -0.51511,-0.761746 -1.76378,-1.722286 -2.63691,-2.920323 -0.87312,-1.19745 -1.10843,-1.449606 -0.36678,-1.70704 0.66345,-0.231046 3.24776,1.539914 3.24776,1.539914 l 3.71905,2.376721 c 0,0 1.31946,1.185721 2.3571,1.015662 0.90818,-0.148948 0.52388,-1.183376 0.52388,-1.183376 0,0 -0.3142,-0.557676 -1.78132,-1.048502 -1.46645,-0.491411 -3.31788,-2.016665 -4.20786,-2.540916 -0.89065,-0.524251 0.0823,-1.399174 0.92504,-0.822147 0.64592,0.44274 1.63366,1.226184 3.6496,1.900556 1.22171,0.409315 0.96011,1.001003 3.07314,1.934568 0.28789,0.127251 0.53668,0.164195 0.90751,-0.148949 0.48747,-0.411659 0.11597,-1.096001 -0.20969,-1.428495 -0.86772,-0.887825 -2.91603,-1.655436 -2.91603,-1.655436 -1.13473,-0.606348 -3.33474,-1.34288 -3.33474,-1.34288 -1.72872,-0.578201 -1.53656,-0.966991 -1.53656,-0.966991 0,0 0.2616,-0.591688 1.72805,-0.100274 l 4.88883,1.636672 c 1.95593,0.654434 1.86828,0.851467 2.53172,0.621008 0.66344,-0.231046 0.7875,-0.670853 0.43622,-0.985756 -0.40116,-0.361229 -2.26945,-1.212697 -3.08999,-1.261368 -0.5805,-0.034 -4.24291,-1.193931 -5.95411,-1.766854 -1.71119,-0.572922 -1.62421,-0.769957 -2.42722,-1.491241 -0.80368,-0.721871 -0.37284,-2.506318 -1.06596,-3.299732 -1.11786,-1.280133 -3.17763,-1.063748 -3.17763,-1.063748 0,0 -0.820538,-0.04865 -2.897836,0.840327 z"
     fill="#f9d949"
     id="path23"
     style="stroke-width:0.628788" />
  <path
     d="m 107.40472,51.451242 c -1.39633,0.61925 -2.64162,1.530532 -3.08999,1.908766 0.1571,0.279132 2.39891,0.03344 3.12505,-0.08558 0.90819,-0.148948 0.97763,-0.306106 1.88582,-0.455054 1.72804,-0.100865 0.55827,-1.895866 -0.0182,-1.86244 -1.15225,0.06689 -0.50634,-0.124319 -1.90267,0.494344 z"
     fill="#f9d949"
     id="path24"
     style="stroke-width:0.628788" />
  <path
     d="m 80.522558,92.32873 c 0.858967,1.7692 3.073133,2.51453 3.073133,2.51453 0,0 2.371261,1.43729 4.3481,0.35244 2.261362,-1.24027 2.054374,-1.72698 3.306417,-2.90333 1.040334,-0.97695 2.59106,-2.57316 2.59106,-2.57316 0,0 0.931109,-1.41325 3.205956,-2.07003 2.274172,-0.65678 2.833782,-2.48873 2.833782,-2.48873 0,0 0.673554,-2.081165 -1.587134,-0.8409 -0.981003,0.53832 -2.247203,1.82432 -3.792535,2.73501 -1.545332,0.91011 -1.873006,1.15405 -2.160228,0.40696 -0.256881,-0.66792 2.090783,-3.32553 2.090783,-3.32553 l 3.164153,-3.821045 c 0,0 1.552074,-1.36223 1.389586,-2.411905 -0.142263,-0.917734 -1.459031,-0.506659 -1.459031,-0.506659 0,0 -0.715356,0.330736 -1.403069,1.828428 -0.687713,1.497106 -2.69152,3.40587 -3.393393,4.320087 -0.701197,0.914204 -1.751644,-0.05513 -0.986395,-0.921253 0.587253,-0.664408 1.618147,-1.682411 2.563416,-3.740712 0.573094,-1.24788 1.30261,-0.994552 2.576902,-3.156647 0.173951,-0.294965 0.232608,-0.547707 -0.142263,-0.917733 -0.492187,-0.486134 -1.368683,-0.09441 -1.802213,0.242187 -1.156302,0.898382 -2.219559,2.991281 -2.219559,2.991281 -0.815817,1.164024 -1.847387,3.410561 -1.847387,3.410561 -0.810423,1.765102 -1.289125,1.578035 -1.289125,1.578035 0,0 -0.728841,-0.253333 -0.04109,-1.75102 l 2.292378,-4.992116 c 0.91695,-1.996727 1.160346,-1.912285 0.902791,-2.580206 -0.256881,-0.668508 -0.803006,-0.784617 -1.214959,-0.422216 -0.472634,0.414592 -1.632982,2.326877 -1.733442,3.160166 -0.07142,0.589342 -1.705797,4.327708 -2.50813,6.075213 -0.802332,1.747494 -1.045054,1.663054 -1.989648,2.492244 -0.944595,0.82976 -3.162131,0.42925 -4.192352,1.14877 -1.659951,1.15993 -1.490045,3.2452 -1.490045,3.2452 0,0 -0.100501,0.83329 0.913579,2.92208 z"
     fill="#dc4c68"
     id="path25"
     style="stroke-width:0.628788" />
  <path
     d="m 77.626072,82.0601 c 0.708614,1.403868 1.790751,2.64823 2.243833,3.09508 0.358015,-0.16537 0.159118,-2.434195 0.04519,-3.168382 -0.142263,-0.91773 -0.336441,-0.985167 -0.478703,-1.902898 -0.04183,-1.751022 -2.351709,-0.527183 -2.33755,0.05626 0.0276,1.167541 -0.180694,0.516041 0.527246,1.919913 z"
     fill="#f7db32"
     id="path26"
     style="stroke-width:0.628788" />
  <g
     opacity="0.6"
     id="g28"
     transform="matrix(0.67422847,0,0,0.58641033,-7.1109575,-11.848819)">
    <path
       d="m 127.8,54.1754 c -2.343,1.7307 -2.7,4.7914 -2.7,4.7914 0,0 -1.335,3.5115 0.951,5.6014 2.614,2.3901 3.269,1.9512 5.445,3.0951 1.807,0.9501 4.71,2.316 4.71,2.316 0,0 2.42,0.6526 4.171,3.2742 1.75,2.6217 4.667,2.653 4.667,2.653 0,0 3.327,0.0839 0.712,-2.3061 -1.134,-1.0369 -3.478,-2.1582 -5.358,-3.769 -1.88,-1.6108 -2.355,-1.9332 -1.34,-2.5689 0.907,-0.5686 5.661,1.4102 5.661,1.4102 l 6.763,2.5791 c 0,0 2.555,1.4529 4.062,0.8628 1.318,-0.5159 0.259,-2.0215 0.259,-2.0215 0,0 -0.735,-0.7793 -3.198,-1.0949 -2.463,-0.3156 -5.985,-2.1368 -7.584,-2.6842 -1.599,-0.5473 -0.512,-2.2245 1.037,-1.5794 1.188,0.4947 3.054,1.4187 6.439,1.8525 2.052,0.263 1.923,1.2739 5.574,2.0842 0.498,0.1106 0.895,0.0915 1.318,-0.5162 0.556,-0.798 -0.324,-1.7577 -0.972,-2.1795 -1.731,-1.1254 -5.207,-1.6947 -5.207,-1.6947 -2.01,-0.5999 -5.705,-1.0733 -5.705,-1.0733 -2.902,-0.372 -2.787,-1.0422 -2.787,-1.0422 0,0 0.13,-1.0107 2.593,-0.6951 l 8.21,1.0521 c 3.284,0.4208 3.241,0.7577 4.149,0.189 0.907,-0.5687 0.895,-1.2986 0.215,-1.6847 -0.777,-0.4422 -4.018,-1.2 -5.293,-1.0209 -0.902,0.1266 -7.022,-0.5573 -9.896,-0.9255 -2.873,-0.3683 -2.83,-0.7052 -4.386,-1.5894 -1.556,-0.8842 -1.713,-3.8222 -3.133,-4.8538 -2.291,-1.6634 -5.337,-0.6838 -5.337,-0.6838 0,0 -1.275,0.1792 -4.04,2.2221 z"
       fill="#dc4c68"
       id="path27" />
    <path
       d="m 154.259,40.0774 c -0.286,7.1145 1.147,14.6146 1.899,17.4754 1.671,0.3228 5.643,-8.6887 6.745,-11.7352 1.377,-3.8082 0.797,-4.5707 2.173,-8.3795 3.481,-6.6615 -7.628,-8.1512 -8.789,-5.931 -2.321,4.4404 -1.742,1.4558 -2.028,8.5703 z"
       fill="#3f8da5"
       id="path28" />
  </g>
  <path
     d="m 123.84241,61.534568 c 0.80234,0.801036 2.03078,2.921496 1.52646,4.091384 -0.20227,0.468542 -0.86099,1.476581 -2.70231,1.585067 -1.15091,0.06744 -2.40565,-0.14367 -3.31653,-1.325287 -1.67951,-2.177928 -2.23912,-3.479759 -2.99763,-6.143235 -0.75917,-2.664061 2.12788,-0.600484 4.74186,0.100865 0.90818,0.24336 1.62354,0.569404 2.74815,1.691208 z"
     fill="#78b956"
     id="path29"
     style="stroke-width:0.628788" />
  <path
     d="m 124.92927,67.600396 c 0.96549,-0.436876 1.8548,-1.962715 1.99369,-1.590345 1.12731,0.709557 2.72726,1.635498 2.95582,2.248884 0.0695,0.185892 0.49084,0.683754 0.27306,1.362231 -0.2171,0.67789 -1.35519,1.410317 -1.92425,1.776237 -0.56905,0.366506 -0.92572,0.672613 -1.70243,0.480856 -0.77738,-0.192343 -0.84682,-0.378235 -1.26754,-0.876097 -0.18879,-0.222249 -1.47117,-2.051263 -1.962,-2.735604 -0.49017,-0.683755 0.42611,-0.119628 1.63365,-0.666162 z"
     fill="#78b956"
     id="path30"
     style="stroke-width:0.628788" />
  <path
     d="m 131.98373,70.748246 c 0.14832,-0.863782 0.22249,-1.295967 0.009,-1.235566 -0.0938,-0.04224 -0.68097,0.191756 -0.85088,0.239841 -0.42611,0.120214 -0.21778,0.678478 -1.14282,1.350504 v 0 c -0.92571,0.672026 -0.92571,0.672026 -1.70714,1.098346 -0.7821,0.426321 -0.56905,0.366507 -0.57377,0.984583 -0.005,0.617491 0.39509,0.42808 1.05921,0.317249 0.66479,-0.110246 1.56354,-0.852055 1.92021,-1.158162 0.35599,-0.306105 1.13809,-0.732425 1.28575,-1.596795 z"
     fill="#78b956"
     id="path31"
     style="stroke-width:0.628788" />
  <path
     d="m 131.97023,72.602476 c 0.3506,-0.387618 0.64727,-1.416181 0.92976,-1.290103 0.84617,0.377649 2.95111,2.86696 3.02055,3.052852 0.0695,0.186479 11.94464,11.841385 13.34636,13.706765 1.40171,1.86595 1.83323,2.94495 0.47667,2.53798 -1.05988,-0.31784 -0.77738,-0.19176 -1.97548,-0.88138 -1.19811,-0.68962 -10.8389,-8.247276 -11.54212,-8.871215 -0.56299,-0.499036 -4.82681,-4.530607 -6.8886,-6.48394 -0.0708,0.01998 0.029,-0.04929 0.99516,-0.486721 0.9945,-0.486134 1.13811,-0.73184 1.6377,-1.284238 z"
     fill="#78b956"
     id="path32"
     style="stroke-width:0.628788" />
  <path
     d="m 83.794589,0.04235038 c 1.072023,0.0081 3.423732,0.509297 4.082453,1.41829202 0.262949,0.363634 0.709288,1.266999 -0.20092,2.311278 -0.569049,0.652733 -1.415879,1.208885 -2.849964,1.050905 -2.641627,-0.291093 -3.980645,-0.702753 -6.511024,-1.752017 -2.53038,-1.049264 0.674229,-1.466554 2.646346,-2.48210002 0.685691,-0.353018 1.332276,-0.557676 2.833109,-0.546358 z"
     fill="#73c5e7"
     id="path33"
     style="stroke-width:0.628788" />
  <path
     d="m 89.209992,2.7742604 c 0.174625,-0.755648 -0.557587,-2.06469202 -0.186762,-1.93574102 1.174507,-0.215447 2.777822,-0.565651 3.389347,-0.353018 0.186087,0.06445 0.809748,0.111183 1.231815,0.59796202 0.422068,0.48672 0.38903,1.495698 0.372175,2.000187 -0.01622,0.504489 0.03435,0.862316 -0.538709,1.173408 -0.573095,0.31109 -0.759181,0.246584 -1.382842,0.199848 -0.279131,-0.02087 -2.428572,-0.333609 -3.23832,-0.444792 -0.809748,-0.111242 0.134846,-0.293381 0.353296,-1.237854 z"
     fill="#73c5e7"
     id="path34"
     style="stroke-width:0.628788" />
  <path
     d="m 95.532907,0.71918538 c -0.60748,-0.551226 -0.910883,-0.826839 -0.978307,-0.680177 -0.08428,0.02739 -0.215752,0.469362 -0.26969,0.586704 -0.134846,0.293322 0.422066,0.48677802 0.456452,1.34903602 v 0 c 0.03372,0.862317 0.03372,0.862317 -0.04993,1.513466 -0.08365,0.651151 -0.01685,0.50449 0.472635,0.844549 0.489489,0.340118 0.55489,0.02258 0.82593,-0.393247 0.271713,-0.415824 0.167882,-1.3023 0.117315,-1.660127 -0.05057,-0.357828 0.03308,-1.008978 -0.574442,-1.56020402 z"
     fill="#73c5e7"
     id="path35"
     style="stroke-width:0.628788" />
  <path
     d="m 97.000701,1.7394214 c -0.118664,-0.399228 -0.776037,-1.12016002 -0.5232,-1.20237502 0.758506,-0.246586 3.878839,-0.0129 4.064249,0.05155 0.18541,0.06445 15.88685,0.07723 18.13001,0.346391 2.24315,0.26916302 3.3354,0.62781102 2.27754,1.13147902 -0.8266,0.393247 -0.57377,0.311032 -1.77053,0.575386 -1.19743,0.264354 -12.42872,1.294325 -13.3059,1.329803 -0.70119,0.02838 -6.217056,0.107489 -8.887676,0.143554 -0.02223,0.04885 -0.02359,-0.04223 0.151702,-0.797871 0.151027,-0.797811 0.03308,-1.008977 -0.136195,-1.577912 z"
     fill="#73c5e7"
     id="path36"
     style="stroke-width:0.628788" />
  <path
     d="m 32.770257,66.2927 c -0.89901,0.707797 -3.29408,1.800867 -4.637069,1.378065 -0.537223,-0.168887 -1.698793,-0.727736 -1.85514,-2.325116 -0.09766,-0.998071 0.120276,-2.090554 1.451203,-2.896868 2.452644,-1.48655 3.926644,-1.989104 6.949748,-2.681655 3.023177,-0.693137 0.722298,1.840156 -0.03003,4.11836 -0.261527,0.791654 -0.620153,1.416768 -1.878737,2.407214 z"
     fill="#73c5e7"
     id="path37"
     style="stroke-width:0.628788" />
  <path
     d="m 25.874786,67.314814 c 0.515585,0.833289 2.270538,1.585653 1.849008,1.710559 -0.788847,0.988101 -1.815897,2.389035 -2.5111,2.596038 -0.21076,0.06212 -0.770843,0.434531 -1.547754,0.253916 -0.776849,-0.180028 -1.632108,-1.158746 -2.059769,-1.647813 -0.427598,-0.489066 -0.78298,-0.794586 -0.578288,-1.47189 0.204702,-0.677304 0.415525,-0.740049 0.975546,-1.111834 0.250476,-0.16654 2.312466,-1.30359 3.083246,-1.73812 0.770844,-0.43453 0.144622,0.367679 0.789111,1.409144 z"
     fill="#73c5e7"
     id="path38"
     style="stroke-width:0.628788" />
  <path
     d="m 22.412497,73.480919 c 0.98767,0.117281 1.481479,0.175923 1.4092,-0.0083 0.04614,-0.0821 -0.231324,-0.588755 -0.289107,-0.735945 -0.144622,-0.367678 -0.776911,-0.180028 -1.559901,-0.974614 v 0 c -0.782979,-0.794585 -0.782979,-0.794585 -1.28292,-1.467785 -0.499867,-0.673785 -0.427598,-0.489652 -1.13223,-0.485547 -0.704632,0.0036 -0.480998,0.348327 -0.343182,0.923596 0.137816,0.575855 0.999817,1.346985 1.355199,1.651918 0.355318,0.30552 0.855259,0.978719 1.842941,1.096587 z"
     fill="#73c5e7"
     id="path39"
     style="stroke-width:0.628788" />
  <path
     d="m 20.298654,73.492647 c 0.447887,0.299069 1.626038,0.544188 1.487547,0.790481 -0.415461,0.740049 -3.215669,2.599557 -3.426429,2.662303 -0.210833,0.06276 -13.284387,10.523139 -15.3860309,11.763979 -2.10170705,1.24143 -3.32414649,1.62963 -2.88468648,0.44626 0.3431823,-0.9236 0.20470209,-0.6773 0.96947738,-1.72639 0.764712,-1.04909 9.207264,-9.516857 9.905828,-10.135521 0.558799,-0.494931 5.078426,-4.248544 7.268383,-6.06407 -0.02412,-0.06102 0.05668,0.02465 0.57222,0.857332 0.57222,0.857333 0.855259,0.978719 1.493691,1.405626 z"
     fill="#73c5e7"
     id="path40"
     style="stroke-width:0.628788" />
  <path
     d="m 91.557655,114.01887 c -1.127984,-0.004 -3.563297,-0.55825 -4.184262,-1.57802 -0.24879,-0.40814 -0.646585,-1.42322 0.39375,-2.60309 0.65063,-0.7371 1.585785,-1.36691 3.081898,-1.19568 2.756921,0.31549 4.133695,0.77289 6.713968,1.94277 2.579601,1.16931 -0.825257,1.65368 -2.981439,2.80598 -0.749068,0.40051 -1.445546,0.63391 -3.023915,0.62804 z"
     fill="#dc4c68"
     id="path41"
     style="stroke-width:0.628788" />
  <path
     d="m 86.074155,110.96778 c -0.24407,0.85147 0.42409,2.3216 0.04383,2.17851 -1.253391,0.24747 -2.967954,0.64917 -3.594986,0.41284 -0.190133,-0.0721 -0.84346,-0.12197 -1.248672,-0.66792 -0.405885,-0.54595 -0.291266,-1.68182 -0.233956,-2.24947 0.05731,-0.56824 0.03171,-0.97051 0.659395,-1.32353 0.627706,-0.35302 0.817839,-0.28089 1.471166,-0.23104 0.291941,0.0223 2.529706,0.36415 3.372492,0.48554 0.843459,0.12197 -0.164512,0.33132 -0.469265,1.39507 z"
     fill="#dc4c68"
     id="path42"
     style="stroke-width:0.628788" />
  <path
     d="m 79.257705,113.30991 c 0.596018,0.61807 0.894027,0.92653 0.976283,0.76116 0.09102,-0.0311 0.263623,-0.52895 0.329698,-0.66148 0.165186,-0.33073 -0.405212,-0.54595 -0.373523,-1.51645 v 0 c 0.03171,-0.97051 0.03171,-0.97051 0.171929,-1.70411 0.139565,-0.73302 0.05731,-0.56765 -0.430832,-0.94823 -0.488142,-0.38058 -0.581859,-0.0229 -0.900769,0.44626 -0.31891,0.46913 -0.279132,1.46662 -0.254185,1.86948 0.02559,0.40228 -0.114619,1.13587 0.481399,1.75337 z"
     fill="#dc4c68"
     id="path43"
     style="stroke-width:0.628788" />
  <path
     d="m 77.793281,112.16816 c 0.09376,0.44861 0.728841,1.25727 0.456453,1.3511 -0.817839,0.28088 -4.083128,0.0322 -4.273261,-0.0393 -0.190132,-0.0721 -16.712576,-0.0152 -19.052014,-0.30786 -2.339437,-0.29262 -3.460542,-0.69138 -2.307412,-1.26313 0.900432,-0.44684 0.62778,-0.35301 1.908538,-0.65561 1.280833,-0.30317 13.181238,-1.51352 14.106953,-1.5575 0.740978,-0.0352 6.551479,-0.14953 9.36436,-0.20231 0.0276,-0.0551 0.02159,0.0475 -0.221822,0.89897 -0.222495,0.89897 -0.114618,1.13587 0.01823,1.77565 z"
     fill="#dc4c68"
     id="path44"
     style="stroke-width:0.628788" />
  <path
     d="m 17.759646,95.03736 c -0.05088,1.09776 -0.88857,3.41877 -2.277544,3.93012 -0.555638,0.20466 -1.928431,0.49962 -3.463923,-0.62218 -0.95969,-0.70076 -1.764318,-1.66951 -1.475275,-3.1109 0.532567,-2.65703 1.199253,-3.95534 2.866409,-6.36079 1.667241,-2.40605 2.178169,0.95526 3.632069,3.16015 0.505408,0.76704 0.789458,1.46662 0.718264,3.0036 z"
     fill="#dc4c68"
     id="path45"
     style="stroke-width:0.628788" />
  <path
     d="m 13.461102,100.09808 c 1.128522,0.31548 3.121003,-0.19997 2.913942,0.15716 0.28109,1.24319 0.749141,2.95023 0.407708,3.53957 -0.103558,0.17827 -0.196264,0.80983 -0.942571,1.15464 -0.746234,0.3454 -2.260352,0.1296 -3.017373,0.0218 -0.757096,-0.1079 -1.296279,-0.12022 -1.742744,-0.76409 -0.446476,-0.6433 -0.342982,-0.82215 -0.250212,-1.45371 0.04151,-0.28266 0.588739,-2.43009 0.785002,-3.24051 0.196274,-0.80983 0.435689,0.19117 1.846248,0.58524 z"
     fill="#dc4c68"
     id="path46"
     style="stroke-width:0.628788" />
  <path
     d="m 16.319083,106.95204 c 0.849728,-0.52366 1.274629,-0.78579 1.05679,-0.88137 -0.03814,-0.0909 -0.697089,-0.30552 -0.871377,-0.38176 -0.435689,-0.19117 -0.746234,0.34481 -2.042502,0.2246 v 0 c -1.296277,-0.11963 -1.296277,-0.11963 -2.271138,-0.32311 -0.974935,-0.20348 -0.757095,-0.1079 -1.28549,0.3325 -0.528459,0.44039 -0.05394,0.5647 0.560757,0.91773 0.614759,0.35361 1.949805,0.40696 2.489051,0.41928 0.539183,0.0122 1.514118,0.2158 2.363845,-0.30787 z"
     fill="#dc4c68"
     id="path47"
     style="stroke-width:0.628788" />
  <path
     d="m 14.733772,108.27323 c 0.603834,-0.0498 1.71038,-0.59463 1.824662,-0.32019 0.342982,0.82215 -0.120687,3.97938 -0.224244,4.15824 -0.103452,0.17885 -0.689936,16.2764 -1.17518,18.52823 -0.485245,2.25122 -1.063333,3.30676 -1.781512,2.13159 -0.560831,-0.91832 -0.446476,-0.64388 -0.800246,-1.91932 -0.353697,-1.27544 -1.494828,-12.97726 -1.516403,-13.88267 -0.01738,-0.72481 0.06321,-6.39481 0.105517,-9.13921 -0.07259,-0.0322 0.06426,-0.017 1.19271,0.29848 1.192773,0.29907 1.514106,0.2158 2.374696,0.14485 z"
     fill="#dc4c68"
     id="path48"
     style="stroke-width:0.628788" />
  <path
     d="m 139.50137,94.34012 c -0.023,1.04674 -0.74166,3.29915 -2.00381,3.85975 -0.505,0.224 -1.75703,0.57761 -3.18842,-0.40756 -0.89471,-0.61572 -1.65321,-1.49417 -1.41926,-2.88044 0.43219,-2.55558 1.01539,-3.82632 2.49263,-6.20363 1.47655,-2.37732 2.01662,0.79283 3.39676,2.81301 0.47938,0.70251 0.75446,1.35285 0.7221,2.81887 z"
     fill="#73c5e7"
     id="path49"
     style="stroke-width:0.628788" />
  <path
     d="m 135.66905,99.38266 c 1.04102,0.23984 2.85671,-0.35654 2.67467,-0.005 0.28385,1.16812 0.74974,2.76668 0.44903,3.34547 -0.091,0.17533 -0.16248,0.78051 -0.83941,1.14877 -0.67692,0.36768 -2.06921,0.24336 -2.76568,0.1812 -0.69649,-0.0622 -1.19069,-0.0452 -1.61411,-0.63391 -0.42274,-0.58875 -0.33172,-0.76409 -0.26025,-1.36985 0.0324,-0.27034 0.48814,-2.34271 0.65063,-3.12381 0.16249,-0.7811 0.40386,0.15833 1.70512,0.45798 z"
     fill="#73c5e7"
     id="path50"
     style="stroke-width:0.628788" />
  <path
     d="m 138.43474,105.7499 c 0.76795,-0.54301 1.15226,-0.81511 0.94999,-0.89428 -0.0365,-0.085 -0.64524,-0.25332 -0.80638,-0.31665 -0.40386,-0.15893 -0.67692,0.36768 -1.86761,0.32252 v 0 c -1.19137,-0.0452 -1.19137,-0.0452 -2.08944,-0.18648 -0.8974,-0.14191 -0.6958,-0.0628 -1.17113,0.38468 -0.47466,0.44685 -0.0371,0.54009 0.53398,0.84326 0.57108,0.30377 1.79615,0.28266 2.29036,0.26566 0.49489,-0.0164 1.39296,0.1249 2.16023,-0.41871 z"
     fill="#73c5e7"
     id="path51"
     style="stroke-width:0.628788" />
  <path
     d="m 137.01009,107.09161 c 0.5522,-0.0797 1.55478,-0.65678 1.66603,-0.40228 0.33171,0.76409 -0.0264,3.79232 -0.11732,3.96765 -0.091,0.17534 -0.2852,15.51936 -0.68232,17.68673 -0.39644,2.16796 -0.90414,3.20239 -1.58781,2.1228 -0.53331,-0.84326 -0.42274,-0.58875 -0.77402,-1.78327 -0.35195,-1.19393 -1.64714,-12.26419 -1.68624,-13.12445 -0.0317,-0.68845 -0.0781,-6.08635 -0.0984,-8.69939 -0.0668,-0.0264 0.0587,-0.0194 1.09966,0.22048 1.10034,0.22108 1.39296,0.12491 2.18045,0.0117 z"
     fill="#73c5e7"
     id="path52"
     style="stroke-width:0.628788" />
  <path
     d="m 96.099258,121.84686 c -0.04109,0.9799 -0.754461,3.07925 -1.947172,3.5865 -0.476679,0.20289 -1.655905,0.51662 -2.978066,-0.42515 -0.826605,-0.58935 -1.520386,-1.42204 -1.276315,-2.71743 0.451059,-2.38669 1.020782,-3.5689 2.446775,-5.77438 1.426667,-2.20549 1.874355,0.77054 3.129768,2.68106 0.436226,0.66441 0.68232,1.2772 0.62501,2.6494 z"
     fill="#8dcfea"
     id="path53"
     style="stroke-width:0.628788" />
  <path
     d="m 92.418645,126.51586 c 0.970215,0.23926 2.681407,-0.29437 2.504085,0.0317 0.244745,1.09717 0.651305,2.60072 0.359363,3.13847 -0.08828,0.16302 -0.166534,0.72891 -0.806377,1.06375 -0.640516,0.33542 -1.942452,0.19996 -2.593082,0.13194 -0.651305,-0.068 -1.1145,-0.0592 -1.499484,-0.61574 -0.385659,-0.55708 -0.297335,-0.7201 -0.219125,-1.28658 0.03508,-0.25274 0.499603,-2.18731 0.666138,-2.91621 0.166534,-0.72892 0.374871,0.15422 1.588482,0.45271 z"
     fill="#8dcfea"
     id="path54"
     style="stroke-width:0.628788" />
  <path
     d="m 94.892389,132.51602 c 0.728841,-0.49787 1.092925,-0.74709 0.905489,-0.82391 -0.03308,-0.0804 -0.599389,-0.24629 -0.749741,-0.30787 -0.374871,-0.15422 -0.640518,0.33484 -1.754343,0.2762 v 0 c -1.1145,-0.0587 -1.1145,-0.0587 -1.952566,-0.20348 -0.83874,-0.14484 -0.651305,-0.068 -1.103712,0.34422 -0.453082,0.41167 -0.04519,0.5049 0.484096,0.79693 0.52927,0.29203 1.676806,0.28969 2.140001,0.2803 0.463195,-0.009 1.301935,0.13606 2.030776,-0.36239 z"
     fill="#8dcfea"
     id="path55"
     style="stroke-width:0.628788" />
  <path
     d="m 93.533145,133.75276 c 0.519156,-0.0668 1.468469,-0.59345 1.567581,-0.35361 0.29666,0.72012 -0.09376,3.55071 -0.182042,3.71374 -0.08829,0.16302 -0.550844,14.52772 -0.96145,16.55201 -0.411279,2.02429 -0.905488,2.98601 -1.525779,1.96565 -0.484096,-0.79693 -0.384984,-0.55709 -0.692432,-1.68006 -0.307448,-1.12298 -1.318791,-11.50714 -1.339692,-12.31344 -0.01622,-0.64506 0.03772,-5.69992 0.06742,-8.147 -0.06268,-0.0258 0.05457,-0.017 1.025502,0.22165 1.025501,0.22226 1.301934,0.13606 2.040889,0.041 z"
     fill="#8dcfea"
     id="path56"
     style="stroke-width:0.628788" />
  <path
     d="m 61.860588,121.54545 c -0.05394,0.9793 -0.796264,3.07162 -1.995315,3.56655 -0.479646,0.19762 -1.662782,0.49963 -2.972336,-0.45623 -0.818513,-0.59696 -1.50117,-1.43729 -1.23903,-2.72974 0.483085,-2.382 1.068518,-3.55834 2.524716,-5.74916 1.456267,-2.19083 1.86377,0.78931 3.092689,2.71273 0.427461,0.66909 0.665464,1.28424 0.589276,2.65585 z"
     fill="#78b956"
     id="path57"
     style="stroke-width:0.628788" />
  <path
     d="m 58.116998,126.17634 c 0.967248,0.24922 2.685051,-0.26683 2.503684,0.0574 0.229911,1.09951 0.616244,2.60658 0.316887,3.14139 -0.09039,0.16244 -0.175973,0.72774 -0.821011,1.05613 -0.644899,0.32838 -1.944677,0.17944 -2.594566,0.10497 -0.649889,-0.0745 -1.113353,-0.0704 -1.491191,-0.63098 -0.37777,-0.56119 -0.287087,-0.72305 -0.201325,-1.28834 0.03829,-0.25275 0.529202,-2.18204 0.705647,-2.90919 0.176379,-0.72774 0.372782,0.15775 1.581875,0.46855 z"
     fill="#78b956"
     id="path58"
     style="stroke-width:0.628788" />
  <path
     d="m 60.509434,132.2017 c 0.735583,-0.49083 1.103037,-0.73594 0.916951,-0.81511 -0.03171,-0.0804 -0.596693,-0.25216 -0.745697,-0.31549 -0.372722,-0.15775 -0.644835,0.32839 -1.758189,0.2586 h -6.7e-5 c -1.113354,-0.0704 -1.113354,-0.0704 -1.949666,-0.224 -0.836246,-0.15305 -0.649889,-0.0745 -1.108365,0.33308 -0.458475,0.40756 -0.05171,0.50431 0.473511,0.80221 0.525156,0.29731 1.672559,0.3067 2.136024,0.302 0.463531,-0.004 1.299777,0.14954 2.035498,-0.34129 z"
     fill="#78b956"
     id="path59"
     style="stroke-width:0.628788" />
  <path
     d="m 59.133803,133.42378 c 0.519695,-0.061 1.476091,-0.5782 1.571832,-0.33719 0.287221,0.72305 -0.141589,3.54955 -0.231935,3.71139 -0.09102,0.16244 -0.747386,14.52128 -1.185904,16.54147 -0.438518,2.01959 -0.945605,2.97662 -1.551939,1.94982 -0.473443,-0.80222 -0.377769,-0.56121 -0.669845,-1.68711 -0.292076,-1.1265 -1.162505,-11.52003 -1.172484,-12.32635 -0.0079,-0.64505 0.114821,-5.69932 0.177255,-8.14582 -0.06217,-0.0258 0.05543,-0.0164 1.022669,0.2328 1.02267,0.23223 1.299778,0.14896 2.040351,0.061 z"
     fill="#78b956"
     id="path60"
     style="stroke-width:0.628788" />
  <path
     d="m 22.554959,98.61505 c 0.804491,2.83294 0.669035,3.79349 0.500751,3.91897 0.473235,-0.25684 1.930717,-0.86026 3.974703,-1.2209 2.555064,-0.45095 3.568292,-0.44156 4.745632,-1.45078 0.985985,-0.66499 1.624079,-3.4997 -0.770443,-4.83201 -0.857956,-0.47734 -2.33991,0.0159 -2.917587,0.28381 -0.08196,-0.33425 -0.05816,-2.11283 -2.161039,-3.00535 0,0 -1.377723,-0.55826 -2.821109,0.30318 -1.504741,0.8972 -1.55652,2.46233 -0.550908,6.00308 z"
     fill="#000000"
     id="path61"
     style="stroke-width:0.628788" />
  <path
     d="m 73.272579,99.21729 c 0.167209,2.91446 -0.176648,3.83454 -0.369478,3.93012 0.52118,-0.17299 2.084715,-0.52366 4.170104,-0.53773 2.606567,-0.0181 3.599706,0.15891 4.97648,-0.63568 1.113826,-0.48906 2.363171,-3.16543 0.305426,-4.8713 -0.737606,-0.61105 -2.300468,-0.37296 -2.926152,-0.20584 -0.0074,-0.34245 0.40656,-2.08351 -1.461727,-3.3091 0,0 -1.229118,-0.777 -2.835131,-0.17183 -1.674109,0.63157 -2.069206,2.15858 -1.859522,5.80136 z"
     fill="#dc4c68"
     id="path62"
     style="stroke-width:0.628788" />
  <path
     opacity="0.6"
     d="m 41.453446,110.81825 c -1.294582,2.55206 -2.046483,3.19125 -2.260625,3.19125 0.536422,0.0716 2.062128,0.43042 3.873854,1.29478 2.264596,1.08076 3.036051,1.649 4.620487,1.55107 1.205247,0.0522 3.607934,-1.70177 2.669671,-4.01868 -0.336166,-0.83035 -1.805984,-1.28541 -2.430119,-1.40621 0.162889,-0.29438 1.381156,-1.60266 0.369951,-3.43167 0,0 -0.680233,-1.17869 -2.368901,-1.33819 -1.760411,-0.16654 -2.856106,0.96816 -4.474318,4.15765 z"
     fill="#4aa4b8"
     id="path63"
     style="stroke-width:0.628788" />
  <path
     d="m 131.84685,164.91285 c 1.7321,3.11209 1.85278,4.25676 1.69636,4.4403 0.46724,-0.40228 1.96201,-1.4244 4.19708,-2.29346 2.794,-1.08603 3.9557,-1.2983 5.01356,-2.72973 0.93785,-0.98869 0.8556,-4.42095 -2.26541,-5.44014 -1.11855,-0.36533 -2.67264,0.53364 -3.25719,0.97169 -0.18947,-0.37003 -0.67154,-2.44006 -3.33339,-3.01299 0,0 -1.73614,-0.34539 -3.14056,0.97286 -1.46443,1.37337 -1.07539,3.20181 1.08955,7.09147 z"
     fill="#dc4c68"
     id="path64"
     style="stroke-width:0.628788" />
  <path
     d="m 117.92201,164.62962 c -0.32228,2.77547 -0.81042,3.5853 -1.01337,3.64277 0.53535,-0.0763 2.11371,-0.14601 4.14449,0.18883 2.53779,0.41752 3.47362,0.7506 4.94546,0.23105 1.1644,-0.27504 2.82502,-2.58959 1.10777,-4.54058 -0.6149,-0.699 -2.1744,-0.73594 -2.81087,-0.68258 0.0499,-0.3237 0.743,-1.89645 -0.86975,-3.36306 0,0 -1.06596,-0.93768 -2.7286,-0.63509 -1.73345,0.31608 -2.37126,1.68945 -2.77513,5.15866 z"
     fill="#429481"
     id="path65"
     style="stroke-width:0.628788" />
  <path
     d="m 115.64043,91.2169 c -0.11733,2.45882 -0.49759,3.19418 -0.67357,3.25458 0.46725,-0.0915 1.85347,-0.2246 3.66175,-0.0229 2.26069,0.25274 3.10482,0.50314 4.37035,-0.0218 1.00864,-0.29496 2.33215,-2.40956 0.70253,-4.04974 -0.58387,-0.58759 -1.95998,-0.54888 -2.51689,-0.47324 0.0242,-0.28734 0.54006,-1.70352 -0.96886,-2.92208 0,0 -0.99517,-0.77758 -2.44138,-0.43512 -1.50758,0.35712 -1.98696,1.59621 -2.13393,4.67017 z"
     fill="#348b46"
     id="path66"
     style="stroke-width:0.628788" />
  <path
     d="m 71.025376,73.298545 c -0.117316,2.459405 -0.498255,3.194763 -0.673555,3.255164 0.466567,-0.09207 1.852781,-0.225182 3.661736,-0.02291 2.260687,0.252744 3.104822,0.503141 4.369674,-0.02172 1.00932,-0.294964 2.332831,-2.40956 0.703221,-4.04975 -0.584557,-0.587583 -1.959983,-0.548879 -2.51757,-0.473233 0.02497,-0.287341 0.540057,-1.703522 -0.968192,-2.922083 0,0 -0.995835,-0.777579 -2.442056,-0.435116 -1.507574,0.357124 -1.98695,1.596209 -2.133258,4.669586 z"
     fill="#dc4c68"
     id="path67"
     style="stroke-width:0.628788" />
  <path
     d="m 64.41524,90.25577 c -0.117316,2.4594 -0.497581,3.19476 -0.673554,3.25516 0.46724,-0.092 1.853453,-0.22518 3.661734,-0.0229 2.260688,0.25274 3.104822,0.50313 4.37035,-0.0218 1.008645,-0.29497 2.332156,-2.40955 0.702545,-4.04975 -0.583881,-0.58758 -1.959982,-0.54888 -2.517568,-0.47323 0.02497,-0.28734 0.540731,-1.70353 -0.968193,-2.92208 0,0 -0.995161,-0.77758 -2.441381,-0.43511 -1.507575,0.35712 -1.986952,1.5962 -2.133933,4.66958 z"
     fill="#4aa4b8"
     id="path68"
     style="stroke-width:0.628788" />
  <path
     d="m 101.12361,146.88424 c 1.42262,1.5323 1.6404,2.14978 1.57163,2.26648 0.22519,-0.26975 0.97763,-0.98635 2.18787,-1.69531 1.51297,-0.88665 2.17304,-1.12415 2.61533,-2.02078 0.42746,-0.64094 -0.0607,-2.52038 -2.03685,-2.75788 -0.70793,-0.0856 -1.51161,0.56999 -1.80086,0.8714 -0.15979,-0.18412 -0.70996,-1.27251 -2.3571,-1.31297 0,0 -1.07068,-0.0104 -1.732769,0.86027 -0.689736,0.90717 -0.225866,1.8724 1.552749,3.78879 z"
     fill="#000000"
     id="path69"
     style="stroke-width:0.628788" />
  <path
     d="m 90.624523,165.28404 c 1.2453,2.3087 1.299913,3.14258 1.17181,3.27159 0.378916,-0.27913 1.579042,-0.97813 3.352263,-1.54519 2.216189,-0.70897 3.129769,-0.83035 4.003569,-1.83898 0.764575,-0.69138 0.817165,-3.18479 -1.582414,-4.01398 -0.860316,-0.29673 -2.102919,0.31138 -2.573531,0.6128 -0.135519,-0.27385 -0.440944,-1.79032 -2.498016,-2.28232 0,0 -1.342389,-0.29965 -2.483184,0.61692 -1.188664,0.95584 -0.94729,2.29344 0.609503,5.17916 z"
     fill="#73c5e7"
     id="path70"
     style="stroke-width:0.628788" />
  <path
     d="m 110.40167,32.909829 c 0.11866,3.076427 -0.27711,4.024769 -0.48949,4.114373 0.57242,-0.152584 2.28699,-0.431481 4.56385,-0.326689 2.84659,0.131004 3.9267,0.374481 5.44777,-0.382927 1.2271,-0.450422 2.64971,-3.194998 0.44094,-5.107927 -0.79154,-0.685454 -2.50341,-0.52513 -3.19045,-0.38533 0,-0.360232 0.49017,-2.168839 -1.5224,-3.565844 0,0 -1.32554,-0.888411 -3.09201,-0.343578 -1.842,0.567997 -2.30654,2.15242 -2.15821,5.997922 z"
     fill="#73c5e7"
     id="path71"
     style="stroke-width:0.628788" />
  <path
     d="m 84.983253,48.670485 c 0.130126,3.379483 -0.30475,4.420947 -0.538034,4.519465 0.629056,-0.167714 2.512175,-0.47382 5.014237,-0.358884 3.127073,0.144257 4.31304,0.41166 5.984453,-0.420457 1.347782,-0.494929 2.910644,-3.509665 0.483422,-5.61136 -0.869082,-0.752831 -2.749504,-0.576735 -3.503966,-0.423095 -6.74e-4,-0.395763 0.538034,-2.38252 -1.672761,-3.917221 0,0 -1.455659,-0.975842 -3.396763,-0.377354 -2.023359,0.623939 -2.533077,2.364469 -2.370588,6.588906 z"
     fill="#dc4c68"
     id="path72"
     style="stroke-width:0.628788" />
  <path
     d="m 106.66442,136.91526 c 3.12236,5.07597 3.3408,6.94193 3.05964,7.241 0.84145,-0.65561 3.52959,-2.31984 7.55136,-3.73308 5.02705,-1.76745 7.11784,-2.11285 9.01916,-4.44441 1.68625,-1.61146 1.53253,-7.20639 -4.08717,-8.8718 -2.01325,-0.59697 -4.80927,0.86613 -5.8604,1.58038 -0.34183,-0.60401 -1.21293,-3.9788 -6.00468,-4.91706 0,0 -3.12571,-0.56471 -5.65138,1.58214 -2.63353,2.23774 -1.93031,5.21847 1.97347,11.56283 z"
     fill="#dc4c68"
     id="path73"
     style="stroke-width:0.628788" />
  <path
     d="m 43.01044,151.12516 c 1.790276,2.92032 1.915345,3.99404 1.754079,4.16586 0.48241,-0.37706 2.02376,-1.33467 4.329558,-2.14802 2.88219,-1.01684 4.080968,-1.21505 5.171257,-2.55675 0.966506,-0.92711 0.878587,-4.1465 -2.343279,-5.1047 -1.15448,-0.34306 -2.757458,0.49845 -3.359881,0.90953 -0.196,-0.34775 -0.695466,-2.28936 -3.442748,-2.82885 0,0 -1.791961,-0.32487 -3.240268,0.91011 -1.509808,1.28776 -1.10662,3.00242 1.131282,6.65282 z"
     fill="#dc4c68"
     id="path74"
     style="stroke-width:0.628788" />
  <path
     d="m 81.999793,41.509654 c -0.783454,-0.805553 -0.692433,-1.24964 -0.824582,-1.654794 -0.569723,0.04215 -1.489371,0.405209 -2.085389,0.277491 -0.660743,-0.141792 -1.316768,-0.412889 -2.242483,-1.364926 -0.356667,-0.366158 -0.982351,-1.41325 -0.718728,-2.486909 0.300706,-1.221903 0.970889,-2.095831 2.042913,-3.010572 1.072696,-0.914741 2.435312,-1.665875 4.148527,-1.921491 2.344967,-0.349735 2.011898,-0.352491 3.438565,1.113945 0.498255,0.51264 0.608828,0.528356 1.668042,0.908408 1.60736,0.576442 1.597921,2.71901 1.597921,2.71901 0,0 -0.03508,0.905358 -0.491512,3.125856 -0.457127,2.220443 -2.479139,3.206491 -3.314508,3.317617 -1.042357,0.138685 -1.999761,0.229936 -3.218766,-1.023635 z"
     fill="#8dcfea"
     id="path75"
     style="stroke-width:0.628788" />
  <path
     d="m 80.260957,42.411965 c 0.130127,-0.296723 0.670184,-2.000776 0.44162,-1.832477 -0.416673,0.55785 -0.779409,1.377478 -1.03157,1.763922 -0.315539,0.483084 -0.422067,0.911108 0.234632,1.586304 0.284524,0.292913 0.752438,-0.302358 0.543428,-0.651391 -0.208337,-0.349025 -0.350598,-0.495517 -0.18811,-0.866358 z"
     fill="#8dcfea"
     id="path76"
     style="stroke-width:0.628788" />
  <g
     opacity="0.6"
     id="g78"
     transform="matrix(0.67422847,0,0,0.58641033,-7.1109575,-11.848819)">
    <path
       d="m 79.2458,166.819 c 2.5747,1.237 2.827,2.51 3.5384,3.428 1.227,-0.755 2.9053,-2.751 4.365,-3.088 1.6202,-0.374 3.362,-0.401 6.4049,1.061 1.1703,0.562 3.6417,2.614 4.1556,5.742 0.5848,3.56 -0.012,6.62 -1.4649,10.244 -1.4529,3.623 -3.7205,7.143 -7.28,9.755 -4.8701,3.572 -4.1251,3.203 -8.8123,0.951 -1.6385,-0.787 -1.9005,-0.704 -4.654,-0.507 -4.1766,0.298 -6.3563,-5.359 -6.3563,-5.359 0,0 -0.8512,-2.426 -2.1129,-8.794 -1.2617,-6.368 2.2367,-11.254 3.9847,-12.491 2.1826,-1.544 4.2252,-2.867 8.2318,-0.942 z"
       fill="#dc4c68"
       id="path77" />
    <path
       d="m 82.1973,162.475 c 0.0146,0.929 0.5595,6.031 0.8969,5.328 0.3566,-1.941 0.3239,-4.511 0.4892,-5.815 0.2067,-1.629 0.0057,-2.878 -2.1523,-3.915 -0.9363,-0.45 -1.3678,1.648 -0.544,2.332 0.8238,0.684 1.2919,0.908 1.3102,2.07 z"
       fill="#dc4c68"
       id="path78" />
  </g>
  <g
     opacity="0.6"
     id="g80"
     transform="matrix(0.67422847,0,0,0.58641033,-7.1109575,-11.848819)">
    <path
       d="m 75.3438,149.995 c -1.8818,-0.527 -2.2034,-1.355 -2.7918,-1.888 -0.7368,0.654 -1.6299,2.199 -2.5732,2.6 -1.047,0.444 -2.2172,0.67 -4.4412,0.047 -0.8553,-0.239 -2.7645,-1.327 -3.4828,-3.374 -0.8176,-2.328 -0.7798,-4.461 -0.2321,-7.075 0.5476,-2.614 1.6564,-5.256 3.7437,-7.438 2.8559,-2.987 2.3979,-2.65 5.8236,-1.69 1.1975,0.335 1.3641,0.248 3.1957,-0.212 2.7783,-0.698 4.9199,2.854 4.9199,2.854 0,0 0.8621,1.533 2.4699,5.673 1.6078,4.14 -0.1677,7.848 -1.1982,8.889 -1.2866,1.3 -2.5052,2.435 -5.4335,1.614 z"
       fill="#f7db32"
       id="path79" />
    <path
       d="m 73.8723,153.273 c -0.1204,-0.624 -1.0946,-3.996 -1.2383,-3.483 -0.0093,1.35 0.3186,3.078 0.3623,3.976 0.0547,1.122 0.3387,1.94 1.9159,2.381 0.6843,0.192 0.7254,-1.272 0.0891,-1.635 -0.6364,-0.363 -0.9785,-0.459 -1.129,-1.239 z"
       fill="#f7db32"
       id="path80" />
  </g>
  <path
     d="m 27.102219,127.05888 c -1.128585,-0.14015 -1.374341,-0.55592 -1.753668,-0.79517 -0.380128,0.40169 -0.787088,1.28717 -1.305096,1.56923 -0.57499,0.31314 -1.237083,0.51957 -2.570833,0.35361 -0.512961,-0.0639 -1.69758,-0.49962 -2.260625,-1.53229 -0.640854,-1.17459 -0.771854,-2.3087 -0.641802,-3.73544 0.13,-1.42731 0.583345,-2.91035 1.63669,-4.22215 1.441236,-1.79559 1.199926,-1.58272 3.254374,-1.32704 0.71818,0.0891 0.808463,0.0305 1.837198,-0.34892 1.560366,-0.57527 3.056352,1.15054 3.056352,1.15054 0,0 0.609566,0.74884 1.838347,2.82591 1.228718,2.07765 0.465354,4.17524 -0.05731,4.80387 -0.652516,0.78462 -1.277526,1.47658 -3.033629,1.25785 z"
     fill="#f9d949"
     id="path81"
     style="stroke-width:0.628788" />
  <path
     d="m 26.484225,128.90607 c -0.114481,-0.32193 -0.920932,-2.03836 -0.967454,-1.7557 0.09144,0.71717 0.405348,1.6091 0.49502,2.08174 0.112196,0.5917 0.335429,1.00395 1.281234,1.12182 0.410405,0.0511 0.329299,-0.72892 -0.06563,-0.87435 -0.394824,-0.14484 -0.600064,-0.17064 -0.7432,-0.57351 z"
     fill="#f9d949"
     id="path82"
     style="stroke-width:0.628788" />
  <path
     d="m 101.5268,111.80928 c 1.13203,0.009 1.43745,0.39172 1.84739,0.58524 0.31284,-0.44215 0.57848,-1.36693 1.04572,-1.70645 0.51848,-0.37707 1.13877,-0.65795 2.47711,-0.64798 0.51444,0.004 1.74693,0.29848 2.45757,1.25608 0.80975,1.09013 1.11046,2.19905 1.19946,3.62812 0.089,1.42967 -0.13216,2.95199 -0.96954,4.37404 -1.14553,1.94629 -0.94056,1.70763 -3.00168,1.69238 -0.72007,-0.005 -0.8003,0.0633 -1.75501,0.55827 -1.44824,0.75119 -3.18303,-0.78579 -3.18303,-0.78579 0,0 -0.71401,-0.67204 -2.239116,-2.58784 -1.525104,-1.91639 -1.092923,-4.08434 -0.673554,-4.76752 0.523202,-0.85322 1.032918,-1.61145 2.79468,-1.59855 z"
     fill="#5e9f68"
     id="path83"
     style="stroke-width:0.628788" />
  <path
     d="m 101.85447,109.90696 c 0.16182,0.30611 1.21631,1.91405 1.21901,1.62847 -0.1989,-0.70018 -0.64322,-1.54813 -0.80369,-2.00611 -0.20024,-0.57292 -0.48274,-0.95644 -1.43138,-0.96347 -0.41195,-0.003 -0.21373,0.76057 0.19755,0.85909 0.4106,0.0979 0.61624,0.0997 0.81851,0.48202 z"
     fill="#5e9f68"
     id="path84"
     style="stroke-width:0.628788" />
  <path
     d="m 31.985193,156.4785 c 1.424908,0.0106 1.808818,0.49318 2.324602,0.73653 0.39415,-0.5565 0.728905,-1.72052 1.316695,-2.14802 0.652389,-0.4744 1.433209,-0.8286 3.117232,-0.8157 0.64766,0.004 2.198658,0.3759 3.093634,1.58155 1.018549,1.37162 1.397802,2.76727 1.509597,4.56639 0.111849,1.7991 -0.166134,3.71491 -1.220153,5.50523 -1.442175,2.44943 -1.183881,2.1486 -3.777902,2.12983 -0.906838,-0.007 -1.007508,0.0792 -2.20932,0.70252 -1.822977,0.9453 -4.00633,-0.98869 -4.00633,-0.98869 0,0 -0.898472,-0.84619 -2.818001,-3.25809 -1.919464,-2.41132 -1.375026,-5.1399 -0.847779,-5.99958 0.658384,-1.0743 1.300313,-2.02839 3.517725,-2.01197 z"
     fill="#dc4c68"
     id="path85"
     style="stroke-width:0.628788" />
  <path
     d="m 32.39741,154.08419 c 0.203479,0.38527 1.530836,2.40898 1.534406,2.04891 -0.250401,-0.88079 -0.809948,-1.94746 -1.011543,-2.52449 -0.251961,-0.72128 -0.607406,-1.20332 -1.801738,-1.21211 -0.518145,-0.004 -0.268543,0.95702 0.248453,1.08075 0.516997,0.12374 0.776037,0.1255 1.030422,0.60694 z"
     fill="#dc4c68"
     id="path86"
     style="stroke-width:0.628788" />
  <path
     opacity="0.6"
     d="m 129.60571,140.86826 c 1.10305,3.50321 1.58377,3.72781 2.25395,4.83378 0.75042,-0.6861 2.10831,-2.69455 2.70568,-4.89418 0.70525,-2.59721 0.56096,-1.56688 0.67019,-4.38166 0.14159,-3.63281 -1.991,-7.18997 -3.28552,-8.85187 -0.68636,1.44727 -2.15483,3.20005 -2.88974,6.81996 -0.1517,0.74885 -0.55826,2.97075 0.54544,6.47397 z"
     fill="#73c5e7"
     id="path87"
     style="stroke-width:0.628788" />
  <path
     d="m 130.25635,84.80861 c 1.4887,1.28189 1.81232,1.25902 2.46161,1.58096 0.24609,-0.49904 0.50028,-1.74516 0.28249,-2.881625 -0.2562,-1.341116 -0.0789,-0.843838 -0.72142,-2.129838 -0.82862,-1.65954 -2.90322,-2.702179 -4.03862,-3.11208 -0.0202,0.822735 -0.39982,1.983241 0.0958,3.789389 0.1025,0.373544 0.4315,1.470714 1.9202,2.753194 z"
     fill="#040404"
     id="path88"
     style="stroke-width:0.628788" />
  <path
     opacity="0.9"
     d="m 121.84063,76.530252 c -1.01201,0.889 -0.99381,1.081929 -1.248,1.470132 0.39443,0.146602 1.37745,0.297896 2.27485,0.1683 1.05854,-0.15364 0.66613,-0.04746 1.68085,-0.431012 1.31002,-0.494931 2.13258,-1.734017 2.45622,-2.411907 -0.64929,-0.01228 -1.56557,-0.238669 -2.99089,0.05745 -0.2953,0.06157 -1.16101,0.25802 -2.17303,1.147019 z"
     fill="#f7db32"
     id="path89"
     style="stroke-width:0.628788" />
  <path
     opacity="0.9"
     d="m 17.779662,85.9269 c -1.70997,1.27837 -1.709506,1.58212 -2.162789,2.16033 0.594533,0.27268 2.109799,0.61691 3.530061,0.51194 1.677007,-0.12374 1.048225,-0.002 2.689698,-0.48966 2.118562,-0.63039 3.583187,-2.47641 4.187096,-3.50028 -1.01343,-0.0897 -2.411853,-0.543607 -4.68258,-0.23691 -0.469674,0.0633 -1.851506,0.27561 -3.561486,1.55458 z"
     fill="#f7db32"
     id="path90"
     style="stroke-width:0.628788" />
  <path
     d="m 30.499993,113.51632 c 0.349926,3.60701 0.873063,3.93482 1.376986,5.14927 1.111729,-0.47851 3.34174,-2.07765 4.697075,-4.03802 1.600345,-2.31515 1.130956,-1.36516 2.065836,-4.02864 1.206532,-3.43695 -0.384446,-7.33834 -1.492267,-9.23068 -1.250293,1.2209 -3.543007,2.54913 -5.470353,5.83477 -0.398606,0.67965 -1.527265,2.70688 -1.177277,6.3133 z"
     fill="#dc4c68"
     id="path91"
     style="stroke-width:0.628788" />
  <path
     d="m 121.09628,9.5005644 c -0.45241,-2.097709 -0.65872,-2.241027 -0.94123,-2.910239 -0.32969,0.389846 -0.93245,1.549707 -1.20753,2.839048 -0.32431,1.5223796 -0.25419,0.9156796 -0.32228,2.5795606 -0.0876,2.147552 0.80974,4.299619 1.35856,5.311352 0.30813,-0.842144 0.95674,-1.848013 1.30126,-3.975333 0.0714,-0.439926 0.26363,-1.746683 -0.18878,-3.8443886 z"
     fill="#000000"
     id="path92"
     style="stroke-width:0.628788" />
  <path
     opacity="0.4"
     d="m 97.573796,126.06374 c -0.272388,1.22795 -0.134171,1.37982 -0.09776,1.82492 0.421393,-0.068 1.336321,-0.41811 1.998413,-0.95938 0.782101,-0.63977 0.523876,-0.36181 1.121911,-1.17164 0.77267,-1.0444 0.66412,-2.47231 0.50028,-3.19183 -0.54747,0.30375 -1.453633,0.55826 -2.449469,1.49417 -0.206314,0.19292 -0.80031,0.77523 -1.073371,2.00376 z"
     fill="#348b46"
     id="path93"
     style="stroke-width:0.628788" />
  <path
     d="m 84.593549,102.55397 c -1.201475,2.36088 -0.985047,2.74263 -1.133377,3.66917 0.926389,0.0815 3.039421,-0.15189 4.716902,-0.90894 1.980209,-0.8931 1.291822,-0.46268 2.969302,-1.7991 2.165622,-1.72523 2.66118,-4.69188 2.679384,-6.24527 -1.313397,0.33308 -3.360355,0.37705 -5.943324,1.76216 -0.533989,0.28617 -2.087411,1.16168 -3.288887,3.52198 z"
     fill="#000000"
     id="path94"
     style="stroke-width:0.628788" />
  <path
     d="m 59.45514,54.838348 c 2.186998,2.583725 2.757395,2.620082 3.785593,3.33433 0.584557,-0.809833 1.416555,-2.916805 1.395654,-4.944612 -0.02559,-2.3949 0.12608,-1.487723 -0.587253,-3.876758 -0.920997,-3.083172 -4.202739,-5.388525 -6.048709,-6.371523 -0.293425,1.426736 -1.317308,3.354799 -1.021793,6.614296 0.06116,0.673786 0.289311,2.660543 2.476508,5.244267 z"
     fill="#f7db32"
     id="path95"
     style="stroke-width:0.628788" />
  <path
     opacity="0.4"
     d="m 97.200273,136.35056 c 0.380265,1.92517 0.736258,2.09993 1.116523,2.74792 0.706591,-0.25627 2.096854,-1.11184 2.899854,-2.16035 0.94797,-1.23732 0.68165,-0.72949 1.17991,-2.15211 0.64388,-1.83665 -0.56029,-3.9184 -1.36397,-4.92761 -0.76593,0.65267 -2.2081,1.36398 -3.329342,3.12029 -0.231935,0.36298 -0.883914,1.44608 -0.502975,3.37186 z"
     fill="#78b956"
     id="path96"
     style="stroke-width:0.628788" />
  <path
     d="m 23.062516,107.35842 c 0.286884,1.02388 0.455915,1.09777 0.66479,1.42791 0.29882,-0.18002 0.865308,-0.72539 1.158798,-1.34111 0.346617,-0.72774 0.258904,-0.43629 0.394086,-1.23791 0.174489,-1.03502 -0.488552,-2.09584 -0.907849,-2.5978 -0.300979,0.39934 -0.899621,0.86906 -1.291484,1.88823 -0.08101,0.21053 -0.305288,0.83681 -0.01833,1.86068 z"
     fill="#73c5e7"
     id="path97"
     style="stroke-width:0.628788" />
  <path
     d="m 21.995076,109.80903 c 1.194469,-0.17709 1.291484,-0.31842 1.684696,-0.47616 -0.185687,-0.2721 -0.771181,-0.80221 -1.456871,-1.1001 -0.809611,-0.35185 -0.481736,-0.2551 -1.391744,-0.42926 -1.174506,-0.22401 -2.43801,0.2762 -3.043067,0.6046 0.436563,0.28909 0.933269,0.84149 2.074064,1.25374 0.235979,0.0851 0.938462,0.3237 2.132922,0.14718 z"
     fill="#73c5e7"
     id="path98"
     style="stroke-width:0.628788" />
  <path
     d="m 25.695041,108.51952 c -1.033393,0.55005 -1.063058,0.71249 -1.36053,0.98635 0.288507,0.19234 1.058613,0.49551 1.822514,0.55063 0.90198,0.0644 0.556302,0.0809 1.475412,-0.0516 1.186242,-0.17182 2.145395,-1.0444 2.566787,-1.5452 -0.528869,-0.12725 -1.226147,-0.47968 -2.461207,-0.49317 -0.25546,-0.003 -1.009584,0.003 -2.042976,0.55299 z"
     fill="#73c5e7"
     id="path99"
     style="stroke-width:0.628788" />
  <path
     d="m 24.93566,110.82645 c -0.669709,-0.87843 -0.857693,-0.89837 -1.183007,-1.14701 -0.210623,0.25802 -0.530408,0.93826 -0.565942,1.60442 -0.04193,0.78638 -0.07322,0.48614 0.112796,1.28013 0.240089,1.02504 1.278064,1.82726 1.868488,2.175 0.127092,-0.46444 0.506619,-1.0831 0.47729,-2.15682 -0.0063,-0.22225 -0.03982,-0.87786 -0.709625,-1.75572 z"
     fill="#73c5e7"
     id="path100"
     style="stroke-width:0.628788" />
  <path
     d="m 15.817594,152.88322 c 1.552348,1.27192 1.883657,1.24085 2.555726,1.5534 0.242322,-0.51486 0.477091,-1.79266 0.231334,-2.94612 -0.290256,-1.36282 -0.0986,-0.85969 -0.783053,-2.15565 -0.883376,-1.67303 -3.031668,-2.68576 -4.203877,-3.0769 -0.0042,0.84033 -0.369551,2.03309 0.175299,3.86387 0.11266,0.37823 0.472297,1.48948 2.024571,2.7614 z"
     fill="#9bb5a0"
     id="path101"
     style="stroke-width:0.628788" />
  <path
     d="m 16.944093,157.39037 c 1.568118,-1.25727 1.555519,-1.54695 1.961605,-2.10814 -0.573769,-0.2463 -2.022349,-0.54008 -3.362989,-0.40814 -1.583015,0.1554 -0.992528,0.0247 -2.527272,0.52718 -1.980883,0.64856 -3.2940173,2.44064 -3.8249722,3.4305 0.9632092,0.0628 2.3055252,0.46385 4.4433672,0.12021 0.442167,-0.0709 1.742143,-0.30494 3.310261,-1.56161 z"
     fill="#9bb5a0"
     id="path102"
     style="stroke-width:0.628788" />
  <path
     d="m 20.984207,152.40119 c -0.918573,1.67362 -0.783116,1.93868 -0.920322,2.59077 0.63802,0.0434 2.108312,-0.15189 3.296576,-0.70781 1.40307,-0.65678 0.910747,-0.34422 2.120913,-1.30652 1.56185,-1.2426 2.014932,-3.33081 2.085052,-4.42154 -0.921059,0.25334 -2.338625,0.31491 -4.176509,1.32471 -0.380054,0.20935 -1.487074,0.84619 -2.40571,2.52039 z"
     fill="#9bb5a0"
     id="path103"
     style="stroke-width:0.628788" />
  <path
     d="m 22.406218,156.43921 c -1.956811,-0.73712 -2.256095,-0.60986 -3.01043,-0.70545 -0.02666,0.55591 0.251487,1.82667 0.933343,2.8394 0.805091,1.1957 0.428335,0.77934 1.578369,1.79618 1.484239,1.31239 3.900337,1.63023 5.155551,1.65134 -0.324304,-0.79107 -0.446476,-2.02136 -1.67391,-3.58181 -0.253846,-0.32311 -1.026176,-1.26195 -2.982923,-1.99966 z"
     fill="#9bb5a0"
     id="path104"
     style="stroke-width:0.628788" />
  <path
     d="m 34.585692,145.5396 c 0.225867,0.80632 0.358889,0.86438 0.523401,1.12416 0.235232,-0.14192 0.681171,-0.57117 0.912295,-1.05613 0.272862,-0.57234 0.203816,-0.34305 0.310218,-0.97403 0.137406,-0.81511 -0.384584,-1.65016 -0.714756,-2.0454 -0.236917,0.31432 -0.708202,0.68434 -1.016737,1.48655 -0.06384,0.16595 -0.240361,0.65853 -0.01443,1.46485 z"
     fill="#f7db32"
     id="path105"
     style="stroke-width:0.628788" />
  <path
     d="m 33.745392,147.46889 c 0.940349,-0.13898 1.016811,-0.25039 1.326345,-0.37471 -0.146171,-0.21404 -0.607206,-0.63156 -1.147,-0.86613 -0.637346,-0.27737 -0.379254,-0.20114 -1.095684,-0.33777 -0.924705,-0.17651 -1.919466,0.21697 -2.395809,0.47558 0.343657,0.22811 0.734784,0.66264 1.632919,0.98692 0.18575,0.0675 0.738817,0.2551 1.679229,0.11611 z"
     fill="#f7db32"
     id="path106"
     style="stroke-width:0.628788" />
  <path
     d="m 36.658397,146.45382 c -0.81352,0.43277 -0.836918,0.56119 -1.071139,0.7764 0.227142,0.15189 0.83341,0.38997 1.434885,0.43336 0.710099,0.0511 0.437985,0.0639 1.161569,-0.0405 0.933932,-0.13487 1.689068,-0.82214 2.020789,-1.21621 -0.416336,-0.10031 -0.965285,-0.37765 -1.937659,-0.38879 -0.20112,-0.002 -0.794852,0.002 -1.608445,0.4357 z"
     fill="#f7db32"
     id="path107"
     style="stroke-width:0.628788" />
  <path
     d="m 36.060492,148.26993 c -0.527309,-0.69138 -0.675239,-0.70721 -0.931373,-0.90307 -0.16586,0.20349 -0.417621,0.73888 -0.445538,1.26313 -0.03308,0.61925 -0.05762,0.38293 0.08881,1.00803 0.189057,0.80691 1.006222,1.43847 1.47104,1.71232 0.100083,-0.36533 0.398869,-0.85264 0.375746,-1.69824 -0.0053,-0.17475 -0.0314,-0.6908 -0.558673,-1.38217 z"
     fill="#f7db32"
     id="path108"
     style="stroke-width:0.628788" />
  <path
     d="m 14.192499,164.28186 c 1.196482,0.55358 1.393556,0.48614 1.865853,0.58055 0.04952,-0.35125 -0.05235,-1.16871 -0.424963,-1.84074 -0.439998,-0.79283 -0.22573,-0.51252 -0.894702,-1.20742 -0.863487,-0.89721 -2.375507,-1.20566 -3.169474,-1.27486 0.159044,0.51604 0.164438,1.30066 0.850602,2.3433 0.141925,0.2158 0.576191,0.84502 1.772684,1.39917 z"
     fill="#f7db32"
     id="path109"
     style="stroke-width:0.628788" />
  <path
     d="m 15.75023,166.88143 c 0.719675,-0.99925 0.656235,-1.17517 0.797275,-1.57804 -0.399206,-0.0675 -1.343937,-0.0369 -2.140538,0.23926 -0.940686,0.32545 -0.603835,0.1595 -1.448243,0.69079 -1.089817,0.6861 -1.550189,1.9762 -1.685434,2.65995 0.602697,-0.10144 1.502919,-0.0511 2.747618,-0.57292 0.257481,-0.1079 1.009583,-0.4404 1.729322,-1.43904 z"
     fill="#f7db32"
     id="path110"
     style="stroke-width:0.628788" />
  <path
     d="m 17.267244,163.23453 c -0.241236,1.15993 -0.107265,1.30243 -0.06595,1.72229 0.399554,-0.0662 1.263441,-0.39993 1.885143,-0.91363 0.734035,-0.60635 0.49226,-0.34364 1.049099,-1.11007 0.718665,-0.98869 0.594807,-2.33509 0.428073,-3.01415 -0.51606,0.28968 -1.373467,0.53364 -2.306062,1.42028 -0.192904,0.18356 -0.749068,0.73478 -0.990303,1.89528 z"
     fill="#f7db32"
     id="path111"
     style="stroke-width:0.628788" />
  <path
     d="m 18.916481,165.50336 c -1.341652,-0.16713 -1.500696,-0.0457 -1.981631,0.005 0.09071,0.34481 0.505671,1.08369 1.118544,1.6056 0.723658,0.61572 0.412502,0.41518 1.313271,0.8714 1.162496,0.58875 2.705131,0.43218 3.478809,0.26213 -0.350999,-0.43805 -0.662557,-1.174 -1.715365,-1.95216 -0.217712,-0.16127 -0.871913,-0.62453 -2.213628,-0.79224 z"
     fill="#f7db32"
     id="path112"
     style="stroke-width:0.628788" />
  <path
     d="m 121.73275,99.05134 c -0.2906,1.60618 -0.0728,1.81846 0.0208,2.41191 0.61355,-0.0558 1.92627,-0.44451 2.85064,-1.10832 1.09225,-0.78344 0.73693,-0.43688 1.54331,-1.46075 1.041,-1.32235 0.75312,-3.22409 0.44634,-4.19225 -0.77739,0.3583 -2.08607,0.6216 -3.46554,1.78035 -0.28519,0.23925 -1.10573,0.96229 -1.39565,2.56906 z"
     fill="#4aa4b8"
     id="path113"
     style="stroke-width:0.628788" />
  <path
     d="m 118.21531,101.75703 c 2.05235,0.53012 2.3126,0.39701 3.06099,0.43337 -0.0992,-0.49787 -0.65197,-1.61264 -1.53724,-2.47114 -1.04438,-1.0139 -0.58793,-0.66734 -1.92492,-1.49887 -1.72603,-1.07372 -4.12695,-1.19979 -5.34259,-1.13704 0.49083,0.68492 0.88459,1.7733 2.41846,3.0851 0.31688,0.27151 1.27227,1.05847 3.3253,1.58858 z"
     fill="#4aa4b8"
     id="path114"
     style="stroke-width:0.628788" />
  <path
     d="m 125.11805,102.37101 c -2.06718,0.0921 -2.2344,0.29848 -2.91402,0.48495 0.32297,0.45448 1.34037,1.37397 2.52903,1.94631 1.40443,0.67554 0.83605,0.47382 2.41307,0.88606 2.0355,0.53246 4.22068,-0.0558 5.2664,-0.47675 -0.75783,-0.51956 -1.62152,-1.46133 -3.5997,-2.28172 -0.40926,-0.16948 -1.62692,-0.65151 -3.69478,-0.55885 z"
     fill="#4aa4b8"
     id="path115"
     style="stroke-width:0.628788" />
  <path
     d="m 122.20201,105.07729 c -0.43352,-1.65251 -0.72142,-1.80262 -1.06257,-2.35854 -0.52793,0.22108 -1.54264,0.95702 -2.08877,1.85775 -0.64524,1.06316 -0.47533,0.62746 -0.75918,1.84953 -0.36611,1.57687 0.71603,3.36306 1.41049,4.22919 0.54612,-0.56177 1.6114,-1.1734 2.35305,-2.68223 0.15305,-0.31197 0.57984,-1.24319 0.14698,-2.8957 z"
     fill="#4aa4b8"
     id="path116"
     style="stroke-width:0.628788" />
  <path
     d="m 112.42705,75.662365 c -0.46387,2.472894 -0.17327,2.771963 -0.068,3.66272 0.84682,-0.153053 2.6686,-0.890171 3.9685,-2.001419 1.53455,-1.312387 1.03157,-0.745328 2.18316,-2.391382 1.48599,-2.124564 1.16641,-4.982728 0.78413,-6.419434 -1.08484,0.630978 -2.89717,1.176339 -4.84164,3.090383 -0.40251,0.395827 -1.56152,1.586239 -2.02606,4.059132 z"
     fill="#dc4c68"
     id="path117"
     style="stroke-width:0.628788" />
  <path
     d="m 107.47687,80.165411 c 2.80411,0.577614 3.16684,0.345982 4.19639,0.317834 -0.11597,-0.745327 -0.83267,-2.377894 -2.01594,-3.584141 -1.397,-1.423804 -0.7821,-0.947638 -2.58903,-2.062405 -2.33217,-1.439051 -5.63184,-1.363404 -7.307296,-1.132944 0.647256,0.985755 1.145516,2.596038 3.203936,4.418603 0.42543,0.376475 1.70849,1.466025 4.51194,2.043053 z"
     fill="#dc4c68"
     id="path118"
     style="stroke-width:0.628788" />
  <path
     d="m 116.95315,80.329019 c -2.84929,0.370612 -3.08797,0.703106 -4.03121,1.061989 0.42611,0.654429 1.78939,1.938678 3.40283,2.675786 1.90537,0.870236 1.13135,0.626876 3.28484,1.077826 2.77984,0.58231 5.81117,-0.55475 7.2675,-1.310621 -1.02145,-0.705452 -2.17236,-2.039542 -4.86185,-3.066345 -0.55624,-0.21228 -2.21282,-0.80866 -5.06211,-0.438635 z"
     fill="#dc4c68"
     id="path119"
     style="stroke-width:0.628788" />
  <path
     d="m 112.82889,84.76638 c -0.52926,-2.462916 -0.91897,-2.65819 -1.36599,-3.465087 -0.73625,0.394651 -2.16225,1.626115 -2.95042,3.055197 -0.93111,1.68768 -0.67962,1.00569 -1.11922,2.89452 -0.56837,2.43712 0.84886,5.03081 1.76986,6.26931 0.77401,-0.91422 2.26473,-1.96272 3.34619,-4.33768 0.22384,-0.49082 0.84885,-1.95274 0.31958,-4.41626 z"
     fill="#dc4c68"
     id="path120"
     style="stroke-width:0.628788" />
  <path
     d="m 130.21117,151.20785 c 1.56961,0.50606 1.79817,0.39524 2.39419,0.44215 -0.006,-0.43688 -0.28587,-1.42321 -0.86975,-2.192 -0.68974,-0.90718 -0.37421,-0.59462 -1.32486,-1.34933 -1.22777,-0.97403 -3.13719,-1.13412 -4.12223,-1.1048 0.2926,0.60869 0.44835,1.56806 1.48667,2.74616 0.2144,0.24395 0.86571,0.95174 2.43598,1.45782 z"
     fill="#b9d3bd"
     id="path121"
     style="stroke-width:0.628788" />
  <path
     d="m 132.6121,154.1657 c 0.69108,-1.32646 0.57984,-1.53229 0.67625,-2.04599 -0.50162,-0.0258 -1.65253,0.14778 -2.57555,0.60049 -1.08955,0.53363 -0.70861,0.28207 -1.64107,1.05436 -1.20418,0.99632 -1.52241,2.64178 -1.55746,3.49853 0.71805,-0.21111 1.82985,-0.27854 3.25449,-1.09659 0.29464,-0.16888 1.15225,-0.68434 1.84334,-2.0108 z"
     fill="#b9d3bd"
     id="path122"
     style="stroke-width:0.628788" />
  <path
     d="m 133.77582,149.48321 c -0.0748,1.45488 0.11665,1.61028 0.24677,2.11812 0.47668,-0.1384 1.47117,-0.67144 2.13393,-1.3898 0.78346,-0.84795 0.53736,-0.49082 1.07338,-1.50941 0.69175,-1.31415 0.28452,-2.94438 -0.0486,-3.75127 -0.57715,0.42808 -1.58039,0.85029 -2.55331,2.07002 -0.20159,0.25217 -0.77738,1.00746 -0.85223,2.46234 z"
     fill="#b9d3bd"
     id="path123"
     style="stroke-width:0.628788" />
  <path
     d="m 136.22597,152.02412 c -1.67411,-0.0122 -1.84604,0.15951 -2.42453,0.29146 0.17665,0.40931 0.82458,1.25374 1.67412,1.80438 1.00324,0.64974 0.58387,0.44919 1.77321,0.87786 1.53522,0.55357 3.39407,0.13956 4.309,-0.17886 -0.51309,-0.48614 -1.03427,-1.3423 -2.47105,-2.14392 -0.29734,-0.16595 -1.18664,-0.63919 -2.86075,-0.65092 z"
     fill="#b9d3bd"
     id="path124"
     style="stroke-width:0.628788" />
  <path
     d="m 81.049805,11.717487 c 1.964701,0.639657 2.22765,0.520381 2.955817,0.59638 -0.06068,-0.503198 -0.519155,-1.648282 -1.320139,-2.5542276 -0.945943,-1.069789 -0.525224,-0.698474 -1.769849,-1.60178 -1.606013,-1.165901 -3.940192,-1.419876 -5.130206,-1.421753 0.42881,0.710965 0.733561,1.821157 2.135282,3.215114 0.289918,0.2883376 1.165068,1.1265526 3.129095,1.7662666 z"
     fill="#dc4c68"
     id="path129"
     style="stroke-width:0.628788" />
  <path
     d="m 84.319813,15.209268 c 0.676251,-1.501386 0.516458,-1.742577 0.571071,-2.330336 -0.611525,-0.04755 -1.984928,0.110011 -3.048187,0.597024 -1.256087,0.575034 -0.824581,0.299129 -1.861544,1.153587 -1.338344,1.102803 -1.524431,2.985004 -1.463076,3.969705 0.844808,-0.216796 2.183826,-0.253857 3.811414,-1.14309 0.336439,-0.183898 1.313396,-0.745445 1.990322,-2.24689 z"
     fill="#dc4c68"
     id="path130"
     style="stroke-width:0.628788" />
  <path
     d="m 85.161924,9.8616754 c 0.08628,1.6716206 0.337114,1.8573956 0.556239,2.4468556 0.560957,-0.142088 1.701078,-0.719174 2.417783,-1.521677 0.846831,-0.9475796 0.591973,-0.545772 1.117871,-1.6980686 0.678948,-1.487195 -0.01285,-3.378603 -0.514437,-4.319381 -0.647259,0.471885 -1.812326,0.920898 -2.843221,2.289228 -0.213731,0.282943 -0.819862,1.131362 -0.734235,2.803043 z"
     fill="#dc4c68"
     id="path131"
     style="stroke-width:0.628788" />
  <path
     d="m 88.438674,12.876176 c -2.030776,-0.07494 -2.217537,0.11652 -2.903227,0.247054 0.262949,0.477339 1.151582,1.473181 2.247877,2.137643 1.294519,0.784616 0.762553,0.538265 2.255969,1.075182 1.927619,0.692962 4.130324,0.284703 5.200324,-0.04891 -0.680971,-0.57779 -1.416554,-1.582662 -3.255175,-2.557394 -0.380265,-0.201608 -1.514991,-0.778635 -3.545768,-0.853579 z"
     fill="#dc4c68"
     id="path132"
     style="stroke-width:0.628788" />
  <path
     d="m 90.505859,65.11167 c 0.469263,1.09131 0.666137,1.153469 0.945269,1.491828 0.300705,-0.232219 0.840762,-0.895448 1.07,-1.605005 0.27104,-0.83798 0.21845,-0.508418 0.246094,-1.403866 0.03508,-1.156402 -0.852899,-2.245365 -1.388912,-2.748505 -0.270365,0.472647 -0.856943,1.056711 -1.133377,2.220149 -0.05667,0.240428 -0.208337,0.95409 0.260926,2.045399 z"
     fill="#f9db2f"
     id="path133"
     style="stroke-width:0.628788" />
  <path
     d="m 89.704202,67.923508 c 1.285079,-0.330149 1.370031,-0.49669 1.77794,-0.714835 -0.244745,-0.277372 -0.967518,-0.79224 -1.765131,-1.041464 -0.941896,-0.293792 -0.567699,-0.225182 -1.593201,-0.312557 -1.322836,-0.112004 -2.634886,0.581719 -3.249781,1.011558 0.523201,0.267403 1.152256,0.817456 2.466328,1.139395 0.272388,0.06624 1.079439,0.248638 2.363845,-0.0821 z"
     fill="#f9db2f"
     id="path134"
     style="stroke-width:0.628788" />
  <path
     d="m 93.572924,66.085698 c -1.051796,0.721871 -1.059887,0.903658 -1.345085,1.238498 0.345879,0.178269 1.237208,0.422802 2.084039,0.395827 1.000556,-0.0317 0.622987,0.02584 1.612081,-0.225182 1.276314,-0.323697 2.197985,-1.391551 2.584992,-1.989103 -0.600064,-0.07917 -1.418577,-0.386445 -2.776473,-0.260366 -0.281153,0.02583 -1.108431,0.117868 -2.159554,0.840326 z"
     fill="#f9db2f"
     id="path135"
     style="stroke-width:0.628788" />
  <path
     d="m 93.086132,68.705192 c -0.867733,-0.887825 -1.077418,-0.88841 -1.471842,-1.124148 -0.192829,0.30728 -0.440944,1.090723 -0.379591,1.825496 0.07279,0.868473 -0.0063,0.543016 0.317562,1.393311 0.418023,1.09776 1.67883,1.859506 2.379353,2.174409 0.06942,-0.52425 0.393075,-1.247294 0.198223,-2.423047 -0.03982,-0.242774 -0.175973,-0.958781 -1.043705,-1.846021 z"
     fill="#f9db2f"
     id="path136"
     style="stroke-width:0.628788" />
  <g
     opacity="0.6"
     id="g140"
     transform="matrix(0.67422847,0,0,0.58641033,-7.1109575,-11.848819)">
    <path
       d="m 174.731,34.9468 c 1.187,1.1688 1.446,1.1463 1.965,1.4388 0.199,-0.4584 0.408,-1.6013 0.239,-2.6414 -0.2,-1.2283 -0.06,-0.7733 -0.569,-1.9488 -0.656,-1.5172 -2.314,-2.4638 -3.221,-2.835 -0.02,0.7542 -0.329,1.8188 0.06,3.4718 0.08,0.3418 0.339,1.3459 1.526,2.5146 z"
       fill="#f7db32"
       id="path137" />
    <path
       d="m 175.521,39.0123 c 1.249,-1.1015 1.245,-1.3618 1.573,-1.8585 -0.443,-0.2312 -1.568,-0.52 -2.618,-0.4248 -1.239,0.1124 -0.775,0.0052 -1.984,0.4298 -1.559,0.548 -2.62,2.1345 -3.055,3.0137 0.751,0.073 1.791,0.4564 3.468,0.1848 0.346,-0.0561 1.366,-0.2434 2.616,-1.345 z"
       fill="#f7db32"
       id="path138" />
    <path
       d="m 178.775,34.6025 c -0.75,1.487 -0.65,1.7271 -0.77,2.3103 0.497,0.0499 1.649,-0.1002 2.588,-0.5787 1.109,-0.5649 0.718,-0.2931 1.682,-1.1364 1.245,-1.0884 1.64,-2.9556 1.717,-3.9332 -0.725,0.2113 -1.833,0.2419 -3.288,1.1171 -0.301,0.1809 -1.178,0.7338 -1.929,2.2209 z"
       fill="#f7db32"
       id="path139" />
    <path
       d="m 179.804,38.2533 c -1.513,-0.696 -1.749,-0.5868 -2.336,-0.6857 -0.032,0.4989 0.16,1.6447 0.672,2.5656 0.605,1.0874 0.319,0.7069 1.197,1.6397 1.133,1.204 3.013,1.5312 3.993,1.572 -0.238,-0.7161 -0.309,-1.8224 -1.236,-3.2449 -0.192,-0.2942 -0.776,-1.1506 -2.29,-1.8467 z"
       fill="#f7db32"
       id="path140" />
  </g>
  <g
     opacity="0.1"
     id="g144"
     transform="matrix(0.67422847,0,0,0.58641033,-7.1109575,-11.848819)">
    <path
       d="m 180.746,287.982 c 0.16,0.659 0.255,0.707 0.372,0.919 0.167,-0.116 0.484,-0.467 0.648,-0.863 0.194,-0.468 0.145,-0.281 0.221,-0.797 0.097,-0.666 -0.274,-1.348 -0.508,-1.671 -0.169,0.257 -0.504,0.559 -0.723,1.215 -0.045,0.135 -0.171,0.538 -0.01,1.197 z"
       fill="#73c5e7"
       id="path141" />
    <path
       d="m 180.148,289.559 c 0.669,-0.114 0.723,-0.205 0.943,-0.307 -0.104,-0.175 -0.432,-0.516 -0.815,-0.707 -0.453,-0.227 -0.27,-0.165 -0.779,-0.277 -0.657,-0.144 -1.364,0.178 -1.703,0.389 0.244,0.187 0.522,0.542 1.161,0.807 0.132,0.055 0.525,0.208 1.193,0.095 z"
       fill="#73c5e7"
       id="path142" />
    <path
       d="m 182.219,288.729 c -0.578,0.354 -0.595,0.459 -0.761,0.635 0.161,0.124 0.592,0.318 1.02,0.354 0.504,0.042 0.311,0.052 0.825,-0.033 0.664,-0.111 1.201,-0.672 1.437,-0.994 -0.296,-0.082 -0.686,-0.309 -1.378,-0.318 -0.143,-0.002 -0.565,0.002 -1.143,0.356 z"
       fill="#73c5e7"
       id="path143" />
    <path
       d="m 181.794,290.213 c -0.375,-0.565 -0.48,-0.578 -0.662,-0.737 -0.118,0.165 -0.297,0.603 -0.317,1.032 -0.023,0.506 -0.041,0.313 0.063,0.824 0.135,0.659 0.715,1.175 1.046,1.399 0.071,-0.299 0.283,-0.697 0.267,-1.388 -0.003,-0.143 -0.022,-0.565 -0.397,-1.13 z"
       fill="#73c5e7"
       id="path144" />
  </g>
  <g
     opacity="0.8"
     id="g148"
     transform="matrix(0.67422847,0,0,0.58641033,-7.1109575,-11.848819)">
    <path
       d="m 122.439,115.275 c 1.671,3.571 2.265,3.735 3.174,4.811 0.82,-0.853 2.225,-3.216 2.707,-5.663 0.569,-2.889 0.504,-1.765 0.343,-4.792 -0.206,-3.906 -3.104,-7.371 -4.811,-8.943 -0.666,1.657 -2.228,3.764 -2.727,7.752 -0.103,0.824 -0.356,3.265 1.314,6.835 z"
       fill="#78b956"
       id="path145" />
    <path
       d="m 120.843,124.946 c 3.679,-1.415 3.884,-1.995 5.022,-2.827 -0.793,-0.878 -3.052,-2.445 -5.458,-3.099 -2.842,-0.771 -1.725,-0.627 -4.756,-0.68 -3.911,-0.069 -7.572,2.576 -9.259,4.169 1.605,0.78 3.597,2.488 7.539,3.266 0.816,0.161 3.232,0.585 6.912,-0.829 z"
       fill="#78b956"
       id="path146" />
    <path
       d="m 131.694,117.844 c -2.89,2.68 -2.865,3.296 -3.612,4.49 1.062,0.521 3.742,1.137 6.219,0.849 2.925,-0.34 1.834,-0.059 4.668,-1.136 3.657,-1.389 6.072,-5.206 7.047,-7.312 -1.781,-0.127 -4.265,-0.972 -8.214,-0.23 -0.817,0.154 -3.218,0.658 -6.108,3.339 z"
       fill="#78b956"
       id="path147" />
    <path
       d="m 130.974,126.79 c -2.784,-2.79 -3.398,-2.743 -4.619,-3.446 -0.482,1.081 -1,3.781 -0.622,6.246 0.446,2.91 0.125,1.831 1.304,4.623 1.522,3.604 5.424,5.879 7.564,6.777 0.063,-1.785 0.817,-4.298 -0.069,-8.217 -0.183,-0.811 -0.774,-3.192 -3.558,-5.983 z"
       fill="#78b956"
       id="path148" />
  </g>
  <g
     opacity="0.8"
     id="g152"
     transform="matrix(0.67422847,0,0,0.58641033,-7.1109575,-11.848819)">
    <path
       d="m 102.192,194.988 c 2.228,1.152 2.566,1.022 3.422,1.226 0.023,-0.705 -0.309,-2.354 -1.095,-3.718 -0.928,-1.61 -0.496,-1.039 -1.813,-2.458 -1.699,-1.833 -4.4428,-2.5 -5.8662,-2.664 0.378,1.043 0.5325,2.623 1.9443,4.744 0.292,0.438 1.1798,1.718 3.4079,2.87 z"
       fill="#4aa4b8"
       id="path149" />
    <path
       d="m 105.439,200.27 c 1.094,-1.989 0.949,-2.345 1.125,-3.152 -0.722,-0.148 -2.395,-0.116 -3.759,0.416 -1.611,0.627 -1.043,0.303 -2.445,1.346 -1.81,1.348 -2.3896,3.931 -2.5035,5.303 1.052,-0.186 2.6605,-0.056 4.7755,-1.069 0.438,-0.209 1.713,-0.855 2.807,-2.844 z"
       fill="#4aa4b8"
       id="path150" />
    <path
       d="m 107.461,192.974 c -0.214,2.328 0.05,2.62 0.201,3.466 0.698,-0.121 2.171,-0.767 3.18,-1.782 1.192,-1.198 0.812,-0.676 1.659,-2.201 1.094,-1.969 0.625,-4.684 0.204,-6.055 -0.864,0.566 -2.342,1.031 -3.835,2.788 -0.309,0.363 -1.195,1.457 -1.409,3.784 z"
       fill="#4aa4b8"
       id="path151" />
    <path
       d="m 110.81,197.593 c -2.415,-0.378 -2.675,-0.138 -3.52,-0.05 0.225,0.697 1.099,2.197 2.284,3.266 1.399,1.262 0.809,0.849 2.494,1.795 2.174,1.22 4.886,0.952 6.229,0.635 -0.704,-0.893 -1.394,-2.385 -3.408,-3.984 -0.417,-0.331 -1.665,-1.284 -4.079,-1.662 z"
       fill="#4aa4b8"
       id="path152" />
  </g>
  <path
     d="m 28.065692,78.232016 c 0.606268,1.97503 0.937588,2.112836 1.35878,2.744987 0.570598,-0.360643 1.642548,-1.439051 2.181804,-2.644125 0.636735,-1.423218 0.480788,-0.854986 0.703895,-2.414839 0.287895,-2.013146 -1.049437,-4.046231 -1.887102,-5.003839 -0.56413,0.785204 -1.702091,1.718769 -2.412454,3.708459 -0.146918,0.411661 -0.551181,1.634326 0.05509,3.609357 z"
     fill="#73c5e7"
     id="path153"
     style="stroke-width:0.628788" />
  <path
     d="m 26.114074,83.023579 c 2.307747,-0.387035 2.489052,-0.664408 3.243776,-0.985758 -0.373185,-0.520146 -1.534543,-1.526428 -2.878681,-2.078827 -1.587134,-0.652675 -0.946617,-0.477337 -2.719775,-0.781098 -2.288531,-0.391722 -4.714331,0.625113 -5.871719,1.284239 0.860653,0.544775 1.850832,1.597965 4.083128,2.35444 0.46171,0.156571 1.835587,0.593448 4.143271,0.207004 z"
     fill="#73c5e7"
     id="path154"
     style="stroke-width:0.628788" />
  <path
     d="m 33.227184,80.386487 c -1.977175,1.105386 -2.026794,1.421461 -2.590386,1.963306 0.568913,0.362394 2.076961,0.921243 3.561075,0.999829 1.75232,0.09326 1.082811,0.137215 2.858655,-0.154229 2.29204,-0.375886 4.109423,-2.104036 4.902252,-3.090382 -1.031843,-0.227528 -2.401064,-0.884894 -4.796798,-0.866128 -0.495495,0.0046 -1.957686,0.04278 -3.934798,1.147604 z"
     fill="#73c5e7"
     id="path155"
     style="stroke-width:0.628788" />
  <path
     d="m 31.866591,84.88836 c -1.341578,-1.678305 -1.70701,-1.709971 -2.350023,-2.180276 -0.395909,0.507836 -0.982825,1.838986 -1.019296,3.131436 -0.04298,1.52642 -0.118264,0.94647 0.281153,2.47934 0.515511,1.97854 2.567388,3.49501 3.729221,4.14827 0.223981,-0.90483 0.929761,-2.11929 0.820536,-4.20046 -0.02254,-0.43101 -0.119939,-1.70001 -1.461591,-3.37831 z"
     fill="#73c5e7"
     id="path156"
     style="stroke-width:0.628788" />
  <path
     d="m 40.227636,53.242726 c -1.549314,0.998071 -1.933087,2.754956 -1.933087,2.754956 0,0 -1.015989,2.017838 0.296997,3.212355 1.501444,1.366335 1.931939,1.113007 3.226047,1.764509 1.074857,0.541842 2.809846,1.319423 2.809846,1.319423 0,0 1.471842,0.369438 2.423178,1.870063 0.95141,1.500623 2.765285,1.512351 2.765285,1.512351 0,0 2.066573,0.04159 0.565067,-1.324701 -0.651432,-0.592274 -2.051604,-1.230875 -3.136848,-2.151539 -1.085234,-0.920078 -1.363628,-1.104211 -0.698627,-1.471304 0.594732,-0.327803 3.449215,0.797519 3.449215,0.797519 l 4.073547,1.466025 c 0,0 1.513644,0.828011 2.482847,0.486134 0.847505,-0.298482 0.267736,-1.160506 0.267736,-1.160506 0,0 -0.416201,-0.445672 -1.932675,-0.621595 -1.516467,-0.175922 -3.612717,-1.213283 -4.579086,-1.52408 -0.96637,-0.310798 -0.201796,-1.275442 0.728641,-0.908936 0.713596,0.281477 1.825873,0.808074 3.910046,1.049674 1.263706,0.146603 1.129872,0.72715 3.35995,1.18455 0.304077,0.06212 0.551856,0.05039 0.847506,-0.299069 0.38822,-0.45916 -0.10909,-1.008041 -0.490502,-1.248468 -1.017816,-0.642119 -3.151816,-0.961714 -3.151816,-0.961714 -1.21914,-0.340116 -3.493846,-0.604001 -3.493846,-0.604001 -1.787179,-0.20759 -1.679976,-0.592275 -1.679976,-0.592275 0,0 0.133897,-0.579959 1.650374,-0.404037 l 5.054891,0.586411 c 2.021944,0.234564 1.97731,0.42808 2.572114,0.09969 0.594737,-0.328389 0.625549,-0.747087 0.223102,-0.96699 -0.460903,-0.252157 -2.438212,-0.680236 -3.241084,-0.574683 -0.5677,0.07449 -4.341281,-0.305519 -6.11053,-0.510763 -1.769176,-0.205244 -1.724539,-0.398759 -2.646347,-0.902486 -0.921734,-0.504312 -0.864761,-2.189656 -1.694536,-2.778999 -1.338007,-0.949397 -3.285715,-0.381166 -3.285715,-0.381166 0,0 -0.80287,0.105554 -2.631714,1.283652 z"
     fill="#0a0b0b"
     id="path157"
     style="stroke-width:0.628788" />
  <path
     d="m 49.502386,49.3214 c -1.22521,0.811006 -2.245245,1.858334 -2.602122,2.279963 0.208073,0.223423 2.325351,-0.405209 3.003351,-0.644465 0.847442,-0.299069 0.883113,-0.453294 1.730618,-0.752364 1.650374,-0.404623 0.15777,-1.809076 -0.392337,-1.674202 -1.100204,0.26975 -0.514374,-0.01998 -1.73951,0.791068 z"
     fill="#0a0b0b"
     id="path158"
     style="stroke-width:0.628788" />
  <path
     d="m 25.462698,190.64661 h 6.65998 v 16.206 h 8.620999 v 4.884 h -15.280979 z m 25.551679,21.571 c -2.96,0 -5.18,-0.691 -6.66,-2.072 -1.4553,-1.406 -2.183,-3.614 -2.183,-6.623 0,-1.653 0.148,-3.096 0.444,-4.329 0.3207,-1.258 0.703,-2.134 1.147,-2.627 0.5673,-0.642 1.6033,-1.172 3.108,-1.591 1.5293,-0.42 2.96,-0.629 4.292,-0.629 3.182,0 5.4513,0.678 6.808,2.035 1.3567,1.356 2.035,3.527 2.035,6.512 0,3.206 -0.7277,5.562 -2.183,7.067 -1.4553,1.504 -3.7247,2.257 -6.808,2.257 z m 0.111,-4.329 c 0.962,0 1.591,-0.333 1.887,-0.999 0.296,-0.691 0.444,-1.9 0.444,-3.626 0,-1.209 -0.0617,-2.134 -0.185,-2.775 -0.1233,-0.666 -0.3577,-1.147 -0.703,-1.443 -0.3207,-0.321 -0.8263,-0.481 -1.517,-0.481 -0.9867,0 -1.554,0.086 -1.702,0.259 -0.1973,0.172 -0.3577,0.715 -0.481,1.628 -0.1233,0.912 -0.185,1.862 -0.185,2.849 0,1.677 0.1603,2.861 0.481,3.552 0.3453,0.69 0.999,1.036 1.961,1.036 z m 21.8401,-13.542 c 0.3207,0 0.6537,0.037 0.999,0.111 0.37,0.074 0.6414,0.16 0.814,0.259 0,0.542 -0.0616,1.443 -0.185,2.701 -0.1233,1.233 -0.2343,2.109 -0.333,2.627 -0.2466,-0.025 -0.703,-0.037 -1.369,-0.037 -1.554,0 -2.9353,0.086 -4.144,0.259 v 11.47 h -6.327 v -17.02 h 5.291 l 0.74,2.738 h 0.037 c 0.7154,-0.938 1.48,-1.69 2.294,-2.257 0.814,-0.568 1.5417,-0.851 2.183,-0.851 z m 13.7975,12.95 c 0.6167,0 1.7637,-0.062 3.441,-0.185 0.222,0 0.629,-0.025 1.221,-0.074 l 0.555,3.811 c -1.8993,0.888 -4.366,1.332 -7.4,1.332 -2.8366,0 -5.0196,-0.716 -6.549,-2.146 -1.5046,-1.431 -2.257,-3.589 -2.257,-6.475 0,-1.48 0.185,-2.911 0.555,-4.292 0.3947,-1.382 0.8387,-2.344 1.332,-2.886 0.518,-0.543 1.48,-1.012 2.886,-1.406 1.406,-0.395 2.7997,-0.592 4.181,-0.592 2.22,0 3.885,0.394 4.995,1.184 1.11,0.789 1.8377,1.887 2.183,3.293 0.3454,1.381 0.518,3.243 0.518,5.587 -1.6773,0.098 -3.3176,0.148 -4.921,0.148 h -5.254 c 0,0.789 0.1604,1.381 0.481,1.776 0.3454,0.394 0.8264,0.653 1.443,0.777 0.6167,0.098 1.48,0.148 2.59,0.148 z m -4.144,-8.51 c -0.148,0.074 -0.259,0.394 -0.333,0.962 -0.074,0.567 -0.1233,1.208 -0.148,1.924 h 1.924 c 1.1594,0 1.998,-0.013 2.516,-0.037 0,-1.184 -0.1726,-2.023 -0.518,-2.516 -0.3206,-0.494 -0.888,-0.74 -1.702,-0.74 -0.666,0 -1.2456,0.135 -1.739,0.407 z m 28.497003,-2.997 c 0.222,0.271 0.3823,0.949 0.481,2.035 0.1233,1.085 0.185,2.738 0.185,4.958 v 8.954 h -6.327 v -8.88 -1.517 c 0,-0.79 -0.0617,-1.283 -0.185,-1.48 -0.1973,-0.247 -0.6537,-0.37 -1.369,-0.37 -0.3453,0 -0.6043,0.012 -0.777,0.037 -0.6907,0.024 -1.406,0.185 -2.146,0.481 v 11.729 h -6.327003 v -17.02 h 5.143 l 0.703003,2.849 c 1.776,-2.146 3.8973,-3.219 6.364,-3.219 0.888,0 1.7143,0.123 2.479,0.37 0.7893,0.246 1.3813,0.604 1.776,1.073 z m 13.9112,11.507 c 0.617,0 1.764,-0.062 3.441,-0.185 0.222,0 0.629,-0.025 1.221,-0.074 l 0.555,3.811 c -1.899,0.888 -4.366,1.332 -7.4,1.332 -2.836,0 -5.019,-0.716 -6.5485,-2.146 -1.5047,-1.431 -2.257,-3.589 -2.257,-6.475 0,-1.48 0.185,-2.911 0.555,-4.292 0.3947,-1.382 0.8387,-2.344 1.332,-2.886 0.518,-0.543 1.48,-1.012 2.8855,-1.406 1.406,-0.395 2.8,-0.592 4.181,-0.592 2.22,0 3.885,0.394 4.995,1.184 1.11,0.789 1.838,1.887 2.183,3.293 0.346,1.381 0.518,3.243 0.518,5.587 -1.677,0.098 -3.317,0.148 -4.921,0.148 h -5.254 c 0,0.789 0.161,1.381 0.481,1.776 0.346,0.394 0.827,0.653 1.443,0.777 0.617,0.098 1.48,0.148 2.59,0.148 z m -4.144,-8.51 c -0.148,0.074 -0.259,0.394 -0.333,0.962 -0.074,0.567 -0.123,1.208 -0.148,1.924 h 1.924 c 1.16,0 1.998,-0.013 2.516,-0.037 0,-1.184 -0.172,-2.023 -0.518,-2.516 -0.32,-0.494 -0.888,-0.74 -1.702,-0.74 -0.666,0 -1.245,0.135 -1.739,0.407 z m 31.361,7.178 c 0,2.195 -0.703,3.774 -2.109,4.736 -1.381,0.962 -3.355,1.443 -5.92,1.443 -1.801,0 -3.873,-0.259 -6.216,-0.777 0.049,-0.494 0.16,-1.197 0.333,-2.109 0.197,-0.938 0.358,-1.653 0.481,-2.146 0.888,0.148 1.875,0.271 2.96,0.37 1.085,0.074 2.01,0.111 2.775,0.111 0.666,0 1.073,-0.037 1.221,-0.111 0.025,-0.025 0.049,-0.087 0.074,-0.185 0.049,-0.124 0.074,-0.247 0.074,-0.37 0,-0.494 -0.308,-0.827 -0.925,-0.999 -0.197,-0.05 -0.95,-0.259 -2.257,-0.629 -1.307,-0.37 -2.38,-1.036 -3.219,-1.998 -0.814,-0.987 -1.221,-2.208 -1.221,-3.663 0,-0.765 0.173,-1.616 0.518,-2.553 0.345,-0.938 0.715,-1.53 1.11,-1.776 0.296,-0.198 1.011,-0.395 2.146,-0.592 1.135,-0.222 2.183,-0.333 3.145,-0.333 2.047,0 4.107,0.148 6.179,0.444 0,0.444 -0.062,1.196 -0.185,2.257 -0.123,1.036 -0.234,1.689 -0.333,1.961 -2.097,-0.272 -3.786,-0.407 -5.069,-0.407 -0.666,0 -1.098,0.037 -1.295,0.111 -0.049,0.024 -0.099,0.098 -0.148,0.222 -0.049,0.098 -0.074,0.234 -0.074,0.407 0,0.345 0.111,0.592 0.333,0.74 0.222,0.172 0.802,0.382 1.739,0.629 1.11,0.32 2.06,0.653 2.849,0.999 0.814,0.345 1.517,0.863 2.109,1.554 0.617,0.69 0.925,1.578 0.925,2.664 z m 8.033,-15.318 h 6.697 v 7.733 h 5.735 v -7.733 h 6.697 v 21.09 h -6.697 v -9.102 h -5.735 v 9.102 h -6.697 z m 30.752,21.571 c -2.96,0 -5.18,-0.691 -6.66,-2.072 -1.455,-1.406 -2.183,-3.614 -2.183,-6.623 0,-1.653 0.148,-3.096 0.444,-4.329 0.321,-1.258 0.703,-2.134 1.147,-2.627 0.567,-0.642 1.603,-1.172 3.108,-1.591 1.529,-0.42 2.96,-0.629 4.292,-0.629 3.182,0 5.451,0.678 6.808,2.035 1.357,1.356 2.035,3.527 2.035,6.512 0,3.206 -0.728,5.562 -2.183,7.067 -1.455,1.504 -3.725,2.257 -6.808,2.257 z m 0.111,-4.329 c 0.962,0 1.591,-0.333 1.887,-0.999 0.296,-0.691 0.444,-1.9 0.444,-3.626 0,-1.209 -0.062,-2.134 -0.185,-2.775 -0.123,-0.666 -0.358,-1.147 -0.703,-1.443 -0.321,-0.321 -0.826,-0.481 -1.517,-0.481 -0.987,0 -1.554,0.086 -1.702,0.259 -0.197,0.172 -0.358,0.715 -0.481,1.628 -0.123,0.912 -0.185,1.862 -0.185,2.849 0,1.677 0.16,2.861 0.481,3.552 0.345,0.69 0.999,1.036 1.961,1.036 z m 28.315,-13.172 v 17.02 h -5.143 l -0.703,-2.849 c -1.776,2.146 -3.897,3.219 -6.364,3.219 -0.888,0 -1.727,-0.124 -2.516,-0.37 -0.765,-0.247 -1.344,-0.605 -1.739,-1.073 -0.222,-0.272 -0.395,-0.95 -0.518,-2.035 -0.099,-1.086 -0.148,-2.738 -0.148,-4.958 v -8.954 h 6.327 v 8.88 c 0,0.493 0.012,1.073 0.037,1.739 0.025,0.666 0.099,1.085 0.222,1.258 0.173,0.246 0.666,0.37 1.48,0.37 l 0.592,-0.037 c 0.691,-0.025 1.406,-0.185 2.146,-0.481 v -11.729 z m 16.798,11.248 c 0,2.195 -0.703,3.774 -2.109,4.736 -1.382,0.962 -3.355,1.443 -5.92,1.443 -1.801,0 -3.873,-0.259 -6.216,-0.777 0.049,-0.494 0.16,-1.197 0.333,-2.109 0.197,-0.938 0.357,-1.653 0.481,-2.146 0.888,0.148 1.874,0.271 2.96,0.37 1.085,0.074 2.01,0.111 2.775,0.111 0.666,0 1.073,-0.037 1.221,-0.111 0.024,-0.025 0.049,-0.087 0.074,-0.185 0.049,-0.124 0.074,-0.247 0.074,-0.37 0,-0.494 -0.309,-0.827 -0.925,-0.999 -0.198,-0.05 -0.95,-0.259 -2.257,-0.629 -1.308,-0.37 -2.381,-1.036 -3.219,-1.998 -0.814,-0.987 -1.221,-2.208 -1.221,-3.663 0,-0.765 0.172,-1.616 0.518,-2.553 0.345,-0.938 0.715,-1.53 1.11,-1.776 0.296,-0.198 1.011,-0.395 2.146,-0.592 1.134,-0.222 2.183,-0.333 3.145,-0.333 2.047,0 4.107,0.148 6.179,0.444 0,0.444 -0.062,1.196 -0.185,2.257 -0.124,1.036 -0.235,1.689 -0.333,1.961 -2.097,-0.272 -3.787,-0.407 -5.069,-0.407 -0.666,0 -1.098,0.037 -1.295,0.111 -0.05,0.024 -0.099,0.098 -0.148,0.222 -0.05,0.098 -0.074,0.234 -0.074,0.407 0,0.345 0.111,0.592 0.333,0.74 0.222,0.172 0.801,0.382 1.739,0.629 1.11,0.32 2.059,0.653 2.849,0.999 0.814,0.345 1.517,0.863 2.109,1.554 0.616,0.69 0.925,1.578 0.925,2.664 z m 12.421,1.332 c 0.617,0 1.764,-0.062 3.441,-0.185 0.222,0 0.629,-0.025 1.221,-0.074 l 0.555,3.811 c -1.899,0.888 -4.366,1.332 -7.4,1.332 -2.837,0 -5.02,-0.716 -6.549,-2.146 -1.505,-1.431 -2.257,-3.589 -2.257,-6.475 0,-1.48 0.185,-2.911 0.555,-4.292 0.395,-1.382 0.839,-2.344 1.332,-2.886 0.518,-0.543 1.48,-1.012 2.886,-1.406 1.406,-0.395 2.8,-0.592 4.181,-0.592 2.22,0 3.885,0.394 4.995,1.184 1.11,0.789 1.838,1.887 2.183,3.293 0.345,1.381 0.518,3.243 0.518,5.587 -1.677,0.098 -3.318,0.148 -4.921,0.148 h -5.254 c 0,0.789 0.16,1.381 0.481,1.776 0.345,0.394 0.826,0.653 1.443,0.777 0.617,0.098 1.48,0.148 2.59,0.148 z m -4.144,-8.51 c -0.148,0.074 -0.259,0.394 -0.333,0.962 -0.074,0.567 -0.123,1.208 -0.148,1.924 h 1.924 c 1.159,0 1.998,-0.013 2.516,-0.037 0,-1.184 -0.173,-2.023 -0.518,-2.516 -0.321,-0.494 -0.888,-0.74 -1.702,-0.74 -0.666,0 -1.246,0.135 -1.739,0.407 z"
     fill="#1792c5"
     id="path159"
     clip-path="url(#clipPath161)"
     transform="matrix(1.5831757,0,0,1.9017748,-93.77879,-264.93627)" />
</svg>
