<?xml version="1.0" encoding="UTF-8" standalone="no"?>
<svg
   width="228.87248"
   height="323.08731"
   viewBox="0 0 228.87248 323.08731"
   fill="none"
   version="1.1"
   id="svg158"
   sodipodidocname="Lorenes-House.svg"
   inkscapeversion="1.3 (1:1.3+202307231459+0e150ed6c4)"
   xmlnsinkscape="http://www.inkscape.org/namespaces/inkscape"
   xmlnssodipodi="http://sodipodi.sourceforge.net/DTD/sodipodi-0.dtd"
   xmlns="http://www.w3.org/2000/svg"
   xmlnssvg="http://www.w3.org/2000/svg">
  <defs
     id="defs158" />
  <sodipodinamedview
     id="namedview158"
     pagecolor="#ffffff"
     bordercolor="#666666"
     borderopacity="1.0"
     inkscapeshowpageshadow="2"
     inkscapepageopacity="0.0"
     inkscapepagecheckerboard="0"
     inkscapedeskcolor="#d1d1d1"
     inkscapezoom="2.2783784"
     inkscapecx="141.54804"
     inkscapecy="164.8102"
     inkscapewindow-width="1920"
     inkscapewindow-height="1043"
     inkscapewindow-x="0"
     inkscapewindow-y="0"
     inkscapewindow-maximized="1"
     inkscapecurrent-layer="svg158" />
  <path
     d="m 74.51638,211.26532 c 1.3134,2.47 1.4114,3.382 1.2961,3.529 0.3457,-0.324 1.4517,-1.147 3.1108,-1.853 2.0737,-0.882 2.9379,-1.059 3.7155,-2.206 0.6913,-0.794 0.6049,-3.529 -1.7282,-4.323 -0.836,-0.285 -1.9873,0.441 -2.4194,0.794 -0.144,-0.294 -0.5184,-1.941 -2.5058,-2.383 0,0 -1.2962,-0.264 -2.3331,0.795 -1.0809,1.103 -0.7776,2.558 0.8641,5.647 z"
     fill="#78b956"
     id="path1" />
  <path
     opacity="0.8"
     d="m 182.94148,92.29432 c -0.352,-1.469 -0.91,-2.106 -1.404,-2.88 -0.639,-1.001 -1.178,-1.684 -1.178,-1.684 0,0 -1.574,-1.66 -3.798,-2.426 -0.714,-0.246 -1.435,-0.283 -2.386,-0.262 -1.92,0.041 -3.84,1.873 -3.84,1.873 0,0 -1.693,2.133 -1.726,5.477 -0.019,1.91 1.414,1.925 1.414,1.925 0,0 3.178,0.668 4.772,0.524 0.478,0.005 0.007,-0.716 0.007,-0.716 0,0 -0.637,-1.334 0.026,-2.627 0.243,-0.476 1.442,-0.942 1.442,-0.942 0,0 1.253,-0.3 1.909,0.258 1.421,1.208 1.416,1.686 1.416,1.686 0,0 0.393,1.937 -0.264,2.625 -0.433,0.452 -0.722,0.471 -1.441,0.702 l 2.354,3.607 c 0.159,0.001 0.67,-0.137 1.44,-0.703 0.962,-0.707 1.362,-1.897 1.459,-2.613 0.257,-1.908 0.028,-2.866 -0.202,-3.824 z"
     fill="#000000"
     id="path2" />
  <path
     d="m 177.18548,39.66502 c 0,0 -0.081,0.6465 -0.599,2.6826 -0.119,0.4679 -0.437,1.3898 -0.437,1.3898 l -16.661,-4.3213 0.777,-3.0543 2.682,0.599 c -0.5,-0.5443 -2.169,-2.9422 -2.196,-4.4776 -0.047,-2.7636 0.113,-4.6212 2.572,-5.8495 2.101,-1.0498 5.496,-1.4802 7.919,-0.3204 2.974,1.4233 4.079,2.8871 4.96,4.4301 1.292,2.2631 0.65,5.6407 0.111,6.4486 z"
     fill="#dc4c68"
     id="path3" />
  <path
     d="m 70.78428,211.30732 c 0,0 0.0078,0.534 -0.1809,2.246 -0.0434,0.393 -0.1966,1.178 -0.1966,1.178 l -14.0182,-1.612 0.2831,-2.568 2.2461,0.181 c -0.4685,-0.385 -2.0965,-2.142 -2.2927,-3.386 -0.3531,-2.238 -0.4344,-3.764 1.4221,-5.041 1.5866,-1.092 4.2939,-1.828 6.393,-1.162 2.5758,0.817 3.6402,1.88 4.531,3.032 1.3065,1.691 1.1695,4.506 0.8238,5.223 z"
     fill="#f9d949"
     id="path4" />
  <path
     d="m 158.93548,61.26932 c 0,0 0.653,0.3322 2.607,1.6561 0.449,0.3042 1.302,0.9915 1.302,0.9915 l -10.947,15.9174 -2.931,-1.9856 1.66,-2.6 c -0.767,0.3202 -3.941,1.1644 -5.574,0.6058 -2.94,-1.0055 -4.842,-1.8839 -5.199,-4.9458 -0.305,-2.6167 0.539,-6.361 2.693,-8.4728 2.643,-2.5914 4.614,-3.1984 6.582,-3.538 2.887,-0.498 6.212,1.4693 6.859,2.3462 z"
     fill="#78b956"
     id="path5" />
  <path
     d="m 184.31348,70.23272 -2.044,-3.4427 -0.356,-0.3193 -15.619,5.2315 -0.301,0.6926 1.192,3.3191 c 0.337,-0.0181 1.015,0.0134 1.03,0.2832 0.018,0.3373 -0.248,1.7046 0.002,3.2135 0.25,1.5087 1.147,3.0937 2.559,3.5847 1.62,0.562 3.232,0.334 4.9,-0.093 1.197,-0.306 2.982,-1.174 4.401,-3.1101 1.578,-2.1541 1.648,-3.9781 1.576,-5.3274 -0.058,-1.0794 -0.664,-1.8814 -0.96,-2.1475 z"
     fill="#63a2b5"
     id="path6" />
  <path
     opacity="0.8"
     d="m 157.55048,155.47132 -5.624,-0.419 -0.659,0.146 -6.975,21.546 0.54,0.88 4.777,1.274 c 0.259,-0.39 0.857,-1.123 1.177,-0.927 0.4,0.244 1.74,1.614 3.669,2.519 1.929,0.906 4.482,1.149 6.213,-0.044 1.984,-1.368 3.06,-3.345 3.955,-5.544 0.643,-1.577 1.132,-4.25 0.098,-7.354 -1.15,-3.454 -3.174,-4.963 -4.774,-5.942 -1.28,-0.783 -2.698,-0.735 -3.247,-0.613 z"
     fill="#3f8da5"
     id="path7" />
  <path
     opacity="0.8"
     d="m 98.71548,109.97832 -6.9179,-2.202 -0.8671,-0.007 -14.9604,25.586 0.4225,1.289 5.6102,3.048 c 0.4372,-0.424 1.3976,-1.188 1.7415,-0.842 0.4299,0.432 1.7121,2.586 3.8651,4.319 2.153,1.733 5.2781,2.799 7.7891,1.781 2.879,-1.168 4.798,-3.388 6.554,-5.944 1.26,-1.834 2.645,-5.12 2.249,-9.409 -0.442,-4.772 -2.539,-7.308 -4.259,-9.037 -1.375,-1.383 -3.164,-1.741 -3.887,-1.747 z"
     fill="#73c5e7"
     id="path8" />
  <path
     d="m 79.39138,227.80832 -1.0648,-6.011 -0.3352,-0.647 -25.0974,-0.938 -0.8023,0.826 -0.0846,5.377 c 0.4909,0.155 1.4415,0.565 1.317,0.958 -0.1558,0.491 -1.2696,2.299 -1.725,4.586 -0.4553,2.287 -0.0285,5.03 1.7234,6.49 2.0089,1.673 4.43,2.216 7.0403,2.503 1.8723,0.207 4.8854,-0.071 7.951,-2.07 3.4105,-2.224 4.491,-4.789 5.1139,-6.753 0.4984,-1.571 0.0643,-3.041 -0.215,-3.58 z"
     fill="#73c5e7"
     id="path9" />
  <path
     d="m 70.90158,273.86532 -1.0667,4.622 0.0431,0.565 17.6612,8.303 0.825,-0.347 1.6955,-3.819 c -0.3036,-0.26 -0.8589,-0.842 -0.6503,-1.085 0.2606,-0.304 1.6069,-1.258 2.6281,-2.755 1.021,-1.497 1.55,-3.589 0.741,-5.165 -0.9272,-1.807 -2.4935,-2.931 -4.2725,-3.931 -1.2761,-0.717 -3.5151,-1.435 -6.3152,-0.938 -3.1151,0.553 -4.6678,2.059 -5.7104,3.274 -0.8341,0.971 -0.9709,2.155 -0.9351,2.625 z"
     fill="#78b956"
     id="path10" />
  <path
     d="m 0,301.51632 h 6.65998 v 16.206 h 8.621 v 4.884 h -15.28098 z m 25.55168,21.571 c -2.96,0 -5.18,-0.691 -6.66,-2.072 -1.4553,-1.406 -2.183,-3.614 -2.183,-6.623 0,-1.653 0.148,-3.096 0.444,-4.329 0.3207,-1.258 0.703,-2.134 1.147,-2.627 0.5673,-0.642 1.6033,-1.172 3.108,-1.591 1.5293,-0.42 2.96,-0.629 4.292,-0.629 3.182,0 5.4513,0.678 6.808,2.035 1.3567,1.356 2.035,3.527 2.035,6.512 0,3.206 -0.7277,5.562 -2.183,7.067 -1.4553,1.504 -3.7247,2.257 -6.808,2.257 z m 0.111,-4.329 c 0.962,0 1.591,-0.333 1.887,-0.999 0.296,-0.691 0.444,-1.9 0.444,-3.626 0,-1.209 -0.0617,-2.134 -0.185,-2.775 -0.1233,-0.666 -0.3577,-1.147 -0.703,-1.443 -0.3207,-0.321 -0.8263,-0.481 -1.517,-0.481 -0.9867,0 -1.554,0.086 -1.702,0.259 -0.1973,0.172 -0.3577,0.715 -0.481,1.628 -0.1233,0.912 -0.185,1.862 -0.185,2.849 0,1.677 0.1603,2.861 0.481,3.552 0.3453,0.69 0.999,1.036 1.961,1.036 z m 21.8401,-13.542 c 0.3207,0 0.6537,0.037 0.999,0.111 0.37,0.074 0.6414,0.16 0.814,0.259 0,0.542 -0.0616,1.443 -0.185,2.701 -0.1233,1.233 -0.2343,2.109 -0.333,2.627 -0.2466,-0.025 -0.703,-0.037 -1.369,-0.037 -1.554,0 -2.9353,0.086 -4.144,0.259 v 11.47 h -6.327 v -17.02 h 5.291 l 0.74,2.738 h 0.037 c 0.7154,-0.938 1.48,-1.69 2.294,-2.257 0.814,-0.568 1.5417,-0.851 2.183,-0.851 z m 13.7975,12.95 c 0.6167,0 1.7637,-0.062 3.441,-0.185 0.222,0 0.629,-0.025 1.221,-0.074 l 0.555,3.811 c -1.8993,0.888 -4.366,1.332 -7.4,1.332 -2.8366,0 -5.0196,-0.716 -6.549,-2.146 -1.5046,-1.431 -2.257,-3.589 -2.257,-6.475 0,-1.48 0.185,-2.911 0.555,-4.292 0.3947,-1.382 0.8387,-2.344 1.332,-2.886 0.518,-0.543 1.48,-1.012 2.886,-1.406 1.406,-0.395 2.7997,-0.592 4.181,-0.592 2.22,0 3.885,0.394 4.995,1.184 1.11,0.789 1.8377,1.887 2.183,3.293 0.3454,1.381 0.518,3.243 0.518,5.587 -1.6773,0.098 -3.3176,0.148 -4.921,0.148 h -5.254 c 0,0.789 0.1604,1.381 0.481,1.776 0.3454,0.394 0.8264,0.653 1.443,0.777 0.6167,0.098 1.48,0.148 2.59,0.148 z m -4.144,-8.51 c -0.148,0.074 -0.259,0.394 -0.333,0.962 -0.074,0.567 -0.1233,1.208 -0.148,1.924 h 1.924 c 1.1594,0 1.998,-0.013 2.516,-0.037 0,-1.184 -0.1726,-2.023 -0.518,-2.516 -0.3206,-0.494 -0.888,-0.74 -1.702,-0.74 -0.666,0 -1.2456,0.135 -1.739,0.407 z m 28.497,-2.997 c 0.222,0.271 0.3823,0.949 0.481,2.035 0.1233,1.085 0.185,2.738 0.185,4.958 v 8.954 h -6.327 v -8.88 -1.517 c 0,-0.79 -0.0617,-1.283 -0.185,-1.48 -0.1973,-0.247 -0.6537,-0.37 -1.369,-0.37 -0.3453,0 -0.6043,0.012 -0.777,0.037 -0.6907,0.024 -1.406,0.185 -2.146,0.481 v 11.729 h -6.327 v -17.02 h 5.143 l 0.703,2.849 c 1.776,-2.146 3.8973,-3.219 6.364,-3.219 0.888,0 1.7143,0.123 2.479,0.37 0.7893,0.246 1.3813,0.604 1.776,1.073 z m 13.9112,11.507 c 0.617,0 1.764,-0.062 3.441,-0.185 0.222,0 0.629,-0.025 1.221,-0.074 l 0.555,3.811 c -1.899,0.888 -4.366,1.332 -7.4,1.332 -2.836,0 -5.019,-0.716 -6.5485,-2.146 -1.5047,-1.431 -2.257,-3.589 -2.257,-6.475 0,-1.48 0.185,-2.911 0.555,-4.292 0.3947,-1.382 0.8387,-2.344 1.332,-2.886 0.518,-0.543 1.48,-1.012 2.8855,-1.406 1.406,-0.395 2.8,-0.592 4.181,-0.592 2.22,0 3.885,0.394 4.995,1.184 1.11,0.789 1.838,1.887 2.183,3.293 0.346,1.381 0.518,3.243 0.518,5.587 -1.677,0.098 -3.317,0.148 -4.921,0.148 h -5.254 c 0,0.789 0.161,1.381 0.481,1.776 0.346,0.394 0.827,0.653 1.443,0.777 0.617,0.098 1.48,0.148 2.59,0.148 z m -4.144,-8.51 c -0.148,0.074 -0.259,0.394 -0.333,0.962 -0.074,0.567 -0.123,1.208 -0.148,1.924 h 1.924 c 1.16,0 1.998,-0.013 2.516,-0.037 0,-1.184 -0.172,-2.023 -0.518,-2.516 -0.32,-0.494 -0.888,-0.74 -1.702,-0.74 -0.666,0 -1.245,0.135 -1.739,0.407 z m 31.361,7.178 c 0,2.195 -0.703,3.774 -2.109,4.736 -1.381,0.962 -3.355,1.443 -5.92,1.443 -1.801,0 -3.873,-0.259 -6.216,-0.777 0.049,-0.494 0.16,-1.197 0.333,-2.109 0.197,-0.938 0.358,-1.653 0.481,-2.146 0.888,0.148 1.875,0.271 2.96,0.37 1.085,0.074 2.01,0.111 2.775,0.111 0.666,0 1.073,-0.037 1.221,-0.111 0.025,-0.025 0.049,-0.087 0.074,-0.185 0.049,-0.124 0.074,-0.247 0.074,-0.37 0,-0.494 -0.308,-0.827 -0.925,-0.999 -0.197,-0.05 -0.95,-0.259 -2.257,-0.629 -1.307,-0.37 -2.38,-1.036 -3.219,-1.998 -0.814,-0.987 -1.221,-2.208 -1.221,-3.663 0,-0.765 0.173,-1.616 0.518,-2.553 0.345,-0.938 0.715,-1.53 1.11,-1.776 0.296,-0.198 1.011,-0.395 2.146,-0.592 1.135,-0.222 2.183,-0.333 3.145,-0.333 2.047,0 4.107,0.148 6.179,0.444 0,0.444 -0.062,1.196 -0.185,2.257 -0.123,1.036 -0.234,1.689 -0.333,1.961 -2.097,-0.272 -3.786,-0.407 -5.069,-0.407 -0.666,0 -1.098,0.037 -1.295,0.111 -0.049,0.024 -0.099,0.098 -0.148,0.222 -0.049,0.098 -0.074,0.234 -0.074,0.407 0,0.345 0.111,0.592 0.333,0.74 0.222,0.172 0.802,0.382 1.739,0.629 1.11,0.32 2.06,0.653 2.849,0.999 0.814,0.345 1.517,0.863 2.109,1.554 0.617,0.69 0.925,1.578 0.925,2.664 z m 8.033,-15.318 h 6.697 v 7.733 h 5.735 v -7.733 h 6.697 v 21.09 h -6.697 v -9.102 h -5.735 v 9.102 h -6.697 z m 30.752,21.571 c -2.96,0 -5.18,-0.691 -6.66,-2.072 -1.455,-1.406 -2.183,-3.614 -2.183,-6.623 0,-1.653 0.148,-3.096 0.444,-4.329 0.321,-1.258 0.703,-2.134 1.147,-2.627 0.567,-0.642 1.603,-1.172 3.108,-1.591 1.529,-0.42 2.96,-0.629 4.292,-0.629 3.182,0 5.451,0.678 6.808,2.035 1.357,1.356 2.035,3.527 2.035,6.512 0,3.206 -0.728,5.562 -2.183,7.067 -1.455,1.504 -3.725,2.257 -6.808,2.257 z m 0.111,-4.329 c 0.962,0 1.591,-0.333 1.887,-0.999 0.296,-0.691 0.444,-1.9 0.444,-3.626 0,-1.209 -0.062,-2.134 -0.185,-2.775 -0.123,-0.666 -0.358,-1.147 -0.703,-1.443 -0.321,-0.321 -0.826,-0.481 -1.517,-0.481 -0.987,0 -1.554,0.086 -1.702,0.259 -0.197,0.172 -0.358,0.715 -0.481,1.628 -0.123,0.912 -0.185,1.862 -0.185,2.849 0,1.677 0.16,2.861 0.481,3.552 0.345,0.69 0.999,1.036 1.961,1.036 z m 28.315,-13.172 v 17.02 h -5.143 l -0.703,-2.849 c -1.776,2.146 -3.897,3.219 -6.364,3.219 -0.888,0 -1.727,-0.124 -2.516,-0.37 -0.765,-0.247 -1.344,-0.605 -1.739,-1.073 -0.222,-0.272 -0.395,-0.95 -0.518,-2.035 -0.099,-1.086 -0.148,-2.738 -0.148,-4.958 v -8.954 h 6.327 v 8.88 c 0,0.493 0.012,1.073 0.037,1.739 0.025,0.666 0.099,1.085 0.222,1.258 0.173,0.246 0.666,0.37 1.48,0.37 l 0.592,-0.037 c 0.691,-0.025 1.406,-0.185 2.146,-0.481 v -11.729 z m 16.798,11.248 c 0,2.195 -0.703,3.774 -2.109,4.736 -1.382,0.962 -3.355,1.443 -5.92,1.443 -1.801,0 -3.873,-0.259 -6.216,-0.777 0.049,-0.494 0.16,-1.197 0.333,-2.109 0.197,-0.938 0.357,-1.653 0.481,-2.146 0.888,0.148 1.874,0.271 2.96,0.37 1.085,0.074 2.01,0.111 2.775,0.111 0.666,0 1.073,-0.037 1.221,-0.111 0.024,-0.025 0.049,-0.087 0.074,-0.185 0.049,-0.124 0.074,-0.247 0.074,-0.37 0,-0.494 -0.309,-0.827 -0.925,-0.999 -0.198,-0.05 -0.95,-0.259 -2.257,-0.629 -1.308,-0.37 -2.381,-1.036 -3.219,-1.998 -0.814,-0.987 -1.221,-2.208 -1.221,-3.663 0,-0.765 0.172,-1.616 0.518,-2.553 0.345,-0.938 0.715,-1.53 1.11,-1.776 0.296,-0.198 1.011,-0.395 2.146,-0.592 1.134,-0.222 2.183,-0.333 3.145,-0.333 2.047,0 4.107,0.148 6.179,0.444 0,0.444 -0.062,1.196 -0.185,2.257 -0.124,1.036 -0.235,1.689 -0.333,1.961 -2.097,-0.272 -3.787,-0.407 -5.069,-0.407 -0.666,0 -1.098,0.037 -1.295,0.111 -0.05,0.024 -0.099,0.098 -0.148,0.222 -0.05,0.098 -0.074,0.234 -0.074,0.407 0,0.345 0.111,0.592 0.333,0.74 0.222,0.172 0.801,0.382 1.739,0.629 1.11,0.32 2.059,0.653 2.849,0.999 0.814,0.345 1.517,0.863 2.109,1.554 0.616,0.69 0.925,1.578 0.925,2.664 z m 12.421,1.332 c 0.617,0 1.764,-0.062 3.441,-0.185 0.222,0 0.629,-0.025 1.221,-0.074 l 0.555,3.811 c -1.899,0.888 -4.366,1.332 -7.4,1.332 -2.837,0 -5.02,-0.716 -6.549,-2.146 -1.505,-1.431 -2.257,-3.589 -2.257,-6.475 0,-1.48 0.185,-2.911 0.555,-4.292 0.395,-1.382 0.839,-2.344 1.332,-2.886 0.518,-0.543 1.48,-1.012 2.886,-1.406 1.406,-0.395 2.8,-0.592 4.181,-0.592 2.22,0 3.885,0.394 4.995,1.184 1.11,0.789 1.838,1.887 2.183,3.293 0.345,1.381 0.518,3.243 0.518,5.587 -1.677,0.098 -3.318,0.148 -4.921,0.148 h -5.254 c 0,0.789 0.16,1.381 0.481,1.776 0.345,0.394 0.826,0.653 1.443,0.777 0.617,0.098 1.48,0.148 2.59,0.148 z m -4.144,-8.51 c -0.148,0.074 -0.259,0.394 -0.333,0.962 -0.074,0.567 -0.123,1.208 -0.148,1.924 h 1.924 c 1.159,0 1.998,-0.013 2.516,-0.037 0,-1.184 -0.173,-2.023 -0.518,-2.516 -0.321,-0.494 -0.888,-0.74 -1.702,-0.74 -0.666,0 -1.246,0.135 -1.739,0.407 z"
     fill="#1792c5"
     id="path11" />
  <g
     opacity="0.4"
     id="g17"
     transform="translate(-7.98352,-20.20568)">
    <path
       d="m 178.486,201.317 c -1.071,-0.037 -1.618,0.267 -2.438,0.732 -1.367,0.776 -1.907,2.121 -1.73,3.507 0.212,1.653 1.475,3.891 2.451,6.668 0.977,2.777 2.663,7.785 4.968,11.418 1.78,2.805 0.479,1.663 5.97,5.692 2.064,1.515 4.084,-1.834 6.272,-3.076 2.734,-1.551 2.529,-1.297 3.622,-3.989 0.879,-2.165 0.985,-4.438 -3.541,-6.158 -0.793,-0.301 -1.061,-0.31 -5.04,-1.545 -3.978,-1.234 -4.429,-3.719 -4.917,-5.107 -0.552,-1.568 -1.088,-4.198 -2.184,-6.652 -0.498,-1.114 -1.291,-1.416 -3.433,-1.49 z"
       fill="#dc4c68"
       id="path12" />
    <path
       d="m 204.708,226.079 h 0.001 c 0.267,0.01 0.604,-0.418 0.841,-1.068 0.296,-0.813 0.189,-1.214 -0.47,-1.936 -0.775,-0.85 -0.662,-0.919 -1.836,-1.161 -1.597,-0.329 -1.601,-0.22 -2.41,-0.083 -1.348,0.228 -1.893,0.484 -1.931,1.58 -0.038,1.095 1.022,1.544 3.673,2.321 1.062,0.311 1.062,0.311 2.132,0.347 z"
       fill="#dc4c68"
       id="path13" />
    <path
       d="m 200.941,226.498 c -0.517,-0.566 -2.917,-0.923 -2.936,-0.375 l -0.019,0.548 c -0.019,0.548 0.239,0.831 0.488,1.388 0.249,0.558 1.052,0.585 2.372,1.179 1.32,0.594 1.081,-0.237 1.377,-1.05 0.296,-0.812 -0.766,-1.123 -1.282,-1.69 z"
       fill="#dc4c68"
       id="path14" />
    <path
       d="m 195.797,227.967 c -0.545,0.255 -0.545,0.256 -0.574,1.077 -0.006,0.183 0.041,0.386 0.24,0.832 0.249,0.557 0.775,0.849 1.559,1.425 0.523,0.384 1.071,0.037 1.616,-0.219 0.545,-0.255 0.028,-0.822 -0.221,-1.379 -0.222,-0.498 -0.873,-1.242 -1.282,-1.69 -0.258,-0.283 -0.794,-0.302 -1.338,-0.046 z"
       fill="#dc4c68"
       id="path15" />
    <path
       d="m 192.508,230.048 c -0.277,0.265 -0.286,0.539 -0.037,1.096 0.08,0.277 0.352,0.671 0.766,1.124 0.516,0.566 0.507,0.84 1.578,0.877 0.535,0.019 0.535,0.019 0.822,-0.52 0.287,-0.539 -0.515,-1.447 -0.738,-1.946 -0.249,-0.557 -0.969,-1.13 -1.568,-1.151 -0.268,-0.009 -0.545,0.255 -0.823,0.52 z"
       fill="#dc4c68"
       id="path16" />
    <path
       d="m 189.802,230.778 c -0.286,0.539 -0.047,1.37 0.202,1.927 0.083,0.186 0.258,0.283 0.526,0.293 0.268,0.009 0.517,0.566 1.071,0.036 0.003,-0.091 0.272,-0.1 0.287,-0.538 0.019,-0.548 -0.24,-0.831 -0.489,-1.389 -0.248,-0.557 -1.042,-0.859 -1.597,-0.329 z"
       fill="#dc4c68"
       id="path17" />
  </g>
  <path
     d="m 100.48548,72.43002 c -0.332,8.7033 1.348,17.7323 2.23,21.1593 1.955,0.254 6.601,-11.071 7.889,-14.8797 1.611,-4.7608 0.931,-5.6424 2.541,-10.4039 4.071,-8.4174 -8.932,-9.3057 -10.289,-6.5002 -2.715,5.6109 -2.039,1.9216 -2.371,10.6245 z"
     fill="#78b956"
     id="path18" />
  <path
     d="m 152.47148,271.43832 c 1.164,3.518 4.87,5.706 4.87,5.706 0,0 3.849,3.496 7.481,2.295 4.153,-1.375 3.884,-2.331 6.274,-3.974 1.985,-1.364 4.971,-3.651 4.971,-3.651 0,0 1.877,-2.193 5.946,-2.51 4.069,-0.316 5.377,-3.405 5.377,-3.405 0,0 1.554,-3.496 -2.599,-2.122 -1.802,0.597 -4.236,2.432 -7.086,3.484 -2.851,1.052 -3.464,1.367 -3.824,-0.09 -0.323,-1.302 4.242,-5.198 4.242,-5.198 l 6.196,-5.683 c 0,0 2.945,-1.864 2.856,-3.818 -0.077,-1.709 -2.438,-1.47 -2.438,-1.47 0,0 -1.302,0.323 -2.772,2.761 -1.47,2.438 -5.3,5.115 -6.686,6.495 -1.387,1.38 -3.03,-0.768 -1.542,-2.037 1.141,-0.974 3.119,-2.416 5.139,-5.767 1.225,-2.031 2.444,-1.296 5.055,-4.708 0.356,-0.465 0.504,-0.899 -0.078,-1.709 -0.765,-1.064 -2.359,-0.693 -3.173,-0.251 -2.173,1.179 -4.404,4.547 -4.404,4.547 -1.631,1.787 -3.836,5.444 -3.836,5.444 -1.732,2.873 -2.527,2.354 -2.527,2.354 0,0 -1.219,-0.735 0.251,-3.173 l 4.9,-8.126 c 1.959,-3.251 2.366,-3.006 2.043,-4.308 -0.323,-1.303 -1.249,-1.721 -2.032,-1.225 -0.896,0.567 -3.262,3.573 -3.591,5.037 -0.232,1.035 -3.758,7.152 -5.473,9.996 -1.715,2.845 -2.121,2.6 -3.914,3.735 -1.792,1.135 -5.567,-0.432 -7.487,0.472 -3.095,1.458 -3.184,5.282 -3.184,5.282 0,0 -0.329,1.464 1.045,5.617 z"
     fill="#78b956"
     id="path19" />
  <path
     d="m 145.25248,251.66432 c 0.97,2.801 2.619,5.457 3.322,6.435 0.652,-0.161 0.726,-4.327 0.664,-5.694 -0.078,-1.709 -0.403,-1.905 -0.481,-3.614 0.251,-3.172 -3.982,-1.847 -4.066,-0.79 -0.168,2.116 -0.409,0.862 0.561,3.663 z"
     fill="#78b956"
     id="path20" />
  <path
     d="m 24.83388,229.72032 c -2.2084,1.509 -2.988,4.516 -2.988,4.516 0,0 -1.6582,3.366 -0.101,5.646 1.7807,2.607 2.3906,2.23 4.0064,3.56 1.342,1.105 3.5231,2.721 3.5231,2.721 0,0 1.895,0.865 2.9255,3.624 1.0305,2.76 3.4341,3.052 3.4341,3.052 0,0 2.7343,0.381 0.9535,-2.226 -0.7726,-1.131 -2.5311,-2.454 -3.8285,-4.221 -1.2974,-1.768 -1.6382,-2.13 -0.6998,-2.671 0.8392,-0.483 4.4513,1.907 4.4513,1.907 l 5.1764,3.166 c 0,0 1.8798,1.671 3.2177,1.221 1.1699,-0.395 0.5338,-1.984 0.5338,-1.984 0,0 -0.4833,-0.84 -2.4673,-1.374 -1.984,-0.533 -4.604,-2.657 -5.8377,-3.343 -1.2337,-0.687 -0.0712,-2.255 1.1062,-1.476 0.903,0.598 2.2969,1.682 5.0237,2.416 1.6533,0.445 1.3863,1.437 4.2733,2.568 0.3938,0.155 0.7241,0.171 1.17,-0.394 0.5856,-0.743 0.0107,-1.774 -0.4581,-2.251 -1.2508,-1.272 -4.0317,-2.149 -4.0317,-2.149 -1.5643,-0.775 -4.5403,-1.576 -4.5403,-1.576 -2.3382,-0.629 -2.1367,-1.284 -2.1367,-1.284 0,0 0.2669,-0.992 2.2509,-0.458 l 6.6133,1.779 c 2.6453,0.712 2.5563,1.043 3.3956,0.559 0.8393,-0.483 0.9447,-1.209 0.4449,-1.653 -0.5724,-0.509 -3.1287,-1.551 -4.2096,-1.487 -0.7644,0.045 -5.7103,-1.182 -8.025,-1.805 -2.3146,-0.623 -2.2256,-0.954 -3.3704,-1.971 -1.1447,-1.017 -0.8095,-3.948 -1.8192,-5.099 -1.6281,-1.857 -4.2987,-1.157 -4.2987,-1.157 0,0 -1.0809,0.064 -3.6877,1.844 z"
     fill="#73c5e7"
     id="path21" />
  <path
     d="m 37.81778,223.64032 c -1.7498,1.231 -3.2638,2.904 -3.8021,3.586 0.2416,0.42 3.1463,-0.359 4.0822,-0.674 1.17,-0.395 1.241,-0.659 2.411,-1.053 2.2509,-0.458 0.4879,-3.131 -0.2624,-2.979 -1.5005,0.306 -0.679,-0.112 -2.4287,1.12 z"
     fill="#73c5e7"
     id="path22" />
  <path
     d="m 146.76648,92.35232 c -2.611,1.285 -3.755,4.346 -3.755,4.346 0,0 -2.16,3.32 -0.62,5.938 1.761,2.995 2.479,2.682 4.17,4.308 1.405,1.35 3.704,3.355 3.704,3.355 0,0 2.046,1.174 2.952,4.225 0.907,3.052 3.575,3.692 3.575,3.692 0,0 3.03,0.78 1.268,-2.214 -0.764,-1.299 -2.616,-2.937 -3.911,-4.98 -1.295,-2.042 -1.644,-2.472 -0.544,-2.911 0.984,-0.394 4.817,2.626 4.817,2.626 l 5.516,4.053 c 0,0 1.957,2.022 3.496,1.732 1.347,-0.254 0.777,-2.018 0.777,-2.018 0,0 -0.466,-0.951 -2.642,-1.788 -2.175,-0.838 -4.921,-3.439 -6.241,-4.333 -1.321,-0.894 0.122,-2.386 1.372,-1.402 0.958,0.755 2.423,2.091 5.413,3.241 1.812,0.698 1.424,1.707 4.558,3.299 0.427,0.217 0.796,0.28 1.346,-0.254 0.723,-0.702 0.172,-1.869 -0.311,-2.436 -1.287,-1.514 -4.325,-2.823 -4.325,-2.823 -1.683,-1.034 -4.946,-2.29 -4.946,-2.29 -2.564,-0.986 -2.279,-1.649 -2.279,-1.649 0,0 0.388,-1.009 2.563,-0.171 l 7.251,2.791 c 2.901,1.116 2.771,1.452 3.755,1.059 0.984,-0.394 1.168,-1.144 0.647,-1.681 -0.595,-0.616 -3.366,-2.068 -4.583,-2.151 -0.861,-0.058 -6.293,-2.036 -8.831,-3.013 -2.538,-0.977 -2.409,-1.313 -3.6,-2.543 -1.192,-1.231 -0.553,-4.274 -1.581,-5.627 -1.658,-2.183 -4.713,-1.814 -4.713,-1.814 0,0 -1.217,-0.083 -4.298,1.433 z"
     fill="#f9d949"
     id="path23" />
  <path
     d="m 161.86348,87.73932 c -2.071,1.056 -3.918,2.61 -4.583,3.255 0.233,0.476 3.558,0.057 4.635,-0.146 1.347,-0.254 1.45,-0.522 2.797,-0.776 2.563,-0.172 0.828,-3.233 -0.027,-3.176 -1.709,0.114 -0.751,-0.212 -2.822,0.843 z"
     fill="#f9d949"
     id="path24" />
  <path
     d="m 121.99248,157.44732 c 1.274,3.017 4.558,4.288 4.558,4.288 0,0 3.517,2.451 6.449,0.601 3.354,-2.115 3.047,-2.945 4.904,-4.951 1.543,-1.666 3.843,-4.388 3.843,-4.388 0,0 1.381,-2.41 4.755,-3.53 3.373,-1.12 4.203,-4.244 4.203,-4.244 0,0 0.999,-3.549 -2.354,-1.434 -1.455,0.918 -3.333,3.111 -5.625,4.664 -2.292,1.552 -2.778,1.968 -3.204,0.694 -0.381,-1.139 3.101,-5.671 3.101,-5.671 l 4.693,-6.516 c 0,0 2.302,-2.323 2.061,-4.113 -0.211,-1.565 -2.164,-0.864 -2.164,-0.864 0,0 -1.061,0.564 -2.081,3.118 -1.02,2.553 -3.992,5.808 -5.033,7.367 -1.04,1.559 -2.598,-0.094 -1.463,-1.571 0.871,-1.133 2.4,-2.869 3.802,-6.379 0.85,-2.128 1.932,-1.696 3.822,-5.383 0.258,-0.503 0.345,-0.934 -0.211,-1.565 -0.73,-0.829 -2.03,-0.161 -2.673,0.413 -1.715,1.532 -3.292,5.101 -3.292,5.101 -1.21,1.985 -2.74,5.816 -2.74,5.816 -1.202,3.01 -1.912,2.691 -1.912,2.691 0,0 -1.081,-0.432 -0.061,-2.986 l 3.4,-8.513 c 1.36,-3.405 1.721,-3.261 1.339,-4.4 -0.381,-1.14 -1.191,-1.338 -1.802,-0.72 -0.701,0.707 -2.422,3.968 -2.571,5.389 -0.106,1.005 -2.53,7.38 -3.72,10.36 -1.19,2.98 -1.55,2.836 -2.951,4.25 -1.401,1.415 -4.69,0.732 -6.218,1.959 -2.462,1.978 -2.21,5.534 -2.21,5.534 0,0 -0.149,1.421 1.355,4.983 z"
     fill="#dc4c68"
     id="path25" />
  <path
     d="m 117.69648,139.93632 c 1.051,2.394 2.656,4.516 3.328,5.278 0.531,-0.282 0.236,-4.151 0.067,-5.403 -0.211,-1.565 -0.499,-1.68 -0.71,-3.245 -0.062,-2.986 -3.488,-0.899 -3.467,0.096 0.041,1.991 -0.268,0.88 0.782,3.274 z"
     fill="#f7db32"
     id="path26" />
  <g
     opacity="0.6"
     id="g28"
     transform="translate(-7.98352,-20.20568)">
    <path
       d="m 127.8,54.1754 c -2.343,1.7307 -2.7,4.7914 -2.7,4.7914 0,0 -1.335,3.5115 0.951,5.6014 2.614,2.3901 3.269,1.9512 5.445,3.0951 1.807,0.9501 4.71,2.316 4.71,2.316 0,0 2.42,0.6526 4.171,3.2742 1.75,2.6217 4.667,2.653 4.667,2.653 0,0 3.327,0.0839 0.712,-2.3061 -1.134,-1.0369 -3.478,-2.1582 -5.358,-3.769 -1.88,-1.6108 -2.355,-1.9332 -1.34,-2.5689 0.907,-0.5686 5.661,1.4102 5.661,1.4102 l 6.763,2.5791 c 0,0 2.555,1.4529 4.062,0.8628 1.318,-0.5159 0.259,-2.0215 0.259,-2.0215 0,0 -0.735,-0.7793 -3.198,-1.0949 -2.463,-0.3156 -5.985,-2.1368 -7.584,-2.6842 -1.599,-0.5473 -0.512,-2.2245 1.037,-1.5794 1.188,0.4947 3.054,1.4187 6.439,1.8525 2.052,0.263 1.923,1.2739 5.574,2.0842 0.498,0.1106 0.895,0.0915 1.318,-0.5162 0.556,-0.798 -0.324,-1.7577 -0.972,-2.1795 -1.731,-1.1254 -5.207,-1.6947 -5.207,-1.6947 -2.01,-0.5999 -5.705,-1.0733 -5.705,-1.0733 -2.902,-0.372 -2.787,-1.0422 -2.787,-1.0422 0,0 0.13,-1.0107 2.593,-0.6951 l 8.21,1.0521 c 3.284,0.4208 3.241,0.7577 4.149,0.189 0.907,-0.5687 0.895,-1.2986 0.215,-1.6847 -0.777,-0.4422 -4.018,-1.2 -5.293,-1.0209 -0.902,0.1266 -7.022,-0.5573 -9.896,-0.9255 -2.873,-0.3683 -2.83,-0.7052 -4.386,-1.5894 -1.556,-0.8842 -1.713,-3.8222 -3.133,-4.8538 -2.291,-1.6634 -5.337,-0.6838 -5.337,-0.6838 0,0 -1.275,0.1792 -4.04,2.2221 z"
       fill="#dc4c68"
       id="path27" />
    <path
       d="m 154.259,40.0774 c -0.286,7.1145 1.147,14.6146 1.899,17.4754 1.671,0.3228 5.643,-8.6887 6.745,-11.7352 1.377,-3.8082 0.797,-4.5707 2.173,-8.3795 3.481,-6.6615 -7.628,-8.1512 -8.789,-5.931 -2.321,4.4404 -1.742,1.4558 -2.028,8.5703 z"
       fill="#3f8da5"
       id="path28" />
  </g>
  <path
     d="m 186.24348,104.93432 c 1.19,1.366 3.012,4.982 2.264,6.977 -0.3,0.799 -1.277,2.518 -4.008,2.703 -1.707,0.115 -3.568,-0.245 -4.919,-2.26 -2.491,-3.714 -3.321,-5.934 -4.446,-10.476 -1.126,-4.543 3.156,-1.024 7.033,0.172 1.347,0.415 2.408,0.971 4.076,2.884 z"
     fill="#78b956"
     id="path29" />
  <path
     d="m 187.85548,115.27832 c 1.432,-0.745 2.751,-3.347 2.957,-2.712 1.672,1.21 4.045,2.789 4.384,3.835 0.103,0.317 0.728,1.166 0.405,2.323 -0.322,1.156 -2.01,2.405 -2.854,3.029 -0.844,0.625 -1.373,1.147 -2.525,0.82 -1.153,-0.328 -1.256,-0.645 -1.88,-1.494 -0.28,-0.379 -2.182,-3.498 -2.91,-4.665 -0.727,-1.166 0.632,-0.204 2.423,-1.136 z"
     fill="#78b956"
     id="path30" />
  <path
     d="m 198.31848,120.64632 c 0.22,-1.473 0.33,-2.21 0.014,-2.107 -0.139,-0.072 -1.01,0.327 -1.262,0.409 -0.632,0.205 -0.323,1.157 -1.695,2.303 v 0 c -1.373,1.146 -1.373,1.146 -2.532,1.873 -1.16,0.727 -0.844,0.625 -0.851,1.679 -0.007,1.053 0.586,0.73 1.571,0.541 0.986,-0.188 2.319,-1.453 2.848,-1.975 0.528,-0.522 1.688,-1.249 1.907,-2.723 z"
     fill="#78b956"
     id="path31" />
  <path
     d="m 198.29848,123.80832 c 0.52,-0.661 0.96,-2.415 1.379,-2.2 1.255,0.644 4.377,4.889 4.48,5.206 0.103,0.318 17.716,20.193 19.795,23.374 2.079,3.182 2.719,5.022 0.707,4.328 -1.572,-0.542 -1.153,-0.327 -2.93,-1.503 -1.777,-1.176 -16.076,-14.064 -17.119,-15.128 -0.835,-0.851 -7.159,-7.726 -10.217,-11.057 -0.105,0.034 0.043,-0.084 1.476,-0.83 1.475,-0.829 1.688,-1.248 2.429,-2.19 z"
     fill="#78b956"
     id="path32" />
  <path
     d="m 126.84548,0.07222005 c 1.59,0.0137 5.078,0.8685 6.055,2.41859995 0.39,0.6201 1.052,2.1606 -0.298,3.9414 -0.844,1.1131 -2.1,2.0615 -4.227,1.7921 -3.918,-0.4964 -5.904,-1.1984 -9.657,-2.9877 -3.753,-1.7893 1,-2.5009 3.925,-4.2327 1.017,-0.60199995 1.976,-0.95099995 4.202,-0.93169995 z"
     fill="#73c5e7"
     id="path33" />
  <path
     d="m 134.87748,4.73092 c 0.259,-1.2886 -0.827,-3.5209 -0.277,-3.301 1.742,-0.3674 4.12,-0.96459995 5.027,-0.60199995 0.276,0.1099 1.201,0.18959995 1.827,1.01969995 0.626,0.83 0.577,2.5506 0.552,3.4109 -0.024,0.8603 0.051,1.4705 -0.799,2.001 -0.85,0.5305 -1.126,0.4205 -2.051,0.3408 -0.414,-0.0356 -3.602,-0.5689 -4.803,-0.7585 -1.201,-0.1897 0.2,-0.5003 0.524,-2.1109 z"
     fill="#73c5e7"
     id="path34" />
  <path
     d="m 144.25548,1.22642 c -0.901,-0.93999995 -1.351,-1.40999995 -1.451,-1.15989995 -0.125,0.0467 -0.32,0.8004 -0.4,1.00049995 -0.2,0.5002 0.626,0.8301 0.677,2.3005 v 0 c 0.05,1.4705 0.05,1.4705 -0.074,2.5809 -0.124,1.1104 -0.025,0.8603 0.701,1.4402 0.726,0.58 0.823,0.0385 1.225,-0.6706 0.403,-0.7091 0.249,-2.2208 0.174,-2.831 -0.075,-0.6102 0.049,-1.7206 -0.852,-2.6606 z"
     fill="#73c5e7"
     id="path35" />
  <path
     d="m 146.43248,2.96622 c -0.176,-0.6808 -1.151,-1.9102 -0.776,-2.05039995 1.125,-0.4205 5.753,-0.022 6.028,0.0878999 0.275,0.1099 23.563,0.1317 26.89,0.5907 3.327,0.459 4.947,1.0706 3.378,1.9295 -1.226,0.6706 -0.851,0.5304 -2.626,0.9812 -1.776,0.4508 -18.434,2.2072 -19.735,2.2677 -1.04,0.0484 -9.221,0.1833 -13.182,0.2448 -0.033,0.0833 -0.035,-0.072 0.225,-1.3606 0.224,-1.3605 0.049,-1.7206 -0.202,-2.6908 z"
     fill="#73c5e7"
     id="path36" />
  <path
     d="m 51.16738,113.04832 c -1.3334,1.207 -4.8857,3.071 -6.8776,2.35 -0.7968,-0.288 -2.5196,-1.241 -2.7515,-3.965 -0.1448,-1.702 0.1784,-3.565 2.1524,-4.94 3.6377,-2.535 5.8239,-3.392 10.3077,-4.573 4.4839,-1.182 1.0713,3.138 -0.0445,7.023 -0.3879,1.35 -0.9198,2.416 -2.7865,4.105 z"
     fill="#73c5e7"
     id="path37" />
  <path
     d="m 40.94018,114.79132 c 0.7647,1.421 3.3676,2.704 2.7424,2.917 -1.17,1.685 -2.6933,4.074 -3.7244,4.427 -0.3126,0.106 -1.1433,0.741 -2.2956,0.433 -1.1522,-0.307 -2.4207,-1.976 -3.055,-2.81 -0.6342,-0.834 -1.1613,-1.355 -0.8577,-2.51 0.3036,-1.155 0.6163,-1.262 1.4469,-1.896 0.3715,-0.284 3.4298,-2.223 4.573,-2.964 1.1433,-0.741 0.2145,0.627 1.1704,2.403 z"
     fill="#73c5e7"
     id="path38" />
  <path
     d="m 35.80498,125.30632 c 1.4649,0.2 2.1973,0.3 2.0901,-0.014 0.0685,-0.14 -0.3431,-1.004 -0.4288,-1.255 -0.2145,-0.627 -1.1523,-0.307 -2.3136,-1.662 v 0 c -1.1613,-1.355 -1.1613,-1.355 -1.9028,-2.503 -0.7414,-1.149 -0.6342,-0.835 -1.6793,-0.828 -1.0451,0.006 -0.7134,0.594 -0.509,1.575 0.2044,0.982 1.4829,2.297 2.01,2.817 0.527,0.521 1.2685,1.669 2.7334,1.87 z"
     fill="#73c5e7"
     id="path39" />
  <path
     d="m 32.66978,125.32632 c 0.6643,0.51 2.4117,0.928 2.2063,1.348 -0.6162,1.262 -4.7694,4.433 -5.082,4.54 -0.3127,0.107 -19.7031,17.945 -22.8202,20.061 -3.1172,2.117 -4.9303,2.779 -4.2785,0.761 0.509,-1.575 0.3036,-1.155 1.4379,-2.944 1.1342,-1.789 13.656,-16.229 14.6921,-17.284 0.8288,-0.844 7.5322,-7.245 10.7803,-10.341 -0.0357,-0.104 0.084,0.042 0.8487,1.462 0.8487,1.462 1.2685,1.669 2.2154,2.397 z"
     fill="#73c5e7"
     id="path40" />
  <path
     d="m 138.35948,194.43532 c -1.673,-0.008 -5.285,-0.952 -6.206,-2.691 -0.369,-0.696 -0.959,-2.427 0.584,-4.439 0.965,-1.257 2.352,-2.331 4.571,-2.039 4.089,0.538 6.131,1.318 9.958,3.313 3.826,1.994 -1.224,2.82 -4.422,4.785 -1.111,0.683 -2.144,1.081 -4.485,1.071 z"
     fill="#dc4c68"
     id="path41" />
  <path
     d="m 130.22648,189.23232 c -0.362,1.452 0.629,3.959 0.065,3.715 -1.859,0.422 -4.402,1.107 -5.332,0.704 -0.282,-0.123 -1.251,-0.208 -1.852,-1.139 -0.602,-0.931 -0.432,-2.868 -0.347,-3.836 0.085,-0.969 0.047,-1.655 0.978,-2.257 0.931,-0.602 1.213,-0.479 2.182,-0.394 0.433,0.038 3.752,0.621 5.002,0.828 1.251,0.208 -0.244,0.565 -0.696,2.379 z"
     fill="#dc4c68"
     id="path42" />
  <path
     d="m 120.11648,193.22632 c 0.884,1.054 1.326,1.58 1.448,1.298 0.135,-0.053 0.391,-0.902 0.489,-1.128 0.245,-0.564 -0.601,-0.931 -0.554,-2.586 v 0 c 0.047,-1.655 0.047,-1.655 0.255,-2.906 0.207,-1.25 0.085,-0.968 -0.639,-1.617 -0.724,-0.649 -0.863,-0.039 -1.336,0.761 -0.473,0.8 -0.414,2.501 -0.377,3.188 0.038,0.686 -0.17,1.937 0.714,2.99 z"
     fill="#dc4c68"
     id="path43" />
  <path
     d="m 117.94448,191.27932 c 0.139,0.765 1.081,2.144 0.677,2.304 -1.213,0.479 -6.056,0.055 -6.338,-0.067 -0.282,-0.123 -24.7877,-0.026 -28.2575,-0.525 -3.4698,-0.499 -5.1326,-1.179 -3.4223,-2.154 1.3355,-0.762 0.9311,-0.602 2.8307,-1.118 1.8997,-0.517 19.5501,-2.581 20.9231,-2.656 1.099,-0.06 9.717,-0.255 13.889,-0.345 0.041,-0.094 0.032,0.081 -0.329,1.533 -0.33,1.533 -0.17,1.937 0.027,3.028 z"
     fill="#dc4c68"
     id="path44" />
  <path
     d="m 28.90398,162.06632 c -0.0754,1.872 -1.3179,5.83 -3.378,6.702 -0.8241,0.349 -2.8602,0.852 -5.1376,-1.061 -1.4234,-1.195 -2.6168,-2.847 -2.1881,-5.305 0.7899,-4.531 1.7787,-6.745 4.2514,-10.847 2.4728,-4.103 3.2306,1.629 5.387,5.389 0.7496,1.308 1.1709,2.501 1.0653,5.122 z"
     fill="#dc4c68"
     id="path45" />
  <path
     d="m 22.52848,170.69632 c 1.6738,0.538 4.629,-0.341 4.3219,0.268 0.4169,2.12 1.1111,5.031 0.6047,6.036 -0.1536,0.304 -0.2911,1.381 -1.398,1.969 -1.1068,0.589 -3.3525,0.221 -4.4753,0.037 -1.1229,-0.184 -1.9226,-0.205 -2.5848,-1.303 -0.6622,-1.097 -0.5087,-1.402 -0.3711,-2.479 0.0615,-0.482 0.8732,-4.144 1.1643,-5.526 0.2911,-1.381 0.6462,0.326 2.7383,0.998 z"
     fill="#dc4c68"
     id="path46" />
  <path
     d="m 26.76738,182.38432 c 1.2603,-0.893 1.8905,-1.34 1.5674,-1.503 -0.0565,-0.155 -1.0339,-0.521 -1.2924,-0.651 -0.6462,-0.326 -1.1068,0.588 -3.0294,0.383 v 0 c -1.9226,-0.204 -1.9226,-0.204 -3.3685,-0.551 -1.446,-0.347 -1.1229,-0.184 -1.9066,0.567 -0.7838,0.751 -0.08,0.963 0.8317,1.565 0.9118,0.603 2.8919,0.694 3.6917,0.715 0.7997,0.021 2.2457,0.368 3.506,-0.525 z"
     fill="#dc4c68"
     id="path47" />
  <path
     d="m 24.41608,184.63732 c 0.8956,-0.085 2.5368,-1.014 2.7063,-0.546 0.5087,1.402 -0.179,6.786 -0.3326,7.091 -0.1535,0.305 -1.0233,27.756 -1.743,31.596 -0.7197,3.839 -1.5771,5.639 -2.6423,3.635 -0.8318,-1.566 -0.6622,-1.098 -1.1869,-3.273 -0.5246,-2.175 -2.2171,-22.13 -2.2491,-23.674 -0.0257,-1.236 0.0937,-10.905 0.1565,-15.585 -0.1077,-0.055 0.0953,-0.029 1.769,0.509 1.7691,0.51 2.2457,0.368 3.5221,0.247 z"
     fill="#dc4c68"
     id="path48" />
  <path
     d="m 209.46848,160.87732 c -0.034,1.785 -1.1,5.626 -2.972,6.582 -0.749,0.382 -2.606,0.985 -4.729,-0.695 -1.327,-1.05 -2.452,-2.548 -2.105,-4.912 0.641,-4.358 1.506,-6.525 3.697,-10.579 2.19,-4.054 2.991,1.352 5.038,4.797 0.711,1.198 1.119,2.307 1.071,4.807 z"
     fill="#73c5e7"
     id="path49" />
  <path
     d="m 203.78448,169.47632 c 1.544,0.409 4.237,-0.608 3.967,-0.01 0.421,1.992 1.112,4.718 0.666,5.705 -0.135,0.299 -0.241,1.331 -1.245,1.959 -1.004,0.627 -3.069,0.415 -4.102,0.309 -1.033,-0.106 -1.766,-0.077 -2.394,-1.081 -0.627,-1.004 -0.492,-1.303 -0.386,-2.336 0.048,-0.461 0.724,-3.995 0.965,-5.327 0.241,-1.332 0.599,0.27 2.529,0.781 z"
     fill="#73c5e7"
     id="path50" />
  <path
     d="m 207.88648,180.33432 c 1.139,-0.926 1.709,-1.39 1.409,-1.525 -0.054,-0.145 -0.957,-0.432 -1.196,-0.54 -0.599,-0.271 -1.004,0.627 -2.77,0.55 v 0 c -1.767,-0.077 -1.767,-0.077 -3.099,-0.318 -1.331,-0.242 -1.032,-0.107 -1.737,0.656 -0.704,0.762 -0.055,0.921 0.792,1.438 0.847,0.518 2.664,0.482 3.397,0.453 0.734,-0.028 2.066,0.213 3.204,-0.714 z"
     fill="#73c5e7"
     id="path51" />
  <path
     d="m 205.77348,182.62232 c 0.819,-0.136 2.306,-1.12 2.471,-0.686 0.492,1.303 -0.039,6.467 -0.174,6.766 -0.135,0.299 -0.423,26.465 -1.012,30.161 -0.588,3.697 -1.341,5.461 -2.355,3.62 -0.791,-1.438 -0.627,-1.004 -1.148,-3.041 -0.522,-2.036 -2.443,-20.914 -2.501,-22.381 -0.047,-1.174 -0.116,-10.379 -0.146,-14.835 -0.099,-0.045 0.087,-0.033 1.631,0.376 1.632,0.377 2.066,0.213 3.234,0.02 z"
     fill="#73c5e7"
     id="path52" />
  <path
     d="m 145.09548,207.78432 c -0.061,1.671 -1.119,5.251 -2.888,6.116 -0.707,0.346 -2.456,0.881 -4.417,-0.725 -1.226,-1.005 -2.255,-2.425 -1.893,-4.634 0.669,-4.07 1.514,-6.086 3.629,-9.847 2.116,-3.761 2.78,1.314 4.642,4.572 0.647,1.133 1.012,2.178 0.927,4.518 z"
     fill="#8dcfea"
     id="path53" />
  <path
     d="m 139.63648,215.74632 c 1.439,0.408 3.977,-0.502 3.714,0.054 0.363,1.871 0.966,4.435 0.533,5.352 -0.131,0.278 -0.247,1.243 -1.196,1.814 -0.95,0.572 -2.881,0.341 -3.846,0.225 -0.966,-0.116 -1.653,-0.101 -2.224,-1.05 -0.572,-0.95 -0.441,-1.228 -0.325,-2.194 0.052,-0.431 0.741,-3.73 0.988,-4.973 0.247,-1.243 0.556,0.263 2.356,0.772 z"
     fill="#8dcfea"
     id="path54" />
  <path
     d="m 143.30548,225.97832 c 1.081,-0.849 1.621,-1.274 1.343,-1.405 -0.049,-0.137 -0.889,-0.42 -1.112,-0.525 -0.556,-0.263 -0.95,0.571 -2.602,0.471 v 0 c -1.653,-0.1 -1.653,-0.1 -2.896,-0.347 -1.244,-0.247 -0.966,-0.116 -1.637,0.587 -0.672,0.702 -0.067,0.861 0.718,1.359 0.785,0.498 2.487,0.494 3.174,0.478 0.687,-0.015 1.931,0.232 3.012,-0.618 z"
     fill="#8dcfea"
     id="path55" />
  <path
     d="m 141.28948,228.08732 c 0.77,-0.114 2.178,-1.012 2.325,-0.603 0.44,1.228 -0.139,6.055 -0.27,6.333 -0.131,0.278 -0.817,24.774 -1.426,28.226 -0.61,3.452 -1.343,5.092 -2.263,3.352 -0.718,-1.359 -0.571,-0.95 -1.027,-2.865 -0.456,-1.915 -1.956,-19.623 -1.987,-20.998 -0.024,-1.1 0.056,-9.72 0.1,-13.893 -0.093,-0.044 0.081,-0.029 1.521,0.378 1.521,0.379 1.931,0.232 3.027,0.07 z"
     fill="#8dcfea"
     id="path56" />
  <path
     d="m 94.31348,207.27032 c -0.08,1.67 -1.181,5.238 -2.9594,6.082 -0.7114,0.337 -2.4662,0.852 -4.4085,-0.778 -1.214,-1.018 -2.2265,-2.451 -1.8377,-4.655 0.7165,-4.062 1.5848,-6.068 3.7446,-9.804 2.1599,-3.736 2.7643,1.346 4.587,4.626 0.634,1.141 0.987,2.19 0.874,4.529 z"
     fill="#78b956"
     id="path57" />
  <path
     d="m 88.76108,215.16732 c 1.4346,0.425 3.9824,-0.455 3.7134,0.098 0.341,1.875 0.914,4.445 0.47,5.357 -0.134,0.277 -0.261,1.241 -1.2177,1.801 -0.9565,0.56 -2.8843,0.306 -3.8482,0.179 -0.9639,-0.127 -1.6513,-0.12 -2.2117,-1.076 -0.5603,-0.957 -0.4258,-1.233 -0.2986,-2.197 0.0568,-0.431 0.7849,-3.721 1.0466,-4.961 0.2616,-1.241 0.5529,0.269 2.3462,0.799 z"
     fill="#78b956"
     id="path58" />
  <path
     d="m 92.30948,225.44232 c 1.091,-0.837 1.636,-1.255 1.36,-1.39 -0.047,-0.137 -0.885,-0.43 -1.106,-0.538 -0.5528,-0.269 -0.9564,0.56 -2.6077,0.441 h -1e-4 c -1.6513,-0.12 -1.6513,-0.12 -2.8917,-0.382 -1.2403,-0.261 -0.9639,-0.127 -1.6439,0.568 -0.68,0.695 -0.0767,0.86 0.7023,1.368 0.7789,0.507 2.4807,0.523 3.1681,0.515 0.6875,-0.007 1.9278,0.255 3.019,-0.582 z"
     fill="#78b956"
     id="path59" />
  <path
     d="m 90.26918,227.52632 c 0.7708,-0.104 2.1893,-0.986 2.3313,-0.575 0.426,1.233 -0.21,6.053 -0.344,6.329 -0.135,0.277 -1.1085,24.763 -1.7589,28.208 -0.6504,3.444 -1.4025,5.076 -2.3018,3.325 -0.7022,-1.368 -0.5603,-0.957 -0.9935,-2.877 -0.4332,-1.921 -1.7242,-19.645 -1.739,-21.02 -0.0118,-1.1 0.1703,-9.719 0.2629,-13.891 -0.0922,-0.044 0.0822,-0.028 1.5168,0.397 1.5168,0.396 1.9278,0.254 3.0262,0.104 z"
     fill="#78b956"
     id="path60" />
  <path
     d="m 36.01628,168.16732 c 1.1932,4.831 0.9923,6.469 0.7427,6.683 0.7019,-0.438 2.8636,-1.467 5.8952,-2.082 3.7896,-0.769 5.2924,-0.753 7.0386,-2.474 1.4624,-1.134 2.4088,-5.968 -1.1427,-8.24 -1.2725,-0.814 -3.4705,0.027 -4.3273,0.484 -0.1216,-0.57 -0.0862,-3.603 -3.2052,-5.125 0,0 -2.0434,-0.952 -4.1842,0.517 -2.2318,1.53 -2.3086,4.199 -0.8171,10.237 z"
     fill="#000000"
     id="path61" />
  <path
     d="m 111.23948,169.19432 c 0.248,4.97 -0.262,6.539 -0.548,6.702 0.773,-0.295 3.092,-0.893 6.185,-0.917 3.866,-0.031 5.339,0.271 7.381,-1.084 1.652,-0.834 3.505,-5.398 0.453,-8.307 -1.094,-1.042 -3.412,-0.636 -4.34,-0.351 -0.011,-0.584 0.603,-3.553 -2.168,-5.643 0,0 -1.823,-1.325 -4.205,-0.293 -2.483,1.077 -3.069,3.681 -2.758,9.893 z"
     fill="#dc4c68"
     id="path62" />
  <path
     opacity="0.6"
     d="m 64.04608,188.97732 c -1.9201,4.352 -3.0353,5.442 -3.3529,5.442 0.7956,0.122 3.0585,0.734 5.7456,2.208 3.3588,1.843 4.503,2.812 6.853,2.645 1.7876,0.089 5.3512,-2.902 3.9596,-6.853 -0.4986,-1.416 -2.6786,-2.192 -3.6043,-2.398 0.2416,-0.502 2.0485,-2.733 0.5487,-5.852 0,0 -1.0089,-2.01 -3.5135,-2.282 -2.611,-0.284 -4.2361,1.651 -6.6362,7.09 z"
     fill="#4aa4b8"
     id="path63" />
  <path
     d="m 198.11548,281.22432 c 2.569,5.307 2.748,7.259 2.516,7.572 0.693,-0.686 2.91,-2.429 6.225,-3.911 4.144,-1.852 5.867,-2.214 7.436,-4.655 1.391,-1.686 1.269,-7.539 -3.36,-9.277 -1.659,-0.623 -3.964,0.91 -4.831,1.657 -0.281,-0.631 -0.996,-4.161 -4.944,-5.138 0,0 -2.575,-0.589 -4.658,1.659 -2.172,2.342 -1.595,5.46 1.616,12.093 z"
     fill="#dc4c68"
     id="path64" />
  <path
     d="m 177.46248,280.74132 c -0.478,4.733 -1.202,6.114 -1.503,6.212 0.794,-0.13 3.135,-0.249 6.147,0.322 3.764,0.712 5.152,1.28 7.335,0.394 1.727,-0.469 4.19,-4.416 1.643,-7.743 -0.912,-1.192 -3.225,-1.255 -4.169,-1.164 0.074,-0.552 1.102,-3.234 -1.29,-5.735 0,0 -1.581,-1.599 -4.047,-1.083 -2.571,0.539 -3.517,2.881 -4.116,8.797 z"
     fill="#429481"
     id="path65" />
  <path
     d="m 174.07848,155.55132 c -0.174,4.193 -0.738,5.447 -0.999,5.55 0.693,-0.156 2.749,-0.383 5.431,-0.039 3.353,0.431 4.605,0.858 6.482,-0.037 1.496,-0.503 3.459,-4.109 1.042,-6.906 -0.866,-1.002 -2.907,-0.936 -3.733,-0.807 0.036,-0.49 0.801,-2.905 -1.437,-4.983 0,0 -1.476,-1.326 -3.621,-0.742 -2.236,0.609 -2.947,2.722 -3.165,7.964 z"
     fill="#348b46"
     id="path66" />
  <path
     d="m 107.90648,124.99532 c -0.174,4.194 -0.739,5.448 -0.999,5.551 0.692,-0.157 2.748,-0.384 5.431,-0.039 3.353,0.431 4.605,0.858 6.481,-0.037 1.497,-0.503 3.46,-4.109 1.043,-6.906 -0.867,-1.002 -2.907,-0.936 -3.734,-0.807 0.037,-0.49 0.801,-2.905 -1.436,-4.983 0,0 -1.477,-1.326 -3.622,-0.742 -2.236,0.609 -2.947,2.722 -3.164,7.963 z"
     fill="#dc4c68"
     id="path67" />
  <path
     d="m 98.10248,153.91232 c -0.174,4.194 -0.738,5.448 -0.999,5.551 0.693,-0.157 2.749,-0.384 5.431,-0.039 3.353,0.431 4.605,0.858 6.482,-0.037 1.496,-0.503 3.459,-4.109 1.042,-6.906 -0.866,-1.002 -2.907,-0.936 -3.734,-0.807 0.037,-0.49 0.802,-2.905 -1.436,-4.983 0,0 -1.476,-1.326 -3.621,-0.742 -2.236,0.609 -2.947,2.722 -3.165,7.963 z"
     fill="#4aa4b8"
     id="path68" />
  <path
     d="m 152.54748,250.48032 c 2.11,2.613 2.433,3.666 2.331,3.865 0.334,-0.46 1.45,-1.682 3.245,-2.891 2.244,-1.512 3.223,-1.917 3.879,-3.446 0.634,-1.093 -0.09,-4.298 -3.021,-4.703 -1.05,-0.146 -2.242,0.972 -2.671,1.486 -0.237,-0.314 -1.053,-2.17 -3.496,-2.239 0,0 -1.588,-0.017 -2.57,1.467 -1.023,1.547 -0.335,3.193 2.303,6.461 z"
     fill="#000000"
     id="path69" />
  <path
     d="m 136.97548,281.85732 c 1.847,3.937 1.928,5.359 1.738,5.579 0.562,-0.476 2.342,-1.668 4.972,-2.635 3.287,-1.209 4.642,-1.416 5.938,-3.136 1.134,-1.179 1.212,-5.431 -2.347,-6.845 -1.276,-0.506 -3.119,0.531 -3.817,1.045 -0.201,-0.467 -0.654,-3.053 -3.705,-3.892 0,0 -1.991,-0.511 -3.683,1.052 -1.763,1.63 -1.405,3.911 0.904,8.832 z"
     fill="#73c5e7"
     id="path70" />
  <path
     d="m 166.30848,56.12082 c 0.176,5.2462 -0.411,6.8634 -0.726,7.0162 0.849,-0.2602 3.392,-0.7358 6.769,-0.5571 4.222,0.2234 5.824,0.6386 8.08,-0.653 1.82,-0.7681 3.93,-5.4484 0.654,-8.7105 -1.174,-1.1689 -3.713,-0.8955 -4.732,-0.6571 0,-0.6143 0.727,-3.6985 -2.258,-6.0808 0,0 -1.966,-1.515 -4.586,-0.5859 -2.732,0.9686 -3.421,3.6705 -3.201,10.2282 z"
     fill="#73c5e7"
     id="path71" />
  <path
     d="m 128.60848,82.99732 c 0.193,5.763 -0.452,7.539 -0.798,7.707 0.933,-0.286 3.726,-0.808 7.437,-0.612 4.638,0.246 6.397,0.702 8.876,-0.717 1.999,-0.844 4.317,-5.985 0.717,-9.569 -1.289,-1.2838 -4.078,-0.9835 -5.197,-0.7215 -0.001,-0.6749 0.798,-4.0629 -2.481,-6.68 0,0 -2.159,-1.6641 -5.038,-0.6435 -3.001,1.064 -3.757,4.0321 -3.516,11.236 z"
     fill="#dc4c68"
     id="path72" />
  <path
     d="m 160.76548,233.48032 c 4.631,8.656 4.955,11.838 4.538,12.348 1.248,-1.118 5.235,-3.956 11.2,-6.366 7.456,-3.014 10.557,-3.603 13.377,-7.579 2.501,-2.748 2.273,-12.289 -6.062,-15.129 -2.986,-1.018 -7.133,1.477 -8.692,2.695 -0.507,-1.03 -1.799,-6.785 -8.906,-8.385 0,0 -4.636,-0.963 -8.382,2.698 -3.906,3.816 -2.863,8.899 2.927,19.718 z"
     fill="#dc4c68"
     id="path73" />
  <path
     d="m 66.35538,257.71232 c 2.6553,4.98 2.8408,6.811 2.6016,7.104 0.7155,-0.643 3.0016,-2.276 6.4215,-3.663 4.2748,-1.734 6.0528,-2.072 7.6699,-4.36 1.4335,-1.581 1.3031,-7.071 -3.4755,-8.705 -1.7123,-0.585 -4.0898,0.85 -4.9833,1.551 -0.2907,-0.593 -1.0315,-3.904 -5.1062,-4.824 0,0 -2.6578,-0.554 -4.8059,1.552 -2.2393,2.196 -1.6413,5.12 1.6779,11.345 z"
     fill="#dc4c68"
     id="path74" />
  <path
     d="m 124.18348,70.78602 c -1.162,-1.3737 -1.027,-2.131 -1.223,-2.8219 -0.845,0.0718 -2.209,0.691 -3.093,0.4732 -0.98,-0.2418 -1.953,-0.7041 -3.326,-2.3276 -0.529,-0.6244 -1.457,-2.41 -1.066,-4.2409 0.446,-2.0837 1.44,-3.574 3.03,-5.1339 1.591,-1.5599 3.612,-2.8408 6.153,-3.2767 3.478,-0.5964 2.984,-0.6011 5.1,1.8996 0.739,0.8742 0.903,0.901 2.474,1.5491 2.384,0.983 2.37,4.6367 2.37,4.6367 0,0 -0.052,1.5439 -0.729,5.3305 -0.678,3.7865 -3.677,5.468 -4.916,5.6575 -1.546,0.2365 -2.966,0.3921 -4.774,-1.7456 z"
     fill="#8dcfea"
     id="path75" />
  <path
     d="m 121.60448,72.32472 c 0.193,-0.506 0.994,-3.4119 0.655,-3.1249 -0.618,0.9513 -1.156,2.349 -1.53,3.008 -0.468,0.8238 -0.626,1.5537 0.348,2.7051 0.422,0.4995 1.116,-0.5156 0.806,-1.1108 -0.309,-0.5952 -0.52,-0.845 -0.279,-1.4774 z"
     fill="#8dcfea"
     id="path76" />
  <g
     opacity="0.6"
     id="g78"
     transform="translate(-7.98352,-20.20568)">
    <path
       d="m 79.2458,166.819 c 2.5747,1.237 2.827,2.51 3.5384,3.428 1.227,-0.755 2.9053,-2.751 4.365,-3.088 1.6202,-0.374 3.362,-0.401 6.4049,1.061 1.1703,0.562 3.6417,2.614 4.1556,5.742 0.5848,3.56 -0.012,6.62 -1.4649,10.244 -1.4529,3.623 -3.7205,7.143 -7.28,9.755 -4.8701,3.572 -4.1251,3.203 -8.8123,0.951 -1.6385,-0.787 -1.9005,-0.704 -4.654,-0.507 -4.1766,0.298 -6.3563,-5.359 -6.3563,-5.359 0,0 -0.8512,-2.426 -2.1129,-8.794 -1.2617,-6.368 2.2367,-11.254 3.9847,-12.491 2.1826,-1.544 4.2252,-2.867 8.2318,-0.942 z"
       fill="#dc4c68"
       id="path77" />
    <path
       d="m 82.1973,162.475 c 0.0146,0.929 0.5595,6.031 0.8969,5.328 0.3566,-1.941 0.3239,-4.511 0.4892,-5.815 0.2067,-1.629 0.0057,-2.878 -2.1523,-3.915 -0.9363,-0.45 -1.3678,1.648 -0.544,2.332 0.8238,0.684 1.2919,0.908 1.3102,2.07 z"
       fill="#dc4c68"
       id="path78" />
  </g>
  <g
     opacity="0.6"
     id="g80"
     transform="translate(-7.98352,-20.20568)">
    <path
       d="m 75.3438,149.995 c -1.8818,-0.527 -2.2034,-1.355 -2.7918,-1.888 -0.7368,0.654 -1.6299,2.199 -2.5732,2.6 -1.047,0.444 -2.2172,0.67 -4.4412,0.047 -0.8553,-0.239 -2.7645,-1.327 -3.4828,-3.374 -0.8176,-2.328 -0.7798,-4.461 -0.2321,-7.075 0.5476,-2.614 1.6564,-5.256 3.7437,-7.438 2.8559,-2.987 2.3979,-2.65 5.8236,-1.69 1.1975,0.335 1.3641,0.248 3.1957,-0.212 2.7783,-0.698 4.9199,2.854 4.9199,2.854 0,0 0.8621,1.533 2.4699,5.673 1.6078,4.14 -0.1677,7.848 -1.1982,8.889 -1.2866,1.3 -2.5052,2.435 -5.4335,1.614 z"
       fill="#f7db32"
       id="path79" />
    <path
       d="m 73.8723,153.273 c -0.1204,-0.624 -1.0946,-3.996 -1.2383,-3.483 -0.0093,1.35 0.3186,3.078 0.3623,3.976 0.0547,1.122 0.3387,1.94 1.9159,2.381 0.6843,0.192 0.7254,-1.272 0.0891,-1.635 -0.6364,-0.363 -0.9785,-0.459 -1.129,-1.239 z"
       fill="#f7db32"
       id="path80" />
  </g>
  <path
     d="m 42.76068,216.67232 c -1.6739,-0.239 -2.0384,-0.948 -2.601,-1.356 -0.5638,0.685 -1.1674,2.195 -1.9357,2.676 -0.8528,0.534 -1.8348,0.886 -3.813,0.603 -0.7608,-0.109 -2.5178,-0.852 -3.3529,-2.613 -0.9505,-2.003 -1.1448,-3.937 -0.9519,-6.37 0.1928,-2.434 0.8652,-4.963 2.4275,-7.2 2.1376,-3.062 1.7797,-2.699 4.8268,-2.263 1.0652,0.152 1.1991,0.052 2.7249,-0.595 2.3143,-0.981 4.5331,1.962 4.5331,1.962 0,0 0.9041,1.277 2.7266,4.819 1.8224,3.543 0.6902,7.12 -0.085,8.192 -0.9678,1.338 -1.8948,2.518 -4.4994,2.145 z"
     fill="#f9d949"
     id="path81" />
  <path
     d="m 41.84408,219.82232 c -0.1698,-0.549 -1.3659,-3.476 -1.4349,-2.994 0.1356,1.223 0.6012,2.744 0.7342,3.55 0.1664,1.009 0.4975,1.712 1.9003,1.913 0.6087,0.087 0.4884,-1.243 -0.0973,-1.491 -0.5856,-0.247 -0.89,-0.291 -1.1023,-0.978 z"
     fill="#f9d949"
     id="path82" />
  <path
     d="m 153.14548,190.66732 c 1.679,0.015 2.132,0.668 2.74,0.998 0.464,-0.754 0.858,-2.331 1.551,-2.91 0.769,-0.643 1.689,-1.122 3.674,-1.105 0.763,0.006 2.591,0.509 3.645,2.142 1.201,1.859 1.647,3.75 1.779,6.187 0.132,2.438 -0.196,5.034 -1.438,7.459 -1.699,3.319 -1.395,2.912 -4.452,2.886 -1.068,-0.009 -1.187,0.108 -2.603,0.952 -2.148,1.281 -4.721,-1.34 -4.721,-1.34 0,0 -1.059,-1.146 -3.321,-4.413 -2.262,-3.268 -1.621,-6.965 -0.999,-8.13 0.776,-1.455 1.532,-2.748 4.145,-2.726 z"
     fill="#5e9f68"
     id="path83" />
  <path
     d="m 153.63148,187.42332 c 0.24,0.522 1.804,3.264 1.808,2.777 -0.295,-1.194 -0.954,-2.64 -1.192,-3.421 -0.297,-0.977 -0.716,-1.631 -2.123,-1.643 -0.611,-0.005 -0.317,1.297 0.293,1.465 0.609,0.167 0.914,0.17 1.214,0.822 z"
     fill="#5e9f68"
     id="path84" />
  <path
     d="m 50.00298,266.84132 c 2.1134,0.018 2.6828,0.841 3.4478,1.256 0.5846,-0.949 1.0811,-2.934 1.9529,-3.663 0.9676,-0.809 2.1257,-1.413 4.6234,-1.391 0.9606,0.008 3.261,0.641 4.5884,2.697 1.5107,2.339 2.0732,4.719 2.239,7.787 0.1659,3.068 -0.2464,6.335 -1.8097,9.388 -2.139,4.177 -1.7559,3.664 -5.6033,3.632 -1.345,-0.012 -1.4943,0.135 -3.2768,1.198 -2.7038,1.612 -5.9421,-1.686 -5.9421,-1.686 0,0 -1.3326,-1.443 -4.1796,-5.556 -2.8469,-4.112 -2.0394,-8.765 -1.2574,-10.231 0.9765,-1.832 1.9286,-3.459 5.2174,-3.431 z"
     fill="#dc4c68"
     id="path85" />
  <path
     d="m 50.61438,262.75832 c 0.3018,0.657 2.2705,4.108 2.2758,3.494 -0.3714,-1.502 -1.2013,-3.321 -1.5003,-4.305 -0.3737,-1.23 -0.9009,-2.052 -2.6723,-2.067 -0.7685,-0.007 -0.3983,1.632 0.3685,1.843 0.7668,0.211 1.151,0.214 1.5283,1.035 z"
     fill="#dc4c68"
     id="path86" />
  <path
     opacity="0.6"
     d="m 194.79148,240.22132 c 1.636,5.974 2.349,6.357 3.343,8.243 1.113,-1.17 3.127,-4.595 4.013,-8.346 1.046,-4.429 0.832,-2.672 0.994,-7.472 0.21,-6.195 -2.953,-12.261 -4.873,-15.095 -1.018,2.468 -3.196,5.457 -4.286,11.63 -0.225,1.277 -0.828,5.066 0.809,11.04 z"
     fill="#73c5e7"
     id="path87" />
  <path
     d="m 195.75648,144.62332 c 2.208,2.186 2.688,2.147 3.651,2.696 0.365,-0.851 0.742,-2.976 0.419,-4.914 -0.38,-2.287 -0.117,-1.439 -1.07,-3.632 -1.229,-2.83 -4.306,-4.608 -5.99,-5.307 -0.03,1.403 -0.593,3.382 0.142,6.462 0.152,0.637 0.64,2.508 2.848,4.695 z"
     fill="#040404"
     id="path88" />
  <path
     opacity="0.9"
     d="m 183.27448,130.50632 c -1.501,1.516 -1.474,1.845 -1.851,2.507 0.585,0.25 2.043,0.508 3.374,0.287 1.57,-0.262 0.988,-0.081 2.493,-0.735 1.943,-0.844 3.163,-2.957 3.643,-4.113 -0.963,-0.021 -2.322,-0.407 -4.436,0.098 -0.438,0.105 -1.722,0.44 -3.223,1.956 z"
     fill="#f7db32"
     id="path89" />
  <path
     opacity="0.9"
     d="m 28.93368,146.53032 c -2.5362,2.18 -2.5355,2.698 -3.2078,3.684 0.8818,0.465 3.1292,1.052 5.2357,0.873 2.4873,-0.211 1.5547,-0.002 3.9893,-0.835 3.1422,-1.075 5.3145,-4.223 6.2102,-5.969 -1.5031,-0.153 -3.5772,-0.927 -6.9451,-0.404 -0.6966,0.108 -2.7461,0.47 -5.2823,2.651 z"
     fill="#f7db32"
     id="path90" />
  <path
     d="m 47.80018,193.57832 c 0.519,6.151 1.2949,6.71 2.0423,8.781 1.6489,-0.816 4.9564,-3.543 6.9666,-6.886 2.3736,-3.948 1.6774,-2.328 3.064,-6.87 1.7895,-5.861 -0.5702,-12.514 -2.2133,-15.741 -1.8544,2.082 -5.2549,4.347 -8.1135,9.95 -0.5912,1.159 -2.2652,4.616 -1.7461,10.766 z"
     fill="#dc4c68"
     id="path91" />
  <path
     d="m 182.17048,16.20122 c -0.671,-3.5772 -0.977,-3.8216 -1.396,-4.9628 -0.489,0.6648 -1.383,2.6427 -1.791,4.8414 -0.481,2.5961 -0.377,1.5615 -0.478,4.3989 -0.13,3.6622 1.201,7.3321 2.015,9.0574 0.457,-1.4361 1.419,-3.1514 1.93,-6.7791 0.106,-0.7502 0.391,-2.9786 -0.28,-6.5558 z"
     fill="#000000"
     id="path92" />
  <path
     opacity="0.4"
     d="m 147.28248,214.97532 c -0.404,2.094 -0.199,2.353 -0.145,3.112 0.625,-0.116 1.982,-0.713 2.964,-1.636 1.16,-1.091 0.777,-0.617 1.664,-1.998 1.146,-1.781 0.985,-4.216 0.742,-5.443 -0.812,0.518 -2.156,0.952 -3.633,2.548 -0.306,0.329 -1.187,1.322 -1.592,3.417 z"
     fill="#348b46"
     id="path93" />
  <path
     d="m 128.03048,174.88432 c -1.782,4.026 -1.461,4.677 -1.681,6.257 1.374,0.139 4.508,-0.259 6.996,-1.55 2.937,-1.523 1.916,-0.789 4.404,-3.068 3.212,-2.942 3.947,-8.001 3.974,-10.65 -1.948,0.568 -4.984,0.643 -8.815,3.005 -0.792,0.488 -3.096,1.981 -4.878,6.006 z"
     fill="#000000"
     id="path94" />
  <path
     d="m 90.74578,93.51532 c 3.2437,4.406 4.0897,4.468 5.6147,5.686 0.867,-1.381 2.101,-4.974 2.07,-8.432 -0.038,-4.084 0.187,-2.537 -0.871,-6.611 -1.366,-5.2577 -6.2334,-9.189 -8.9713,-10.8653 -0.4352,2.433 -1.9538,5.7209 -1.5155,11.2793 0.0907,1.149 0.4291,4.537 3.6731,8.943 z"
     fill="#f7db32"
     id="path95" />
  <path
     opacity="0.4"
     d="m 146.72848,232.51732 c 0.564,3.283 1.092,3.581 1.656,4.686 1.048,-0.437 3.11,-1.896 4.301,-3.684 1.406,-2.11 1.011,-1.244 1.75,-3.67 0.955,-3.132 -0.831,-6.682 -2.023,-8.403 -1.136,1.113 -3.275,2.326 -4.938,5.321 -0.344,0.619 -1.311,2.466 -0.746,5.75 z"
     fill="#78b956"
     id="path96" />
  <path
     d="m 36.76908,183.07732 c 0.4255,1.746 0.6762,1.872 0.986,2.435 0.4432,-0.307 1.2834,-1.237 1.7187,-2.287 0.5141,-1.241 0.384,-0.744 0.5845,-2.111 0.2588,-1.765 -0.7246,-3.574 -1.3465,-4.43 -0.4464,0.681 -1.3343,1.482 -1.9155,3.22 -0.1202,0.359 -0.4528,1.427 -0.0272,3.173 z"
     fill="#73c5e7"
     id="path97" />
  <path
     d="m 35.18588,187.25632 c 1.7716,-0.302 1.9155,-0.543 2.4987,-0.812 -0.2754,-0.464 -1.1438,-1.368 -2.1608,-1.876 -1.2008,-0.6 -0.7145,-0.435 -2.0642,-0.732 -1.742,-0.382 -3.616,0.471 -4.5134,1.031 0.6475,0.493 1.3842,1.435 3.0762,2.138 0.35,0.145 1.3919,0.552 3.1635,0.251 z"
     fill="#73c5e7"
     id="path98" />
  <path
     d="m 40.67358,185.05732 c -1.5327,0.938 -1.5767,1.215 -2.0179,1.682 0.4279,0.328 1.5701,0.845 2.7031,0.939 1.3378,0.11 0.8251,0.138 2.1883,-0.088 1.7594,-0.293 3.182,-1.781 3.807,-2.635 -0.7844,-0.217 -1.8186,-0.818 -3.6504,-0.841 -0.3789,-0.005 -1.4974,0.005 -3.0301,0.943 z"
     fill="#73c5e7"
     id="path99" />
  <path
     d="m 39.54728,188.99132 c -0.9933,-1.498 -1.2721,-1.532 -1.7546,-1.956 -0.3124,0.44 -0.7867,1.6 -0.8394,2.736 -0.0622,1.341 -0.1086,0.829 0.1673,2.183 0.3561,1.748 1.8956,3.116 2.7713,3.709 0.1885,-0.792 0.7514,-1.847 0.7079,-3.678 -0.009,-0.379 -0.0591,-1.497 -1.0525,-2.994 z"
     fill="#73c5e7"
     id="path100" />
  <path
     d="m 26.02358,260.71032 c 2.3024,2.169 2.7938,2.116 3.7906,2.649 0.3594,-0.878 0.7076,-3.057 0.3431,-5.024 -0.4305,-2.324 -0.1462,-1.466 -1.1614,-3.676 -1.3102,-2.853 -4.4965,-4.58 -6.2351,-5.247 -0.006,1.433 -0.5481,3.467 0.26,6.589 0.1671,0.645 0.7005,2.54 3.0028,4.709 z"
     fill="#9bb5a0"
     id="path101" />
  <path
     d="m 27.69438,268.39632 c 2.3258,-2.144 2.3071,-2.638 2.9094,-3.595 -0.851,-0.42 -2.9995,-0.921 -4.9879,-0.696 -2.3479,0.265 -1.4721,0.042 -3.7484,0.899 -2.938,1.106 -4.8856,4.162 -5.6731,5.85 1.4286,0.107 3.4195,0.791 6.5903,0.205 0.6558,-0.121 2.5839,-0.52 4.9097,-2.663 z"
     fill="#9bb5a0"
     id="path102" />
  <path
     d="m 33.68658,259.88832 c -1.3624,2.854 -1.1615,3.306 -1.365,4.418 0.9463,0.074 3.127,-0.259 4.8894,-1.207 2.081,-1.12 1.3508,-0.587 3.1457,-2.228 2.3165,-2.119 2.9885,-5.68 3.0925,-7.54 -1.3661,0.432 -3.4686,0.537 -6.1945,2.259 -0.5637,0.357 -2.2056,1.443 -3.5681,4.298 z"
     fill="#9bb5a0"
     id="path103" />
  <path
     d="m 35.79568,266.77432 c -2.9023,-1.257 -3.3462,-1.04 -4.465,-1.203 -0.0396,0.948 0.373,3.115 1.3843,4.842 1.1941,2.039 0.6353,1.329 2.341,3.063 2.2014,2.238 5.7849,2.78 7.6466,2.816 -0.481,-1.349 -0.6622,-3.447 -2.4827,-6.108 -0.3765,-0.551 -1.522,-2.152 -4.4242,-3.41 z"
     fill="#9bb5a0"
     id="path104" />
  <path
     d="m 53.85998,248.18732 c 0.335,1.375 0.5323,1.474 0.7763,1.917 0.3489,-0.242 1.0103,-0.974 1.3531,-1.801 0.4047,-0.976 0.3023,-0.585 0.4601,-1.661 0.2038,-1.39 -0.5704,-2.814 -1.0601,-3.488 -0.3514,0.536 -1.0504,1.167 -1.508,2.535 -0.0947,0.283 -0.3565,1.123 -0.0214,2.498 z"
     fill="#f7db32"
     id="path105" />
  <path
     d="m 52.61368,251.47732 c 1.3947,-0.237 1.5081,-0.427 1.9672,-0.639 -0.2168,-0.365 -0.9006,-1.077 -1.7012,-1.477 -0.9453,-0.473 -0.5625,-0.343 -1.6251,-0.576 -1.3715,-0.301 -2.8469,0.37 -3.5534,0.811 0.5097,0.389 1.0898,1.13 2.4219,1.683 0.2755,0.115 1.0958,0.435 2.4906,0.198 z"
     fill="#f7db32"
     id="path106" />
  <path
     d="m 56.93418,249.74632 c -1.2066,0.738 -1.2413,0.957 -1.5887,1.324 0.3369,0.259 1.2361,0.665 2.1282,0.739 1.0532,0.087 0.6496,0.109 1.7228,-0.069 1.3852,-0.23 2.5052,-1.402 2.9972,-2.074 -0.6175,-0.171 -1.4317,-0.644 -2.8739,-0.663 -0.2983,-0.003 -1.1789,0.004 -2.3856,0.743 z"
     fill="#f7db32"
     id="path107" />
  <path
     d="m 56.04738,252.84332 c -0.7821,-1.179 -1.0015,-1.206 -1.3814,-1.54 -0.246,0.347 -0.6194,1.26 -0.6608,2.154 -0.049,1.056 -0.0855,0.653 0.1317,1.719 0.2804,1.376 1.4924,2.453 2.1818,2.92 0.1484,-0.623 0.5916,-1.454 0.5573,-2.896 -0.0071,-0.298 -0.0465,-1.178 -0.8286,-2.357 z"
     fill="#f7db32"
     id="path108" />
  <path
     d="m 23.61328,280.14832 c 1.7746,0.944 2.0669,0.829 2.7674,0.99 0.0734,-0.599 -0.0776,-1.993 -0.6303,-3.139 -0.6526,-1.352 -0.3348,-0.874 -1.327,-2.059 -1.2807,-1.53 -3.5233,-2.056 -4.7009,-2.174 0.2359,0.88 0.2439,2.218 1.2616,3.996 0.2105,0.368 0.8546,1.441 2.6292,2.386 z"
     fill="#f7db32"
     id="path109" />
  <path
     d="m 25.92368,284.58132 c 1.0674,-1.704 0.9733,-2.004 1.1825,-2.691 -0.5921,-0.115 -1.9933,-0.063 -3.1748,0.408 -1.3952,0.555 -0.8956,0.272 -2.148,1.178 -1.6164,1.17 -2.2992,3.37 -2.4998,4.536 0.8939,-0.173 2.2291,-0.087 4.0752,-0.977 0.3819,-0.184 1.4974,-0.751 2.5649,-2.454 z"
     fill="#f7db32"
     id="path110" />
  <path
     d="m 28.17368,278.36232 c -0.3578,1.978 -0.1591,2.221 -0.0978,2.937 0.5926,-0.113 1.8739,-0.682 2.796,-1.558 1.0887,-1.034 0.7301,-0.586 1.556,-1.893 1.0659,-1.686 0.8822,-3.982 0.6349,-5.14 -0.7654,0.494 -2.0371,0.91 -3.4203,2.422 -0.2861,0.313 -1.111,1.253 -1.4688,3.232 z"
     fill="#f7db32"
     id="path111" />
  <path
     d="m 30.61978,282.23132 c -1.9899,-0.285 -2.2258,-0.078 -2.9391,0.009 0.1345,0.588 0.75,1.848 1.659,2.738 1.0733,1.05 0.6118,0.708 1.9478,1.486 1.7242,1.004 4.0122,0.737 5.1597,0.447 -0.5206,-0.747 -0.9827,-2.002 -2.5442,-3.329 -0.3229,-0.275 -1.2932,-1.065 -3.2832,-1.351 z"
     fill="#f7db32"
     id="path112" />
  <path
     d="m 183.11448,168.91132 c -0.431,2.739 -0.108,3.101 0.031,4.113 0.91,-0.095 2.857,-0.758 4.228,-1.89 1.62,-1.336 1.093,-0.745 2.289,-2.491 1.544,-2.255 1.117,-5.498 0.662,-7.149 -1.153,0.611 -3.094,1.06 -5.14,3.036 -0.423,0.408 -1.64,1.641 -2.07,4.381 z"
     fill="#4aa4b8"
     id="path113" />
  <path
     d="m 177.89748,173.52532 c 3.044,0.904 3.43,0.677 4.54,0.739 -0.147,-0.849 -0.967,-2.75 -2.28,-4.214 -1.549,-1.729 -0.872,-1.138 -2.855,-2.556 -2.56,-1.831 -6.121,-2.046 -7.924,-1.939 0.728,1.168 1.312,3.024 3.587,5.261 0.47,0.463 1.887,1.805 4.932,2.709 z"
     fill="#4aa4b8"
     id="path114" />
  <path
     d="m 188.13548,174.57232 c -3.066,0.157 -3.314,0.509 -4.322,0.827 0.479,0.775 1.988,2.343 3.751,3.319 2.083,1.152 1.24,0.808 3.579,1.511 3.019,0.908 6.26,-0.095 7.811,-0.813 -1.124,-0.886 -2.405,-2.492 -5.339,-3.891 -0.607,-0.289 -2.413,-1.111 -5.48,-0.953 z"
     fill="#4aa4b8"
     id="path115" />
  <path
     d="m 183.81048,179.18732 c -0.643,-2.818 -1.07,-3.074 -1.576,-4.022 -0.783,0.377 -2.288,1.632 -3.098,3.168 -0.957,1.813 -0.705,1.07 -1.126,3.154 -0.543,2.689 1.062,5.735 2.092,7.212 0.81,-0.958 2.39,-2.001 3.49,-4.574 0.227,-0.532 0.86,-2.12 0.218,-4.938 z"
     fill="#4aa4b8"
     id="path116" />
  <path
     d="m 169.31248,129.02632 c -0.688,4.217 -0.257,4.727 -0.101,6.246 1.256,-0.261 3.958,-1.518 5.886,-3.413 2.276,-2.238 1.53,-1.271 3.238,-4.078 2.204,-3.623 1.73,-8.497 1.163,-10.947 -1.609,1.076 -4.297,2.006 -7.181,5.27 -0.597,0.675 -2.316,2.705 -3.005,6.922 z"
     fill="#dc4c68"
     id="path117" />
  <path
     d="m 161.97048,136.70532 c 4.159,0.985 4.697,0.59 6.224,0.542 -0.172,-1.271 -1.235,-4.055 -2.99,-6.112 -2.072,-2.428 -1.16,-1.616 -3.84,-3.517 -3.459,-2.454 -8.353,-2.325 -10.838,-1.932 0.96,1.681 1.699,4.427 4.752,7.535 0.631,0.642 2.534,2.5 6.692,3.484 z"
     fill="#dc4c68"
     id="path118" />
  <path
     d="m 176.02548,136.98432 c -4.226,0.632 -4.58,1.199 -5.979,1.811 0.632,1.116 2.654,3.306 5.047,4.563 2.826,1.484 1.678,1.069 4.872,1.838 4.123,0.993 8.619,-0.946 10.779,-2.235 -1.515,-1.203 -3.222,-3.478 -7.211,-5.229 -0.825,-0.362 -3.282,-1.379 -7.508,-0.748 z"
     fill="#dc4c68"
     id="path119" />
  <path
     d="m 169.90848,144.55132 c -0.785,-4.2 -1.363,-4.533 -2.026,-5.909 -1.092,0.673 -3.207,2.773 -4.376,5.21 -1.381,2.878 -1.008,1.715 -1.66,4.936 -0.843,4.156 1.259,8.579 2.625,10.691 1.148,-1.559 3.359,-3.347 4.963,-7.397 0.332,-0.837 1.259,-3.33 0.474,-7.531 z"
     fill="#dc4c68"
     id="path120" />
  <path
     d="m 195.68948,257.85332 c 2.328,0.863 2.667,0.674 3.551,0.754 -0.009,-0.745 -0.424,-2.427 -1.29,-3.738 -1.023,-1.547 -0.555,-1.014 -1.965,-2.301 -1.821,-1.661 -4.653,-1.934 -6.114,-1.884 0.434,1.038 0.665,2.674 2.205,4.683 0.318,0.416 1.284,1.623 3.613,2.486 z"
     fill="#b9d3bd"
     id="path121" />
  <path
     d="m 199.25048,262.89732 c 1.025,-2.262 0.86,-2.613 1.003,-3.489 -0.744,-0.044 -2.451,0.252 -3.82,1.024 -1.616,0.91 -1.051,0.481 -2.434,1.798 -1.786,1.699 -2.258,4.505 -2.31,5.966 1.065,-0.36 2.714,-0.475 4.827,-1.87 0.437,-0.288 1.709,-1.167 2.734,-3.429 z"
     fill="#b9d3bd"
     id="path122" />
  <path
     d="m 200.97648,254.91232 c -0.111,2.481 0.173,2.746 0.366,3.612 0.707,-0.236 2.182,-1.145 3.165,-2.37 1.162,-1.446 0.797,-0.837 1.592,-2.574 1.026,-2.241 0.422,-5.021 -0.072,-6.397 -0.856,0.73 -2.344,1.45 -3.787,3.53 -0.299,0.43 -1.153,1.718 -1.264,4.199 z"
     fill="#b9d3bd"
     id="path123" />
  <path
     d="m 204.61048,259.24532 c -2.483,-0.021 -2.738,0.272 -3.596,0.497 0.262,0.698 1.223,2.138 2.483,3.077 1.488,1.108 0.866,0.766 2.63,1.497 2.277,0.944 5.034,0.238 6.391,-0.305 -0.761,-0.829 -1.534,-2.289 -3.665,-3.656 -0.441,-0.283 -1.76,-1.09 -4.243,-1.11 z"
     fill="#b9d3bd"
     id="path124" />
  <path
     d="m 104.45948,300.42732 c 1.745,-0.739 1.834,-1.021 2.367,-1.439 -0.395,-0.409 -1.505,-1.126 -2.672,-1.401 -1.378,-0.325 -0.839,-0.274 -2.296,-0.251 -1.88,0.03 -3.596,1.36 -4.382,2.152 0.784,0.349 1.769,1.138 3.675,1.448 0.395,0.065 1.563,0.23 3.308,-0.509 z"
     fill="#1792c5"
     id="path125" />
  <path
     d="m 109.76048,301.92932 c -0.614,-1.792 -0.89,-1.901 -1.269,-2.463 -0.436,0.365 -1.229,1.422 -1.586,2.567 -0.421,1.351 -0.332,0.817 -0.412,2.272 -0.103,1.878 1.103,3.684 1.838,4.523 0.403,-0.757 1.259,-1.684 1.703,-3.564 0.092,-0.389 0.339,-1.542 -0.274,-3.335 z"
     fill="#1792c5"
     id="path126" />
  <path
     d="m 105.81048,296.08532 c 1.237,1.436 1.533,1.435 2.093,1.815 0.269,-0.501 0.613,-1.777 0.519,-2.972 -0.111,-1.411 0.004,-0.882 -0.462,-2.263 -0.603,-1.781 -2.393,-3.01 -3.387,-3.516 -0.093,0.854 -0.544,2.032 -0.257,3.942 0.059,0.395 0.258,1.558 1.494,2.994 z"
     fill="#1792c5"
     id="path127" />
  <path
     d="m 110.81948,297.10632 c -1.391,1.287 -1.379,1.583 -1.738,2.157 0.51,0.251 1.798,0.548 2.989,0.41 1.406,-0.162 0.882,-0.027 2.244,-0.544 1.759,-0.667 2.921,-2.5 3.391,-3.512 -0.856,-0.062 -2.05,-0.469 -3.949,-0.114 -0.392,0.074 -1.547,0.315 -2.937,1.603 z"
     fill="#1792c5"
     id="path128" />
  <path
     d="m 122.77448,19.98172 c 2.914,1.0908 3.304,0.8874 4.384,1.017 -0.09,-0.8581 -0.77,-2.8108 -1.958,-4.3557 -1.403,-1.8243 -0.779,-1.1911 -2.625,-2.7315 -2.382,-1.9882 -5.844,-2.4213 -7.609,-2.4245 0.636,1.2124 1.088,3.1056 3.167,5.4827 0.43,0.4917 1.728,1.9211 4.641,3.012 z"
     fill="#dc4c68"
     id="path129" />
  <path
     d="m 127.62448,25.93622 c 1.003,-2.5603 0.766,-2.9716 0.847,-3.9739 -0.907,-0.0811 -2.944,0.1876 -4.521,1.0181 -1.863,0.9806 -1.223,0.5101 -2.761,1.9672 -1.985,1.8806 -2.261,5.0903 -2.17,6.7695 1.253,-0.3697 3.239,-0.4329 5.653,-1.9493 0.499,-0.3136 1.948,-1.2712 2.952,-3.8316 z"
     fill="#dc4c68"
     id="path130" />
  <path
     d="m 128.87348,16.81702 c 0.128,2.8506 0.5,3.1674 0.825,4.1726 0.832,-0.2423 2.523,-1.2264 3.586,-2.5949 1.256,-1.6159 0.878,-0.9307 1.658,-2.8957 1.007,-2.5361 -0.019,-5.7615 -0.763,-7.3658 -0.96,0.8047 -2.688,1.5704 -4.217,3.9038 -0.317,0.4825 -1.216,1.9293 -1.089,4.78 z"
     fill="#dc4c68"
     id="path131" />
  <path
     d="m 133.73348,21.95762 c -3.012,-0.1278 -3.289,0.1987 -4.306,0.4213 0.39,0.814 1.708,2.5122 3.334,3.6453 1.92,1.338 1.131,0.9179 3.346,1.8335 2.859,1.1817 6.126,0.4855 7.713,-0.0834 -1.01,-0.9853 -2.101,-2.6989 -4.828,-4.3611 -0.564,-0.3438 -2.247,-1.3278 -5.259,-1.4556 z"
     fill="#dc4c68"
     id="path132" />
  <path
     d="m 136.79948,111.03432 c 0.696,1.861 0.988,1.967 1.402,2.544 0.446,-0.396 1.247,-1.527 1.587,-2.737 0.402,-1.429 0.324,-0.867 0.365,-2.394 0.052,-1.972 -1.265,-3.829 -2.06,-4.687 -0.401,0.806 -1.271,1.802 -1.681,3.786 -0.084,0.41 -0.309,1.627 0.387,3.488 z"
     fill="#f9db2f"
     id="path133" />
  <path
     d="m 135.61048,115.82932 c 1.906,-0.563 2.032,-0.847 2.637,-1.219 -0.363,-0.473 -1.435,-1.351 -2.618,-1.776 -1.397,-0.501 -0.842,-0.384 -2.363,-0.533 -1.962,-0.191 -3.908,0.992 -4.82,1.725 0.776,0.456 1.709,1.394 3.658,1.943 0.404,0.113 1.601,0.424 3.506,-0.14 z"
     fill="#f9db2f"
     id="path134" />
  <path
     d="m 141.34848,112.69532 c -1.56,1.231 -1.572,1.541 -1.995,2.112 0.513,0.304 1.835,0.721 3.091,0.675 1.484,-0.054 0.924,0.044 2.391,-0.384 1.893,-0.552 3.26,-2.373 3.834,-3.392 -0.89,-0.135 -2.104,-0.659 -4.118,-0.444 -0.417,0.044 -1.644,0.201 -3.203,1.433 z"
     fill="#f9db2f"
     id="path135" />
  <path
     d="m 140.62648,117.16232 c -1.287,-1.514 -1.598,-1.515 -2.183,-1.917 -0.286,0.524 -0.654,1.86 -0.563,3.113 0.108,1.481 -0.01,0.926 0.471,2.376 0.62,1.872 2.49,3.171 3.529,3.708 0.103,-0.894 0.583,-2.127 0.294,-4.132 -0.059,-0.414 -0.261,-1.635 -1.548,-3.148 z"
     fill="#f9db2f"
     id="path136" />
  <g
     opacity="0.6"
     id="g140"
     transform="translate(-7.98352,-20.20568)">
    <path
       d="m 174.731,34.9468 c 1.187,1.1688 1.446,1.1463 1.965,1.4388 0.199,-0.4584 0.408,-1.6013 0.239,-2.6414 -0.2,-1.2283 -0.06,-0.7733 -0.569,-1.9488 -0.656,-1.5172 -2.314,-2.4638 -3.221,-2.835 -0.02,0.7542 -0.329,1.8188 0.06,3.4718 0.08,0.3418 0.339,1.3459 1.526,2.5146 z"
       fill="#f7db32"
       id="path137" />
    <path
       d="m 175.521,39.0123 c 1.249,-1.1015 1.245,-1.3618 1.573,-1.8585 -0.443,-0.2312 -1.568,-0.52 -2.618,-0.4248 -1.239,0.1124 -0.775,0.0052 -1.984,0.4298 -1.559,0.548 -2.62,2.1345 -3.055,3.0137 0.751,0.073 1.791,0.4564 3.468,0.1848 0.346,-0.0561 1.366,-0.2434 2.616,-1.345 z"
       fill="#f7db32"
       id="path138" />
    <path
       d="m 178.775,34.6025 c -0.75,1.487 -0.65,1.7271 -0.77,2.3103 0.497,0.0499 1.649,-0.1002 2.588,-0.5787 1.109,-0.5649 0.718,-0.2931 1.682,-1.1364 1.245,-1.0884 1.64,-2.9556 1.717,-3.9332 -0.725,0.2113 -1.833,0.2419 -3.288,1.1171 -0.301,0.1809 -1.178,0.7338 -1.929,2.2209 z"
       fill="#f7db32"
       id="path139" />
    <path
       d="m 179.804,38.2533 c -1.513,-0.696 -1.749,-0.5868 -2.336,-0.6857 -0.032,0.4989 0.16,1.6447 0.672,2.5656 0.605,1.0874 0.319,0.7069 1.197,1.6397 1.133,1.204 3.013,1.5312 3.993,1.572 -0.238,-0.7161 -0.309,-1.8224 -1.236,-3.2449 -0.192,-0.2942 -0.776,-1.1506 -2.29,-1.8467 z"
       fill="#f7db32"
       id="path140" />
  </g>
  <g
     opacity="0.1"
     id="g144"
     transform="translate(-7.98352,-20.20568)">
    <path
       d="m 180.746,287.982 c 0.16,0.659 0.255,0.707 0.372,0.919 0.167,-0.116 0.484,-0.467 0.648,-0.863 0.194,-0.468 0.145,-0.281 0.221,-0.797 0.097,-0.666 -0.274,-1.348 -0.508,-1.671 -0.169,0.257 -0.504,0.559 -0.723,1.215 -0.045,0.135 -0.171,0.538 -0.01,1.197 z"
       fill="#73c5e7"
       id="path141" />
    <path
       d="m 180.148,289.559 c 0.669,-0.114 0.723,-0.205 0.943,-0.307 -0.104,-0.175 -0.432,-0.516 -0.815,-0.707 -0.453,-0.227 -0.27,-0.165 -0.779,-0.277 -0.657,-0.144 -1.364,0.178 -1.703,0.389 0.244,0.187 0.522,0.542 1.161,0.807 0.132,0.055 0.525,0.208 1.193,0.095 z"
       fill="#73c5e7"
       id="path142" />
    <path
       d="m 182.219,288.729 c -0.578,0.354 -0.595,0.459 -0.761,0.635 0.161,0.124 0.592,0.318 1.02,0.354 0.504,0.042 0.311,0.052 0.825,-0.033 0.664,-0.111 1.201,-0.672 1.437,-0.994 -0.296,-0.082 -0.686,-0.309 -1.378,-0.318 -0.143,-0.002 -0.565,0.002 -1.143,0.356 z"
       fill="#73c5e7"
       id="path143" />
    <path
       d="m 181.794,290.213 c -0.375,-0.565 -0.48,-0.578 -0.662,-0.737 -0.118,0.165 -0.297,0.603 -0.317,1.032 -0.023,0.506 -0.041,0.313 0.063,0.824 0.135,0.659 0.715,1.175 1.046,1.399 0.071,-0.299 0.283,-0.697 0.267,-1.388 -0.003,-0.143 -0.022,-0.565 -0.397,-1.13 z"
       fill="#73c5e7"
       id="path144" />
  </g>
  <g
     opacity="0.8"
     id="g148"
     transform="translate(-7.98352,-20.20568)">
    <path
       d="m 122.439,115.275 c 1.671,3.571 2.265,3.735 3.174,4.811 0.82,-0.853 2.225,-3.216 2.707,-5.663 0.569,-2.889 0.504,-1.765 0.343,-4.792 -0.206,-3.906 -3.104,-7.371 -4.811,-8.943 -0.666,1.657 -2.228,3.764 -2.727,7.752 -0.103,0.824 -0.356,3.265 1.314,6.835 z"
       fill="#78b956"
       id="path145" />
    <path
       d="m 120.843,124.946 c 3.679,-1.415 3.884,-1.995 5.022,-2.827 -0.793,-0.878 -3.052,-2.445 -5.458,-3.099 -2.842,-0.771 -1.725,-0.627 -4.756,-0.68 -3.911,-0.069 -7.572,2.576 -9.259,4.169 1.605,0.78 3.597,2.488 7.539,3.266 0.816,0.161 3.232,0.585 6.912,-0.829 z"
       fill="#78b956"
       id="path146" />
    <path
       d="m 131.694,117.844 c -2.89,2.68 -2.865,3.296 -3.612,4.49 1.062,0.521 3.742,1.137 6.219,0.849 2.925,-0.34 1.834,-0.059 4.668,-1.136 3.657,-1.389 6.072,-5.206 7.047,-7.312 -1.781,-0.127 -4.265,-0.972 -8.214,-0.23 -0.817,0.154 -3.218,0.658 -6.108,3.339 z"
       fill="#78b956"
       id="path147" />
    <path
       d="m 130.974,126.79 c -2.784,-2.79 -3.398,-2.743 -4.619,-3.446 -0.482,1.081 -1,3.781 -0.622,6.246 0.446,2.91 0.125,1.831 1.304,4.623 1.522,3.604 5.424,5.879 7.564,6.777 0.063,-1.785 0.817,-4.298 -0.069,-8.217 -0.183,-0.811 -0.774,-3.192 -3.558,-5.983 z"
       fill="#78b956"
       id="path148" />
  </g>
  <g
     opacity="0.8"
     id="g152"
     transform="translate(-7.98352,-20.20568)">
    <path
       d="m 102.192,194.988 c 2.228,1.152 2.566,1.022 3.422,1.226 0.023,-0.705 -0.309,-2.354 -1.095,-3.718 -0.928,-1.61 -0.496,-1.039 -1.813,-2.458 -1.699,-1.833 -4.4428,-2.5 -5.8662,-2.664 0.378,1.043 0.5325,2.623 1.9443,4.744 0.292,0.438 1.1798,1.718 3.4079,2.87 z"
       fill="#4aa4b8"
       id="path149" />
    <path
       d="m 105.439,200.27 c 1.094,-1.989 0.949,-2.345 1.125,-3.152 -0.722,-0.148 -2.395,-0.116 -3.759,0.416 -1.611,0.627 -1.043,0.303 -2.445,1.346 -1.81,1.348 -2.3896,3.931 -2.5035,5.303 1.052,-0.186 2.6605,-0.056 4.7755,-1.069 0.438,-0.209 1.713,-0.855 2.807,-2.844 z"
       fill="#4aa4b8"
       id="path150" />
    <path
       d="m 107.461,192.974 c -0.214,2.328 0.05,2.62 0.201,3.466 0.698,-0.121 2.171,-0.767 3.18,-1.782 1.192,-1.198 0.812,-0.676 1.659,-2.201 1.094,-1.969 0.625,-4.684 0.204,-6.055 -0.864,0.566 -2.342,1.031 -3.835,2.788 -0.309,0.363 -1.195,1.457 -1.409,3.784 z"
       fill="#4aa4b8"
       id="path151" />
    <path
       d="m 110.81,197.593 c -2.415,-0.378 -2.675,-0.138 -3.52,-0.05 0.225,0.697 1.099,2.197 2.284,3.266 1.399,1.262 0.809,0.849 2.494,1.795 2.174,1.22 4.886,0.952 6.229,0.635 -0.704,-0.893 -1.394,-2.385 -3.408,-3.984 -0.417,-0.331 -1.665,-1.284 -4.079,-1.662 z"
       fill="#4aa4b8"
       id="path152" />
  </g>
  <path
     d="m 44.18968,133.40832 c 0.8992,3.368 1.3906,3.603 2.0153,4.681 0.8463,-0.615 2.4362,-2.454 3.236,-4.509 0.9444,-2.427 0.7131,-1.458 1.044,-4.118 0.427,-3.433 -1.5565,-6.9 -2.7989,-8.533 -0.8367,1.339 -2.5245,2.931 -3.5781,6.324 -0.2179,0.702 -0.8175,2.787 0.0817,6.155 z"
     fill="#73c5e7"
     id="path153" />
  <path
     d="m 41.29508,141.57932 c 3.4228,-0.66 3.6917,-1.133 4.8111,-1.681 -0.5535,-0.887 -2.276,-2.603 -4.2696,-3.545 -2.354,-1.113 -1.404,-0.814 -4.0339,-1.332 -3.3943,-0.668 -6.9922,1.066 -8.7088,2.19 1.2765,0.929 2.7451,2.725 6.056,4.015 0.6848,0.267 2.7225,1.012 6.1452,0.353 z"
     fill="#73c5e7"
     id="path154" />
  <path
     d="m 51.84508,137.08232 c -2.9325,1.885 -3.0061,2.424 -3.842,3.348 0.8438,0.618 3.0805,1.571 5.2817,1.705 2.599,0.159 1.606,0.234 4.2399,-0.263 3.3995,-0.641 6.095,-3.588 7.2709,-5.27 -1.5304,-0.388 -3.5612,-1.509 -7.1145,-1.477 -0.7349,0.007 -2.9036,0.073 -5.836,1.957 z"
     fill="#73c5e7"
     id="path155" />
  <path
     d="m 49.82708,144.75932 c -1.9898,-2.862 -2.5318,-2.916 -3.4855,-3.718 -0.5872,0.866 -1.4577,3.136 -1.5118,5.34 -0.0638,2.603 -0.1754,1.614 0.417,4.228 0.7646,3.374 3.8079,5.96 5.5311,7.074 0.3322,-1.543 1.379,-3.614 1.217,-7.163 -0.0335,-0.735 -0.1779,-2.899 -2.1678,-5.761 z"
     fill="#73c5e7"
     id="path156" />
  <path
     d="m 62.22798,90.79432 c -2.2979,1.702 -2.8671,4.698 -2.8671,4.698 0,0 -1.5069,3.441 0.4405,5.478 2.2269,2.33 2.8654,1.898 4.7848,3.009 1.5942,0.924 4.1675,2.25 4.1675,2.25 0,0 2.183,0.63 3.594,3.189 1.4111,2.559 4.1014,2.579 4.1014,2.579 0,0 3.0651,0.071 0.8381,-2.259 -0.9662,-1.01 -3.0429,-2.099 -4.6525,-3.669 -1.6096,-1.569 -2.0225,-1.883 -1.0362,-2.509 0.8821,-0.559 5.1158,1.36 5.1158,1.36 l 6.0418,2.5 c 0,0 2.245,1.412 3.6825,0.829 1.257,-0.509 0.3971,-1.979 0.3971,-1.979 0,0 -0.6173,-0.76 -2.8665,-1.06 -2.2492,-0.3 -5.3583,-2.069 -6.7916,-2.599 -1.4333,-0.53 -0.2993,-2.175 1.0807,-1.55 1.0584,0.48 2.7081,1.378 5.7993,1.79 1.8743,0.25 1.6758,1.24 4.9834,2.02 0.451,0.106 0.8185,0.086 1.257,-0.51 0.5758,-0.783 -0.1618,-1.719 -0.7275,-2.129 -1.5096,-1.095 -4.6747,-1.64 -4.6747,-1.64 -1.8082,-0.58 -5.182,-1.03 -5.182,-1.03 -2.6507,-0.354 -2.4917,-1.01 -2.4917,-1.01 0,0 0.1986,-0.989 2.4478,-0.689 l 7.4973,1 c 2.9989,0.4 2.9327,0.73 3.8149,0.17 0.8821,-0.56 0.9278,-1.274 0.3309,-1.649 -0.6836,-0.43 -3.6163,-1.16 -4.8071,-0.98 -0.842,0.127 -6.4389,-0.521 -9.063,-0.871 -2.624,-0.35 -2.5578,-0.68 -3.925,-1.539 -1.3671,-0.86 -1.2826,-3.734 -2.5133,-4.739 -1.9845,-1.619 -4.8733,-0.65 -4.8733,-0.65 0,0 -1.1908,0.18 -3.9033,2.189 z"
     fill="#0a0b0b"
     id="path157" />
  <path
     d="m 75.98408,84.10732 c -1.8172,1.383 -3.3301,3.169 -3.8594,3.888 0.3086,0.381 3.4489,-0.691 4.4545,-1.099 1.2569,-0.51 1.3098,-0.773 2.5668,-1.283 2.4478,-0.69 0.234,-3.085 -0.5819,-2.855 -1.6318,0.46 -0.7629,-0.034 -2.58,1.349 z"
     fill="#0a0b0b"
     id="path158" />
</svg>
